<?xml version="1.0" encoding="utf-8"?>
<!-- Generator: Adobe Illustrator 17.0.0, SVG Export Plug-In . SVG Version: 6.00 Build 0)  -->
<!DOCTYPE svg PUBLIC "-//W3C//DTD SVG 1.1//EN" "http://www.w3.org/Graphics/SVG/1.1/DTD/svg11.dtd">
<svg version="1.1" id="Calque_1" xmlns="http://www.w3.org/2000/svg" xmlns:xlink="http://www.w3.org/1999/xlink" x="0px" y="0px"
	 width="60px" height="60px" viewBox="0 0 60 60" enable-background="new 0 0 60 60" xml:space="preserve">
<g>
	<path fill="#343434" d="M40.574,16.173c-3.082-3.081-7.123-4.621-11.168-4.624L29.38,27.366L40.574,16.173z"/>
</g>
<polygon fill="#8DC04E" points="50.926,42.5 50.926,36.274 43.162,36.274 43.162,28.509 36.937,28.509 36.937,36.274 29.172,36.274 
	29.172,42.5 36.937,42.5 36.937,50.265 43.162,50.265 43.162,42.5 "/>
<path fill="#343434" d="M36.937,28.509h6.225v7.764h0.753c1.1-2.157,1.734-4.591,1.735-7.178c0.001-4.361-1.761-8.309-4.612-11.173
	L29.824,29.137l7.113,7.113V28.509z"/>
<path fill="#343434" d="M29.172,42.5v-6.226h5.707l-6.986-6.986c0,0-0.004-15.437-0.002-15.779
	c-2.735,0.026-7.346,0.733-11.195,4.581c-5.892,5.892-6.192,16.218-0.007,22.403c5.418,5.418,13.786,6.086,19.939,2.007H29.172z"/>
</svg>
