<?xml version="1.0" encoding="utf-8"?>
<!-- Generator: Adobe Illustrator 17.0.0, SVG Export Plug-In . SVG Version: 6.00 Build 0)  -->
<!DOCTYPE svg PUBLIC "-//W3C//DTD SVG 1.1//EN" "http://www.w3.org/Graphics/SVG/1.1/DTD/svg11.dtd">
<svg version="1.1" id="Calque_1" xmlns="http://www.w3.org/2000/svg" xmlns:xlink="http://www.w3.org/1999/xlink" x="0px" y="0px"
	 width="60px" height="60px" viewBox="0 0 60 60" enable-background="new 0 0 60 60" xml:space="preserve">
<g>
	<polygon fill-rule="evenodd" clip-rule="evenodd" fill="#FFFFFF" points="36.09,41.213 28.679,41.213 28.679,35.27 36.09,35.27 
		36.09,27.86 42.031,27.86 42.031,35.27 44.164,35.27 44.164,11.27 12.257,11.27 12.257,43.178 36.09,43.178 	"/>
	<rect x="42.031" y="41.213" fill-rule="evenodd" clip-rule="evenodd" fill="#FFFFFF" width="2.133" height="1.965"/>
</g>
<polygon fill="#8DC04E" points="49.442,41.213 49.442,35.27 42.031,35.27 42.031,27.86 36.09,27.86 36.09,35.27 28.679,35.27 
	28.679,41.213 36.09,41.213 36.09,48.623 42.031,48.623 42.031,41.213 "/>
<g>
	<rect x="42.031" y="41.213" fill="#343434" width="2.133" height="1.965"/>
	<path fill="#343434" d="M36.09,43.178v-1.965h-7.411v-0.035h-4.638v-4.572h4.638V35.27h7.411v-0.664h-1.264V28.86h1.264v-1h5.942v1
		h0.133v5.746h-0.133v0.664h2.133v-0.664h0V28.86h0v-2h0v-6.815V11.27v0h-9.339v0h-2v0h-8.784v0h-2v0h-9.785v8.775h0v23.133H36.09z
		 M34.825,20.045h7.339v6.815h-7.339V20.045z M24.041,20.045h8.784v6.815h-8.784V20.045z M24.041,28.86h8.784v5.746h-8.784V28.86z
		 M14.257,20.045h7.785v6.815h-7.785V20.045z M14.257,28.86h7.785v5.746h-7.785V28.86z M14.257,36.606h7.785v4.572h-7.785V36.606z"
		/>
</g>
</svg>
