<?xml version="1.0" encoding="utf-8"?>
<!-- Generator: Adobe Illustrator 17.0.0, SVG Export Plug-In . SVG Version: 6.00 Build 0)  -->
<!DOCTYPE svg PUBLIC "-//W3C//DTD SVG 1.1//EN" "http://www.w3.org/Graphics/SVG/1.1/DTD/svg11.dtd">
<svg version="1.1" id="Calque_1" xmlns="http://www.w3.org/2000/svg" xmlns:xlink="http://www.w3.org/1999/xlink" x="0px" y="0px"
	 width="60px" height="60px" viewBox="0 0 60 60" enable-background="new 0 0 60 60" xml:space="preserve">
<path fill="#B4B4B4" d="M29.998,17.735l2.882,8.292l0.457,1.315l1.392,0.028l8.78,0.178l-6.996,5.305l-1.109,0.841l0.403,1.332
	l2.541,8.402l-7.207-5.015l-1.142-0.795l-1.142,0.795l-7.204,5.014l2.543-8.4l0.403-1.332l-1.109-0.841l-6.997-5.305l8.776-0.178
	l1.392-0.028l0.457-1.315L29.998,17.735 M29.998,11.643l-4.771,13.728l-14.529,0.295l11.582,8.781l-4.212,13.909l11.929-8.302
	l11.929,8.302l-4.206-13.909l11.581-8.781l-14.533-0.295L29.998,11.643L29.998,11.643z"/>
</svg>
