<?xml version="1.0" encoding="utf-8"?>
<!-- Generator: Adobe Illustrator 17.0.0, SVG Export Plug-In . SVG Version: 6.00 Build 0)  -->
<!DOCTYPE svg PUBLIC "-//W3C//DTD SVG 1.1//EN" "http://www.w3.org/Graphics/SVG/1.1/DTD/svg11.dtd">
<svg version="1.1" id="Calque_1" xmlns="http://www.w3.org/2000/svg" xmlns:xlink="http://www.w3.org/1999/xlink" x="0px" y="0px"
	 width="60px" height="60px" viewBox="0 0 60 60" enable-background="new 0 0 60 60" xml:space="preserve">
<g>
	<polygon fill="#FFFFFF" points="44.662,6.951 23.022,6.951 12.804,18.693 12.804,50.619 44.662,50.619 	"/>
	<polygon fill="#B4B4B4" points="23.022,6.951 12.804,18.693 23.022,18.693 	"/>
	<polygon fill="#343434" points="44.662,12.822 44.662,50.619 18.769,50.619 18.769,53.049 47.196,53.049 47.196,12.822 	"/>
	<path fill-rule="evenodd" clip-rule="evenodd" fill="#343434" d="M38.226,26.783v-0.961c0-2.995-1.369-4.492-4.106-4.492h-8.253
		c-2.723,0-4.112,1.352-4.18,4.046h-0.006v0.47v1.438h-1.657v2.199h1.657v1.995h-1.657v2.199h1.657v1.654v0.203
		c0,2.698,1.263,4.046,3.788,4.046h0.399h5.56h2.693c2.737,0,4.106-1.497,4.106-4.492v-0.961h-3.07v1.487
		c0,0.512-0.253,0.769-0.759,0.769h-2.971h-5.918c-0.533,0-0.797-0.337-0.797-1.012v-1.695h5.436v-2.199h-5.436v-1.995h5.436v-2.199
		h-5.436v-1.478v-0.591c0-0.459,0.212-0.689,0.637-0.689h9.049c0.506,0,0.759,0.257,0.759,0.769v1.488H38.226z"/>
</g>
</svg>
