<?xml version="1.0" encoding="utf-8"?>
<!-- Generator: Adobe Illustrator 17.0.0, SVG Export Plug-In . SVG Version: 6.00 Build 0)  -->
<!DOCTYPE svg PUBLIC "-//W3C//DTD SVG 1.1//EN" "http://www.w3.org/Graphics/SVG/1.1/DTD/svg11.dtd">
<svg version="1.1" id="Calque_1" xmlns="http://www.w3.org/2000/svg" xmlns:xlink="http://www.w3.org/1999/xlink" x="0px" y="0px"
	 width="60px" height="60px" viewBox="0 0 60 60" enable-background="new 0 0 60 60" xml:space="preserve">
<g>
	<polygon fill="#FFFFFF" points="44.662,6.951 23.022,6.951 12.804,18.693 12.804,50.619 44.662,50.619 	"/>
	<polygon fill="#B4B4B4" points="23.022,6.951 12.804,18.693 23.022,18.693 	"/>
	<polygon fill="#343434" points="44.662,12.822 44.662,50.619 18.769,50.619 18.769,53.049 47.196,53.049 47.196,12.822 	"/>
	<g>
		<g>
			<path fill="#343434" d="M35.426,29.007c0.167,2.626-0.711,5.128-2.319,7.049c0.291-0.71,0.455-1.486,0.455-2.302
				c0-3.344-2.71-6.055-6.055-6.055c-3.345,0-6.055,2.71-6.055,6.055c0,0.596,0.089,1.169,0.249,1.714
				c-1.298-1.315-2.302-2.923-2.894-4.731h-1.601c1.421,5.747,5.563,9.582,11.539,9.582c5.259,0,11.697-5.565,12.265-11.312H35.426z
				 M27.507,29.345c2.434,0,4.409,1.975,4.409,4.41c0,2.436-1.975,4.41-4.409,4.41c-2.436,0-4.41-1.973-4.41-4.41
				C23.097,31.32,25.071,29.345,27.507,29.345z"/>
		</g>
	</g>
</g>
</svg>
