<?xml version="1.0" encoding="utf-8"?>
<!-- Generator: Adobe Illustrator 17.0.0, SVG Export Plug-In . SVG Version: 6.00 Build 0)  -->
<!DOCTYPE svg PUBLIC "-//W3C//DTD SVG 1.1//EN" "http://www.w3.org/Graphics/SVG/1.1/DTD/svg11.dtd">
<svg version="1.1" id="Calque_1" xmlns="http://www.w3.org/2000/svg" xmlns:xlink="http://www.w3.org/1999/xlink" x="0px" y="0px"
	 width="60px" height="60px" viewBox="0 0 60 60" enable-background="new 0 0 60 60" xml:space="preserve">
<polygon fill="#F6B639" points="45.929,8.166 24.29,8.166 14.071,19.908 14.071,51.834 45.929,51.834 "/>
<polygon fill="#FCCD7A" points="24.29,8.166 14.071,19.908 24.29,19.908 "/>
<path fill="#FFFFFF" d="M18.88,32.5c1.328,5,5.198,8.76,10.782,8.76c4.913,0,10.929-5.76,11.459-10.76h-5.218
	c0.157,3-0.661,3.996-2.17,5.793c0.276-0.667,0.43-1.836,0.43-2.603c0-3.124-2.533-5.815-5.658-5.815
	c-3.124,0-5.657,2.494-5.657,5.619c0,0.56,0.083,1.961,0.234,2.471c-1.215-1.23-2.152-1.464-2.705-3.464H18.88z M32.624,33.294
	c0,2.275-1.844,4.119-4.12,4.119c-2.275,0-4.12-1.844-4.12-4.119c0-2.275,1.845-4.119,4.12-4.119
	C30.779,29.175,32.624,31.019,32.624,33.294z"/>
</svg>
