<?xml version="1.0" encoding="utf-8"?>
<!-- Generator: Adobe Illustrator 17.0.0, SVG Export Plug-In . SVG Version: 6.00 Build 0)  -->
<!DOCTYPE svg PUBLIC "-//W3C//DTD SVG 1.1//EN" "http://www.w3.org/Graphics/SVG/1.1/DTD/svg11.dtd">
<svg version="1.1" id="Calque_1" xmlns="http://www.w3.org/2000/svg" xmlns:xlink="http://www.w3.org/1999/xlink" x="0px" y="0px"
	 width="60px" height="60px" viewBox="0 0 60 60" enable-background="new 0 0 60 60" xml:space="preserve">
<path fill="#343434" d="M45.094,26.058c0-4.261-3.507-7.715-7.768-7.715c-0.538,0-1.089,0.055-1.596,0.16
	c-0.911-3.322-3.964-5.764-7.575-5.764c-3.863,0-7.078,2.794-7.727,6.47c-0.54-0.126-1.106-0.195-1.684-0.195
	c-4.075,0-7.445,3.303-7.445,7.378c0,4.038,3.202,7.317,7.202,7.376l19,0.003C41.5,33.765,45.094,30.314,45.094,26.058z"/>
<polygon fill="#F6B639" points="29.834,33.771 26.1,33.77 24.579,38.651 28.512,38.651 25.59,50.563 33.455,35.444 29.374,35.444 
	"/>
</svg>
