<?xml version="1.0" encoding="utf-8"?>
<!-- Generator: Adobe Illustrator 17.0.0, SVG Export Plug-In . SVG Version: 6.00 Build 0)  -->
<!DOCTYPE svg PUBLIC "-//W3C//DTD SVG 1.1//EN" "http://www.w3.org/Graphics/SVG/1.1/DTD/svg11.dtd">
<svg version="1.1" id="Calque_1" xmlns="http://www.w3.org/2000/svg" xmlns:xlink="http://www.w3.org/1999/xlink" x="0px" y="0px"
	 width="60px" height="60px" viewBox="0 0 60 60" enable-background="new 0 0 60 60" xml:space="preserve">
<path fill="#E9463A" d="M27.723,36.486c0,0.914,0.485,1.713,1.21,2.158l-0.421,6.515h3.494l-0.42-6.515
	c0.725-0.445,1.21-1.244,1.21-2.158c0-1.4-1.137-2.537-2.537-2.537C28.859,33.949,27.723,35.086,27.723,36.486 M16.73,49.399V28.834
	c2.178-0.144,10.591-0.692,13.668-0.692c2.99,0.001,11.238,0.546,13.391,0.692v20.563c-2.155,0.192-10.572,0.924-13.53,0.924
	C27.184,50.321,18.87,49.59,16.73,49.399"/>
<path fill="#343434" d="M23.16,28.438v-6.239c0-4.642,2.409-7.007,7.1-7.007c4.691,0,7.099,2.365,7.099,7.007v6.233
	c1.289,0.073,2.55,0.151,3.642,0.22v-6.453c0-5.872-4.818-10.649-10.741-10.649c-5.923,0-10.74,4.777-10.74,10.649v6.456
	C20.609,28.587,21.868,28.51,23.16,28.438z"/>
</svg>
