<?xml version="1.0" encoding="utf-8"?>
<!-- Generator: Adobe Illustrator 17.0.0, SVG Export Plug-In . SVG Version: 6.00 Build 0)  -->
<!DOCTYPE svg PUBLIC "-//W3C//DTD SVG 1.1//EN" "http://www.w3.org/Graphics/SVG/1.1/DTD/svg11.dtd">
<svg version="1.1" id="Calque_1" xmlns="http://www.w3.org/2000/svg" xmlns:xlink="http://www.w3.org/1999/xlink" x="0px" y="0px"
	 width="60px" height="60px" viewBox="0 0 60 60" enable-background="new 0 0 60 60" xml:space="preserve">
<path fill-rule="evenodd" clip-rule="evenodd" fill="#8DC04E" d="M49.193,22.257V20.23c0-6.315-2.886-9.473-8.659-9.473H23.13
	c-5.742,0-8.673,2.851-8.815,8.533h-0.013v0.99v3.032h-3.495v4.637h3.495v4.208h-3.495v4.637h3.495v3.489v0.428
	c0,5.689,2.663,8.533,7.988,8.533h0.84h11.725h5.679c5.773,0,8.659-3.158,8.659-9.473v-2.026H42.72v3.136
	c0,1.08-0.533,1.622-1.6,1.622h-6.265H22.373c-1.123,0-1.68-0.711-1.68-2.135v-3.575h11.465v-4.637H20.693v-4.208h11.465v-4.637
	H20.693v-3.116v-1.246c0-0.968,0.447-1.453,1.343-1.453H41.12c1.067,0,1.6,0.541,1.6,1.621v3.138H49.193z"/>
</svg>
