<?xml version="1.0" encoding="utf-8"?>
<!-- Generator: Adobe Illustrator 17.0.0, SVG Export Plug-In . SVG Version: 6.00 Build 0)  -->
<!DOCTYPE svg PUBLIC "-//W3C//DTD SVG 1.1//EN" "http://www.w3.org/Graphics/SVG/1.1/DTD/svg11.dtd">
<svg version="1.1" id="Calque_1" xmlns="http://www.w3.org/2000/svg" xmlns:xlink="http://www.w3.org/1999/xlink" x="0px" y="0px"
	 width="60px" height="60px" viewBox="0 0 60 60" enable-background="new 0 0 60 60" xml:space="preserve">
<path fill="#25A7E0" d="M32.48,32v7h6.495c-2.251,2-5.41,3.55-8.905,3.55c-6.115,0-11.204-4.712-12.191-10.55h-6.561
	c1.03,9.447,8.986,16.8,18.707,16.8c4.796,0,9.455-1.792,12.455-4.741V49h7V32H32.48z"/>
<path fill="#25A7E0" d="M28.48,21h-7.198c2.243-2,5.352-3.434,8.789-3.434C36.144,17.566,41.206,22,42.24,28h6.567
	c-1.083-10-9.101-16.809-18.782-16.809c-4.797,0-8.545,1.667-12.545,4.617V11h-6v17h17V21z"/>
</svg>
