<?xml version="1.0" encoding="utf-8"?>
<!-- Generator: Adobe Illustrator 17.0.0, SVG Export Plug-In . SVG Version: 6.00 Build 0)  -->
<!DOCTYPE svg PUBLIC "-//W3C//DTD SVG 1.1//EN" "http://www.w3.org/Graphics/SVG/1.1/DTD/svg11.dtd">
<svg version="1.1" id="Calque_1" xmlns="http://www.w3.org/2000/svg" xmlns:xlink="http://www.w3.org/1999/xlink" x="0px" y="0px"
	 width="60px" height="60px" viewBox="0 0 60 60" enable-background="new 0 0 60 60" xml:space="preserve">
<path fill="#343434" d="M37.958,38.628c-0.616,0-1.184,0.156-1.668,0.481l-3.26-4.69c5.79-8.028,12.045-17.048,12.553-19.22
	c0.962-4.111-0.387-7.001-0.387-7.001L30,30.061L14.803,8.2c0,0-1.348,2.889-0.387,7.001c0.508,2.171,6.763,11.191,12.553,19.22
	l-3.26,4.69c-0.484-0.325-1.052-0.481-1.668-0.481c-1.924,0-4.312,1.502-6.044,4.006c-2.314,3.346-2.582,7.213-0.597,8.638
	c0.499,0.358,1.093,0.528,1.74,0.528c1.878,0,4.196-1.434,5.917-3.832l0,0.003c0,0,3.069-4.079,6.943-9.38
	c3.874,5.301,6.943,9.38,6.943,9.38l0-0.004c1.721,2.397,4.039,3.832,5.917,3.832c0.646,0,1.241-0.17,1.74-0.528
	c1.984-1.425,1.717-5.292-0.597-8.638C42.27,40.13,39.882,38.628,37.958,38.628z M22.824,42.592
	c-0.083,1.198-0.63,2.607-1.501,3.866c-1.373,1.985-3.143,3.023-4.183,3.023c-0.188,0-0.332-0.035-0.428-0.105
	c-0.218-0.157-0.412-0.693-0.354-1.539c0.083-1.198,0.63-2.607,1.501-3.866c1.373-1.985,3.143-3.023,4.183-3.023
	c0.188,0,0.332,0.035,0.428,0.105C22.688,41.209,22.882,41.746,22.824,42.592z M43.288,49.376c-0.097,0.069-0.241,0.105-0.428,0.105
	c-1.039,0-2.81-1.038-4.183-3.023c-0.871-1.259-1.418-2.668-1.501-3.866c-0.058-0.846,0.135-1.383,0.354-1.539
	c0.097-0.069,0.241-0.105,0.428-0.105c1.039,0,2.81,1.038,4.182,3.023c0.871,1.259,1.418,2.668,1.501,3.866
	C43.7,48.683,43.506,49.22,43.288,49.376z"/>
</svg>
