<?xml version="1.0" encoding="utf-8"?>
<!-- Generator: Adobe Illustrator 17.0.0, SVG Export Plug-In . SVG Version: 6.00 Build 0)  -->
<!DOCTYPE svg PUBLIC "-//W3C//DTD SVG 1.1//EN" "http://www.w3.org/Graphics/SVG/1.1/DTD/svg11.dtd">
<svg version="1.1" id="Calque_1" xmlns="http://www.w3.org/2000/svg" xmlns:xlink="http://www.w3.org/1999/xlink" x="0px" y="0px"
	 width="60px" height="60px" viewBox="0 0 60 60" enable-background="new 0 0 60 60" xml:space="preserve">
<path fill="#343434" d="M46.703,42.645L34.751,30.693c1.012-1.715,1.603-3.708,1.603-5.843c0-6.367-5.161-11.528-11.528-11.528
	c-6.367,0-11.528,5.161-11.528,11.528c0,6.367,5.161,11.528,11.528,11.528c2.161,0,4.175-0.605,5.904-1.64l11.94,11.94
	L46.703,42.645z M17.039,24.85c0-4.293,3.493-7.786,7.786-7.786c4.293,0,7.786,3.493,7.786,7.786s-3.493,7.786-7.786,7.786
	C20.532,32.636,17.039,29.143,17.039,24.85z"/>
</svg>
