<?xml version="1.0" encoding="utf-8"?>
<!-- Generator: Adobe Illustrator 17.0.0, SVG Export Plug-In . SVG Version: 6.00 Build 0)  -->
<!DOCTYPE svg PUBLIC "-//W3C//DTD SVG 1.1//EN" "http://www.w3.org/Graphics/SVG/1.1/DTD/svg11.dtd">
<svg version="1.1" id="Calque_1" xmlns="http://www.w3.org/2000/svg" xmlns:xlink="http://www.w3.org/1999/xlink" x="0px" y="0px"
	 width="60px" height="60px" viewBox="0 0 60 60" enable-background="new 0 0 60 60" xml:space="preserve">
<path fill="#8DC04E" d="M19.858,35.488c0,0.901,0.479,1.69,1.193,2.128l-0.415,6.425h3.446l-0.414-6.425
	c0.715-0.439,1.194-1.227,1.194-2.128c0-1.381-1.121-2.502-2.502-2.502C20.978,32.986,19.858,34.108,19.858,35.488 M9.016,48.223
	V27.942c2.148-0.142,10.445-0.682,13.479-0.682c2.949,0.001,11.083,0.538,13.207,0.682v20.279
	c-2.125,0.19-10.426,0.912-13.343,0.912C19.326,49.133,11.126,48.412,9.016,48.223"/>
<path fill="#343434" d="M39.188,10.361c-5.841,0-10.592,4.711-10.592,10.502v6.639c1.235,0.068,2.476,0.142,3.59,0.212v-6.851
	c0-4.578,2.376-6.91,7.002-6.91c4.626,0,7.001,2.332,7.001,6.91v7.379c0.776,0.046,2.912,0.092,3.592,0.135v-7.514
	C49.781,15.072,45.029,10.361,39.188,10.361z"/>
</svg>
