<?xml version="1.0" encoding="utf-8"?>
<!-- Generator: Adobe Illustrator 17.0.0, SVG Export Plug-In . SVG Version: 6.00 Build 0)  -->
<!DOCTYPE svg PUBLIC "-//W3C//DTD SVG 1.1//EN" "http://www.w3.org/Graphics/SVG/1.1/DTD/svg11.dtd">
<svg version="1.1" id="Calque_1" xmlns="http://www.w3.org/2000/svg" xmlns:xlink="http://www.w3.org/1999/xlink" x="0px" y="0px"
	 width="60px" height="60px" viewBox="0 0 60 60" enable-background="new 0 0 60 60" xml:space="preserve">
<polygon fill="#FFFFFF" points="45.261,6.551 23.622,6.551 13.403,18.293 13.403,50.219 45.261,50.219 "/>
<polygon fill="#B4B4B4" points="23.622,6.551 13.403,18.293 23.622,18.293 "/>
<polygon fill="#343434" points="45.261,12.422 45.261,50.219 19.369,50.219 19.369,52.65 47.796,52.65 47.796,12.422 "/>
<polygon fill="#CECDCD" points="23.622,12.272 23.622,18.293 18.662,18.293 18.662,26.58 40.823,26.58 40.823,12.272 "/>
<path fill="#A7A6A6" d="M40.823,26.58H18.662v-6.887c0,0,5.386,0,9.893,1.631c4.508,1.631,12.268,0,12.268,0V26.58z"/>
<path fill="#FFFFFF" d="M35.232,15.536c0-0.712,0.298-1.355,0.78-1.823c-0.001,0-0.003,0-0.004,0c-1.48,0-2.678,1.157-2.678,2.585
	c0,1.428,1.199,2.585,2.678,2.585c0.742,0,1.414-0.292,1.898-0.762C36.43,18.118,35.232,16.962,35.232,15.536z"/>
<g>
	<path fill="#C61A25" d="M17.013,35.153h2.633c1.2,0,2.071,0.171,2.613,0.512s0.813,0.884,0.813,1.629
		c0,0.505-0.119,0.92-0.356,1.244s-0.553,0.519-0.946,0.584v0.058c0.536,0.12,0.923,0.344,1.16,0.671
		c0.237,0.328,0.356,0.764,0.356,1.308c0,0.772-0.279,1.374-0.836,1.806c-0.557,0.432-1.314,0.648-2.271,0.648h-3.166V35.153z
		 M18.808,38.504h1.041c0.487,0,0.839-0.075,1.057-0.226c0.218-0.15,0.327-0.399,0.327-0.746c0-0.324-0.118-0.557-0.356-0.698
		c-0.237-0.14-0.612-0.211-1.126-0.211h-0.943V38.504z M18.808,39.928v2.205h1.169c0.494,0,0.859-0.095,1.094-0.283
		c0.236-0.189,0.353-0.478,0.353-0.868c0-0.702-0.502-1.053-1.504-1.053H18.808z"/>
	<path fill="#C61A25" d="M28.559,43.614l-2.037-6.638H26.47c0.074,1.35,0.11,2.251,0.11,2.703v3.935h-1.603v-8.461h2.443
		l2.002,6.471h0.035l2.124-6.471h2.443v8.461H32.35v-4.005c0-0.189,0.003-0.407,0.009-0.654c0.006-0.247,0.032-0.903,0.078-1.968
		h-0.052l-2.182,6.626H28.559z"/>
	<path fill="#C61A25" d="M41.997,37.792c0,0.911-0.284,1.607-0.853,2.09c-0.569,0.482-1.378,0.723-2.428,0.723h-0.77v3.009h-1.794
		v-8.461h2.703c1.026,0,1.807,0.221,2.341,0.663C41.73,36.257,41.997,36.916,41.997,37.792z M37.947,39.134h0.59
		c0.551,0,0.965-0.109,1.238-0.327c0.274-0.218,0.411-0.536,0.411-0.952c0-0.42-0.115-0.731-0.344-0.932
		c-0.229-0.201-0.59-0.301-1.079-0.301h-0.816V39.134z"/>
</g>
</svg>
