<?xml version="1.0" encoding="utf-8"?>
<!-- Generator: Adobe Illustrator 17.0.0, SVG Export Plug-In . SVG Version: 6.00 Build 0)  -->
<!DOCTYPE svg PUBLIC "-//W3C//DTD SVG 1.1//EN" "http://www.w3.org/Graphics/SVG/1.1/DTD/svg11.dtd">
<svg version="1.1" id="Calque_1" xmlns="http://www.w3.org/2000/svg" xmlns:xlink="http://www.w3.org/1999/xlink" x="0px" y="0px"
	 width="60px" height="60px" viewBox="0 0 60 60" enable-background="new 0 0 60 60" xml:space="preserve">
<polygon fill="#FFFFFF" points="43.953,6.886 22.314,6.886 12.095,18.628 12.095,50.554 43.953,50.554 "/>
<path fill="#464545" d="M23.743,19.036c0,0.217-0.053,0.381-0.159,0.494c-0.106,0.113-0.262,0.169-0.467,0.169
	c-0.202,0-0.357-0.057-0.464-0.17c-0.108-0.113-0.162-0.278-0.162-0.495c0-0.214,0.053-0.378,0.161-0.491
	c0.107-0.113,0.263-0.17,0.468-0.17c0.205,0,0.36,0.056,0.466,0.168C23.691,18.654,23.743,18.819,23.743,19.036z M22.857,19.036
	c0,0.249,0.087,0.373,0.26,0.373c0.088,0,0.153-0.03,0.196-0.091c0.042-0.06,0.063-0.155,0.063-0.283
	c0-0.128-0.021-0.223-0.064-0.285c-0.043-0.061-0.108-0.092-0.193-0.092C22.944,18.659,22.857,18.785,22.857,19.036z"/>
<path fill="#464545" d="M23.976,19.682v-1.288h0.348v1.007h0.496v0.281H23.976z"/>
<path fill="#464545" d="M25.868,19.291c0,0.08-0.021,0.15-0.061,0.212c-0.041,0.062-0.099,0.11-0.176,0.144
	c-0.076,0.035-0.166,0.052-0.268,0.052c-0.086,0-0.158-0.006-0.216-0.018c-0.058-0.012-0.119-0.033-0.181-0.063v-0.31
	c0.066,0.034,0.135,0.06,0.207,0.08c0.071,0.019,0.137,0.029,0.197,0.029c0.051,0,0.09-0.009,0.113-0.027
	c0.024-0.018,0.036-0.041,0.036-0.069c0-0.018-0.005-0.033-0.015-0.046c-0.01-0.013-0.025-0.026-0.046-0.04
	c-0.022-0.014-0.079-0.041-0.172-0.083c-0.084-0.038-0.147-0.075-0.189-0.111c-0.042-0.036-0.073-0.077-0.094-0.123
	c-0.02-0.046-0.03-0.101-0.03-0.165c0-0.119,0.043-0.211,0.129-0.278c0.087-0.066,0.205-0.099,0.356-0.099
	c0.133,0,0.269,0.031,0.408,0.092l-0.107,0.269c-0.12-0.055-0.224-0.083-0.312-0.083c-0.045,0-0.078,0.008-0.099,0.024
	c-0.021,0.016-0.031,0.035-0.031,0.059c0,0.025,0.013,0.048,0.039,0.068c0.026,0.02,0.097,0.056,0.213,0.109
	c0.111,0.05,0.188,0.103,0.231,0.161C25.846,19.132,25.868,19.204,25.868,19.291z"/>
<path fill="#464545" d="M26.634,19.682h-0.348v-1.003h-0.315v-0.285h0.976v0.285h-0.314V19.682z"/>
<path fill="#464545" d="M27.897,19.682h-0.765v-1.288h0.765v0.279H27.48v0.203h0.385v0.279H27.48v0.243h0.417V19.682z"/>
<path fill="#464545" d="M29.683,19.01c0,0.215-0.059,0.38-0.177,0.497s-0.285,0.175-0.499,0.175H28.59v-1.288h0.446
	c0.207,0,0.366,0.053,0.479,0.159C29.627,18.658,29.683,18.811,29.683,19.01z M29.322,19.023c0-0.118-0.024-0.206-0.07-0.263
	c-0.047-0.057-0.118-0.085-0.213-0.085h-0.101v0.721h0.077c0.106,0,0.183-0.031,0.232-0.092
	C29.298,19.243,29.322,19.149,29.322,19.023z"/>
<path fill="#464545" d="M30.704,19.682L30.64,19.44h-0.418l-0.065,0.242h-0.382l0.42-1.293h0.464l0.425,1.293H30.704z
	 M30.568,19.155l-0.056-0.211c-0.013-0.047-0.028-0.108-0.047-0.182s-0.031-0.128-0.037-0.16c-0.005,0.03-0.016,0.079-0.031,0.148
	c-0.016,0.068-0.05,0.204-0.104,0.406H30.568z"/>
<path fill="#464545" d="M31.791,19.682h-0.348v-1.003h-0.315v-0.285h0.976v0.285h-0.314V19.682z"/>
<path fill="#464545" d="M33.054,19.682h-0.765v-1.288h0.765v0.279h-0.417v0.203h0.385v0.279h-0.385v0.243h0.417V19.682z"/>
<path fill="#464545" d="M33.279,19.682v-1.288h0.35v1.288H33.279z"/>
<path fill="#464545" d="M35.468,19.01c0,0.215-0.059,0.38-0.177,0.497s-0.285,0.175-0.499,0.175h-0.417v-1.288h0.446
	c0.207,0,0.366,0.053,0.479,0.159C35.413,18.658,35.468,18.811,35.468,19.01z M35.108,19.023c0-0.118-0.024-0.206-0.07-0.263
	c-0.047-0.057-0.118-0.085-0.213-0.085h-0.101v0.721h0.077c0.106,0,0.183-0.031,0.232-0.092S35.108,19.149,35.108,19.023z"/>
<path fill="#464545" d="M36.464,19.682h-0.765v-1.288h0.765v0.279h-0.417v0.203h0.385v0.279h-0.385v0.243h0.417V19.682z"/>
<path fill="#464545" d="M37.037,19.213v0.469h-0.348v-1.288h0.422c0.35,0,0.525,0.127,0.525,0.38c0,0.149-0.073,0.265-0.218,0.346
	l0.375,0.561h-0.395l-0.273-0.469H37.037z M37.037,18.951h0.065c0.122,0,0.183-0.054,0.183-0.161c0-0.089-0.06-0.133-0.179-0.133
	h-0.068V18.951z"/>
<path fill="#464545" d="M17.912,21.846H17.5l-0.123-0.561c-0.006-0.023-0.016-0.07-0.028-0.14c-0.013-0.07-0.022-0.128-0.028-0.175
	c-0.005,0.038-0.012,0.086-0.023,0.142c-0.011,0.056-0.021,0.109-0.031,0.156c-0.011,0.048-0.053,0.24-0.128,0.578h-0.411
	l-0.319-1.287h0.336l0.14,0.645c0.032,0.143,0.053,0.257,0.065,0.341c0.008-0.06,0.021-0.141,0.041-0.244s0.038-0.188,0.055-0.256
	l0.113-0.487h0.323l0.11,0.487c0.019,0.079,0.038,0.169,0.057,0.271c0.02,0.102,0.032,0.178,0.039,0.229
	c0.008-0.065,0.029-0.178,0.063-0.339l0.142-0.647h0.336L17.912,21.846z"/>
<path fill="#464545" d="M19.16,21.846h-0.765v-1.287h0.765v0.279h-0.417v0.203h0.385v0.279h-0.385v0.243h0.417V21.846z"/>
<path fill="#464545" d="M19.385,21.846v-1.287h0.348v1.006h0.496v0.281H19.385z"/>
<path fill="#464545" d="M21.002,21.846h-0.348v-1.003H20.34v-0.284h0.976v0.284h-0.314V21.846z"/>
<path fill="#464545" d="M21.968,21.846v-1.287h0.35v1.287H21.968z"/>
<path fill="#464545" d="M23.439,21.455c0,0.08-0.021,0.151-0.061,0.213c-0.041,0.062-0.099,0.11-0.176,0.144
	c-0.076,0.034-0.166,0.051-0.268,0.051c-0.086,0-0.158-0.006-0.216-0.018c-0.058-0.012-0.119-0.033-0.181-0.063v-0.31
	c0.066,0.034,0.135,0.061,0.207,0.08c0.071,0.019,0.137,0.028,0.197,0.028c0.051,0,0.09-0.009,0.113-0.027
	c0.024-0.018,0.036-0.041,0.036-0.069c0-0.018-0.005-0.033-0.015-0.046c-0.01-0.013-0.025-0.027-0.046-0.04
	c-0.022-0.014-0.079-0.041-0.172-0.083c-0.084-0.038-0.147-0.075-0.189-0.111c-0.042-0.036-0.073-0.077-0.094-0.123
	c-0.02-0.046-0.03-0.101-0.03-0.165c0-0.119,0.043-0.211,0.129-0.277c0.087-0.066,0.205-0.1,0.356-0.1
	c0.133,0,0.269,0.031,0.408,0.093l-0.107,0.268c-0.12-0.055-0.224-0.083-0.312-0.083c-0.045,0-0.078,0.008-0.099,0.024
	c-0.021,0.016-0.031,0.036-0.031,0.059c0,0.026,0.013,0.048,0.039,0.068c0.026,0.02,0.097,0.056,0.213,0.109
	c0.111,0.05,0.188,0.104,0.231,0.161C23.417,21.296,23.439,21.368,23.439,21.455z"/>
<path fill="#464545" d="M24.206,21.846h-0.348v-1.003h-0.315v-0.284h0.976v0.284h-0.314V21.846z"/>
<path fill="#464545" d="M25.172,20.558h0.449c0.175,0,0.305,0.026,0.39,0.078c0.085,0.052,0.127,0.133,0.127,0.243
	c0,0.072-0.018,0.134-0.055,0.185c-0.037,0.051-0.086,0.084-0.146,0.099v0.009c0.08,0.021,0.137,0.056,0.173,0.106
	c0.036,0.049,0.054,0.113,0.054,0.192c0,0.117-0.044,0.209-0.132,0.276c-0.088,0.067-0.207,0.101-0.359,0.101h-0.501V20.558z
	 M25.52,21.052h0.105c0.05,0,0.089-0.01,0.116-0.031c0.027-0.021,0.041-0.051,0.041-0.092c0-0.072-0.055-0.108-0.164-0.108H25.52
	V21.052z M25.52,21.307v0.27h0.122c0.109,0,0.163-0.046,0.163-0.137c0-0.043-0.015-0.075-0.044-0.099
	c-0.029-0.023-0.071-0.034-0.126-0.034H25.52z"/>
<path fill="#464545" d="M27.152,21.846h-0.765v-1.287h0.765v0.279h-0.417v0.203h0.385v0.279h-0.385v0.243h0.417V21.846z"/>
<path fill="#464545" d="M28.219,21.455c0,0.08-0.021,0.151-0.061,0.213c-0.041,0.062-0.099,0.11-0.176,0.144
	c-0.076,0.034-0.166,0.051-0.268,0.051c-0.086,0-0.158-0.006-0.216-0.018s-0.119-0.033-0.181-0.063v-0.31
	c0.066,0.034,0.135,0.061,0.207,0.08c0.071,0.019,0.137,0.028,0.197,0.028c0.051,0,0.09-0.009,0.113-0.027
	c0.024-0.018,0.036-0.041,0.036-0.069c0-0.018-0.005-0.033-0.015-0.046c-0.01-0.013-0.025-0.027-0.046-0.04
	c-0.022-0.014-0.079-0.041-0.172-0.083c-0.084-0.038-0.147-0.075-0.189-0.111c-0.042-0.036-0.073-0.077-0.094-0.123
	c-0.02-0.046-0.03-0.101-0.03-0.165c0-0.119,0.043-0.211,0.129-0.277c0.087-0.066,0.205-0.1,0.356-0.1
	c0.133,0,0.269,0.031,0.408,0.093l-0.107,0.268c-0.12-0.055-0.224-0.083-0.312-0.083c-0.045,0-0.078,0.008-0.099,0.024
	c-0.021,0.016-0.031,0.036-0.031,0.059c0,0.026,0.013,0.048,0.039,0.068c0.026,0.02,0.097,0.056,0.213,0.109
	c0.111,0.05,0.188,0.104,0.231,0.161C28.198,21.296,28.219,21.368,28.219,21.455z"/>
<path fill="#464545" d="M28.986,21.846h-0.348v-1.003h-0.315v-0.284H29.3v0.284h-0.314V21.846z"/>
<path fill="#464545" d="M29.484,21.846v-1.287h0.35v1.287H29.484z"/>
<path fill="#464545" d="M30.673,21.846l-0.263-0.927h-0.008c0.013,0.158,0.019,0.281,0.019,0.368v0.559h-0.308v-1.287h0.463
	l0.269,0.914h0.007l0.263-0.914h0.464v1.287h-0.32v-0.565c0-0.029,0.001-0.062,0.002-0.098c0.001-0.036,0.005-0.123,0.012-0.263
	h-0.008l-0.26,0.925H30.673z"/>
<path fill="#464545" d="M32.417,21.846l-0.263-0.927h-0.008c0.013,0.158,0.019,0.281,0.019,0.368v0.559h-0.308v-1.287h0.463
	l0.269,0.914h0.007l0.263-0.914h0.464v1.287h-0.32v-0.565c0-0.029,0-0.062,0.002-0.098c0.001-0.036,0.005-0.123,0.012-0.263h-0.008
	l-0.26,0.925H32.417z"/>
<path fill="#464545" d="M34.168,21.846H33.82v-1.003h-0.315v-0.284h0.976v0.284h-0.314V21.846z"/>
<path fill="#464545" d="M36.36,21.846h-0.456l-0.47-0.907h-0.008c0.011,0.142,0.017,0.252,0.017,0.327v0.58h-0.308v-1.287h0.455
	l0.468,0.895h0.006c-0.008-0.13-0.013-0.234-0.013-0.313v-0.582h0.31V21.846z"/>
<path fill="#464545" d="M36.638,21.846v-1.287h0.35v1.287H36.638z"/>
<path fill="#464545" d="M37.84,20.825c-0.083,0-0.147,0.034-0.194,0.102c-0.046,0.068-0.07,0.162-0.07,0.28
	c0,0.248,0.095,0.372,0.283,0.372c0.057,0,0.112-0.008,0.166-0.024c0.053-0.016,0.107-0.035,0.162-0.057v0.294
	c-0.108,0.048-0.229,0.071-0.365,0.071c-0.194,0-0.343-0.056-0.447-0.169c-0.104-0.113-0.155-0.276-0.155-0.489
	c0-0.133,0.025-0.251,0.075-0.351c0.05-0.101,0.122-0.179,0.216-0.233c0.094-0.054,0.205-0.082,0.333-0.082
	c0.139,0,0.272,0.03,0.399,0.091l-0.107,0.274c-0.048-0.022-0.095-0.041-0.143-0.056C37.945,20.833,37.894,20.825,37.84,20.825z"/>
<path fill="#464545" d="M39.54,21.846h-0.35v-0.525h-0.404v0.525h-0.35v-1.287h0.35v0.477h0.404v-0.477h0.35V21.846z"/>
<path fill="#464545" d="M40.386,21.846h-0.348v-1.003h-0.315v-0.284H40.7v0.284h-0.314V21.846z"/>
<path fill="#464545" d="M17.614,23.339c0,0.215-0.059,0.38-0.177,0.497s-0.285,0.174-0.499,0.174h-0.417v-1.287h0.446
	c0.207,0,0.366,0.053,0.479,0.159C17.558,22.987,17.614,23.139,17.614,23.339z M17.253,23.351c0-0.118-0.024-0.205-0.07-0.262
	c-0.047-0.057-0.118-0.086-0.213-0.086h-0.101v0.721h0.077c0.106,0,0.183-0.031,0.232-0.092
	C17.228,23.571,17.253,23.478,17.253,23.351z"/>
<path fill="#464545" d="M18.609,24.01h-0.765v-1.287h0.765v0.279h-0.417v0.203h0.385v0.279h-0.385v0.243h0.417V24.01z"/>
<path fill="#464545" d="M18.834,24.01v-1.287h0.35v1.287H18.834z"/>
<path fill="#464545" d="M20.688,24.01h-0.456l-0.47-0.907h-0.008c0.011,0.142,0.017,0.252,0.017,0.327v0.58h-0.308v-1.287h0.455
	l0.468,0.895h0.006c-0.008-0.13-0.013-0.234-0.013-0.313v-0.582h0.31V24.01z"/>
<path fill="#464545" d="M22.369,23.132c0,0.144-0.042,0.255-0.127,0.334c-0.085,0.079-0.205,0.117-0.361,0.117h-0.098v0.427h-0.348
	v-1.287h0.446c0.163,0,0.285,0.035,0.366,0.106C22.328,22.9,22.369,23.001,22.369,23.132z M21.783,23.299h0.063
	c0.052,0,0.094-0.015,0.124-0.044c0.031-0.029,0.046-0.069,0.046-0.121c0-0.087-0.048-0.13-0.144-0.13h-0.09V23.299z"/>
<path fill="#464545" d="M23.668,23.339c0,0.215-0.059,0.38-0.177,0.497s-0.285,0.174-0.499,0.174h-0.417v-1.287h0.446
	c0.207,0,0.366,0.053,0.479,0.159C23.612,22.987,23.668,23.139,23.668,23.339z M23.307,23.351c0-0.118-0.024-0.205-0.07-0.262
	c-0.047-0.057-0.118-0.086-0.213-0.086h-0.101v0.721H23c0.106,0,0.183-0.031,0.232-0.092C23.282,23.571,23.307,23.478,23.307,23.351
	z"/>
<path fill="#464545" d="M24.241,24.01h-0.343v-1.287h0.761v0.279h-0.418v0.246h0.386v0.279h-0.386V24.01z"/>
<path fill="#464545" d="M24.769,23.664v-0.275h0.498v0.275H24.769z"/>
<path fill="#464545" d="M26.537,23.339c0,0.215-0.059,0.38-0.177,0.497s-0.285,0.174-0.499,0.174h-0.417v-1.287h0.446
	c0.207,0,0.366,0.053,0.479,0.159C26.481,22.987,26.537,23.139,26.537,23.339z M26.176,23.351c0-0.118-0.024-0.205-0.07-0.262
	c-0.047-0.057-0.118-0.086-0.213-0.086h-0.101v0.721h0.077c0.106,0,0.183-0.031,0.232-0.092
	C26.151,23.571,26.176,23.478,26.176,23.351z"/>
<path fill="#464545" d="M27.972,23.364c0,0.217-0.053,0.381-0.159,0.494s-0.262,0.169-0.467,0.169c-0.202,0-0.357-0.056-0.464-0.17
	c-0.108-0.113-0.162-0.278-0.162-0.495c0-0.214,0.053-0.378,0.161-0.491c0.107-0.113,0.263-0.17,0.468-0.17
	c0.205,0,0.36,0.056,0.466,0.169S27.972,23.147,27.972,23.364z M27.086,23.364c0,0.249,0.087,0.373,0.26,0.373
	c0.088,0,0.153-0.03,0.196-0.091c0.042-0.06,0.063-0.154,0.063-0.283c0-0.128-0.021-0.223-0.064-0.285s-0.108-0.092-0.193-0.092
	C27.173,22.987,27.086,23.113,27.086,23.364z"/>
<path fill="#464545" d="M29.304,24.01h-0.393l-0.255-0.492l-0.103,0.061v0.431h-0.35v-1.287h0.35v0.559
	c0.018-0.035,0.053-0.09,0.107-0.165l0.27-0.395h0.38l-0.406,0.577L29.304,24.01z"/>
<path fill="#464545" d="M30.538,22.723v0.775c0,0.169-0.048,0.299-0.143,0.392c-0.095,0.092-0.233,0.138-0.412,0.138
	c-0.176,0-0.31-0.045-0.405-0.135c-0.094-0.09-0.141-0.219-0.141-0.387v-0.783h0.35v0.755c0,0.091,0.017,0.157,0.051,0.198
	c0.034,0.041,0.084,0.061,0.15,0.061c0.071,0,0.123-0.02,0.154-0.061c0.032-0.041,0.048-0.108,0.048-0.2v-0.754H30.538z"/>
<path fill="#464545" d="M31.37,24.01l-0.263-0.927h-0.008c0.013,0.158,0.019,0.281,0.019,0.368v0.559h-0.308v-1.287h0.463
	l0.269,0.914h0.007l0.263-0.914h0.464v1.287h-0.32v-0.565c0-0.029,0.001-0.062,0.002-0.098c0.001-0.036,0.005-0.123,0.012-0.263
	h-0.008l-0.26,0.925H31.37z"/>
<path fill="#464545" d="M33.317,24.01h-0.765v-1.287h0.765v0.279H32.9v0.203h0.385v0.279H32.9v0.243h0.417V24.01z"/>
<path fill="#464545" d="M34.768,24.01h-0.456l-0.47-0.907h-0.008c0.011,0.142,0.017,0.252,0.017,0.327v0.58h-0.308v-1.287h0.455
	l0.468,0.895h0.006c-0.008-0.13-0.013-0.234-0.013-0.313v-0.582h0.31V24.01z"/>
<path fill="#464545" d="M35.614,24.01h-0.348v-1.003h-0.315v-0.284h0.976v0.284h-0.314V24.01z"/>
<path fill="#464545" d="M36.411,23.747l0.012,0.02c-0.057,0.224-0.109,0.388-0.155,0.494h-0.246
	c0.017-0.081,0.034-0.172,0.051-0.273c0.018-0.101,0.029-0.181,0.036-0.242H36.411z"/>
<path fill="#464545" d="M37.861,22.723h0.39l-0.422,1.287h-0.409l-0.42-1.287h0.391l0.175,0.652c0.037,0.145,0.056,0.246,0.06,0.303
	c0.004-0.041,0.013-0.092,0.025-0.154c0.013-0.061,0.023-0.11,0.033-0.145L37.861,22.723z"/>
<path fill="#464545" d="M39.154,24.01h-0.765v-1.287h0.765v0.279h-0.417v0.203h0.385v0.279h-0.385v0.243h0.417V24.01z"/>
<path fill="#464545" d="M39.727,23.541v0.469h-0.348v-1.287h0.422c0.35,0,0.525,0.127,0.525,0.38c0,0.149-0.073,0.264-0.218,0.346
	l0.375,0.561h-0.395l-0.273-0.469H39.727z M39.727,23.28h0.065c0.122,0,0.183-0.053,0.183-0.161c0-0.089-0.06-0.133-0.179-0.133
	h-0.068V23.28z"/>
<path fill="#464545" d="M40.498,23.664v-0.275h0.498v0.275H40.498z"/>
<path fill="#464545" d="M17.439,26.174h-1.003V25.96l0.557-0.792h-0.544v-0.281h0.976v0.214l-0.558,0.793h0.572V26.174z"/>
<path fill="#464545" d="M18.387,26.174h-0.765v-1.288h0.765v0.279h-0.417v0.203h0.385v0.279h-0.385v0.243h0.417V26.174z"/>
<path fill="#464545" d="M18.612,26.174v-1.288h0.35v1.288H18.612z"/>
<path fill="#464545" d="M20.344,26.174h-0.35V25.65H19.59v0.525h-0.35v-1.288h0.35v0.478h0.404v-0.478h0.35V26.174z"/>
<path fill="#464545" d="M21.717,24.887v0.775c0,0.169-0.048,0.299-0.143,0.392c-0.095,0.093-0.233,0.139-0.412,0.139
	c-0.176,0-0.31-0.045-0.405-0.135c-0.094-0.09-0.141-0.219-0.141-0.387v-0.783h0.35v0.756c0,0.091,0.017,0.157,0.051,0.198
	c0.034,0.041,0.084,0.061,0.15,0.061c0.071,0,0.123-0.021,0.154-0.061c0.032-0.041,0.048-0.107,0.048-0.2v-0.754H21.717z"/>
<path fill="#464545" d="M23.213,26.174h-0.456l-0.47-0.907h-0.008c0.011,0.143,0.017,0.252,0.017,0.327v0.58h-0.308v-1.288h0.455
	l0.468,0.895h0.006c-0.008-0.13-0.013-0.234-0.013-0.313v-0.582h0.31V26.174z"/>
<path fill="#464545" d="M24.008,25.421h0.556v0.694c-0.151,0.051-0.317,0.077-0.498,0.077c-0.198,0-0.352-0.058-0.46-0.173
	c-0.108-0.115-0.163-0.279-0.163-0.492c0-0.208,0.059-0.37,0.178-0.486c0.118-0.116,0.284-0.173,0.498-0.173
	c0.081,0,0.158,0.008,0.229,0.023c0.072,0.015,0.134,0.035,0.188,0.058l-0.11,0.273c-0.093-0.046-0.195-0.068-0.305-0.068
	c-0.102,0-0.18,0.033-0.236,0.099c-0.055,0.066-0.083,0.161-0.083,0.283c0,0.12,0.025,0.212,0.075,0.275
	c0.05,0.063,0.122,0.095,0.217,0.095c0.052,0,0.099-0.005,0.142-0.015v-0.201h-0.229V25.421z"/>
<path fill="#464545" d="M24.763,26.028c0-0.054,0.016-0.096,0.048-0.125c0.032-0.03,0.079-0.044,0.139-0.044
	c0.058,0,0.103,0.015,0.134,0.044c0.031,0.029,0.047,0.071,0.047,0.125c0,0.053-0.016,0.094-0.048,0.124
	c-0.032,0.03-0.076,0.045-0.133,0.045c-0.058,0-0.104-0.015-0.137-0.044C24.78,26.123,24.763,26.081,24.763,26.028z"/>
<polygon fill="#B4B4B4" points="22.314,6.886 12.095,18.628 22.314,18.628 "/>
<polygon fill="#343434" points="43.953,12.757 43.953,50.554 18.06,50.554 18.06,52.984 46.488,52.984 46.488,12.757 "/>
<path fill="#464545" d="M16.521,18.628v1.054h0.417c0.214,0,0.381-0.058,0.499-0.175c0.118-0.116,0.177-0.282,0.177-0.497
	c0-0.16-0.046-0.282-0.119-0.382H16.521z M17.179,19.304c-0.049,0.061-0.127,0.092-0.232,0.092h-0.077v-0.721h0.101
	c0.095,0,0.166,0.028,0.213,0.085c0.046,0.057,0.07,0.144,0.07,0.263C17.253,19.149,17.228,19.243,17.179,19.304z"/>
<rect x="17.844" y="18.628" fill="#464545" width="0.35" height="1.054"/>
<polygon fill="#464545" points="19.237,18.673 19.237,18.628 18.472,18.628 18.472,19.682 19.237,19.682 19.237,19.398 
	18.82,19.398 18.82,19.155 19.206,19.155 19.206,18.876 18.82,18.876 18.82,18.673 "/>
<path fill="#464545" d="M20.523,19.415c-0.188,0-0.283-0.124-0.283-0.372c0-0.119,0.024-0.213,0.07-0.28
	c0.046-0.068,0.111-0.102,0.194-0.102c0.054,0,0.106,0.008,0.153,0.023c0.048,0.015,0.095,0.034,0.143,0.056l0.044-0.112h-0.828
	c-0.016,0.023-0.044,0.035-0.057,0.062c-0.05,0.101-0.076,0.218-0.076,0.352c0,0.213,0.052,0.376,0.155,0.489
	c0.104,0.113,0.253,0.169,0.447,0.169c0.135,0,0.257-0.024,0.365-0.071v-0.294c-0.054,0.022-0.108,0.041-0.162,0.057
	C20.636,19.407,20.58,19.415,20.523,19.415z"/>
<path fill="#464545" d="M21.165,18.628c-0.068,0.106-0.111,0.236-0.111,0.406c0,0.216,0.054,0.381,0.161,0.495
	c0.108,0.113,0.263,0.17,0.464,0.17c0.205,0,0.361-0.056,0.467-0.169c0.106-0.113,0.159-0.277,0.159-0.494
	c0-0.172-0.043-0.302-0.109-0.408H21.165z M21.876,19.319c-0.043,0.06-0.108,0.091-0.196,0.091c-0.173,0-0.26-0.124-0.26-0.373
	c0-0.251,0.087-0.377,0.262-0.377c0.086,0,0.15,0.031,0.193,0.092c0.043,0.061,0.064,0.156,0.064,0.285
	C21.94,19.164,21.918,19.258,21.876,19.319z"/>
<g>
	<path fill="#C61A25" d="M23.757,37.7c0,1.353-0.385,2.389-1.156,3.109c-0.77,0.72-1.882,1.079-3.337,1.079h-2.328v-8.22h2.58
		c1.342,0,2.384,0.354,3.126,1.063S23.757,36.43,23.757,37.7z M21.946,37.745c0-1.765-0.779-2.648-2.339-2.648H18.68v5.352h0.748
		C21.107,40.45,21.946,39.548,21.946,37.745z"/>
	<path fill="#C61A25" d="M32.921,37.768c0,1.361-0.337,2.406-1.012,3.137c-0.675,0.731-1.642,1.096-2.901,1.096
		c-1.259,0-2.226-0.365-2.901-1.096c-0.675-0.731-1.012-1.78-1.012-3.148s0.338-2.413,1.015-3.135
		c0.677-0.721,1.647-1.082,2.91-1.082c1.263,0,2.229,0.363,2.898,1.091C32.586,35.358,32.921,36.404,32.921,37.768z M26.922,37.768
		c0,0.918,0.174,1.61,0.523,2.075c0.348,0.465,0.869,0.697,1.562,0.697c1.391,0,2.086-0.924,2.086-2.772
		c0-1.852-0.692-2.777-2.074-2.777c-0.694,0-1.216,0.233-1.569,0.7C27.098,36.157,26.922,36.849,26.922,37.768z"/>
	<path fill="#C61A25" d="M38.116,35.002c-0.656,0-1.164,0.246-1.524,0.739c-0.36,0.493-0.54,1.18-0.54,2.06
		c0,1.833,0.688,2.749,2.064,2.749c0.577,0,1.276-0.144,2.097-0.433v1.462c-0.675,0.281-1.428,0.422-2.26,0.422
		c-1.196,0-2.11-0.363-2.744-1.088c-0.634-0.726-0.95-1.766-0.95-3.123c0-0.855,0.156-1.603,0.467-2.246
		c0.311-0.643,0.758-1.136,1.341-1.478c0.583-0.343,1.266-0.515,2.049-0.515c0.798,0,1.6,0.193,2.406,0.579l-0.562,1.417
		c-0.308-0.146-0.617-0.274-0.928-0.382C38.721,35.056,38.416,35.002,38.116,35.002z"/>
</g>
</svg>
