<?xml version="1.0" encoding="utf-8"?>
<!-- Generator: Adobe Illustrator 17.0.0, SVG Export Plug-In . SVG Version: 6.00 Build 0)  -->
<!DOCTYPE svg PUBLIC "-//W3C//DTD SVG 1.1//EN" "http://www.w3.org/Graphics/SVG/1.1/DTD/svg11.dtd">
<svg version="1.1" id="Calque_1" xmlns="http://www.w3.org/2000/svg" xmlns:xlink="http://www.w3.org/1999/xlink" x="0px" y="0px"
	 width="60px" height="60px" viewBox="0 0 60 60" enable-background="new 0 0 60 60" xml:space="preserve">
<polygon fill="#FFFFFF" points="43.768,6.551 22.128,6.551 11.91,18.293 11.91,50.219 43.768,50.219 "/>
<polygon fill="#B4B4B4" points="22.128,6.551 11.91,18.293 22.128,18.293 "/>
<polygon fill="#343434" points="43.768,12.422 43.768,50.219 17.875,50.219 17.875,52.65 46.303,52.65 46.303,12.422 "/>
<polygon fill="#CECDCD" points="22.128,12.272 22.128,18.293 17.169,18.293 17.169,26.58 39.33,26.58 39.33,12.272 "/>
<path fill="#A7A6A6" d="M39.33,26.58H17.169v-6.887c0,0,5.386,0,9.893,1.631c4.508,1.631,12.268,0,12.268,0V26.58z"/>
<path fill="#FFFFFF" d="M33.739,15.536c0-0.712,0.298-1.355,0.78-1.823c-0.001,0-0.003,0-0.004,0c-1.48,0-2.678,1.157-2.678,2.585
	c0,1.428,1.199,2.585,2.678,2.585c0.742,0,1.414-0.292,1.898-0.762C34.937,18.118,33.739,16.962,33.739,15.536z"/>
<g>
	<path fill="#C61A25" d="M23.128,38.882h3.265v4.267c-0.529,0.173-1.027,0.294-1.495,0.363c-0.467,0.07-0.945,0.104-1.433,0.104
		c-1.242,0-2.191-0.365-2.846-1.095c-0.655-0.73-0.982-1.778-0.982-3.144c0-1.329,0.38-2.364,1.14-3.108
		c0.76-0.743,1.814-1.115,3.161-1.115c0.845,0,1.659,0.169,2.444,0.507l-0.58,1.396c-0.601-0.3-1.225-0.45-1.874-0.45
		c-0.755,0-1.359,0.253-1.813,0.76c-0.454,0.507-0.681,1.188-0.681,2.044c0,0.893,0.183,1.575,0.549,2.047
		c0.366,0.471,0.898,0.706,1.596,0.706c0.364,0,0.734-0.037,1.109-0.113v-1.717h-1.56V38.882z"/>
	<path fill="#C61A25" d="M28.352,43.504v-8.231h1.745v8.231H28.352z"/>
	<path fill="#C61A25" d="M33.886,43.504h-1.717v-8.231h4.718v1.43h-3v2.122h2.792v1.424h-2.792V43.504z"/>
</g>
</svg>
