<?xml version="1.0" encoding="utf-8"?>
<!-- Generator: Adobe Illustrator 17.0.0, SVG Export Plug-In . SVG Version: 6.00 Build 0)  -->
<!DOCTYPE svg PUBLIC "-//W3C//DTD SVG 1.1//EN" "http://www.w3.org/Graphics/SVG/1.1/DTD/svg11.dtd">
<svg version="1.1" id="Calque_1" xmlns="http://www.w3.org/2000/svg" xmlns:xlink="http://www.w3.org/1999/xlink" x="0px" y="0px"
	 width="60px" height="60px" viewBox="0 0 60 60" enable-background="new 0 0 60 60" xml:space="preserve">
<polygon fill="#FFFFFF" points="44.19,6.217 22.551,6.217 12.332,17.959 12.332,49.885 44.19,49.885 "/>
<g>
	<path fill="#C61A25" d="M23.801,35.845c0,0.91-0.284,1.607-0.853,2.089c-0.569,0.483-1.378,0.724-2.428,0.724H19.75v3.009h-1.794
		v-8.461h2.702c1.027,0,1.807,0.221,2.341,0.663C23.534,34.31,23.801,34.969,23.801,35.845z M19.75,37.188h0.59
		c0.552,0,0.965-0.109,1.238-0.327s0.411-0.535,0.411-0.952c0-0.42-0.115-0.731-0.345-0.931c-0.229-0.201-0.589-0.301-1.079-0.301
		H19.75V37.188z"/>
	<path fill="#C61A25" d="M32.418,37.355c0,1.393-0.397,2.46-1.19,3.201c-0.793,0.741-1.937,1.111-3.435,1.111h-2.396v-8.461h2.656
		c1.381,0,2.454,0.364,3.218,1.094S32.418,36.048,32.418,37.355z M30.554,37.402c0-1.817-0.802-2.726-2.407-2.726h-0.955v5.509
		h0.769C29.69,40.186,30.554,39.258,30.554,37.402z"/>
	<path fill="#C61A25" d="M35.937,41.667h-1.765v-8.461h4.85v1.47h-3.084v2.182h2.87v1.464h-2.87V41.667z"/>
</g>
<path fill="#464545" d="M23.98,18.367c0,0.217-0.053,0.381-0.159,0.494c-0.106,0.113-0.262,0.169-0.467,0.169
	c-0.202,0-0.357-0.057-0.464-0.17c-0.108-0.113-0.162-0.278-0.162-0.495c0-0.214,0.053-0.378,0.161-0.491
	c0.107-0.113,0.263-0.17,0.468-0.17c0.205,0,0.36,0.056,0.466,0.168S23.98,18.15,23.98,18.367z M23.095,18.367
	c0,0.249,0.087,0.373,0.26,0.373c0.088,0,0.153-0.03,0.196-0.091c0.042-0.06,0.063-0.155,0.063-0.283
	c0-0.128-0.021-0.223-0.064-0.285c-0.043-0.061-0.108-0.092-0.193-0.092C23.182,17.991,23.095,18.116,23.095,18.367z"/>
<path fill="#464545" d="M24.213,19.013v-1.288h0.348v1.007h0.496v0.281H24.213z"/>
<path fill="#464545" d="M26.105,18.622c0,0.08-0.021,0.15-0.061,0.212c-0.041,0.062-0.099,0.11-0.176,0.144
	c-0.076,0.035-0.166,0.052-0.268,0.052c-0.086,0-0.158-0.006-0.216-0.018s-0.119-0.033-0.181-0.063v-0.31
	c0.066,0.034,0.135,0.06,0.207,0.08c0.071,0.019,0.137,0.029,0.197,0.029c0.051,0,0.09-0.009,0.113-0.027
	c0.024-0.018,0.036-0.041,0.036-0.069c0-0.018-0.005-0.033-0.015-0.046c-0.01-0.013-0.025-0.026-0.046-0.04
	c-0.022-0.014-0.079-0.041-0.172-0.083c-0.084-0.038-0.147-0.075-0.189-0.111c-0.042-0.036-0.073-0.077-0.094-0.123
	c-0.02-0.046-0.03-0.101-0.03-0.165c0-0.119,0.043-0.211,0.129-0.278c0.087-0.066,0.205-0.099,0.356-0.099
	c0.133,0,0.269,0.031,0.408,0.092l-0.107,0.269c-0.12-0.055-0.224-0.083-0.312-0.083c-0.045,0-0.078,0.008-0.099,0.024
	c-0.021,0.016-0.031,0.035-0.031,0.059c0,0.025,0.013,0.048,0.039,0.068c0.026,0.02,0.097,0.056,0.213,0.109
	c0.111,0.05,0.188,0.103,0.231,0.161C26.083,18.463,26.105,18.535,26.105,18.622z"/>
<path fill="#464545" d="M26.871,19.013h-0.348V18.01h-0.315v-0.285h0.976v0.285h-0.314V19.013z"/>
<path fill="#464545" d="M28.134,19.013h-0.765v-1.288h0.765v0.279h-0.417v0.203h0.385v0.279h-0.385v0.243h0.417V19.013z"/>
<path fill="#464545" d="M29.921,18.342c0,0.215-0.059,0.38-0.177,0.497s-0.285,0.175-0.499,0.175h-0.417v-1.288h0.446
	c0.207,0,0.366,0.053,0.479,0.159C29.865,17.99,29.921,18.143,29.921,18.342z M29.56,18.354c0-0.118-0.024-0.206-0.07-0.263
	c-0.047-0.057-0.118-0.085-0.213-0.085h-0.101v0.721h0.077c0.106,0,0.183-0.031,0.232-0.092S29.56,18.481,29.56,18.354z"/>
<path fill="#464545" d="M30.941,19.013l-0.063-0.242H30.46l-0.065,0.242h-0.382l0.42-1.293h0.464l0.425,1.293H30.941z
	 M30.806,18.486l-0.056-0.211c-0.013-0.047-0.028-0.108-0.047-0.182s-0.031-0.128-0.037-0.16c-0.005,0.03-0.016,0.079-0.031,0.148
	c-0.016,0.068-0.05,0.204-0.104,0.406H30.806z"/>
<path fill="#464545" d="M32.029,19.013h-0.348V18.01h-0.315v-0.285h0.976v0.285h-0.314V19.013z"/>
<path fill="#464545" d="M33.291,19.013h-0.765v-1.288h0.765v0.279h-0.417v0.203h0.385v0.279h-0.385v0.243h0.417V19.013z"/>
<path fill="#464545" d="M33.516,19.013v-1.288h0.35v1.288H33.516z"/>
<path fill="#464545" d="M35.706,18.342c0,0.215-0.059,0.38-0.177,0.497s-0.285,0.175-0.499,0.175h-0.417v-1.288h0.446
	c0.207,0,0.366,0.053,0.479,0.159C35.65,17.99,35.706,18.143,35.706,18.342z M35.345,18.354c0-0.118-0.024-0.206-0.07-0.263
	c-0.047-0.057-0.118-0.085-0.213-0.085h-0.101v0.721h0.077c0.106,0,0.183-0.031,0.232-0.092S35.345,18.481,35.345,18.354z"/>
<path fill="#464545" d="M36.701,19.013h-0.765v-1.288h0.765v0.279h-0.417v0.203h0.385v0.279h-0.385v0.243h0.417V19.013z"/>
<path fill="#464545" d="M37.274,18.545v0.469h-0.348v-1.288h0.422c0.35,0,0.525,0.127,0.525,0.38c0,0.149-0.073,0.265-0.218,0.346
	l0.375,0.561h-0.395l-0.273-0.469H37.274z M37.274,18.283h0.065c0.122,0,0.183-0.054,0.183-0.161c0-0.089-0.06-0.133-0.179-0.133
	h-0.068V18.283z"/>
<path fill="#464545" d="M18.149,21.177h-0.412l-0.123-0.561c-0.006-0.023-0.016-0.07-0.028-0.14
	c-0.013-0.07-0.022-0.128-0.028-0.175c-0.005,0.038-0.012,0.086-0.023,0.142c-0.011,0.056-0.021,0.109-0.031,0.156
	c-0.011,0.048-0.053,0.24-0.128,0.578h-0.411l-0.319-1.287h0.336l0.14,0.645c0.032,0.143,0.053,0.257,0.065,0.341
	c0.008-0.06,0.021-0.141,0.041-0.244c0.02-0.103,0.038-0.188,0.055-0.256l0.113-0.487h0.323l0.11,0.487
	c0.019,0.079,0.038,0.169,0.057,0.271c0.02,0.102,0.032,0.178,0.039,0.229c0.008-0.065,0.029-0.178,0.063-0.339l0.142-0.647h0.336
	L18.149,21.177z"/>
<path fill="#464545" d="M19.397,21.177h-0.765V19.89h0.765v0.279H18.98v0.203h0.385v0.279H18.98v0.243h0.417V21.177z"/>
<path fill="#464545" d="M19.622,21.177V19.89h0.348v1.006h0.496v0.281H19.622z"/>
<path fill="#464545" d="M21.24,21.177h-0.348v-1.003h-0.315V19.89h0.976v0.284H21.24V21.177z"/>
<path fill="#464545" d="M22.206,21.177V19.89h0.35v1.287H22.206z"/>
<path fill="#464545" d="M23.676,20.786c0,0.08-0.021,0.151-0.061,0.213c-0.041,0.062-0.099,0.11-0.176,0.144
	c-0.076,0.034-0.166,0.051-0.268,0.051c-0.086,0-0.158-0.006-0.216-0.018c-0.058-0.012-0.119-0.033-0.181-0.063v-0.31
	c0.066,0.034,0.135,0.061,0.207,0.08c0.071,0.019,0.137,0.028,0.197,0.028c0.051,0,0.09-0.009,0.113-0.027
	c0.024-0.018,0.036-0.041,0.036-0.069c0-0.018-0.005-0.033-0.015-0.046c-0.01-0.013-0.025-0.027-0.046-0.04
	c-0.022-0.014-0.079-0.041-0.172-0.083c-0.084-0.038-0.147-0.075-0.189-0.111c-0.042-0.036-0.073-0.077-0.094-0.123
	c-0.02-0.046-0.03-0.101-0.03-0.165c0-0.119,0.043-0.211,0.129-0.277c0.087-0.066,0.205-0.1,0.356-0.1
	c0.133,0,0.269,0.031,0.408,0.093l-0.107,0.268c-0.12-0.055-0.224-0.083-0.312-0.083c-0.045,0-0.078,0.008-0.099,0.024
	c-0.021,0.016-0.031,0.036-0.031,0.059c0,0.026,0.013,0.048,0.039,0.068c0.026,0.02,0.097,0.056,0.213,0.109
	c0.111,0.05,0.188,0.104,0.231,0.161C23.654,20.627,23.676,20.699,23.676,20.786z"/>
<path fill="#464545" d="M24.443,21.177h-0.348v-1.003h-0.315V19.89h0.976v0.284h-0.314V21.177z"/>
<path fill="#464545" d="M25.409,19.89h0.449c0.175,0,0.305,0.026,0.39,0.078c0.085,0.052,0.127,0.133,0.127,0.243
	c0,0.072-0.018,0.134-0.055,0.185c-0.037,0.051-0.086,0.084-0.146,0.099v0.009c0.08,0.021,0.137,0.056,0.173,0.106
	c0.036,0.049,0.054,0.113,0.054,0.192c0,0.117-0.044,0.209-0.132,0.276c-0.088,0.067-0.207,0.101-0.359,0.101h-0.501V19.89z
	 M25.757,20.383h0.105c0.05,0,0.089-0.01,0.116-0.031c0.027-0.021,0.041-0.051,0.041-0.092c0-0.072-0.055-0.108-0.164-0.108h-0.098
	V20.383z M25.757,20.638v0.27h0.122c0.109,0,0.163-0.046,0.163-0.137c0-0.043-0.015-0.075-0.044-0.099
	c-0.029-0.023-0.071-0.034-0.126-0.034H25.757z"/>
<path fill="#464545" d="M27.389,21.177h-0.765V19.89h0.765v0.279h-0.417v0.203h0.385v0.279h-0.385v0.243h0.417V21.177z"/>
<path fill="#464545" d="M28.457,20.786c0,0.08-0.021,0.151-0.061,0.213c-0.041,0.062-0.099,0.11-0.176,0.144
	c-0.076,0.034-0.166,0.051-0.268,0.051c-0.086,0-0.158-0.006-0.216-0.018c-0.058-0.012-0.119-0.033-0.181-0.063v-0.31
	c0.066,0.034,0.135,0.061,0.207,0.08c0.071,0.019,0.137,0.028,0.197,0.028c0.051,0,0.09-0.009,0.113-0.027
	c0.024-0.018,0.036-0.041,0.036-0.069c0-0.018-0.005-0.033-0.015-0.046c-0.01-0.013-0.025-0.027-0.046-0.04
	c-0.022-0.014-0.079-0.041-0.172-0.083c-0.084-0.038-0.147-0.075-0.189-0.111c-0.042-0.036-0.073-0.077-0.094-0.123
	c-0.02-0.046-0.03-0.101-0.03-0.165c0-0.119,0.043-0.211,0.129-0.277c0.087-0.066,0.205-0.1,0.356-0.1
	c0.133,0,0.269,0.031,0.408,0.093l-0.107,0.268c-0.12-0.055-0.224-0.083-0.312-0.083c-0.045,0-0.078,0.008-0.099,0.024
	c-0.021,0.016-0.031,0.036-0.031,0.059c0,0.026,0.013,0.048,0.039,0.068c0.026,0.02,0.097,0.056,0.213,0.109
	c0.111,0.05,0.188,0.104,0.231,0.161C28.435,20.627,28.457,20.699,28.457,20.786z"/>
<path fill="#464545" d="M29.224,21.177h-0.348v-1.003h-0.315V19.89h0.976v0.284h-0.314V21.177z"/>
<path fill="#464545" d="M29.721,21.177V19.89h0.35v1.287H29.721z"/>
<path fill="#464545" d="M30.91,21.177l-0.263-0.927h-0.008c0.013,0.158,0.019,0.281,0.019,0.368v0.559h-0.308V19.89h0.463
	l0.269,0.914h0.007l0.263-0.914h0.464v1.287h-0.32v-0.565c0-0.029,0.001-0.062,0.002-0.098c0.001-0.036,0.005-0.123,0.012-0.263
	h-0.008l-0.26,0.925H30.91z"/>
<path fill="#464545" d="M32.654,21.177l-0.263-0.927h-0.008c0.013,0.158,0.019,0.281,0.019,0.368v0.559h-0.308V19.89h0.463
	l0.269,0.914h0.007l0.263-0.914h0.464v1.287h-0.32v-0.565c0-0.029,0.001-0.062,0.002-0.098c0.001-0.036,0.005-0.123,0.012-0.263
	h-0.008l-0.26,0.925H32.654z"/>
<path fill="#464545" d="M34.405,21.177h-0.348v-1.003h-0.315V19.89h0.976v0.284h-0.314V21.177z"/>
<path fill="#464545" d="M36.597,21.177h-0.456l-0.47-0.907h-0.008c0.011,0.142,0.017,0.252,0.017,0.327v0.58h-0.308V19.89h0.455
	l0.468,0.895H36.3c-0.008-0.13-0.013-0.234-0.013-0.313V19.89h0.31V21.177z"/>
<path fill="#464545" d="M36.875,21.177V19.89h0.35v1.287H36.875z"/>
<path fill="#464545" d="M38.077,20.156c-0.083,0-0.147,0.034-0.194,0.102c-0.046,0.068-0.07,0.162-0.07,0.28
	c0,0.248,0.095,0.372,0.283,0.372c0.057,0,0.112-0.008,0.166-0.024c0.053-0.016,0.107-0.035,0.162-0.057v0.294
	c-0.108,0.048-0.229,0.071-0.365,0.071c-0.194,0-0.343-0.056-0.447-0.169c-0.104-0.113-0.155-0.276-0.155-0.489
	c0-0.133,0.025-0.251,0.075-0.351c0.05-0.101,0.122-0.179,0.216-0.233c0.094-0.054,0.205-0.082,0.333-0.082
	c0.139,0,0.272,0.03,0.399,0.091l-0.107,0.274c-0.048-0.022-0.095-0.041-0.143-0.056C38.183,20.164,38.131,20.156,38.077,20.156z"/>
<path fill="#464545" d="M39.777,21.177h-0.35v-0.525h-0.404v0.525h-0.35V19.89h0.35v0.477h0.404V19.89h0.35V21.177z"/>
<path fill="#464545" d="M40.624,21.177h-0.348v-1.003h-0.315V19.89h0.976v0.284h-0.314V21.177z"/>
<path fill="#464545" d="M17.851,22.671c0,0.215-0.059,0.38-0.177,0.497s-0.285,0.174-0.499,0.174h-0.417v-1.287h0.446
	c0.207,0,0.366,0.053,0.479,0.159C17.795,22.318,17.851,22.471,17.851,22.671z M17.49,22.683c0-0.118-0.024-0.205-0.07-0.262
	c-0.047-0.057-0.118-0.086-0.213-0.086h-0.101v0.721h0.077c0.106,0,0.183-0.031,0.232-0.092
	C17.466,22.903,17.49,22.809,17.49,22.683z"/>
<path fill="#464545" d="M18.846,23.341h-0.765v-1.287h0.765v0.279H18.43v0.203h0.385v0.279H18.43v0.243h0.417V23.341z"/>
<path fill="#464545" d="M19.071,23.341v-1.287h0.35v1.287H19.071z"/>
<path fill="#464545" d="M20.925,23.341h-0.456l-0.47-0.907h-0.008c0.011,0.142,0.017,0.252,0.017,0.327v0.58h-0.308v-1.287h0.455
	l0.468,0.895h0.006c-0.008-0.13-0.013-0.234-0.013-0.313v-0.582h0.31V23.341z"/>
<path fill="#464545" d="M22.607,22.463c0,0.144-0.042,0.255-0.127,0.334c-0.085,0.079-0.205,0.117-0.361,0.117H22.02v0.427h-0.348
	v-1.287h0.446c0.163,0,0.285,0.035,0.366,0.106C22.566,22.232,22.607,22.332,22.607,22.463z M22.02,22.631h0.063
	c0.052,0,0.094-0.015,0.124-0.044c0.031-0.029,0.046-0.069,0.046-0.121c0-0.087-0.048-0.13-0.144-0.13h-0.09V22.631z"/>
<path fill="#464545" d="M23.905,22.671c0,0.215-0.059,0.38-0.177,0.497c-0.118,0.116-0.285,0.174-0.499,0.174h-0.417v-1.287h0.446
	c0.207,0,0.366,0.053,0.479,0.159C23.849,22.318,23.905,22.471,23.905,22.671z M23.544,22.683c0-0.118-0.024-0.205-0.07-0.262
	c-0.047-0.057-0.118-0.086-0.213-0.086H23.16v0.721h0.077c0.106,0,0.183-0.031,0.232-0.092
	C23.519,22.903,23.544,22.809,23.544,22.683z"/>
<path fill="#464545" d="M24.478,23.341h-0.343v-1.287h0.761v0.279h-0.418v0.246h0.386v0.279h-0.386V23.341z"/>
<path fill="#464545" d="M25.007,22.995V22.72h0.498v0.275H25.007z"/>
<path fill="#464545" d="M26.774,22.671c0,0.215-0.059,0.38-0.177,0.497s-0.285,0.174-0.499,0.174h-0.417v-1.287h0.446
	c0.207,0,0.366,0.053,0.479,0.159C26.718,22.318,26.774,22.471,26.774,22.671z M26.413,22.683c0-0.118-0.024-0.205-0.07-0.262
	c-0.047-0.057-0.118-0.086-0.213-0.086h-0.101v0.721h0.077c0.106,0,0.183-0.031,0.232-0.092
	C26.388,22.903,26.413,22.809,26.413,22.683z"/>
<path fill="#464545" d="M28.209,22.696c0,0.217-0.053,0.381-0.159,0.494s-0.262,0.169-0.467,0.169c-0.202,0-0.357-0.056-0.464-0.17
	c-0.108-0.113-0.162-0.278-0.162-0.495c0-0.214,0.053-0.378,0.161-0.491c0.107-0.113,0.263-0.17,0.468-0.17
	c0.205,0,0.36,0.056,0.466,0.169C28.157,22.314,28.209,22.479,28.209,22.696z M27.323,22.696c0,0.249,0.087,0.373,0.26,0.373
	c0.088,0,0.153-0.03,0.196-0.091c0.042-0.06,0.063-0.154,0.063-0.283c0-0.128-0.021-0.223-0.064-0.285
	c-0.043-0.061-0.108-0.092-0.193-0.092C27.41,22.319,27.323,22.445,27.323,22.696z"/>
<path fill="#464545" d="M29.542,23.341h-0.393l-0.255-0.492l-0.103,0.061v0.431h-0.35v-1.287h0.35v0.559
	c0.018-0.035,0.053-0.09,0.107-0.165l0.27-0.395h0.38l-0.406,0.577L29.542,23.341z"/>
<path fill="#464545" d="M30.776,22.054v0.775c0,0.169-0.048,0.299-0.143,0.392c-0.095,0.092-0.233,0.138-0.412,0.138
	c-0.176,0-0.31-0.045-0.405-0.135c-0.094-0.09-0.141-0.219-0.141-0.387v-0.783h0.35v0.755c0,0.091,0.017,0.157,0.051,0.198
	c0.034,0.041,0.084,0.061,0.15,0.061c0.071,0,0.123-0.02,0.154-0.061c0.032-0.041,0.048-0.108,0.048-0.2v-0.754H30.776z"/>
<path fill="#464545" d="M31.607,23.341l-0.263-0.927h-0.008c0.013,0.158,0.019,0.281,0.019,0.368v0.559h-0.308v-1.287h0.463
	l0.269,0.914h0.007l0.263-0.914h0.464v1.287h-0.32v-0.565c0-0.029,0.001-0.062,0.002-0.098c0.001-0.036,0.005-0.123,0.012-0.263
	h-0.008l-0.26,0.925H31.607z"/>
<path fill="#464545" d="M33.554,23.341h-0.765v-1.287h0.765v0.279h-0.417v0.203h0.385v0.279h-0.385v0.243h0.417V23.341z"/>
<path fill="#464545" d="M35.005,23.341h-0.456l-0.47-0.907h-0.008c0.011,0.142,0.017,0.252,0.017,0.327v0.58h-0.308v-1.287h0.455
	l0.468,0.895h0.006c-0.008-0.13-0.013-0.234-0.013-0.313v-0.582h0.31V23.341z"/>
<path fill="#464545" d="M35.852,23.341h-0.348v-1.003h-0.315v-0.284h0.976v0.284h-0.314V23.341z"/>
<path fill="#464545" d="M36.649,23.078l0.012,0.02c-0.057,0.224-0.109,0.388-0.155,0.494H36.26c0.017-0.081,0.034-0.172,0.051-0.273
	c0.018-0.101,0.029-0.181,0.036-0.242H36.649z"/>
<path fill="#464545" d="M38.098,22.054h0.389l-0.422,1.287h-0.409l-0.42-1.287h0.391l0.175,0.652
	c0.037,0.145,0.056,0.246,0.06,0.303c0.004-0.041,0.013-0.092,0.025-0.154c0.013-0.061,0.023-0.11,0.033-0.145L38.098,22.054z"/>
<path fill="#464545" d="M39.391,23.341h-0.765v-1.287h0.765v0.279h-0.417v0.203h0.385v0.279h-0.385v0.243h0.417V23.341z"/>
<path fill="#464545" d="M39.965,22.873v0.469h-0.348v-1.287h0.422c0.35,0,0.525,0.127,0.525,0.38c0,0.149-0.073,0.264-0.218,0.346
	l0.375,0.561h-0.395l-0.273-0.469H39.965z M39.965,22.611h0.065c0.122,0,0.183-0.053,0.183-0.161c0-0.089-0.06-0.133-0.179-0.133
	h-0.068V22.611z"/>
<path fill="#464545" d="M40.736,22.995V22.72h0.498v0.275H40.736z"/>
<path fill="#464545" d="M17.676,25.506h-1.003v-0.215l0.557-0.792h-0.544v-0.281h0.976v0.214l-0.558,0.793h0.572V25.506z"/>
<path fill="#464545" d="M18.625,25.506H17.86v-1.288h0.765v0.279h-0.417V24.7h0.385v0.279h-0.385v0.243h0.417V25.506z"/>
<path fill="#464545" d="M18.849,25.506v-1.288h0.35v1.288H18.849z"/>
<path fill="#464545" d="M20.581,25.506h-0.35v-0.525h-0.404v0.525h-0.35v-1.288h0.35v0.478h0.404v-0.478h0.35V25.506z"/>
<path fill="#464545" d="M21.954,24.218v0.775c0,0.169-0.048,0.299-0.143,0.392c-0.095,0.093-0.233,0.139-0.412,0.139
	c-0.176,0-0.31-0.045-0.405-0.135c-0.094-0.09-0.141-0.219-0.141-0.387v-0.783h0.35v0.756c0,0.091,0.017,0.157,0.051,0.198
	c0.034,0.041,0.084,0.061,0.15,0.061c0.071,0,0.123-0.021,0.154-0.061c0.032-0.041,0.048-0.107,0.048-0.2v-0.754H21.954z"/>
<path fill="#464545" d="M23.45,25.506h-0.456l-0.47-0.907h-0.008c0.011,0.143,0.017,0.252,0.017,0.327v0.58h-0.308v-1.288h0.455
	l0.468,0.895h0.006c-0.008-0.13-0.013-0.234-0.013-0.313v-0.582h0.31V25.506z"/>
<path fill="#464545" d="M24.246,24.752h0.556v0.694c-0.151,0.051-0.317,0.077-0.498,0.077c-0.198,0-0.352-0.058-0.46-0.173
	c-0.108-0.115-0.163-0.279-0.163-0.492c0-0.208,0.059-0.37,0.178-0.486c0.118-0.116,0.284-0.173,0.498-0.173
	c0.081,0,0.158,0.008,0.229,0.023c0.072,0.015,0.134,0.035,0.188,0.058l-0.11,0.273c-0.093-0.046-0.195-0.068-0.305-0.068
	c-0.102,0-0.18,0.033-0.236,0.099c-0.055,0.066-0.083,0.161-0.083,0.283c0,0.12,0.025,0.212,0.075,0.275
	c0.05,0.063,0.122,0.095,0.217,0.095c0.052,0,0.099-0.005,0.142-0.015v-0.201h-0.229V24.752z"/>
<path fill="#464545" d="M25,25.359c0-0.054,0.016-0.096,0.048-0.125c0.032-0.03,0.079-0.044,0.139-0.044
	c0.058,0,0.103,0.015,0.134,0.044c0.031,0.029,0.047,0.071,0.047,0.125c0,0.053-0.016,0.094-0.048,0.124
	c-0.032,0.03-0.076,0.045-0.133,0.045c-0.058,0-0.104-0.015-0.137-0.044C25.017,25.454,25,25.413,25,25.359z"/>
<polygon fill="#B4B4B4" points="22.551,6.217 12.332,17.959 22.551,17.959 "/>
<polygon fill="#343434" points="44.19,12.088 44.19,49.885 18.298,49.885 18.298,52.316 46.725,52.316 46.725,12.088 "/>
<path fill="#464545" d="M16.758,17.959v1.054h0.417c0.214,0,0.381-0.058,0.499-0.175c0.118-0.116,0.177-0.282,0.177-0.497
	c0-0.16-0.046-0.282-0.119-0.382H16.758z M17.416,18.636c-0.049,0.061-0.127,0.092-0.232,0.092h-0.077v-0.721h0.101
	c0.095,0,0.166,0.028,0.213,0.085c0.046,0.057,0.07,0.144,0.07,0.263C17.49,18.481,17.466,18.574,17.416,18.636z"/>
<rect x="18.082" y="17.959" fill="#464545" width="0.35" height="1.054"/>
<polygon fill="#464545" points="19.474,18.005 19.474,17.959 18.71,17.959 18.71,19.013 19.474,19.013 19.474,18.729 19.058,18.729 
	19.058,18.486 19.443,18.486 19.443,18.207 19.058,18.207 19.058,18.005 "/>
<path fill="#464545" d="M20.761,18.746c-0.188,0-0.283-0.124-0.283-0.372c0-0.119,0.024-0.213,0.07-0.28
	c0.046-0.068,0.111-0.102,0.194-0.102c0.054,0,0.106,0.008,0.153,0.023c0.048,0.015,0.095,0.034,0.143,0.056l0.044-0.112h-0.828
	c-0.016,0.023-0.044,0.035-0.057,0.062c-0.05,0.101-0.076,0.218-0.076,0.352c0,0.213,0.052,0.376,0.155,0.489
	c0.104,0.113,0.253,0.169,0.447,0.169c0.135,0,0.257-0.024,0.365-0.071v-0.294c-0.054,0.022-0.108,0.041-0.162,0.057
	C20.873,18.738,20.818,18.746,20.761,18.746z"/>
<path fill="#464545" d="M21.402,17.959c-0.068,0.106-0.111,0.236-0.111,0.406c0,0.216,0.054,0.381,0.161,0.495
	c0.108,0.113,0.263,0.17,0.464,0.17c0.205,0,0.361-0.056,0.467-0.169c0.106-0.113,0.159-0.277,0.159-0.494
	c0-0.172-0.043-0.302-0.109-0.408H21.402z M22.113,18.65c-0.043,0.06-0.108,0.091-0.196,0.091c-0.173,0-0.26-0.124-0.26-0.373
	c0-0.251,0.087-0.377,0.262-0.377c0.086,0,0.15,0.031,0.193,0.092c0.043,0.061,0.064,0.156,0.064,0.285
	C22.177,18.495,22.156,18.59,22.113,18.65z"/>
</svg>
