<?xml version="1.0" encoding="utf-8"?>
<!-- Generator: Adobe Illustrator 17.0.0, SVG Export Plug-In . SVG Version: 6.00 Build 0)  -->
<!DOCTYPE svg PUBLIC "-//W3C//DTD SVG 1.1//EN" "http://www.w3.org/Graphics/SVG/1.1/DTD/svg11.dtd">
<svg version="1.1" id="Calque_1" xmlns="http://www.w3.org/2000/svg" xmlns:xlink="http://www.w3.org/1999/xlink" x="0px" y="0px"
	 width="60px" height="60px" viewBox="0 0 60 60" enable-background="new 0 0 60 60" xml:space="preserve">
<g>
	<polygon fill="#FFFFFF" points="44.234,6.886 22.594,6.886 12.376,18.628 12.376,50.554 44.234,50.554 	"/>
	<path fill="#464545" d="M24.024,19.036c0,0.217-0.053,0.381-0.159,0.494c-0.106,0.113-0.262,0.169-0.467,0.169
		c-0.202,0-0.357-0.057-0.464-0.17c-0.108-0.113-0.162-0.278-0.162-0.495c0-0.214,0.053-0.378,0.161-0.491
		c0.107-0.113,0.263-0.17,0.468-0.17c0.205,0,0.36,0.056,0.466,0.168C23.972,18.654,24.024,18.819,24.024,19.036z M23.138,19.036
		c0,0.249,0.087,0.373,0.26,0.373c0.088,0,0.153-0.03,0.196-0.091c0.042-0.06,0.063-0.155,0.063-0.283
		c0-0.128-0.021-0.223-0.064-0.285c-0.043-0.061-0.108-0.092-0.193-0.092C23.225,18.659,23.138,18.785,23.138,19.036z"/>
	<path fill="#464545" d="M24.256,19.682v-1.288h0.348v1.007H25.1v0.281H24.256z"/>
	<path fill="#464545" d="M26.149,19.291c0,0.08-0.021,0.15-0.061,0.212c-0.041,0.062-0.099,0.11-0.176,0.144
		c-0.076,0.035-0.166,0.052-0.268,0.052c-0.086,0-0.158-0.006-0.216-0.018c-0.058-0.012-0.119-0.033-0.181-0.063v-0.31
		c0.066,0.034,0.135,0.06,0.207,0.08c0.071,0.019,0.137,0.029,0.197,0.029c0.051,0,0.09-0.009,0.113-0.027
		c0.024-0.018,0.036-0.041,0.036-0.069c0-0.018-0.005-0.033-0.015-0.046c-0.01-0.013-0.025-0.026-0.046-0.04
		c-0.022-0.014-0.079-0.041-0.172-0.083c-0.084-0.038-0.147-0.075-0.189-0.111c-0.042-0.036-0.073-0.077-0.094-0.123
		c-0.02-0.046-0.03-0.101-0.03-0.165c0-0.119,0.043-0.211,0.129-0.278c0.087-0.066,0.205-0.099,0.356-0.099
		c0.133,0,0.269,0.031,0.408,0.092l-0.107,0.269c-0.12-0.055-0.224-0.083-0.312-0.083c-0.045,0-0.078,0.008-0.099,0.024
		c-0.021,0.016-0.031,0.035-0.031,0.059c0,0.025,0.013,0.048,0.039,0.068c0.026,0.02,0.097,0.056,0.213,0.109
		c0.111,0.05,0.188,0.103,0.231,0.161C26.127,19.132,26.149,19.204,26.149,19.291z"/>
	<path fill="#464545" d="M26.915,19.682h-0.348v-1.003h-0.315v-0.285h0.976v0.285h-0.314V19.682z"/>
	<path fill="#464545" d="M28.178,19.682h-0.765v-1.288h0.765v0.279h-0.417v0.203h0.385v0.279h-0.385v0.243h0.417V19.682z"/>
	<path fill="#464545" d="M29.964,19.01c0,0.215-0.059,0.38-0.177,0.497s-0.285,0.175-0.499,0.175h-0.417v-1.288h0.446
		c0.207,0,0.366,0.053,0.479,0.159C29.908,18.658,29.964,18.811,29.964,19.01z M29.603,19.023c0-0.118-0.024-0.206-0.07-0.263
		c-0.047-0.057-0.118-0.085-0.213-0.085h-0.101v0.721h0.077c0.106,0,0.183-0.031,0.232-0.092
		C29.579,19.243,29.603,19.149,29.603,19.023z"/>
	<path fill="#464545" d="M30.985,19.682l-0.063-0.242h-0.418l-0.065,0.242h-0.382l0.42-1.293h0.464l0.425,1.293H30.985z
		 M30.849,19.155l-0.056-0.211c-0.013-0.047-0.028-0.108-0.047-0.182s-0.031-0.128-0.037-0.16c-0.005,0.03-0.016,0.079-0.031,0.148
		c-0.016,0.068-0.05,0.204-0.104,0.406H30.849z"/>
	<path fill="#464545" d="M32.072,19.682h-0.348v-1.003H31.41v-0.285h0.976v0.285h-0.314V19.682z"/>
	<path fill="#464545" d="M33.335,19.682H32.57v-1.288h0.765v0.279h-0.417v0.203h0.385v0.279h-0.385v0.243h0.417V19.682z"/>
	<path fill="#464545" d="M33.56,19.682v-1.288h0.35v1.288H33.56z"/>
	<path fill="#464545" d="M35.749,19.01c0,0.215-0.059,0.38-0.177,0.497s-0.285,0.175-0.499,0.175h-0.417v-1.288h0.446
		c0.207,0,0.366,0.053,0.479,0.159C35.693,18.658,35.749,18.811,35.749,19.01z M35.388,19.023c0-0.118-0.024-0.206-0.07-0.263
		c-0.047-0.057-0.118-0.085-0.213-0.085h-0.101v0.721h0.077c0.106,0,0.183-0.031,0.232-0.092S35.388,19.149,35.388,19.023z"/>
	<path fill="#464545" d="M36.745,19.682H35.98v-1.288h0.765v0.279h-0.417v0.203h0.385v0.279h-0.385v0.243h0.417V19.682z"/>
	<path fill="#464545" d="M37.318,19.213v0.469H36.97v-1.288h0.422c0.35,0,0.525,0.127,0.525,0.38c0,0.149-0.073,0.265-0.218,0.346
		l0.375,0.561h-0.395l-0.273-0.469H37.318z M37.318,18.951h0.065c0.122,0,0.183-0.054,0.183-0.161c0-0.089-0.06-0.133-0.179-0.133
		h-0.068V18.951z"/>
	<path fill="#464545" d="M18.192,21.846h-0.412l-0.123-0.561c-0.006-0.023-0.016-0.07-0.028-0.14
		c-0.013-0.07-0.022-0.128-0.028-0.175c-0.005,0.038-0.012,0.086-0.023,0.142c-0.011,0.056-0.021,0.109-0.031,0.156
		c-0.011,0.048-0.053,0.24-0.128,0.578h-0.411l-0.319-1.287h0.336l0.14,0.645c0.032,0.143,0.053,0.257,0.065,0.341
		c0.008-0.06,0.021-0.141,0.041-0.244s0.038-0.188,0.055-0.256l0.113-0.487h0.323l0.11,0.487c0.019,0.079,0.038,0.169,0.057,0.271
		c0.02,0.102,0.032,0.178,0.039,0.229c0.008-0.065,0.029-0.178,0.063-0.339l0.142-0.647h0.336L18.192,21.846z"/>
	<path fill="#464545" d="M19.44,21.846h-0.765v-1.287h0.765v0.279h-0.417v0.203h0.385v0.279h-0.385v0.243h0.417V21.846z"/>
	<path fill="#464545" d="M19.665,21.846v-1.287h0.348v1.006h0.496v0.281H19.665z"/>
	<path fill="#464545" d="M21.283,21.846h-0.348v-1.003h-0.315v-0.284h0.976v0.284h-0.314V21.846z"/>
	<path fill="#464545" d="M22.249,21.846v-1.287h0.35v1.287H22.249z"/>
	<path fill="#464545" d="M23.719,21.455c0,0.08-0.021,0.151-0.061,0.213c-0.041,0.062-0.099,0.11-0.176,0.144
		c-0.076,0.034-0.166,0.051-0.268,0.051c-0.086,0-0.158-0.006-0.216-0.018c-0.058-0.012-0.119-0.033-0.181-0.063v-0.31
		c0.066,0.034,0.135,0.061,0.207,0.08c0.071,0.019,0.137,0.028,0.197,0.028c0.051,0,0.09-0.009,0.113-0.027
		c0.024-0.018,0.036-0.041,0.036-0.069c0-0.018-0.005-0.033-0.015-0.046c-0.01-0.013-0.025-0.027-0.046-0.04
		c-0.022-0.014-0.079-0.041-0.172-0.083c-0.084-0.038-0.147-0.075-0.189-0.111c-0.042-0.036-0.073-0.077-0.094-0.123
		c-0.02-0.046-0.03-0.101-0.03-0.165c0-0.119,0.043-0.211,0.129-0.277c0.087-0.066,0.205-0.1,0.356-0.1
		c0.133,0,0.269,0.031,0.408,0.093l-0.107,0.268c-0.12-0.055-0.224-0.083-0.312-0.083c-0.045,0-0.078,0.008-0.099,0.024
		c-0.021,0.016-0.031,0.036-0.031,0.059c0,0.026,0.013,0.048,0.039,0.068c0.026,0.02,0.097,0.056,0.213,0.109
		c0.111,0.05,0.188,0.104,0.231,0.161C23.698,21.296,23.719,21.368,23.719,21.455z"/>
	<path fill="#464545" d="M24.486,21.846h-0.348v-1.003h-0.315v-0.284H24.8v0.284h-0.314V21.846z"/>
	<path fill="#464545" d="M25.453,20.558h0.449c0.175,0,0.305,0.026,0.39,0.078c0.085,0.052,0.127,0.133,0.127,0.243
		c0,0.072-0.018,0.134-0.055,0.185c-0.037,0.051-0.086,0.084-0.146,0.099v0.009c0.08,0.021,0.137,0.056,0.173,0.106
		c0.036,0.049,0.054,0.113,0.054,0.192c0,0.117-0.044,0.209-0.132,0.276c-0.088,0.067-0.207,0.101-0.359,0.101h-0.501V20.558z
		 M25.801,21.052h0.105c0.05,0,0.089-0.01,0.116-0.031c0.027-0.021,0.041-0.051,0.041-0.092c0-0.072-0.055-0.108-0.164-0.108h-0.098
		V21.052z M25.801,21.307v0.27h0.122c0.109,0,0.163-0.046,0.163-0.137c0-0.043-0.015-0.075-0.044-0.099
		c-0.029-0.023-0.071-0.034-0.126-0.034H25.801z"/>
	<path fill="#464545" d="M27.433,21.846h-0.765v-1.287h0.765v0.279h-0.417v0.203h0.385v0.279h-0.385v0.243h0.417V21.846z"/>
	<path fill="#464545" d="M28.5,21.455c0,0.08-0.021,0.151-0.061,0.213c-0.041,0.062-0.099,0.11-0.176,0.144
		c-0.076,0.034-0.166,0.051-0.268,0.051c-0.086,0-0.158-0.006-0.216-0.018s-0.119-0.033-0.181-0.063v-0.31
		c0.066,0.034,0.135,0.061,0.207,0.08c0.071,0.019,0.137,0.028,0.197,0.028c0.051,0,0.09-0.009,0.113-0.027
		c0.024-0.018,0.036-0.041,0.036-0.069c0-0.018-0.005-0.033-0.015-0.046c-0.01-0.013-0.025-0.027-0.046-0.04
		c-0.022-0.014-0.079-0.041-0.172-0.083c-0.084-0.038-0.147-0.075-0.189-0.111c-0.042-0.036-0.073-0.077-0.094-0.123
		c-0.02-0.046-0.03-0.101-0.03-0.165c0-0.119,0.043-0.211,0.129-0.277c0.087-0.066,0.205-0.1,0.356-0.1
		c0.133,0,0.269,0.031,0.408,0.093l-0.107,0.268c-0.12-0.055-0.224-0.083-0.312-0.083c-0.045,0-0.078,0.008-0.099,0.024
		c-0.021,0.016-0.031,0.036-0.031,0.059c0,0.026,0.013,0.048,0.039,0.068c0.026,0.02,0.097,0.056,0.213,0.109
		c0.111,0.05,0.188,0.104,0.231,0.161C28.478,21.296,28.5,21.368,28.5,21.455z"/>
	<path fill="#464545" d="M29.267,21.846h-0.348v-1.003h-0.315v-0.284h0.976v0.284h-0.314V21.846z"/>
	<path fill="#464545" d="M29.765,21.846v-1.287h0.35v1.287H29.765z"/>
	<path fill="#464545" d="M30.954,21.846l-0.263-0.927h-0.008c0.013,0.158,0.019,0.281,0.019,0.368v0.559h-0.308v-1.287h0.463
		l0.269,0.914h0.007l0.263-0.914h0.464v1.287h-0.32v-0.565c0-0.029,0.001-0.062,0.002-0.098c0.001-0.036,0.005-0.123,0.012-0.263
		h-0.008l-0.26,0.925H30.954z"/>
	<path fill="#464545" d="M32.698,21.846l-0.263-0.927h-0.008c0.013,0.158,0.019,0.281,0.019,0.368v0.559h-0.308v-1.287H32.6
		l0.269,0.914h0.007l0.263-0.914h0.464v1.287h-0.32v-0.565c0-0.029,0-0.062,0.002-0.098c0.001-0.036,0.005-0.123,0.012-0.263h-0.008
		l-0.26,0.925H32.698z"/>
	<path fill="#464545" d="M34.448,21.846h-0.348v-1.003h-0.315v-0.284h0.976v0.284h-0.314V21.846z"/>
	<path fill="#464545" d="M36.64,21.846h-0.456l-0.47-0.907h-0.008c0.011,0.142,0.017,0.252,0.017,0.327v0.58h-0.308v-1.287h0.455
		l0.468,0.895h0.006c-0.008-0.13-0.013-0.234-0.013-0.313v-0.582h0.31V21.846z"/>
	<path fill="#464545" d="M36.919,21.846v-1.287h0.35v1.287H36.919z"/>
	<path fill="#464545" d="M38.12,20.825c-0.083,0-0.147,0.034-0.194,0.102c-0.046,0.068-0.07,0.162-0.07,0.28
		c0,0.248,0.095,0.372,0.283,0.372c0.057,0,0.112-0.008,0.166-0.024c0.053-0.016,0.107-0.035,0.162-0.057v0.294
		c-0.108,0.048-0.229,0.071-0.365,0.071c-0.194,0-0.343-0.056-0.447-0.169c-0.104-0.113-0.155-0.276-0.155-0.489
		c0-0.133,0.025-0.251,0.075-0.351c0.05-0.101,0.122-0.179,0.216-0.233c0.094-0.054,0.205-0.082,0.333-0.082
		c0.139,0,0.272,0.03,0.399,0.091l-0.107,0.274c-0.048-0.022-0.095-0.041-0.143-0.056C38.226,20.833,38.175,20.825,38.12,20.825z"/>
	<path fill="#464545" d="M39.821,21.846h-0.35v-0.525h-0.404v0.525h-0.35v-1.287h0.35v0.477h0.404v-0.477h0.35V21.846z"/>
	<path fill="#464545" d="M40.667,21.846H40.32v-1.003h-0.315v-0.284h0.976v0.284h-0.314V21.846z"/>
	<path fill="#464545" d="M17.895,23.339c0,0.215-0.059,0.38-0.177,0.497s-0.285,0.174-0.499,0.174h-0.417v-1.287h0.446
		c0.207,0,0.366,0.053,0.479,0.159C17.839,22.987,17.895,23.139,17.895,23.339z M17.534,23.351c0-0.118-0.024-0.205-0.07-0.262
		c-0.047-0.057-0.118-0.086-0.213-0.086H17.15v0.721h0.077c0.106,0,0.183-0.031,0.232-0.092
		C17.509,23.571,17.534,23.478,17.534,23.351z"/>
	<path fill="#464545" d="M18.89,24.01h-0.765v-1.287h0.765v0.279h-0.417v0.203h0.385v0.279h-0.385v0.243h0.417V24.01z"/>
	<path fill="#464545" d="M19.115,24.01v-1.287h0.35v1.287H19.115z"/>
	<path fill="#464545" d="M20.969,24.01h-0.456l-0.47-0.907h-0.008c0.011,0.142,0.017,0.252,0.017,0.327v0.58h-0.308v-1.287h0.455
		l0.468,0.895h0.006c-0.008-0.13-0.013-0.234-0.013-0.313v-0.582h0.31V24.01z"/>
	<path fill="#464545" d="M22.65,23.132c0,0.144-0.042,0.255-0.127,0.334c-0.085,0.079-0.205,0.117-0.361,0.117h-0.098v0.427h-0.348
		v-1.287h0.446c0.163,0,0.285,0.035,0.366,0.106C22.609,22.9,22.65,23.001,22.65,23.132z M22.064,23.299h0.063
		c0.052,0,0.094-0.015,0.124-0.044c0.031-0.029,0.046-0.069,0.046-0.121c0-0.087-0.048-0.13-0.144-0.13h-0.09V23.299z"/>
	<path fill="#464545" d="M23.948,23.339c0,0.215-0.059,0.38-0.177,0.497s-0.285,0.174-0.499,0.174h-0.417v-1.287h0.446
		c0.207,0,0.366,0.053,0.479,0.159C23.893,22.987,23.948,23.139,23.948,23.339z M23.588,23.351c0-0.118-0.024-0.205-0.07-0.262
		c-0.047-0.057-0.118-0.086-0.213-0.086h-0.101v0.721h0.077c0.106,0,0.183-0.031,0.232-0.092
		C23.563,23.571,23.588,23.478,23.588,23.351z"/>
	<path fill="#464545" d="M24.522,24.01h-0.343v-1.287h0.761v0.279h-0.418v0.246h0.386v0.279h-0.386V24.01z"/>
	<path fill="#464545" d="M25.05,23.664v-0.275h0.498v0.275H25.05z"/>
	<path fill="#464545" d="M26.817,23.339c0,0.215-0.059,0.38-0.177,0.497s-0.285,0.174-0.499,0.174h-0.417v-1.287h0.446
		c0.207,0,0.366,0.053,0.479,0.159C26.761,22.987,26.817,23.139,26.817,23.339z M26.456,23.351c0-0.118-0.024-0.205-0.07-0.262
		c-0.047-0.057-0.118-0.086-0.213-0.086h-0.101v0.721h0.077c0.106,0,0.183-0.031,0.232-0.092
		C26.432,23.571,26.456,23.478,26.456,23.351z"/>
	<path fill="#464545" d="M28.253,23.364c0,0.217-0.053,0.381-0.159,0.494s-0.262,0.169-0.467,0.169c-0.202,0-0.357-0.056-0.464-0.17
		C27.054,23.744,27,23.579,27,23.363c0-0.214,0.053-0.378,0.161-0.491c0.107-0.113,0.263-0.17,0.468-0.17
		c0.205,0,0.36,0.056,0.466,0.169S28.253,23.147,28.253,23.364z M27.367,23.364c0,0.249,0.087,0.373,0.26,0.373
		c0.088,0,0.153-0.03,0.196-0.091c0.042-0.06,0.063-0.154,0.063-0.283c0-0.128-0.021-0.223-0.064-0.285s-0.108-0.092-0.193-0.092
		C27.454,22.987,27.367,23.113,27.367,23.364z"/>
	<path fill="#464545" d="M29.585,24.01h-0.393l-0.255-0.492l-0.103,0.061v0.431h-0.35v-1.287h0.35v0.559
		c0.018-0.035,0.053-0.09,0.107-0.165l0.27-0.395h0.38l-0.406,0.577L29.585,24.01z"/>
	<path fill="#464545" d="M30.819,22.723v0.775c0,0.169-0.048,0.299-0.143,0.392c-0.095,0.092-0.233,0.138-0.412,0.138
		c-0.176,0-0.31-0.045-0.405-0.135c-0.094-0.09-0.141-0.219-0.141-0.387v-0.783h0.35v0.755c0,0.091,0.017,0.157,0.051,0.198
		c0.034,0.041,0.084,0.061,0.15,0.061c0.071,0,0.123-0.02,0.154-0.061c0.032-0.041,0.048-0.108,0.048-0.2v-0.754H30.819z"/>
	<path fill="#464545" d="M31.65,24.01l-0.263-0.927h-0.008c0.013,0.158,0.019,0.281,0.019,0.368v0.559h-0.308v-1.287h0.463
		l0.269,0.914h0.007l0.263-0.914h0.464v1.287h-0.32v-0.565c0-0.029,0-0.062,0.002-0.098c0.001-0.036,0.005-0.123,0.012-0.263h-0.008
		l-0.26,0.925H31.65z"/>
	<path fill="#464545" d="M33.598,24.01h-0.765v-1.287h0.765v0.279h-0.417v0.203h0.385v0.279h-0.385v0.243h0.417V24.01z"/>
	<path fill="#464545" d="M35.049,24.01h-0.456l-0.47-0.907h-0.008c0.011,0.142,0.017,0.252,0.017,0.327v0.58h-0.308v-1.287h0.455
		l0.468,0.895h0.006c-0.008-0.13-0.013-0.234-0.013-0.313v-0.582h0.31V24.01z"/>
	<path fill="#464545" d="M35.895,24.01h-0.348v-1.003h-0.315v-0.284h0.976v0.284h-0.314V24.01z"/>
	<path fill="#464545" d="M36.692,23.747l0.012,0.02c-0.057,0.224-0.109,0.388-0.155,0.494h-0.246
		c0.017-0.081,0.034-0.172,0.051-0.273c0.018-0.101,0.029-0.181,0.036-0.242H36.692z"/>
	<path fill="#464545" d="M38.142,22.723h0.39l-0.422,1.287H37.7l-0.42-1.287h0.391l0.175,0.652c0.037,0.145,0.056,0.246,0.06,0.303
		c0.004-0.041,0.013-0.092,0.025-0.154c0.013-0.061,0.023-0.11,0.033-0.145L38.142,22.723z"/>
	<path fill="#464545" d="M39.435,24.01H38.67v-1.287h0.765v0.279h-0.417v0.203h0.385v0.279h-0.385v0.243h0.417V24.01z"/>
	<path fill="#464545" d="M40.008,23.541v0.469H39.66v-1.287h0.422c0.35,0,0.525,0.127,0.525,0.38c0,0.149-0.073,0.264-0.218,0.346
		l0.375,0.561h-0.395l-0.273-0.469H40.008z M40.008,23.28h0.065c0.122,0,0.183-0.053,0.183-0.161c0-0.089-0.06-0.133-0.179-0.133
		h-0.068V23.28z"/>
	<path fill="#464545" d="M40.779,23.664v-0.275h0.498v0.275H40.779z"/>
	<path fill="#464545" d="M17.719,26.174h-1.003V25.96l0.557-0.792H16.73v-0.281h0.976v0.214l-0.558,0.793h0.572V26.174z"/>
	<path fill="#464545" d="M18.668,26.174h-0.765v-1.288h0.765v0.279h-0.417v0.203h0.385v0.279h-0.385v0.243h0.417V26.174z"/>
	<path fill="#464545" d="M18.893,26.174v-1.288h0.35v1.288H18.893z"/>
	<path fill="#464545" d="M20.625,26.174h-0.35V25.65h-0.404v0.525h-0.35v-1.288h0.35v0.478h0.404v-0.478h0.35V26.174z"/>
	<path fill="#464545" d="M21.998,24.887v0.775c0,0.169-0.048,0.299-0.143,0.392c-0.095,0.093-0.233,0.139-0.412,0.139
		c-0.176,0-0.31-0.045-0.405-0.135c-0.094-0.09-0.141-0.219-0.141-0.387v-0.783h0.35v0.756c0,0.091,0.017,0.157,0.051,0.198
		c0.034,0.041,0.084,0.061,0.15,0.061c0.071,0,0.123-0.021,0.154-0.061c0.032-0.041,0.048-0.107,0.048-0.2v-0.754H21.998z"/>
	<path fill="#464545" d="M23.493,26.174h-0.456l-0.47-0.907h-0.008c0.011,0.143,0.017,0.252,0.017,0.327v0.58h-0.308v-1.288h0.455
		l0.468,0.895h0.006c-0.008-0.13-0.013-0.234-0.013-0.313v-0.582h0.31V26.174z"/>
	<path fill="#464545" d="M24.289,25.421h0.556v0.694c-0.151,0.051-0.317,0.077-0.498,0.077c-0.198,0-0.352-0.058-0.46-0.173
		c-0.108-0.115-0.163-0.279-0.163-0.492c0-0.208,0.059-0.37,0.178-0.486c0.118-0.116,0.284-0.173,0.498-0.173
		c0.081,0,0.158,0.008,0.229,0.023c0.072,0.015,0.134,0.035,0.188,0.058l-0.11,0.273c-0.093-0.046-0.195-0.068-0.305-0.068
		c-0.102,0-0.18,0.033-0.236,0.099c-0.055,0.066-0.083,0.161-0.083,0.283c0,0.12,0.025,0.212,0.075,0.275
		c0.05,0.063,0.122,0.095,0.217,0.095c0.052,0,0.099-0.005,0.142-0.015v-0.201h-0.229V25.421z"/>
	<path fill="#464545" d="M25.043,26.028c0-0.054,0.016-0.096,0.048-0.125c0.032-0.03,0.079-0.044,0.139-0.044
		c0.058,0,0.103,0.015,0.134,0.044c0.031,0.029,0.047,0.071,0.047,0.125c0,0.053-0.016,0.094-0.048,0.124
		c-0.032,0.03-0.076,0.045-0.133,0.045c-0.058,0-0.104-0.015-0.137-0.044C25.061,26.123,25.043,26.081,25.043,26.028z"/>
	<polygon fill="#B4B4B4" points="22.594,6.886 12.376,18.628 22.594,18.628 	"/>
	<polygon fill="#343434" points="44.234,12.757 44.234,50.554 18.341,50.554 18.341,52.984 46.768,52.984 46.768,12.757 	"/>
	<path fill="#464545" d="M16.801,18.628v1.054h0.417c0.214,0,0.381-0.058,0.499-0.175c0.118-0.116,0.177-0.282,0.177-0.497
		c0-0.16-0.046-0.282-0.119-0.382H16.801z M17.46,19.304c-0.049,0.061-0.127,0.092-0.232,0.092H17.15v-0.721h0.101
		c0.095,0,0.166,0.028,0.213,0.085c0.046,0.057,0.07,0.144,0.07,0.263C17.534,19.149,17.509,19.243,17.46,19.304z"/>
	<rect x="18.125" y="18.628" fill="#464545" width="0.35" height="1.054"/>
	<polygon fill="#464545" points="19.518,18.673 19.518,18.628 18.753,18.628 18.753,19.682 19.518,19.682 19.518,19.398 
		19.101,19.398 19.101,19.155 19.487,19.155 19.487,18.876 19.101,18.876 19.101,18.673 	"/>
	<path fill="#464545" d="M20.804,19.415c-0.188,0-0.283-0.124-0.283-0.372c0-0.119,0.024-0.213,0.07-0.28
		c0.046-0.068,0.111-0.102,0.194-0.102c0.054,0,0.106,0.008,0.153,0.023c0.048,0.015,0.095,0.034,0.143,0.056l0.044-0.112h-0.828
		c-0.016,0.023-0.044,0.035-0.057,0.062c-0.05,0.101-0.076,0.218-0.076,0.352c0,0.213,0.052,0.376,0.155,0.489
		c0.104,0.113,0.253,0.169,0.447,0.169c0.135,0,0.257-0.024,0.365-0.071v-0.294c-0.054,0.022-0.108,0.041-0.162,0.057
		C20.916,19.407,20.861,19.415,20.804,19.415z"/>
	<path fill="#464545" d="M21.446,18.628c-0.068,0.106-0.111,0.236-0.111,0.406c0,0.216,0.054,0.381,0.161,0.495
		c0.108,0.113,0.263,0.17,0.464,0.17c0.205,0,0.361-0.056,0.467-0.169c0.106-0.113,0.159-0.277,0.159-0.494
		c0-0.172-0.043-0.302-0.109-0.408H21.446z M22.157,19.319c-0.043,0.06-0.108,0.091-0.196,0.091c-0.173,0-0.26-0.124-0.26-0.373
		c0-0.251,0.087-0.377,0.262-0.377c0.086,0,0.15,0.031,0.193,0.092c0.043,0.061,0.064,0.156,0.064,0.285
		C22.22,19.164,22.199,19.258,22.157,19.319z"/>
</g>
<g>
	<path fill="#C61A25" d="M21.832,41.386h-1.794v-6.968h-2.297v-1.493h6.389v1.493h-2.298V41.386z"/>
	<path fill="#C61A25" d="M32.273,41.386h-2.049l-1.968-3.201l-1.968,3.201h-1.921l2.807-4.364l-2.628-4.098h1.98l1.823,3.044
		l1.789-3.044h1.933l-2.656,4.196L32.273,41.386z"/>
	<path fill="#C61A25" d="M36.602,41.386h-1.794v-6.968h-2.297v-1.493H38.9v1.493h-2.298V41.386z"/>
</g>
</svg>
