<?xml version="1.0" encoding="utf-8"?>
<!-- Generator: Adobe Illustrator 17.0.0, SVG Export Plug-In . SVG Version: 6.00 Build 0)  -->
<!DOCTYPE svg PUBLIC "-//W3C//DTD SVG 1.1//EN" "http://www.w3.org/Graphics/SVG/1.1/DTD/svg11.dtd">
<svg version="1.1" id="Calque_1" xmlns="http://www.w3.org/2000/svg" xmlns:xlink="http://www.w3.org/1999/xlink" x="0px" y="0px"
	 width="60px" height="60px" viewBox="0 0 60 60" enable-background="new 0 0 60 60" xml:space="preserve">
<polygon fill="#FFFFFF" points="44.044,7.218 22.404,7.218 12.186,18.96 12.186,50.886 44.044,50.886 "/>
<polygon fill="#B4B4B4" points="22.404,7.218 12.186,18.96 22.404,18.96 "/>
<g>
	<path fill="#C61A25" d="M25.885,42.668h-6.297v-1.163l4.057-5.817h-3.947v-1.482h6.077v1.158l-4.051,5.822h4.162V42.668z"/>
	<path fill="#C61A25" d="M27.233,42.668v-8.461h1.794v8.461H27.233z"/>
	<path fill="#C61A25" d="M37.002,36.846c0,0.911-0.284,1.607-0.854,2.089c-0.569,0.482-1.378,0.723-2.428,0.723h-0.769v3.01h-1.794
		v-8.461h2.703c1.027,0,1.807,0.221,2.341,0.663C36.735,35.311,37.002,35.97,37.002,36.846z M32.951,38.188h0.59
		c0.552,0,0.965-0.109,1.239-0.327c0.274-0.218,0.411-0.535,0.411-0.952c0-0.42-0.115-0.731-0.345-0.932
		c-0.229-0.201-0.589-0.301-1.08-0.301h-0.816V38.188z"/>
</g>
<rect x="35.248" y="7.218" fill="#464545" width="1.718" height="1.717"/>
<rect x="36.966" y="8.935" fill="#464545" width="1.718" height="1.717"/>
<rect x="35.248" y="10.653" fill="#464545" width="1.718" height="1.717"/>
<rect x="36.966" y="12.37" fill="#464545" width="1.718" height="1.717"/>
<rect x="35.248" y="14.088" fill="#464545" width="1.718" height="1.717"/>
<rect x="36.966" y="15.805" fill="#464545" width="1.718" height="1.717"/>
<rect x="35.248" y="17.522" fill="#464545" width="1.718" height="1.717"/>
<rect x="36.966" y="19.24" fill="#464545" width="1.718" height="1.717"/>
<g>
	<g>
		<path fill="#464545" d="M38.675,27.349c-0.001,0.947-0.77,1.712-1.718,1.711l0,0c-0.945-0.002-1.711-0.77-1.709-1.717l0.009-4.676
			c0.002-0.946,0.77-1.712,1.717-1.71l0,0c0.946,0.002,1.711,0.77,1.709,1.717L38.675,27.349z"/>
		<linearGradient id="SVGID_1_" gradientUnits="userSpaceOnUse" x1="36.0125" y1="26.8755" x2="37.9119" y2="26.8755">
			<stop  offset="0.5" style="stop-color:#FFFFFF"/>
			<stop  offset="1" style="stop-color:#EFEEEE"/>
		</linearGradient>
		<path fill="url(#SVGID_1_)" d="M37.911,27.257c-0.002,0.525-0.427,0.949-0.951,0.948l0,0c-0.524-0.001-0.949-0.427-0.947-0.951
			l0.001-0.76c0.001-0.525,0.427-0.949,0.951-0.948l0,0c0.524,0.002,0.949,0.427,0.947,0.951L37.911,27.257z"/>
	</g>
</g>
<polygon fill="#343434" points="44.044,13.089 44.044,50.886 18.151,50.886 18.151,53.316 46.579,53.316 46.579,13.089 "/>
</svg>
