<?xml version="1.0" encoding="utf-8"?>
<!-- Generator: Adobe Illustrator 17.0.0, SVG Export Plug-In . SVG Version: 6.00 Build 0)  -->
<!DOCTYPE svg PUBLIC "-//W3C//DTD SVG 1.1//EN" "http://www.w3.org/Graphics/SVG/1.1/DTD/svg11.dtd">
<svg version="1.1" id="Calque_1" xmlns="http://www.w3.org/2000/svg" xmlns:xlink="http://www.w3.org/1999/xlink" x="0px" y="0px"
	 width="60px" height="60px" viewBox="0 0 60 60" enable-background="new 0 0 60 60" xml:space="preserve">
<rect x="7.98" y="19.498" fill="#FFFFFF" width="44" height="29"/>
<rect x="38.62" y="13.822" fill="#343434" width="3.998" height="5.683"/>
<rect x="17.637" y="13.822" fill="#343434" width="3.998" height="5.683"/>
<g>
	<path fill="#343434" d="M25.193,27.789v-2.393h0.646v1.87h0.921v0.522H25.193z"/>
	<path fill="#343434" d="M28.563,27.789h-1.42v-2.393h1.42v0.519h-0.773v0.377h0.717v0.519h-0.717v0.451h0.773V27.789z"/>
	<path fill="#343434" d="M30.325,25.397h0.724l-0.784,2.393h-0.761l-0.78-2.393h0.727l0.325,1.213
		c0.068,0.27,0.105,0.457,0.111,0.562c0.008-0.076,0.023-0.172,0.046-0.286c0.023-0.114,0.043-0.205,0.061-0.271L30.325,25.397z"/>
	<path fill="#343434" d="M31.308,27.789v-2.393h0.649v2.393H31.308z"/>
	<path fill="#343434" d="M34.909,27.063c0,0.148-0.038,0.28-0.113,0.395c-0.075,0.115-0.184,0.205-0.325,0.269
		c-0.143,0.064-0.309,0.096-0.499,0.096c-0.16,0-0.293-0.011-0.401-0.033s-0.221-0.062-0.337-0.117v-0.576
		c0.123,0.063,0.251,0.113,0.385,0.148c0.133,0.035,0.255,0.053,0.366,0.053c0.096,0,0.166-0.017,0.211-0.05
		s0.067-0.076,0.067-0.128c0-0.033-0.009-0.062-0.027-0.086c-0.018-0.024-0.047-0.05-0.087-0.074
		c-0.039-0.025-0.146-0.077-0.318-0.154c-0.155-0.071-0.272-0.14-0.351-0.206s-0.136-0.143-0.174-0.229
		c-0.037-0.086-0.056-0.188-0.056-0.306c0-0.221,0.08-0.393,0.24-0.516s0.381-0.185,0.661-0.185c0.247,0,0.5,0.057,0.758,0.172
		l-0.198,0.499c-0.224-0.103-0.417-0.154-0.579-0.154c-0.084,0-0.146,0.015-0.184,0.045c-0.038,0.029-0.058,0.065-0.058,0.109
		c0,0.047,0.024,0.089,0.073,0.126s0.181,0.104,0.396,0.203c0.206,0.093,0.349,0.191,0.43,0.298
		C34.869,26.767,34.909,26.9,34.909,27.063z"/>
	<path fill="#343434" d="M36.322,27.789l-0.489-1.724h-0.015c0.022,0.294,0.034,0.521,0.034,0.685v1.039H35.28v-2.393h0.86
		l0.499,1.698h0.014l0.489-1.698h0.862v2.393h-0.595V26.74c0-0.055,0.001-0.115,0.003-0.182s0.009-0.229,0.022-0.489h-0.016
		l-0.482,1.72H36.322z"/>
	<path fill="#343434" d="M38.519,27.789v-2.393h0.649v2.393H38.519z"/>
	<path fill="#343434" d="M40.741,27.789h-0.646v-1.864H39.51v-0.528h1.813v0.528h-0.582V27.789z"/>
	<path fill="#343434" d="M43.716,27.789h-0.649v-0.976h-0.751v0.976h-0.649v-2.393h0.649v0.887h0.751v-0.887h0.649V27.789z"/>
	<path fill="#E9463A" d="M26.153,30.409h1.033v1.29c-0.28,0.096-0.589,0.144-0.925,0.144c-0.369,0-0.653-0.106-0.855-0.32
		c-0.201-0.214-0.302-0.519-0.302-0.915c0-0.386,0.11-0.687,0.331-0.901c0.22-0.215,0.529-0.322,0.926-0.322
		c0.15,0,0.293,0.014,0.427,0.042c0.133,0.028,0.25,0.064,0.349,0.108l-0.204,0.507c-0.173-0.085-0.361-0.127-0.567-0.127
		c-0.189,0-0.335,0.062-0.438,0.184c-0.103,0.123-0.154,0.298-0.154,0.526c0,0.224,0.047,0.394,0.14,0.512
		c0.094,0.117,0.228,0.176,0.403,0.176c0.097,0,0.185-0.01,0.266-0.028v-0.375h-0.428V30.409z"/>
	<path fill="#E9463A" d="M29.911,30.611c0,0.402-0.099,0.708-0.296,0.918c-0.197,0.209-0.487,0.313-0.867,0.313
		c-0.376,0-0.663-0.105-0.863-0.315c-0.2-0.211-0.301-0.518-0.301-0.92c0-0.398,0.1-0.702,0.299-0.912s0.488-0.315,0.868-0.315
		c0.381,0,0.669,0.104,0.865,0.312C29.813,29.901,29.911,30.207,29.911,30.611z M28.265,30.611c0,0.462,0.161,0.693,0.483,0.693
		c0.163,0,0.284-0.057,0.363-0.169s0.119-0.287,0.119-0.524c0-0.239-0.04-0.416-0.12-0.53c-0.08-0.113-0.2-0.171-0.359-0.171
		C28.427,29.91,28.265,30.144,28.265,30.611z"/>
	<path fill="#E9463A" d="M31.304,30.409h1.033v1.29c-0.28,0.096-0.589,0.144-0.925,0.144c-0.369,0-0.653-0.106-0.855-0.32
		c-0.201-0.214-0.302-0.519-0.302-0.915c0-0.386,0.11-0.687,0.331-0.901c0.22-0.215,0.529-0.322,0.926-0.322
		c0.15,0,0.293,0.014,0.427,0.042c0.133,0.028,0.25,0.064,0.349,0.108l-0.204,0.507c-0.173-0.085-0.361-0.127-0.567-0.127
		c-0.189,0-0.335,0.062-0.438,0.184c-0.103,0.123-0.154,0.298-0.154,0.526c0,0.224,0.047,0.394,0.14,0.512
		c0.094,0.117,0.228,0.176,0.403,0.176c0.097,0,0.185-0.01,0.266-0.028v-0.375h-0.428V30.409z"/>
	<path fill="#E9463A" d="M35.063,30.611c0,0.402-0.099,0.708-0.296,0.918c-0.197,0.209-0.487,0.313-0.867,0.313
		c-0.376,0-0.663-0.105-0.863-0.315c-0.2-0.211-0.301-0.518-0.301-0.92c0-0.398,0.1-0.702,0.299-0.912s0.488-0.315,0.868-0.315
		c0.381,0,0.669,0.104,0.865,0.312C34.964,29.901,35.063,30.207,35.063,30.611z M33.416,30.611c0,0.462,0.161,0.693,0.483,0.693
		c0.163,0,0.284-0.057,0.363-0.169s0.119-0.287,0.119-0.524c0-0.239-0.04-0.416-0.12-0.53c-0.08-0.113-0.2-0.171-0.359-0.171
		C33.578,29.91,33.416,30.144,33.416,30.611z"/>
	<path fill="#E9463A" d="M37.526,30.564c0,0.399-0.109,0.707-0.329,0.923c-0.221,0.216-0.529,0.324-0.928,0.324h-0.773v-2.393h0.828
		c0.384,0,0.68,0.099,0.889,0.295S37.526,30.192,37.526,30.564z M36.855,30.586c0-0.219-0.043-0.382-0.13-0.487
		s-0.219-0.159-0.396-0.159h-0.188v1.341h0.144c0.196,0,0.341-0.058,0.432-0.171C36.809,30.995,36.855,30.821,36.855,30.586z"/>
	<path fill="#E9463A" d="M39.422,31.811l-0.118-0.448h-0.777l-0.121,0.448h-0.71l0.78-2.402h0.862l0.791,2.402H39.422z
		 M39.17,30.832l-0.104-0.393c-0.023-0.088-0.053-0.2-0.087-0.339c-0.035-0.139-0.058-0.238-0.068-0.298
		c-0.01,0.056-0.029,0.147-0.058,0.274c-0.029,0.128-0.094,0.379-0.192,0.755H39.17z"/>
	<path fill="#E9463A" d="M42.665,31.811h-0.848l-0.874-1.686h-0.015c0.021,0.265,0.031,0.468,0.031,0.607v1.078h-0.572v-2.393h0.844
		l0.871,1.662h0.01c-0.016-0.24-0.023-0.435-0.023-0.58v-1.082h0.576V31.811z"/>
	<path fill="#E9463A" d="M44.248,29.914c-0.154,0-0.274,0.062-0.36,0.188s-0.129,0.3-0.129,0.521c0,0.46,0.175,0.69,0.524,0.69
		c0.106,0,0.209-0.015,0.308-0.044c0.1-0.029,0.199-0.065,0.3-0.106v0.547c-0.199,0.088-0.426,0.132-0.678,0.132
		c-0.36,0-0.638-0.104-0.83-0.313c-0.192-0.21-0.289-0.513-0.289-0.908c0-0.248,0.047-0.466,0.141-0.653
		c0.093-0.188,0.227-0.332,0.402-0.433c0.175-0.102,0.381-0.151,0.617-0.151c0.259,0,0.506,0.056,0.741,0.168l-0.197,0.509
		c-0.089-0.041-0.177-0.076-0.266-0.104C44.445,29.928,44.349,29.914,44.248,29.914z"/>
	<path fill="#E9463A" d="M46.778,31.811h-1.42v-2.393h1.42v0.519h-0.773v0.377h0.717v0.519h-0.717v0.451h0.773V31.811z"/>
	<path fill="#E9463A" d="M47.843,30.94v0.871h-0.646v-2.393h0.783c0.65,0,0.976,0.235,0.976,0.707c0,0.277-0.135,0.491-0.405,0.643
		l0.696,1.043h-0.732l-0.508-0.871H47.843z M47.843,30.454h0.121c0.226,0,0.338-0.101,0.338-0.3c0-0.165-0.11-0.247-0.332-0.247
		h-0.127V30.454z"/>
	<path fill="#E9463A" d="M25.193,35.832V33.44h0.646v1.87h0.921v0.522H25.193z"/>
	<path fill="#E9463A" d="M28.563,35.832h-1.42V33.44h1.42v0.519h-0.773v0.377h0.717v0.519h-0.717v0.451h0.773V35.832z"/>
	<path fill="#E9463A" d="M30.325,33.44h0.724l-0.784,2.393h-0.761l-0.78-2.393h0.727l0.325,1.213
		c0.068,0.27,0.105,0.457,0.111,0.562c0.008-0.076,0.023-0.172,0.046-0.286c0.023-0.114,0.043-0.205,0.061-0.271L30.325,33.44z"/>
	<path fill="#E9463A" d="M31.308,35.832V33.44h0.649v2.393H31.308z"/>
	<path fill="#E9463A" d="M35.088,34.595c0,0.153-0.026,0.297-0.08,0.431c-0.053,0.133-0.126,0.237-0.22,0.312s-0.2,0.112-0.32,0.112
		c-0.087,0-0.164-0.017-0.234-0.051c-0.069-0.035-0.124-0.083-0.163-0.144h-0.025c-0.116,0.13-0.258,0.194-0.425,0.194
		c-0.2,0-0.354-0.058-0.46-0.175c-0.107-0.116-0.16-0.28-0.16-0.489c0-0.153,0.033-0.29,0.102-0.408
		c0.067-0.118,0.165-0.21,0.292-0.273c0.128-0.063,0.276-0.096,0.444-0.096c0.088,0,0.186,0.009,0.292,0.027
		c0.106,0.018,0.203,0.042,0.292,0.072l-0.034,0.69l-0.004,0.154c0,0.094,0.027,0.141,0.08,0.141c0.057,0,0.104-0.048,0.139-0.143
		s0.053-0.215,0.053-0.359c0-0.261-0.073-0.462-0.221-0.604c-0.147-0.142-0.356-0.213-0.627-0.213c-0.207,0-0.387,0.044-0.54,0.13
		s-0.271,0.21-0.352,0.37c-0.081,0.161-0.121,0.35-0.121,0.565c0,0.278,0.078,0.493,0.233,0.645c0.155,0.15,0.375,0.227,0.658,0.227
		c0.127,0,0.264-0.014,0.41-0.041s0.291-0.066,0.432-0.116v0.375c-0.245,0.104-0.518,0.155-0.818,0.155
		c-0.424,0-0.756-0.11-0.997-0.332c-0.242-0.221-0.363-0.526-0.363-0.918c0-0.276,0.062-0.523,0.188-0.742s0.298-0.388,0.518-0.506
		s0.469-0.178,0.747-0.178c0.255,0,0.48,0.049,0.677,0.146c0.195,0.098,0.346,0.235,0.451,0.415S35.088,34.357,35.088,34.595z
		 M33.459,34.783c0,0.108,0.021,0.188,0.061,0.237c0.039,0.049,0.092,0.073,0.157,0.073c0.084,0,0.146-0.034,0.186-0.102
		c0.039-0.067,0.064-0.188,0.076-0.359l0.017-0.256c-0.043-0.007-0.08-0.01-0.111-0.01c-0.117,0-0.211,0.036-0.28,0.109
		S33.459,34.652,33.459,34.783z"/>
	<path fill="#E9463A" d="M36.823,33.44h0.724l-0.784,2.393h-0.761l-0.78-2.393h0.727l0.325,1.213
		c0.068,0.27,0.105,0.457,0.111,0.562c0.008-0.076,0.023-0.172,0.046-0.286c0.023-0.114,0.043-0.205,0.061-0.271L36.823,33.44z"/>
	<path fill="#E9463A" d="M37.755,33.517c0-0.097,0.026-0.168,0.08-0.215s0.14-0.07,0.259-0.07c0.118,0,0.205,0.024,0.26,0.072
		s0.082,0.119,0.082,0.213c0,0.188-0.114,0.281-0.342,0.281C37.867,33.798,37.755,33.704,37.755,33.517z M38.411,35.832h-0.64
		v-1.854h0.64V35.832z"/>
	<path fill="#E9463A" d="M40.93,33.44v1.44c0,0.312-0.089,0.555-0.267,0.727c-0.177,0.172-0.433,0.258-0.767,0.258
		c-0.326,0-0.576-0.083-0.752-0.25c-0.175-0.167-0.263-0.407-0.263-0.72V33.44h0.65v1.404c0,0.169,0.031,0.292,0.095,0.368
		s0.156,0.114,0.279,0.114c0.132,0,0.228-0.038,0.287-0.113c0.06-0.076,0.09-0.2,0.09-0.373v-1.4H40.93z"/>
	<path fill="#E9463A" d="M42.078,34.961v0.871h-0.646V33.44h0.783c0.65,0,0.976,0.235,0.976,0.707c0,0.277-0.135,0.491-0.405,0.643
		l0.696,1.043h-0.732l-0.508-0.871H42.078z M42.078,34.476h0.121c0.226,0,0.338-0.101,0.338-0.3c0-0.165-0.11-0.247-0.332-0.247
		h-0.127V34.476z"/>
	<path fill="#E9463A" d="M43.581,35.561c0-0.101,0.03-0.178,0.089-0.232c0.06-0.055,0.146-0.082,0.26-0.082
		c0.108,0,0.19,0.027,0.249,0.082c0.058,0.055,0.087,0.132,0.087,0.232c0,0.098-0.03,0.175-0.09,0.229s-0.142,0.083-0.246,0.083
		c-0.108,0-0.193-0.027-0.255-0.082C43.613,35.736,43.581,35.659,43.581,35.561z"/>
	<path fill="#E9463A" d="M44.617,33.517c0-0.097,0.026-0.168,0.08-0.215s0.14-0.07,0.259-0.07c0.118,0,0.205,0.024,0.26,0.072
		s0.082,0.119,0.082,0.213c0,0.188-0.114,0.281-0.342,0.281C44.73,33.798,44.617,33.704,44.617,33.517z M45.274,35.832h-0.64v-1.854
		h0.64V35.832z"/>
	<path fill="#E9463A" d="M47.152,35.263c0,0.198-0.067,0.349-0.202,0.449c-0.136,0.102-0.33,0.152-0.583,0.152
		c-0.138,0-0.257-0.007-0.358-0.021s-0.205-0.042-0.311-0.081v-0.513c0.099,0.044,0.208,0.08,0.326,0.108s0.224,0.042,0.316,0.042
		c0.139,0,0.208-0.031,0.208-0.095c0-0.032-0.02-0.062-0.058-0.087c-0.039-0.026-0.151-0.076-0.338-0.15
		c-0.171-0.069-0.289-0.149-0.357-0.238c-0.067-0.089-0.102-0.201-0.102-0.338c0-0.172,0.067-0.306,0.2-0.402
		c0.133-0.096,0.321-0.144,0.564-0.144c0.122,0,0.237,0.013,0.345,0.04c0.107,0.026,0.219,0.065,0.334,0.117l-0.173,0.412
		c-0.085-0.038-0.176-0.07-0.271-0.098c-0.095-0.026-0.172-0.04-0.232-0.04c-0.104,0-0.157,0.025-0.157,0.077
		c0,0.031,0.019,0.059,0.056,0.081c0.036,0.022,0.142,0.067,0.316,0.137c0.13,0.053,0.227,0.105,0.29,0.157
		c0.064,0.051,0.111,0.111,0.141,0.181C47.137,35.079,47.152,35.163,47.152,35.263z"/>
</g>
<polygon fill="#343434" points="51.98,21.87 51.98,48.498 10.553,48.498 10.553,50.833 54.886,50.833 54.886,21.87 "/>
<g>
	<path fill="#DD3B36" d="M18.679,33.02c-0.502,0.47-1.061,0.752-1.758,0.752c-0.695,0-1.292-0.28-1.793-0.747
		c-1.448,0.288-2.424,0.903-2.424,1.615c0,0.123-0.152,1.789-0.152,1.789c0.402,0.815,8.427,0.887,8.427,0.097c0,0,0-1.745,0-1.885
		C20.98,33.923,20.138,33.305,18.679,33.02z"/>
	<path fill="#343434" d="M20.093,28.441c0.124-0.045,0.319-1.787,0.265-1.706c-0.055,0.08-0.413,0.087-0.413,0.087
		c0.215-0.092,0.178-1.007,0.051-0.804c-0.136,0.219-0.555,0.259-0.555,0.259s0.086-0.008,0.165-0.207
		c0.087-0.221,0.005-0.594,0.005-0.594c-0.49,0.273-0.83,0.4-1.635,0.444c-0.31-0.11-0.641-0.171-0.984-0.171
		c-1.74,0-3.152,1.52-3.177,3.404c0.057-0.095,0.132-0.165,0.236-0.193c0.131-0.034,0.237-0.009,0.325,0.052
		c-0.001,0.004-0.003,0.008-0.005,0.013c0,0,0.235,0.307,0.247,0.343c0.011,0.035,0.336,0.153,0.403,0.07
		c0.067-0.082,0.007-0.774,0.43-1.128c0.464-0.388,2.648-0.446,3.377,0.055c0.497,0.342,0.329,1.034,0.419,1.155
		c0.089,0.119,0.281-0.358,0.326-0.402c0,0.001,0,0.001,0.001,0.002c0.018-0.017,0.039-0.03,0.06-0.043
		c0.008-0.005,0.017-0.01,0.026-0.015c0.079-0.041,0.173-0.053,0.286-0.02c0.095,0.028,0.168,0.089,0.225,0.172
		c0-0.003,0-0.006,0-0.009c0-0.265-0.03-0.522-0.082-0.77L20.093,28.441z"/>
	<path fill="#E9463A" d="M20.076,29.111c-0.002-0.001-0.003-0.004-0.005-0.005c-0.037-0.029-0.079-0.051-0.126-0.065
		c-0.052-0.015-0.098-0.018-0.142-0.016c-0.01,0-0.019,0.001-0.028,0.003c-0.041,0.005-0.081,0.015-0.116,0.033
		c-0.009,0.005-0.017,0.01-0.026,0.015c-0.021,0.013-0.041,0.026-0.06,0.043c0-0.001,0-0.001-0.001-0.002
		c-0.045,0.044-0.236,0.521-0.326,0.402c-0.09-0.12,0.078-0.813-0.419-1.155c-0.729-0.502-2.913-0.443-3.377-0.055
		c-0.424,0.354-0.363,1.046-0.43,1.128c-0.067,0.082-0.392-0.035-0.403-0.07c-0.011-0.035-0.247-0.343-0.247-0.343
		c0.001-0.004,0.003-0.008,0.005-0.013c0,0-0.001,0-0.001-0.001c-0.034-0.023-0.072-0.039-0.111-0.051
		c-0.019-0.005-0.039-0.01-0.059-0.012c-0.013-0.001-0.026-0.002-0.039-0.002c-0.036,0-0.074,0.003-0.114,0.014
		c-0.051,0.014-0.094,0.038-0.133,0.07c-0.003,0.003-0.006,0.006-0.009,0.009c-0.036,0.032-0.067,0.069-0.094,0.114v0
		c-0.332,0.552,0.064,2.037,0.409,2.133c0.168,0.047,0.242,0.053,0.273,0.044c0.396,1.161,1.377,1.984,2.527,1.984
		c1.152,0,2.135-0.827,2.53-1.992l0.003,0.024c0,0-0.124,0.118,0.277,0.016c0.348-0.089,0.711-1.611,0.336-2.151
		C20.143,29.173,20.111,29.14,20.076,29.111z M17.007,32.482c-0.745-0.016-1.461-0.567-1.273-0.827
		c0.148-0.204,0.43,0.317,1.273,0.317c0.884,0,1.125-0.522,1.273-0.317C18.468,31.915,17.793,32.466,17.007,32.482z"/>
</g>
</svg>
