<?xml version="1.0" encoding="utf-8"?>
<!-- Generator: Adobe Illustrator 17.0.0, SVG Export Plug-In . SVG Version: 6.00 Build 0)  -->
<!DOCTYPE svg PUBLIC "-//W3C//DTD SVG 1.1//EN" "http://www.w3.org/Graphics/SVG/1.1/DTD/svg11.dtd">
<svg version="1.1" id="Calque_1" xmlns="http://www.w3.org/2000/svg" xmlns:xlink="http://www.w3.org/1999/xlink" x="0px" y="0px"
	 width="60px" height="60px" viewBox="0 0 60 60" enable-background="new 0 0 60 60" xml:space="preserve">
<path fill-rule="evenodd" clip-rule="evenodd" fill="#343434" d="M49.1,39.81c0,4.506-3.687,8.192-8.193,8.192H19.06
	c-4.506,0-8.193-3.686-8.193-8.192V17.961c0-4.506,3.687-8.192,8.193-8.192h21.847c4.506,0,8.193,3.686,8.193,8.192V39.81z"/>
<g>
	<path fill="#E9463A" d="M28.074,24.263c0,1.599-1.296,2.893-2.895,2.893h-7.557c-1.599,0-2.895-1.293-2.895-2.893v-7.556
		c0-1.604,1.296-2.896,2.895-2.896h7.557c1.599,0,2.895,1.292,2.895,2.896V24.263z"/>
	<path fill="#E9463A" d="M45.276,24.263c0,1.599-1.296,2.893-2.896,2.893h-7.558c-1.598,0-2.894-1.293-2.894-2.893v-7.556
		c0-1.604,1.296-2.896,2.894-2.896h7.558c1.6,0,2.896,1.292,2.896,2.896V24.263z"/>
	<path fill="#E9463A" d="M28.074,41.181c0,1.598-1.296,2.897-2.895,2.897h-7.557c-1.599,0-2.895-1.299-2.895-2.897v-7.56
		c0-1.594,1.296-2.893,2.895-2.893h7.557c1.599,0,2.895,1.299,2.895,2.893V41.181z"/>
	<path fill="#E9463A" d="M45.276,41.181c0,1.598-1.296,2.897-2.896,2.897h-7.558c-1.598,0-2.894-1.299-2.894-2.897v-7.56
		c0-1.594,1.296-2.893,2.894-2.893h7.558c1.6,0,2.896,1.299,2.896,2.893V41.181z"/>
</g>
</svg>
