<?xml version="1.0" encoding="utf-8"?>
<!-- Generator: Adobe Illustrator 17.0.0, SVG Export Plug-In . SVG Version: 6.00 Build 0)  -->
<!DOCTYPE svg PUBLIC "-//W3C//DTD SVG 1.1//EN" "http://www.w3.org/Graphics/SVG/1.1/DTD/svg11.dtd">
<svg version="1.1" id="Calque_1" xmlns="http://www.w3.org/2000/svg" xmlns:xlink="http://www.w3.org/1999/xlink" x="0px" y="0px"
	 width="60px" height="60px" viewBox="0 0 60 60" enable-background="new 0 0 60 60" xml:space="preserve">
<rect x="37.708" y="9.56" fill="#343434" width="3.998" height="5.683"/>
<path fill="#FFFFFF" d="M10.148,47.423h38.135V22.549H10.148V47.423z"/>
<rect x="16.724" y="9.56" fill="#343434" width="3.998" height="5.683"/>
<g>
	<path fill="#343434" d="M19.881,37.242c0.514,0.266,1.691,0.76,2.869,0.76c1.5,0,2.261-0.722,2.261-1.653
		c0-1.216-1.216-1.767-2.489-1.767h-1.178v-2.071h1.121c0.969-0.019,2.203-0.38,2.203-1.425c0-0.741-0.607-1.292-1.823-1.292
		c-1.007,0-2.07,0.437-2.584,0.741l-0.589-2.09c0.741-0.475,2.223-0.931,3.818-0.931c2.641,0,4.104,1.387,4.104,3.078
		c0,1.311-0.74,2.336-2.261,2.869V33.5c1.482,0.266,2.679,1.387,2.679,3.002c0,2.185-1.919,3.78-5.053,3.78
		c-1.596,0-2.945-0.418-3.667-0.874L19.881,37.242z"/>
	<path fill="#343434" d="M33.598,30.289H33.56l-2.355,1.121l-0.475-2.166l3.267-1.52h2.395v12.348h-2.793V30.289z"/>
</g>
<polygon fill="#343434" points="48.283,24.167 48.283,47.423 12.407,47.423 12.407,50.167 50.74,50.167 50.74,24.167 "/>
<polygon fill="#E9463A" points="41.706,12.817 41.706,15.242 37.708,15.242 37.708,12.817 20.723,12.817 20.723,15.242 
	16.724,15.242 16.724,12.817 10.148,12.817 10.148,21.453 48.283,21.453 48.283,12.817 "/>
</svg>
