<?xml version="1.0" encoding="utf-8"?>
<!-- Generator: Adobe Illustrator 17.0.0, SVG Export Plug-In . SVG Version: 6.00 Build 0)  -->
<!DOCTYPE svg PUBLIC "-//W3C//DTD SVG 1.1//EN" "http://www.w3.org/Graphics/SVG/1.1/DTD/svg11.dtd">
<svg version="1.1" id="Calque_1" xmlns="http://www.w3.org/2000/svg" xmlns:xlink="http://www.w3.org/1999/xlink" x="0px" y="0px"
	 width="60px" height="60px" viewBox="0 0 60 60" enable-background="new 0 0 60 60" xml:space="preserve">
<g>
	<polygon fill="#E9463A" points="47.664,48.831 13.021,48.831 10.735,27.831 49.265,27.831 	"/>
	<polygon fill-rule="evenodd" clip-rule="evenodd" fill="#FFFFFF" points="34.027,32.146 32.041,45.972 28.872,45.972 25.98,39.273 
		28.281,37.113 30.088,42.044 30.131,42.321 30.174,42.16 31.729,34.954 	"/>
	<polygon fill="#FFFFFF" points="16.711,28 42.954,28 43.488,24.103 42.998,24.103 43.44,20.18 42.643,20.18 42.977,16.436 
		42.231,16.436 42.563,13.064 17.1,13.064 17.433,16.436 16.688,16.436 16.971,20.18 16.225,20.18 16.689,24.103 16.176,24.103 	"/>
	<polygon fill="#EE7170" points="49.133,28 43.093,11 16.915,11 10.875,28 16.711,28 16.176,24.103 16.689,24.103 16.225,20.18 
		16.971,20.18 16.688,16.436 17.433,16.436 17.1,13.064 42.563,13.064 42.231,16.436 42.977,16.436 42.643,20.18 43.44,20.18 
		42.998,24.103 43.488,24.103 42.954,28 	"/>
</g>
</svg>
