<?xml version="1.0" encoding="utf-8"?>
<!-- Generator: Adobe Illustrator 17.0.0, SVG Export Plug-In . SVG Version: 6.00 Build 0)  -->
<!DOCTYPE svg PUBLIC "-//W3C//DTD SVG 1.1//EN" "http://www.w3.org/Graphics/SVG/1.1/DTD/svg11.dtd">
<svg version="1.1" id="Calque_1" xmlns="http://www.w3.org/2000/svg" xmlns:xlink="http://www.w3.org/1999/xlink" x="0px" y="0px"
	 width="60px" height="60px" viewBox="0 0 60 60" enable-background="new 0 0 60 60" xml:space="preserve">
<circle fill="#FFFFFF" cx="30.212" cy="30.268" r="20.356"/>
<path fill="#E9463A" d="M39.661,27.161l-1.404-2.65l-6.447,3.417c-0.435-0.298-0.959-0.472-1.523-0.487l-6.154-11.607l-2.65,1.404
	l6.221,11.735c-0.202,0.39-0.326,0.825-0.326,1.294c0,1.565,1.269,2.835,2.835,2.835c1.421,0,2.587-1.05,2.792-2.414L39.661,27.161z
	"/>
<path fill="#343434" d="M30.212,9.912c-11.242,0-20.356,9.114-20.356,20.356c0,11.242,9.114,20.356,20.356,20.356
	c11.242,0,20.355-9.115,20.355-20.356C50.568,19.026,41.454,9.912,30.212,9.912z M43.492,41.42l-1.541-1.541L39.83,42l1.541,1.541
	c-2.66,2.24-5.998,3.69-9.659,4.006v-2.185h-3v2.185c-3.661-0.315-6.999-1.766-9.659-4.006L20.595,42l-2.121-2.121l-1.541,1.541
	c-2.238-2.66-3.686-5.998-4.001-9.658h2.179v-3h-2.179c0.316-3.659,1.767-6.994,4.005-9.653l1.536,1.536l2.121-2.121l-1.536-1.536
	c2.659-2.237,5.995-3.685,9.653-4.001v2.174h3v-2.174c3.658,0.315,6.994,1.764,9.653,4.001l-1.536,1.536l2.121,2.121l1.536-1.536
	c2.238,2.659,3.689,5.994,4.005,9.653h-2.179v3h2.179C47.178,35.422,45.729,38.76,43.492,41.42z"/>
</svg>
