<?xml version="1.0" encoding="utf-8"?>
<!-- Generator: Adobe Illustrator 17.0.0, SVG Export Plug-In . SVG Version: 6.00 Build 0)  -->
<!DOCTYPE svg PUBLIC "-//W3C//DTD SVG 1.1//EN" "http://www.w3.org/Graphics/SVG/1.1/DTD/svg11.dtd">
<svg version="1.1" id="Calque_1" xmlns="http://www.w3.org/2000/svg" xmlns:xlink="http://www.w3.org/1999/xlink" x="0px" y="0px"
	 width="60px" height="60px" viewBox="0 0 60 60" enable-background="new 0 0 60 60" xml:space="preserve">
<g>
	<path fill="#343434" d="M27.816,32.862c-0.05-4.587-3.981-8.291-8.828-8.291c-4.836,0-8.76,3.688-8.827,8.261l-0.006-0.01
		c0,0.031,0.002,0.058,0.002,0.088c0,0.013-0.002,0.026-0.002,0.04c0,0.036,0.005,0.07,0.006,0.105
		c0.06,6.109,2.401,7.848,3.299,7.848c0.421,0,0.643-0.239,0.769-0.494c-0.512-0.672-0.937-1.44-1.221-2.297
		c-0.075,0.021-0.248,0.007-0.645-0.107c-0.953-0.274-2.077-5.179-0.408-5.643c0.309-0.083,0.56-0.022,0.768,0.126
		c-0.003,0.011-0.008,0.02-0.012,0.031l0.398,0.449c0,0,7.731-2.343,7.731-3.734c-0.005,1.59,3.031,3.973,3.965,3.917
		c0.768-0.047,0.684-0.473,0.63-0.624c0.127-0.019,0.265-0.016,0.42,0.03c1.682,0.511,0.685,5.386-0.261,5.633
		s-0.653-0.038-0.653-0.038l-0.008-0.059c-0.278,0.844-0.692,1.602-1.191,2.269c0.12,0.273,0.348,0.542,0.797,0.542
		c0.91,0,3.304-1.776,3.304-8.082L27.816,32.862z"/>
	<path fill="#E8463A" d="M25.854,32.556c-0.08-0.024-0.154-0.034-0.227-0.039c-0.067-0.004-0.132,0-0.193,0.009h0
		c0.054,0.152,0.138,0.578-0.63,0.624c-0.934,0.057-3.97-2.326-3.965-3.917c0,1.391-7.731,3.734-7.731,3.734l-0.398-0.449
		c0.003-0.011,0.008-0.02,0.012-0.031h0c-0.093-0.066-0.198-0.108-0.31-0.134c-0.023-0.005-0.045-0.011-0.068-0.014
		c-0.119-0.017-0.247-0.016-0.39,0.022c-1.669,0.464-0.546,5.368,0.408,5.643c0.396,0.114,0.57,0.128,0.645,0.107
		c0.139,0.418,0.313,0.814,0.513,1.189c0.016,0.03,0.034,0.058,0.05,0.088c0.197,0.36,0.416,0.703,0.658,1.02
		c1.171,1.536,2.851,2.516,4.738,2.516c1.906,0,3.602-1,4.774-2.564c0.237-0.317,0.451-0.657,0.645-1.014
		c0.014-0.026,0.03-0.05,0.044-0.077c0.196-0.372,0.366-0.764,0.503-1.177l0.008,0.059c0,0-0.293,0.286,0.653,0.038
		S27.535,33.067,25.854,32.556z M18.925,40.903c-1.757-0.039-3.446-1.376-3.002-2.005c0.35-0.496,1.014,0.769,3.002,0.769
		c2.085,0,2.653-1.265,3.002-0.769C22.371,39.528,20.778,40.865,18.925,40.903z"/>
	<path fill="#DD3B36" d="M23.228,42.419c-1.183,1.108-2.665,1.773-4.31,1.773c-1.638,0-3.129-0.66-4.31-1.761
		c-3.414,0.678-5.757,2.128-5.757,3.808c0,0.291-0.051,4.218-0.051,4.218c0.947,1.922,19.179,2.092,20.179,0.229
		c0,0,0-4.114,0-4.446C28.98,44.549,26.668,43.091,23.228,42.419z"/>
</g>
<g>
	<path fill="#FFFFFF" d="M31.414,24.108h-6.559V6.504h25.012v17.605H39.554l-8.14,5.442V24.108z"/>
</g>
<g>
	<rect x="27.635" y="9.916" fill="#E9463A" width="16.801" height="1.47"/>
	<rect x="27.635" y="12.937" fill="#E9463A" width="15.736" height="1.471"/>
	<rect x="27.635" y="15.959" fill="#E9463A" width="17.865" height="1.47"/>
	<rect x="27.635" y="18.98" fill="#E9463A" width="16.686" height="1.471"/>
</g>
<g>
	<rect x="26.071" y="24.108" fill="#343434" width="5.343" height="1.216"/>
	<polygon fill="#343434" points="49.867,7.719 49.867,24.108 39.554,24.108 32.63,28.737 32.63,30.766 40.77,25.324 51.083,25.324 
		51.083,7.719 	"/>
</g>
</svg>
