<?xml version="1.0" encoding="utf-8"?>
<!-- Generator: Adobe Illustrator 17.0.0, SVG Export Plug-In . SVG Version: 6.00 Build 0)  -->
<!DOCTYPE svg PUBLIC "-//W3C//DTD SVG 1.1//EN" "http://www.w3.org/Graphics/SVG/1.1/DTD/svg11.dtd">
<svg version="1.1" id="Calque_1" xmlns="http://www.w3.org/2000/svg" xmlns:xlink="http://www.w3.org/1999/xlink" x="0px" y="0px"
	 width="60px" height="60px" viewBox="0 0 60 60" enable-background="new 0 0 60 60" xml:space="preserve">
<rect x="37.984" y="37.328" fill="#FFFFFF" width="8.081" height="2.089"/>
<path fill="#343434" d="M48.506,26.359l-1.57,4.709h-2.693l1.598-4.709h-3.482l-1.57,4.709h-2.693l1.598-4.709h-3.601l-1.57,4.709
	h-2.693l1.598-4.709h-3.719l-1.57,4.709h-2.693l1.598-4.709h-3.246l-1.57,4.709h-2.693l1.598-4.709h-3.654l-1.556,4.667h-2.693
	l1.584-4.667h-2.188v22.643h36.507V26.359H48.506z M15.756,37.328h6.663v2.089h-6.663V37.328z M32.006,43.586h-16.25v-2.088h16.25
	V43.586z M36.046,39.416H24.418v-2.089h11.628V39.416z"/>
<g>
	<polygon fill="#343434" points="17.228,24.931 20.471,23.931 17.05,19.699 13.782,20.707 	"/>
	<polygon fill="#343434" points="46.333,15.957 46.963,15.763 44.957,11.094 42.887,11.732 	"/>
	<polygon fill="#343434" points="22.935,17.884 19.555,18.927 23.001,23.151 26.356,22.117 	"/>
	<polygon fill="#343434" points="28.931,16.035 25.439,17.112 28.886,21.337 32.352,20.268 	"/>
	<polygon fill="#343434" points="11.277,21.479 10.591,21.69 12.597,26.359 14.698,25.711 	"/>
	<polygon fill="#343434" points="34.482,14.324 31.435,15.263 34.881,19.488 37.903,18.556 	"/>
	<polygon fill="#343434" points="40.383,12.504 36.987,13.551 40.432,17.776 43.804,16.736 	"/>
</g>
</svg>
