<?xml version="1.0" encoding="utf-8"?>
<!-- Generator: Adobe Illustrator 17.0.0, SVG Export Plug-In . SVG Version: 6.00 Build 0)  -->
<!DOCTYPE svg PUBLIC "-//W3C//DTD SVG 1.1//EN" "http://www.w3.org/Graphics/SVG/1.1/DTD/svg11.dtd">
<svg version="1.1" id="Calque_1" xmlns="http://www.w3.org/2000/svg" xmlns:xlink="http://www.w3.org/1999/xlink" x="0px" y="0px"
	 width="60px" height="60px" viewBox="0 0 60 60" enable-background="new 0 0 60 60" xml:space="preserve">
<path fill="#343434" d="M47.083,12.491c0.069-3.151-1.424-4.686-4.653-4.757c-3.508-0.077-8.257,4.566-11.414,9.494
	c-3.154-4.906-7.863-9.512-11.339-9.442c-3.216,0.065-4.699,1.596-4.624,4.748c0.1,4.205,5.42,7.049,9.701,8.661l-7.391,6.888
	l4.375,0.583l1.292,3.167l4.93-5.593v25.258h6V25.987l5.154,5.846l1.292-3.167l4.375-0.583l-7.447-6.94
	C41.633,19.541,46.991,16.705,47.083,12.491z M19.011,12.454c-0.004-0.163,0-0.293,0.008-0.392c0.161-0.033,0.406-0.066,0.759-0.073
	c0.394-0.008,2.103,0.59,4.69,3.349c0.561,0.598,1.112,1.245,1.639,1.92C20.82,15.28,19.029,13.207,19.011,12.454z M35.993,17.192
	c0.528-0.674,1.08-1.32,1.642-1.916c2.593-2.754,4.307-3.349,4.703-3.34c0.354,0.008,0.601,0.042,0.762,0.075
	c0.008,0.1,0.012,0.229,0.009,0.392C43.092,13.156,41.297,15.225,35.993,17.192z"/>
<g>
	<polygon fill="#E9463A" points="23.03,31.833 21.738,28.667 17.363,28.083 24.429,21.498 14.48,21.498 14.48,27.498 15.48,27.498 
		15.48,51.498 27.96,51.498 27.96,26.241 	"/>
	<polygon fill="#E9463A" points="44.78,28.083 40.405,28.667 39.113,31.833 33.96,25.987 33.96,51.498 45.48,51.498 45.48,27.498 
		46.48,27.498 46.48,21.498 37.714,21.498 	"/>
</g>
</svg>
