<?xml version="1.0" encoding="utf-8"?>
<!-- Generator: Adobe Illustrator 17.0.0, SVG Export Plug-In . SVG Version: 6.00 Build 0)  -->
<!DOCTYPE svg PUBLIC "-//W3C//DTD SVG 1.1//EN" "http://www.w3.org/Graphics/SVG/1.1/DTD/svg11.dtd">
<svg version="1.1" id="Calque_1" xmlns="http://www.w3.org/2000/svg" xmlns:xlink="http://www.w3.org/1999/xlink" x="0px" y="0px"
	 width="60px" height="60px" viewBox="0 0 60 60" enable-background="new 0 0 60 60" xml:space="preserve">
<circle fill="#E9463A" cx="16.727" cy="41.353" r="5.832"/>
<ellipse fill="#E9463A" cx="29.196" cy="15.931" rx="7.364" ry="7.167"/>
<circle fill="#E9463A" cx="43.37" cy="41.353" r="5.832"/>
<path fill="#343434" stroke="#343434" stroke-width="0.75" d="M29.774,29.808v-6.739c-0.191,0.015-0.383,0.028-0.578,0.028
	c-0.115,0-0.227-0.012-0.341-0.017v6.727H16.307v5.736c0.139-0.01,0.278-0.021,0.42-0.021c0.169,0,0.334,0.011,0.499,0.025v-4.821
	h25.716v4.818c0.142-0.01,0.284-0.022,0.428-0.022c0.166,0,0.33,0.011,0.492,0.025v-5.739H29.774z"/>
</svg>
