<?xml version="1.0" encoding="utf-8"?>
<!-- Generator: Adobe Illustrator 17.0.0, SVG Export Plug-In . SVG Version: 6.00 Build 0)  -->
<!DOCTYPE svg PUBLIC "-//W3C//DTD SVG 1.1//EN" "http://www.w3.org/Graphics/SVG/1.1/DTD/svg11.dtd">
<svg version="1.1" id="Calque_1" xmlns="http://www.w3.org/2000/svg" xmlns:xlink="http://www.w3.org/1999/xlink" x="0px" y="0px"
	 width="60px" height="60px" viewBox="0 0 60 60" enable-background="new 0 0 60 60" xml:space="preserve">
<path fill="#E9463A" d="M12.207,10.677v14.828L38.18,51.269l14.704-14.587L27.153,11.16L12.207,10.677z M22.586,21.699
	c-1.355,1.343-3.551,1.343-4.906,0.001c-1.347-1.346-1.347-3.525,0.001-4.869c1.354-1.329,3.552-1.329,4.906,0
	C23.933,18.174,23.933,20.353,22.586,21.699z"/>
<polygon fill="#FFFFFF" points="41.391,42.183 25.146,26.064 27.372,23.846 43.617,39.968 "/>
<polygon fill="#FFFFFF" points="35.278,43.463 21.438,29.741 23.672,27.522 37.505,41.247 "/>
<polygon fill="#FFFFFF" points="44.034,37.464 28.848,22.385 31.081,20.186 46.266,35.25 "/>
</svg>
