<?xml version="1.0" encoding="utf-8"?>
<!-- Generator: Adobe Illustrator 17.0.0, SVG Export Plug-In . SVG Version: 6.00 Build 0)  -->
<!DOCTYPE svg PUBLIC "-//W3C//DTD SVG 1.1//EN" "http://www.w3.org/Graphics/SVG/1.1/DTD/svg11.dtd">
<svg version="1.1" id="Calque_1" xmlns="http://www.w3.org/2000/svg" xmlns:xlink="http://www.w3.org/1999/xlink" x="0px" y="0px"
	 width="60px" height="60px" viewBox="0 0 60 60" enable-background="new 0 0 60 60" xml:space="preserve">
<rect x="13.98" y="7.498" fill="#343434" width="32" height="44"/>
<polygon fill="#FFFFFF" points="35.98,11.404 35.98,14.498 23.98,14.498 23.98,11.404 22.706,11.404 16.165,18.75 16.165,48.585 
	43.29,48.585 43.29,11.404 "/>
<polygon fill="#B4B4B4" points="22.706,11.404 16.165,18.75 22.706,18.75 "/>
<rect x="23.98" y="7.498" fill="#E9463A" width="12" height="7"/>
<rect x="19.274" y="20.747" fill="#E9463A" width="1.265" height="1.264"/>
<rect x="19.274" y="25.202" fill="#E9463A" width="1.265" height="1.264"/>
<rect x="19.274" y="29.657" fill="#E9463A" width="1.265" height="1.264"/>
<rect x="19.274" y="34.113" fill="#E9463A" width="1.265" height="1.264"/>
<rect x="19.274" y="38.568" fill="#E9463A" width="1.265" height="1.264"/>
<polygon fill="#E9463A" points="38.778,20.815 38.303,21.12 39.218,21.988 41.282,19.698 39.251,21.401 "/>
<polygon fill="#343434" points="40.224,25.536 40.224,26.695 38.516,26.695 38.516,25.971 38.378,25.84 38.378,26.834 
	40.362,26.834 40.362,25.383 "/>
<polygon fill="#343434" points="38.516,24.942 40.131,24.942 40.296,24.803 38.378,24.803 38.378,25.366 38.516,25.278 "/>
<polygon fill="#E9463A" points="38.778,25.274 38.303,25.578 39.218,26.447 41.282,24.158 39.251,25.86 "/>
<polygon fill="#343434" points="40.224,29.876 40.224,31.036 38.516,31.036 38.516,30.311 38.378,30.179 38.378,31.173 
	40.362,31.173 40.362,29.722 "/>
<polygon fill="#343434" points="38.516,29.281 40.131,29.281 40.296,29.143 38.378,29.143 38.378,29.706 38.516,29.618 "/>
<polygon fill="#E9463A" points="38.778,29.614 38.303,29.918 39.218,30.787 41.282,28.497 39.251,30.201 "/>
<path fill="#343434" d="M40.341,35.748h-1.985v-1.964h1.985V35.748z M38.535,35.569h1.627v-1.606h-1.627V35.569z"/>
<path fill="#343434" d="M40.341,40.227h-1.985v-1.964h1.985V40.227z M38.535,40.048h1.627v-1.605h-1.627V40.048z"/>
<g>
	<path fill="#343434" d="M22.322,25.4c-0.084,0-0.15,0.035-0.197,0.104c-0.049,0.069-0.072,0.165-0.072,0.288
		c0,0.254,0.098,0.381,0.289,0.381c0.059,0,0.115-0.009,0.17-0.024c0.055-0.017,0.111-0.036,0.166-0.059v0.302
		c-0.109,0.049-0.234,0.072-0.373,0.072c-0.199,0-0.354-0.058-0.459-0.173s-0.16-0.282-0.16-0.501c0-0.137,0.027-0.257,0.078-0.36
		s0.125-0.184,0.223-0.239c0.096-0.056,0.209-0.083,0.34-0.083c0.143,0,0.279,0.03,0.41,0.093l-0.109,0.28
		c-0.049-0.022-0.098-0.042-0.146-0.058S22.378,25.4,22.322,25.4z"/>
	<path fill="#343434" d="M24.066,26.447h-0.357v-0.538h-0.416v0.538h-0.357v-1.32h0.357v0.489h0.416v-0.489h0.357V26.447z"/>
	<path fill="#343434" d="M25.136,26.447h-0.785v-1.32h0.785v0.286h-0.428v0.208h0.395v0.286h-0.395v0.249h0.428V26.447z"/>
	<path fill="#343434" d="M25.954,25.4c-0.086,0-0.152,0.035-0.199,0.104s-0.07,0.165-0.07,0.288c0,0.254,0.096,0.381,0.289,0.381
		c0.059,0,0.115-0.009,0.17-0.024c0.055-0.017,0.109-0.036,0.164-0.059v0.302c-0.109,0.049-0.234,0.072-0.373,0.072
		c-0.199,0-0.352-0.058-0.459-0.173c-0.105-0.115-0.158-0.282-0.158-0.501c0-0.137,0.025-0.257,0.076-0.36
		c0.053-0.104,0.127-0.184,0.223-0.239c0.098-0.056,0.211-0.083,0.342-0.083c0.143,0,0.279,0.03,0.408,0.093l-0.109,0.28
		c-0.049-0.022-0.098-0.042-0.146-0.058S26.009,25.4,25.954,25.4z"/>
	<path fill="#343434" d="M27.695,26.447h-0.402l-0.262-0.505l-0.105,0.063v0.441h-0.359v-1.32h0.359V25.7
		c0.018-0.035,0.055-0.092,0.109-0.169l0.277-0.404H27.7l-0.416,0.592L27.695,26.447z"/>
	<path fill="#343434" d="M28.9,26.447h-0.357v-1.028H28.22v-0.292h1.002v0.292H28.9V26.447z"/>
	<path fill="#343434" d="M30.542,26.447h-0.359v-0.538h-0.414v0.538h-0.359v-1.32h0.359v0.489h0.414v-0.489h0.359V26.447z"/>
	<path fill="#343434" d="M31.611,26.447h-0.783v-1.32h0.783v0.286h-0.428v0.208h0.396v0.286h-0.396v0.249h0.428V26.447z"/>
	<path fill="#343434" d="M32.673,26.447h-0.352v-1.32h0.781v0.286h-0.43v0.252h0.396v0.286h-0.396V26.447z"/>
	<path fill="#343434" d="M33.32,26.447v-1.32h0.357v1.32H33.32z"/>
	<path fill="#343434" d="M34.32,25.967v0.48h-0.357v-1.32h0.434c0.357,0,0.537,0.13,0.537,0.391c0,0.152-0.074,0.271-0.223,0.354
		l0.385,0.575h-0.406l-0.279-0.48H34.32z M34.32,25.698h0.066c0.125,0,0.188-0.055,0.188-0.165c0-0.091-0.061-0.136-0.184-0.136
		h-0.07V25.698z"/>
	<path fill="#343434" d="M36.077,26.046c0,0.082-0.02,0.155-0.062,0.219c-0.041,0.063-0.102,0.112-0.18,0.147
		s-0.17,0.053-0.275,0.053c-0.088,0-0.16-0.006-0.221-0.018c-0.059-0.013-0.121-0.034-0.186-0.065v-0.317
		c0.068,0.035,0.139,0.062,0.213,0.082c0.072,0.02,0.141,0.029,0.201,0.029c0.053,0,0.092-0.01,0.117-0.028
		c0.023-0.018,0.037-0.042,0.037-0.07c0-0.019-0.006-0.034-0.016-0.048s-0.025-0.027-0.047-0.041
		c-0.023-0.014-0.082-0.042-0.176-0.085c-0.086-0.039-0.152-0.077-0.195-0.113c-0.043-0.037-0.074-0.079-0.096-0.127
		c-0.02-0.047-0.031-0.104-0.031-0.169c0-0.121,0.045-0.216,0.133-0.284c0.09-0.067,0.211-0.102,0.365-0.102
		c0.137,0,0.277,0.031,0.418,0.095l-0.109,0.275c-0.123-0.057-0.229-0.085-0.318-0.085c-0.047,0-0.08,0.008-0.102,0.024
		c-0.021,0.016-0.031,0.036-0.031,0.061c0,0.025,0.014,0.049,0.039,0.069c0.027,0.021,0.1,0.058,0.219,0.112
		c0.113,0.051,0.193,0.105,0.236,0.164C36.056,25.884,36.077,25.957,36.077,26.046z"/>
	<path fill="#343434" d="M36.864,26.447h-0.357v-1.028h-0.322v-0.292h1.002v0.292h-0.322V26.447z"/>
</g>
<g>
	<path fill="#343434" d="M22.857,29.671v0.795c0,0.173-0.049,0.307-0.146,0.401s-0.238,0.142-0.424,0.142
		c-0.18,0-0.318-0.046-0.414-0.138c-0.098-0.092-0.145-0.225-0.145-0.397v-0.803h0.357v0.774c0,0.094,0.018,0.161,0.053,0.204
		c0.035,0.042,0.086,0.062,0.154,0.062c0.072,0,0.125-0.021,0.158-0.062s0.049-0.11,0.049-0.205v-0.773H22.857z"/>
	<path fill="#343434" d="M23.997,30.59c0,0.082-0.021,0.155-0.062,0.219s-0.102,0.112-0.18,0.147s-0.17,0.053-0.275,0.053
		c-0.088,0-0.162-0.006-0.221-0.018c-0.061-0.013-0.123-0.034-0.188-0.065v-0.317c0.068,0.035,0.139,0.062,0.213,0.082
		s0.141,0.029,0.203,0.029c0.053,0,0.092-0.01,0.115-0.028c0.025-0.018,0.037-0.042,0.037-0.07c0-0.019-0.004-0.034-0.014-0.048
		c-0.012-0.014-0.027-0.027-0.049-0.041s-0.08-0.042-0.176-0.085c-0.086-0.039-0.15-0.077-0.193-0.113
		c-0.043-0.037-0.074-0.079-0.096-0.127c-0.021-0.047-0.031-0.104-0.031-0.169c0-0.121,0.045-0.216,0.133-0.284
		c0.088-0.067,0.211-0.102,0.365-0.102c0.137,0,0.275,0.031,0.418,0.095l-0.109,0.275c-0.123-0.057-0.23-0.085-0.32-0.085
		c-0.047,0-0.08,0.008-0.102,0.024c-0.02,0.016-0.031,0.036-0.031,0.061c0,0.025,0.014,0.049,0.041,0.069s0.1,0.058,0.217,0.112
		c0.115,0.051,0.193,0.105,0.238,0.164C23.974,30.428,23.997,30.501,23.997,30.59z"/>
	<path fill="#343434" d="M24.986,30.991H24.2v-1.32h0.785v0.286h-0.428v0.208h0.395v0.286h-0.395V30.7h0.428V30.991z"/>
	<path fill="#343434" d="M26.439,29.671h0.398l-0.432,1.32h-0.42l-0.432-1.32h0.402l0.18,0.669c0.037,0.149,0.057,0.253,0.061,0.311
		c0.004-0.042,0.012-0.095,0.025-0.157c0.012-0.063,0.023-0.113,0.033-0.149L26.439,29.671z"/>
	<path fill="#343434" d="M26.952,29.714c0-0.054,0.016-0.093,0.045-0.119c0.029-0.025,0.076-0.038,0.143-0.038
		c0.064,0,0.113,0.013,0.143,0.039c0.031,0.026,0.045,0.066,0.045,0.118c0,0.104-0.062,0.155-0.188,0.155
		S26.952,29.817,26.952,29.714z M27.314,30.991h-0.352v-1.023h0.352V30.991z"/>
	<path fill="#343434" d="M28.704,29.671v0.795c0,0.173-0.051,0.307-0.148,0.401s-0.238,0.142-0.422,0.142
		c-0.18,0-0.318-0.046-0.416-0.138c-0.096-0.092-0.145-0.225-0.145-0.397v-0.803h0.359v0.774c0,0.094,0.018,0.161,0.051,0.204
		c0.035,0.042,0.088,0.062,0.156,0.062c0.072,0,0.125-0.021,0.158-0.062c0.031-0.042,0.049-0.11,0.049-0.205v-0.773H28.704z"/>
	<path fill="#343434" d="M29.337,30.511v0.48h-0.355v-1.32h0.432c0.359,0,0.539,0.13,0.539,0.391c0,0.152-0.074,0.271-0.225,0.354
		l0.385,0.575h-0.404l-0.279-0.48H29.337z M29.337,30.242h0.068c0.123,0,0.186-0.055,0.186-0.165c0-0.091-0.061-0.136-0.184-0.136
		h-0.07V30.242z"/>
</g>
<g>
	<path fill="#343434" d="M22.519,35.455h-0.785v-1.32h0.785v0.286h-0.428v0.208h0.395v0.286h-0.395v0.249h0.428V35.455z"/>
	<path fill="#343434" d="M23.939,35.455h-0.414l-0.256-0.413l-0.256,0.413h-0.402l0.438-0.676l-0.412-0.645h0.396l0.238,0.408
		l0.229-0.408h0.408l-0.42,0.673L23.939,35.455z"/>
	<path fill="#343434" d="M24.87,35.455h-0.783v-1.32h0.783v0.286h-0.428v0.208h0.396v0.286h-0.396v0.249h0.428V35.455z"/>
	<path fill="#343434" d="M25.689,34.408c-0.084,0-0.15,0.035-0.197,0.104c-0.049,0.069-0.072,0.165-0.072,0.288
		c0,0.254,0.098,0.381,0.289,0.381c0.059,0,0.115-0.009,0.17-0.024c0.055-0.017,0.111-0.036,0.166-0.059V35.4
		c-0.109,0.049-0.234,0.072-0.373,0.072c-0.199,0-0.354-0.058-0.459-0.173s-0.16-0.282-0.16-0.501c0-0.137,0.027-0.257,0.078-0.36
		s0.125-0.184,0.223-0.239c0.096-0.056,0.209-0.083,0.34-0.083c0.143,0,0.279,0.03,0.41,0.093l-0.109,0.28
		c-0.049-0.022-0.098-0.042-0.146-0.058S25.745,34.408,25.689,34.408z"/>
	<path fill="#343434" d="M27.138,34.975v0.48h-0.355v-1.32h0.432c0.359,0,0.539,0.13,0.539,0.391c0,0.152-0.074,0.271-0.225,0.354
		l0.385,0.575h-0.404l-0.279-0.48H27.138z M27.138,34.706h0.068c0.123,0,0.186-0.055,0.186-0.165c0-0.091-0.061-0.136-0.184-0.136
		h-0.07V34.706z"/>
	<path fill="#343434" d="M28.818,35.455h-0.783v-1.32h0.783v0.286H28.39v0.208h0.396v0.286H28.39v0.249h0.428V35.455z"/>
	<path fill="#343434" d="M30.284,34.793c0,0.3-0.096,0.501-0.285,0.605l0.322,0.371h-0.445l-0.232-0.294v-0.001v-0.001l-0.002-0.001
		c-0.207,0-0.365-0.058-0.477-0.174c-0.109-0.116-0.166-0.285-0.166-0.508c0-0.22,0.055-0.387,0.166-0.503
		c0.109-0.116,0.27-0.174,0.479-0.174c0.211,0,0.369,0.058,0.479,0.172C30.23,34.401,30.284,34.57,30.284,34.793z M29.376,34.793
		c0,0.256,0.088,0.383,0.266,0.383c0.09,0,0.158-0.03,0.201-0.093c0.043-0.062,0.064-0.158,0.064-0.29s-0.021-0.229-0.066-0.292
		c-0.043-0.062-0.109-0.095-0.197-0.095C29.464,34.406,29.376,34.535,29.376,34.793z"/>
	<path fill="#343434" d="M31.646,34.135v0.795c0,0.173-0.051,0.307-0.148,0.401s-0.238,0.142-0.422,0.142
		c-0.18,0-0.318-0.046-0.416-0.138c-0.096-0.092-0.145-0.225-0.145-0.397v-0.803h0.359v0.774c0,0.094,0.018,0.161,0.051,0.204
		c0.035,0.042,0.088,0.062,0.156,0.062c0.072,0,0.125-0.021,0.158-0.062c0.031-0.042,0.049-0.11,0.049-0.205v-0.773H31.646z"/>
	<path fill="#343434" d="M32.706,35.455h-0.785v-1.32h0.785v0.286h-0.428v0.208h0.395v0.286h-0.395v0.249h0.428V35.455z"/>
	<path fill="#343434" d="M33.8,35.054c0,0.082-0.02,0.155-0.062,0.219c-0.041,0.063-0.102,0.112-0.18,0.147s-0.17,0.053-0.275,0.053
		c-0.088,0-0.16-0.006-0.221-0.018c-0.059-0.013-0.121-0.034-0.186-0.065v-0.317c0.068,0.035,0.139,0.062,0.213,0.082
		c0.072,0.02,0.141,0.029,0.201,0.029c0.053,0,0.092-0.01,0.117-0.028c0.023-0.018,0.037-0.042,0.037-0.07
		c0-0.019-0.006-0.034-0.016-0.048s-0.025-0.027-0.047-0.041c-0.023-0.014-0.082-0.042-0.176-0.085
		c-0.086-0.039-0.152-0.077-0.195-0.113c-0.043-0.037-0.074-0.079-0.096-0.127c-0.02-0.047-0.031-0.104-0.031-0.169
		c0-0.121,0.045-0.216,0.133-0.284c0.09-0.067,0.211-0.102,0.365-0.102c0.137,0,0.277,0.031,0.418,0.095l-0.109,0.275
		c-0.123-0.057-0.229-0.085-0.318-0.085c-0.047,0-0.08,0.008-0.102,0.024c-0.021,0.016-0.031,0.036-0.031,0.061
		c0,0.025,0.014,0.049,0.039,0.069c0.027,0.021,0.1,0.058,0.219,0.112c0.113,0.051,0.193,0.105,0.236,0.164
		C33.779,34.892,33.8,34.965,33.8,35.054z"/>
	<path fill="#343434" d="M34.587,35.455H34.23v-1.028h-0.322v-0.292h1.002v0.292h-0.322V35.455z"/>
</g>
<g>
	<path fill="#343434" d="M22.085,39.84h-0.352v-1.32h0.781v0.286h-0.43v0.252h0.396v0.286h-0.396V39.84z"/>
	<path fill="#343434" d="M23.515,39.84h-0.783v-1.32h0.783v0.286h-0.428v0.208h0.396V39.3h-0.396v0.249h0.428V39.84z"/>
	<path fill="#343434" d="M24.53,39.84h-0.785v-1.32h0.785v0.286h-0.428v0.208h0.395V39.3h-0.395v0.249h0.428V39.84z"/>
	<path fill="#343434" d="M24.761,39.84v-1.32h0.357v1.032h0.508v0.288H24.761z"/>
	<path fill="#343434" d="M26.902,39.84h-0.357v-1.028h-0.322V38.52h1v0.292h-0.32V39.84z"/>
	<path fill="#343434" d="M28.542,39.84h-0.357v-0.538h-0.416v0.538h-0.357v-1.32h0.357v0.489h0.416V38.52h0.357V39.84z"/>
	<path fill="#343434" d="M29.611,39.84h-0.783v-1.32h0.783v0.286h-0.428v0.208h0.396V39.3h-0.396v0.249h0.428V39.84z"/>
	<path fill="#343434" d="M30.898,39.84l-0.27-0.951H30.62c0.012,0.162,0.02,0.288,0.02,0.378v0.573h-0.316v-1.32h0.475l0.275,0.938
		h0.008l0.27-0.938h0.477v1.32h-0.328v-0.579c0-0.03,0-0.063,0-0.1c0.002-0.037,0.006-0.127,0.014-0.271h-0.008l-0.268,0.949H30.898
		z"/>
	<path fill="#343434" d="M32.921,39.84l-0.064-0.247h-0.43l-0.066,0.247h-0.393l0.432-1.325h0.475l0.438,1.325H32.921z M32.782,39.3
		l-0.057-0.217c-0.014-0.048-0.029-0.11-0.049-0.187c-0.02-0.077-0.031-0.132-0.037-0.165c-0.006,0.031-0.016,0.082-0.033,0.152
		c-0.016,0.07-0.051,0.209-0.105,0.416H32.782z"/>
	<path fill="#343434" d="M33.984,39.066h0.57v0.712c-0.154,0.053-0.324,0.079-0.51,0.079c-0.203,0-0.361-0.059-0.473-0.177
		s-0.166-0.286-0.166-0.505c0-0.213,0.061-0.379,0.182-0.497c0.121-0.119,0.293-0.178,0.512-0.178c0.082,0,0.162,0.008,0.234,0.023
		c0.074,0.016,0.139,0.035,0.193,0.06l-0.113,0.279c-0.094-0.047-0.199-0.07-0.312-0.07c-0.104,0-0.186,0.034-0.242,0.102
		c-0.057,0.068-0.086,0.165-0.086,0.291c0,0.123,0.027,0.217,0.078,0.282c0.051,0.064,0.125,0.097,0.223,0.097
		c0.053,0,0.102-0.005,0.146-0.016v-0.207h-0.236V39.066z"/>
	<path fill="#343434" d="M34.823,39.84v-1.32h0.357v1.32H34.823z"/>
	<path fill="#343434" d="M36.054,38.793c-0.084,0-0.15,0.035-0.197,0.104c-0.049,0.069-0.072,0.165-0.072,0.288
		c0,0.254,0.098,0.381,0.289,0.381c0.059,0,0.115-0.009,0.17-0.024c0.055-0.017,0.111-0.036,0.166-0.059v0.302
		c-0.109,0.049-0.234,0.072-0.373,0.072c-0.199,0-0.354-0.058-0.459-0.173s-0.16-0.282-0.16-0.501c0-0.137,0.027-0.257,0.078-0.36
		s0.125-0.184,0.223-0.239c0.096-0.056,0.209-0.083,0.34-0.083c0.143,0,0.279,0.03,0.41,0.093l-0.109,0.28
		c-0.049-0.022-0.098-0.042-0.146-0.058S36.111,38.793,36.054,38.793z"/>
</g>
<g>
	<path fill="#343434" d="M22.31,22.043l-0.27-0.952h-0.008c0.012,0.162,0.018,0.288,0.018,0.378v0.574h-0.316v-1.321h0.477
		l0.275,0.938h0.008l0.27-0.938h0.477v1.321h-0.328v-0.579c0-0.03,0-0.063,0.002-0.101c0-0.037,0.004-0.127,0.012-0.271h-0.008
		l-0.268,0.95H22.31z"/>
	<path fill="#343434" d="M24.335,22.043l-0.064-0.248h-0.43l-0.066,0.248h-0.393l0.43-1.327h0.477l0.438,1.327H24.335z
		 M24.197,21.503l-0.057-0.218c-0.014-0.048-0.029-0.11-0.049-0.187c-0.02-0.077-0.031-0.132-0.037-0.165
		c-0.006,0.031-0.018,0.082-0.033,0.152s-0.051,0.209-0.105,0.417H24.197z"/>
	<path fill="#343434" d="M25.997,22.043h-0.404l-0.26-0.505l-0.105,0.062v0.442h-0.359v-1.321h0.359v0.574
		c0.018-0.036,0.055-0.093,0.109-0.17l0.277-0.404h0.391l-0.418,0.592L25.997,22.043z"/>
	<path fill="#343434" d="M26.925,22.043H26.14v-1.321h0.785v0.286h-0.428v0.208h0.395v0.287h-0.395v0.249h0.428V22.043z"/>
	<path fill="#343434" d="M28.447,22.043l-0.064-0.248h-0.43l-0.066,0.248h-0.393l0.432-1.327h0.477l0.436,1.327H28.447z
		 M28.308,21.503l-0.057-0.218c-0.014-0.048-0.029-0.11-0.049-0.187c-0.018-0.077-0.031-0.132-0.037-0.165
		c-0.006,0.031-0.016,0.082-0.031,0.152c-0.018,0.07-0.053,0.209-0.107,0.417H28.308z"/>
	<path fill="#343434" d="M29.462,22.043v-1.321h0.357v1.033h0.508v0.288H29.462z"/>
	<path fill="#343434" d="M30.538,22.043v-1.321h0.359v1.321H30.538z"/>
	<path fill="#343434" d="M32.048,21.642c0,0.082-0.021,0.154-0.063,0.219c-0.041,0.063-0.102,0.112-0.18,0.147
		s-0.17,0.054-0.275,0.054c-0.088,0-0.162-0.007-0.223-0.019c-0.059-0.013-0.121-0.034-0.186-0.065V21.66
		c0.068,0.034,0.139,0.062,0.213,0.081c0.072,0.02,0.141,0.029,0.201,0.029c0.053,0,0.092-0.009,0.117-0.027s0.037-0.042,0.037-0.07
		c0-0.019-0.006-0.034-0.016-0.048s-0.025-0.027-0.047-0.041s-0.08-0.042-0.176-0.085c-0.086-0.039-0.15-0.077-0.193-0.114
		c-0.045-0.036-0.076-0.079-0.098-0.126c-0.02-0.048-0.029-0.104-0.029-0.169c0-0.122,0.043-0.217,0.133-0.285
		c0.088-0.068,0.209-0.103,0.365-0.103c0.137,0,0.275,0.032,0.418,0.096l-0.109,0.275c-0.123-0.057-0.23-0.085-0.32-0.085
		c-0.047,0-0.08,0.008-0.102,0.024s-0.031,0.036-0.031,0.061c0,0.025,0.014,0.049,0.041,0.069c0.025,0.021,0.1,0.058,0.217,0.112
		c0.115,0.051,0.193,0.106,0.238,0.165C32.025,21.479,32.048,21.553,32.048,21.642z"/>
	<path fill="#343434" d="M32.835,22.043h-0.357v-1.029h-0.322v-0.292h1.002v0.292h-0.322V22.043z"/>
</g>
<polygon fill="#343434" points="40.224,21.085 40.224,22.244 38.516,22.244 38.516,21.52 38.378,21.389 38.378,22.383 
	40.362,22.383 40.362,20.932 "/>
<polygon fill="#343434" points="38.516,20.491 40.131,20.491 40.296,20.352 38.378,20.352 38.378,20.915 38.516,20.827 "/>
</svg>
