<?xml version="1.0" encoding="utf-8"?>
<!-- Generator: Adobe Illustrator 17.0.0, SVG Export Plug-In . SVG Version: 6.00 Build 0)  -->
<!DOCTYPE svg PUBLIC "-//W3C//DTD SVG 1.1//EN" "http://www.w3.org/Graphics/SVG/1.1/DTD/svg11.dtd">
<svg version="1.1" id="Calque_1" xmlns="http://www.w3.org/2000/svg" xmlns:xlink="http://www.w3.org/1999/xlink" x="0px" y="0px"
	 width="60px" height="60px" viewBox="0 0 60 60" enable-background="new 0 0 60 60" xml:space="preserve">
<g>
	<path fill="#E9463A" d="M40.318,43.512"/>
	<path fill="#E9463A" d="M42.488,18.027c-0.75-1.674-1.834-3.182-3.176-4.449c-1.34-1.265-2.938-2.288-4.709-2.996
		c-1.774-0.708-3.723-1.1-5.768-1.1c-2.045,0-3.996,0.392-5.769,1.1c-1.772,0.708-3.369,1.731-4.71,2.996
		c-1.341,1.267-2.425,2.774-3.176,4.449c-0.748,1.674-1.163,3.513-1.163,5.448c0,1.931,0.415,3.771,1.163,5.445
		c0.751,1.675,11.775,19.376,13.656,21.154c1.819-1.717,12.903-19.479,13.653-21.154c0.75-1.674,1.165-3.515,1.165-5.445
		C43.653,21.541,43.238,19.701,42.488,18.027z M28.835,27.921c-3.081,0-5.579-2.357-5.579-5.267c0-2.908,2.497-5.268,5.579-5.268
		c3.079,0,5.576,2.361,5.576,5.268C34.411,25.564,31.914,27.921,28.835,27.921z"/>
</g>
</svg>
