<?xml version="1.0" encoding="utf-8"?>
<!-- Generator: Adobe Illustrator 17.0.0, SVG Export Plug-In . SVG Version: 6.00 Build 0)  -->
<!DOCTYPE svg PUBLIC "-//W3C//DTD SVG 1.1//EN" "http://www.w3.org/Graphics/SVG/1.1/DTD/svg11.dtd">
<svg version="1.1" xmlns="http://www.w3.org/2000/svg" xmlns:xlink="http://www.w3.org/1999/xlink" x="0px" y="0px" width="60px"
	 height="60px" viewBox="0 0 60 60" enable-background="new 0 0 60 60" xml:space="preserve">
<g id="Calque_1">
	<path fill="#E9463A" d="M45.98,10.893H17.73c-1.65,0-3.069,1.348-3.154,2.996c0,0-1.557,30.275-1.561,33.694
		c-0.004,2.542,2.216,3.902,4.549,3.902c1.917,0,28.833,0,28.833,0c1.65,0,2.811,0.074,2.579-1.559l-0.299-6.093
		c1.303,0,1.116-1.438,1.116-1.438s-3.024-30.116-3.074-30.787C46.667,10.938,45.98,10.893,45.98,10.893z"/>
	<g id="path2489_2_">
		<path fill="#FFFFFF" d="M47.739,44.17H16.998c-1.543,0.176-2.788,1.508-2.788,3.098c0,1.591,1.245,2.922,2.788,3.099h30.741
			v-0.061c-1.642-0.078-2.974-1.377-2.974-3.038s0.73-3.019,2.372-3.098H47.739z"/>
	</g>
	<g>
		<path fill="#FFFFFF" d="M31.968,20.71c-0.327,0.339-0.764,0.504-0.764,0.504c0.02-0.115,0.55-0.699,0.55-0.699l2.689-2.966
			l0.045,0.365C34.488,17.914,32.296,20.372,31.968,20.71 M30.983,21.04c0,0,0.123-0.45,0.43-0.808
			c0.306-0.357,2.547-2.771,2.547-2.771l0.368,0.011l-2.7,2.955C31.627,20.427,31.096,21.009,30.983,21.04 M34.553,17.338
			l-0.604-0.051l-2.874,3.14c0,0-0.348,0.43-0.389,0.716c-0.041,0.287-0.235,0.44-0.45,0.471c-0.215,0.03-0.808,0.337-0.563,0.828
			c0.246,0.491,0.685,0.246,0.818,0.133c0.133-0.113,0.225-0.349,0.235-0.604c0.01-0.255,0.256-0.357,0.358-0.378
			c0.102-0.021,0.297-0.143,0.634-0.461c0.338-0.317,2.915-3.201,2.915-3.201L34.553,17.338z"/>
		<path fill="#FFFFFF" d="M30.513,20.386c-0.296,0.447-0.237,0.614-0.272,0.724c-0.001,0.008-0.004,0.011-0.004,0.011
			c0.002-0.004,0.003-0.008,0.004-0.011c0.004-0.028-0.016-0.113-0.281-0.305c-0.338-0.246-0.89-0.082-1.002-0.89
			c0,0,0.123,0.123,0.235,0.133c0.112,0.011,0.286,0.103,0.296,0.205c0,0,0.123-0.307-0.143-0.665
			c-0.266-0.357-0.256-0.675-0.143-0.889c0,0,0.113,0.337,0.399,0.337c0,0-0.011-0.102-0.072-0.174c0,0,0.235,0.194,0.368,0.235
			c0.133,0.041,0.716,0.46,0.277,0.982c0,0,0.389-0.153,0.317-0.808C30.492,19.271,30.994,19.66,30.513,20.386 M31.004,19.097
			c-0.182-0.715-0.154-1.207-0.143-1.472c0,0-0.327,0.337-0.327,0.818c0,0-0.87-1.534,0.071-2.128c0,0-1.289,0.113-1.769,1.565
			c0,0-0.154-0.071-0.174-0.44c0,0-0.869,0.982,0.072,2.291c0,0-0.143,0.133-0.481-0.266c0,0-0.215,0.859,0.869,1.248
			c0,0-0.071,0.072-0.215,0c0,0,0.082,0.317,0.481,0.389c0.399,0.072,0.767,0.021,0.736,0.43c0,0,0.522,0.143,0.501-0.879
			c0,0-0.143,0.092-0.143,0.163c0,0,0.01-0.215,0.256-0.44C30.983,20.151,31.177,19.782,31.004,19.097"/>
	</g>
	<g>
		<path fill="#FFFFFF" d="M23.493,26.944H22.98v-1.933h1.143v0.419h-0.629V25.8h0.58v0.419h-0.58V26.944z"/>
		<path fill="#FFFFFF" d="M25.624,26.944l-0.095-0.362h-0.628l-0.098,0.362H24.23l0.631-1.94h0.696l0.639,1.94H25.624z
			 M25.421,26.154l-0.084-0.317c-0.02-0.07-0.043-0.162-0.07-0.273c-0.027-0.112-0.046-0.192-0.055-0.24
			c-0.008,0.045-0.023,0.118-0.047,0.222c-0.023,0.103-0.075,0.306-0.155,0.609H25.421z"/>
		<path fill="#FFFFFF" d="M28.06,26.944h-0.524v-0.788h-0.606v0.788h-0.524v-1.933h0.524v0.717h0.606v-0.717h0.524V26.944z"/>
		<path fill="#FFFFFF" d="M28.999,26.241v0.703h-0.521v-1.933h0.633c0.525,0,0.787,0.19,0.787,0.571c0,0.224-0.109,0.397-0.327,0.52
			l0.563,0.842h-0.593l-0.409-0.703H28.999z M28.999,25.849h0.098c0.184,0,0.273-0.08,0.273-0.242c0-0.133-0.089-0.199-0.268-0.199
			h-0.104V25.849z"/>
		<path fill="#FFFFFF" d="M31.456,26.944H30.31v-1.933h1.146v0.419h-0.625v0.305h0.579v0.419h-0.579v0.364h0.625V26.944z"/>
		<path fill="#FFFFFF" d="M33.634,26.944H32.95l-0.706-1.361h-0.012c0.017,0.214,0.024,0.378,0.024,0.49v0.871h-0.462v-1.933h0.682
			l0.703,1.343h0.008c-0.013-0.194-0.019-0.351-0.019-0.469v-0.874h0.465V26.944z"/>
		<path fill="#FFFFFF" d="M35.708,26.944h-0.525v-0.788h-0.605v0.788h-0.525v-1.933h0.525v0.717h0.605v-0.717h0.525V26.944z"/>
		<path fill="#FFFFFF" d="M37.273,26.944h-1.146v-1.933h1.146v0.419h-0.625v0.305h0.578v0.419h-0.578v0.364h0.625V26.944z"/>
		<path fill="#FFFFFF" d="M37.612,26.944v-1.933h0.524v1.933H37.612z"/>
		<path fill="#FFFFFF" d="M39.405,26.944h-0.521v-1.505h-0.473v-0.428h1.465v0.428h-0.471V26.944z"/>
	</g>
	<g>
		<path fill="#FFFFFF" d="M29.366,33.185h-0.473v0.832h-1.146v-0.832h-1.713v-0.852l1.786-2.613h1.073v2.599h0.473V33.185z
			 M27.747,32.318v-0.5c0-0.094,0.004-0.221,0.01-0.381c0.008-0.159,0.013-0.243,0.017-0.251h-0.032
			c-0.066,0.15-0.143,0.292-0.227,0.423l-0.477,0.709H27.747z"/>
		<path fill="#FFFFFF" d="M31.409,31.201c0.246,0,0.47,0.058,0.668,0.172c0.199,0.114,0.354,0.276,0.465,0.486
			c0.11,0.21,0.166,0.452,0.166,0.726c0,0.48-0.145,0.849-0.434,1.105c-0.289,0.257-0.727,0.385-1.313,0.385
			c-0.502,0-0.91-0.077-1.229-0.232v-0.952c0.171,0.079,0.363,0.144,0.578,0.194s0.398,0.076,0.554,0.076
			c0.216,0,0.381-0.045,0.497-0.137c0.115-0.091,0.173-0.226,0.173-0.403c0-0.165-0.059-0.293-0.177-0.386
			c-0.117-0.092-0.295-0.138-0.534-0.138c-0.183,0-0.38,0.034-0.591,0.103l-0.426-0.212l0.161-2.269h2.451v0.967h-1.464
			l-0.053,0.567c0.152-0.029,0.262-0.046,0.326-0.049S31.355,31.201,31.409,31.201z"/>
		<path fill="#FFFFFF" d="M35.753,34.017h-1.18v-2.274c0-0.276,0.006-0.529,0.018-0.759c-0.072,0.089-0.162,0.181-0.27,0.276
			l-0.488,0.402l-0.602-0.74l1.475-1.202h1.047V34.017z"/>
	</g>
</g>
<g id="Calque_2">
</g>
</svg>
