<?xml version="1.0" encoding="utf-8"?>
<!-- Generator: Adobe Illustrator 17.0.0, SVG Export Plug-In . SVG Version: 6.00 Build 0)  -->
<!DOCTYPE svg PUBLIC "-//W3C//DTD SVG 1.1//EN" "http://www.w3.org/Graphics/SVG/1.1/DTD/svg11.dtd">
<svg version="1.1" id="Calque_1" xmlns="http://www.w3.org/2000/svg" xmlns:xlink="http://www.w3.org/1999/xlink" x="0px" y="0px"
	 width="60px" height="60px" viewBox="0 0 60 60" enable-background="new 0 0 60 60" xml:space="preserve">
<path fill="#343434" d="M49.138,10.852l-26.197,9.388v20.388c-1.288-0.643-2.898-1.029-4.65-1.029c-4.218,0-7.639,2.216-7.639,4.947
	c0,2.732,3.421,4.947,7.639,4.947c4.219,0,7.639-2.215,7.639-4.947v-0.001c0.002-0.024,0.012-0.036,0.012-0.062V27.489l20.162-7.275
	v14.566c-1.281-0.629-2.872-1.006-4.603-1.006c-4.219,0-7.64,2.215-7.64,4.946c0,2.731,3.421,4.946,7.64,4.946
	c4.218,0,7.639-2.215,7.639-4.946c0-0.066-0.011-0.13-0.014-0.195c0.003-0.028,0.014-0.044,0.014-0.078V10.852z"/>
</svg>
