<?xml version="1.0" encoding="utf-8"?>
<!-- Generator: Adobe Illustrator 17.0.0, SVG Export Plug-In . SVG Version: 6.00 Build 0)  -->
<!DOCTYPE svg PUBLIC "-//W3C//DTD SVG 1.1//EN" "http://www.w3.org/Graphics/SVG/1.1/DTD/svg11.dtd">
<svg version="1.1" id="Calque_1" xmlns="http://www.w3.org/2000/svg" xmlns:xlink="http://www.w3.org/1999/xlink" x="0px" y="0px"
	 width="60px" height="60px" viewBox="0 0 60 60" enable-background="new 0 0 60 60" xml:space="preserve">
<g>
	<path fill="#343434" d="M24.741,32.23c0.026,0.699,0.154,1.37,0.373,2.001H38.16c0.219-0.631,0.348-1.303,0.373-2.001H24.741z"/>
	<path fill="#343434" d="M49.252,13.611V32.23h-7.398c-0.017,0.686-0.099,1.355-0.245,2.001h9.644v-20.62H49.252z"/>
	<path fill="#343434" d="M21.42,32.23H10.542v2.001h11.123C21.52,33.585,21.437,32.916,21.42,32.23z"/>
</g>
<g>
	<path fill="#FFFFFF" d="M38.547,31.973c0-3.81-3.099-6.909-6.909-6.909s-6.909,3.099-6.909,6.909c0,0.086,0.01,0.17,0.013,0.256
		h13.792C38.537,32.144,38.547,32.06,38.547,31.973z"/>
	<path fill="#FFFFFF" d="M8.541,11.61v20.62H21.42c-0.002-0.086-0.013-0.17-0.013-0.256c0-5.65,4.58-10.23,10.23-10.23
		s10.23,4.58,10.23,10.23c0,0.086-0.011,0.17-0.013,0.256h7.398V11.61H8.541z"/>
</g>
<g>
	<g opacity="0.6">
		<path fill="#FFFFFF" d="M33.228,42.067c0.362-0.057,0.717-0.131,1.065-0.225C33.946,41.937,33.59,42.01,33.228,42.067z"/>
	</g>
	<g opacity="0.6">
		<path fill="#FFFFFF" d="M34.45,41.802c0.862-0.246,1.673-0.604,2.426-1.054C36.124,41.198,35.31,41.554,34.45,41.802z"/>
	</g>
	<g opacity="0.6">
		<path fill="#FFFFFF" d="M31.641,42.203c0.435,0,0.862-0.036,1.283-0.089C32.503,42.168,32.076,42.203,31.641,42.203z"/>
	</g>
	<g opacity="0.6">
		<path fill="#FFFFFF" d="M38.547,31.973c0-3.81-3.099-6.909-6.909-6.909s-6.909,3.099-6.909,6.909s3.099,6.909,6.909,6.909
			S38.547,35.783,38.547,31.973z"/>
	</g>
	<g opacity="0.6">
		<path fill="#FFFFFF" d="M41.867,31.974c0,0.432-0.035,0.856-0.088,1.274C41.832,32.829,41.867,32.406,41.867,31.974z"/>
	</g>
	<g opacity="0.6">
		<path fill="#FFFFFF" d="M31.637,21.743c5.65,0,10.23,4.58,10.23,10.23l0,0C41.867,26.323,37.287,21.743,31.637,21.743
			c-5.65,0-10.23,4.58-10.23,10.23l0,0C21.407,26.323,25.988,21.743,31.637,21.743z"/>
	</g>
	<g opacity="0.6">
		<path fill="#FFFFFF" d="M41.471,34.767c-0.243,0.846-0.588,1.648-1.026,2.391C40.884,36.415,41.231,35.615,41.471,34.767z"/>
	</g>
	<g opacity="0.6">
		<path fill="#FFFFFF" d="M41.733,33.552c-0.055,0.35-0.125,0.696-0.215,1.033C41.607,34.247,41.679,33.903,41.733,33.552z"/>
	</g>
</g>
<path fill="#343434" d="M51.051,47.764L40.445,37.158c0.898-1.522,1.422-3.29,1.422-5.185c0-5.65-4.58-10.23-10.23-10.23
	s-10.23,4.58-10.23,10.23s4.58,10.23,10.23,10.23c1.917,0,3.705-0.537,5.239-1.455l10.595,10.595L51.051,47.764z M24.728,31.973
	c0-3.81,3.099-6.909,6.909-6.909s6.909,3.099,6.909,6.909s-3.099,6.909-6.909,6.909S24.728,35.783,24.728,31.973z"/>
<path fill="#B4B4B4" d="M31.637,21.743c0.178,0,0.351,0.018,0.527,0.027l14.395-6.52l-0.825-1.822l-16.96,7.683l-17.092-7.684
	l-0.82,1.824l16.523,7.427C28.681,22.084,30.118,21.743,31.637,21.743z"/>
</svg>
