<?xml version="1.0" encoding="utf-8"?>
<!-- Generator: Adobe Illustrator 17.0.0, SVG Export Plug-In . SVG Version: 6.00 Build 0)  -->
<!DOCTYPE svg PUBLIC "-//W3C//DTD SVG 1.1//EN" "http://www.w3.org/Graphics/SVG/1.1/DTD/svg11.dtd">
<svg version="1.1" id="Calque_1" xmlns="http://www.w3.org/2000/svg" xmlns:xlink="http://www.w3.org/1999/xlink" x="0px" y="0px"
	 width="60px" height="60px" viewBox="0 0 60 60" enable-background="new 0 0 60 60" xml:space="preserve">
<g>
	<path fill="#FFFFFF" d="M19.014,41.529H8.219V12.556h41.165v28.974H32.411l-13.398,8.957V41.529z"/>
</g>
<g>
	<path fill="#E9463A" d="M26.363,34.012c0-0.771,0.206-1.353,0.617-1.748c0.412-0.394,1.013-0.592,1.8-0.592
		c0.76,0,1.349,0.201,1.766,0.606c0.418,0.404,0.625,0.982,0.625,1.734c0,0.726-0.211,1.299-0.631,1.717
		c-0.423,0.418-1.008,0.626-1.76,0.626c-0.769,0-1.365-0.205-1.786-0.613C26.572,35.333,26.363,34.757,26.363,34.012z
		 M30.472,29.301h-3.355l-0.701-13.457h4.756L30.472,29.301z"/>
</g>
<g>
	<rect x="10.221" y="41.53" fill="#343434" width="8.793" height="2.001"/>
	<polygon fill="#343434" points="49.384,14.557 49.384,41.53 32.411,41.53 21.015,49.148 21.015,52.488 34.413,43.531 
		51.385,43.531 51.385,14.557 	"/>
</g>
</svg>
