<?xml version="1.0" encoding="utf-8"?>
<!-- Generator: Adobe Illustrator 17.0.0, SVG Export Plug-In . SVG Version: 6.00 Build 0)  -->
<!DOCTYPE svg PUBLIC "-//W3C//DTD SVG 1.1//EN" "http://www.w3.org/Graphics/SVG/1.1/DTD/svg11.dtd">
<svg version="1.1" id="Calque_1" xmlns="http://www.w3.org/2000/svg" xmlns:xlink="http://www.w3.org/1999/xlink" x="0px" y="0px"
	 width="60px" height="60px" viewBox="0 0 60 60" enable-background="new 0 0 60 60" xml:space="preserve">
<polygon fill="#343434" points="50.106,32.123 50.106,50.742 11.396,50.742 11.396,52.743 52.107,52.743 52.107,32.123 "/>
<polygon fill="#FFFFFF" points="45.231,30.122 45.231,10.03 24.256,10.03 14.351,21.292 14.351,30.122 9.394,30.122 9.394,50.742 
	50.106,50.742 50.106,30.122 "/>
<rect x="18.936" y="24.339" fill="#E9463A" width="19.768" height="1.828"/>
<rect x="18.936" y="28.096" fill="#E9463A" width="22.442" height="1.827"/>
<rect x="18.936" y="31.851" fill="#E9463A" width="20.961" height="1.828"/>
<polygon fill="#B4B4B4" points="24.256,10.03 14.351,21.292 24.256,21.292 "/>
<polygon fill="#B4B4B4" points="29.631,41.816 11.715,33.764 12.535,31.94 29.627,39.622 46.588,31.941 47.412,33.763 "/>
<polygon fill="#E9463A" points="24.256,20.584 24.256,21.292 18.936,21.292 18.936,22.411 40.041,22.411 40.041,20.584 "/>
<rect x="45.231" y="11.894" fill="#343434" width="2.181" height="19.957"/>
</svg>
