<?xml version="1.0" encoding="utf-8"?>
<!-- Generator: Adobe Illustrator 17.0.0, SVG Export Plug-In . SVG Version: 6.00 Build 0)  -->
<!DOCTYPE svg PUBLIC "-//W3C//DTD SVG 1.1//EN" "http://www.w3.org/Graphics/SVG/1.1/DTD/svg11.dtd">
<svg version="1.1" id="Calque_1" xmlns="http://www.w3.org/2000/svg" xmlns:xlink="http://www.w3.org/1999/xlink" x="0px" y="0px"
	 width="60px" height="60px" viewBox="0 0 60 60" enable-background="new 0 0 60 60" xml:space="preserve">
<rect x="8.856" y="10.61" fill="#FFFFFF" width="40.711" height="20.62"/>
<polygon fill="#343434" points="49.567,12.611 49.567,31.23 10.857,31.23 10.857,33.231 51.568,33.231 51.568,12.611 "/>
<polygon fill="#B4B4B4" points="29.092,22.304 11.176,14.251 11.997,12.427 29.089,20.111 46.049,12.428 46.874,14.25 "/>
<path fill="#8DC04E" d="M47.315,41.6l-0.004-0.007l-5.822-5.828l-2.604,2.654l3.862,3.912H20.836c-0.407,0-0.649-0.234-1.199-1.125
	c-0.482-0.781-0.397-1.86-0.397-3.059v-4.916h-4v5.026c0,1.905,0.229,3.745,1.079,5.123c1.106,1.791,2.555,2.952,4.517,2.952h22.075
	l-3.978,3.803l2.604,2.516l8.381-8.425L47.315,41.6z"/>
</svg>
