<?xml version="1.0" encoding="utf-8"?>
<!-- Generator: Adobe Illustrator 17.0.0, SVG Export Plug-In . SVG Version: 6.00 Build 0)  -->
<!DOCTYPE svg PUBLIC "-//W3C//DTD SVG 1.1//EN" "http://www.w3.org/Graphics/SVG/1.1/DTD/svg11.dtd">
<svg version="1.1" id="Calque_1" xmlns="http://www.w3.org/2000/svg" xmlns:xlink="http://www.w3.org/1999/xlink" x="0px" y="0px"
	 width="60px" height="60px" viewBox="0 0 60 60" enable-background="new 0 0 60 60" xml:space="preserve">
<rect x="9.708" y="10.586" fill-rule="evenodd" clip-rule="evenodd" fill="#DDD1C6" width="40.215" height="40.214"/>
<path fill-rule="evenodd" clip-rule="evenodd" fill="#8DC04E" d="M40.091,25.659v-1.146c0-3.57-1.632-5.355-4.896-5.355h-9.84
	c-3.246,0-4.903,1.612-4.984,4.824h-0.007v0.56v1.714h-1.976v2.621h1.976v2.379h-1.976v2.621h1.976v1.972v0.242
	c0,3.216,1.506,4.824,4.516,4.824h0.475h6.629h3.211c3.264,0,4.896-1.785,4.896-5.355v-1.146h-3.66v1.773
	c0,0.611-0.301,0.917-0.904,0.917h-3.542h-7.056c-0.635,0-0.95-0.402-0.95-1.207v-2.021h6.482v-2.621h-6.482v-2.379h6.482v-2.621
	h-6.482v-1.762v-0.704c0-0.547,0.253-0.821,0.759-0.821h10.789c0.603,0,0.904,0.306,0.904,0.916v1.774H40.091z"/>
</svg>
