<?xml version="1.0" encoding="utf-8"?>
<!-- Generator: Adobe Illustrator 17.0.0, SVG Export Plug-In . SVG Version: 6.00 Build 0)  -->
<!DOCTYPE svg PUBLIC "-//W3C//DTD SVG 1.1//EN" "http://www.w3.org/Graphics/SVG/1.1/DTD/svg11.dtd">
<svg version="1.1" id="Calque_1" xmlns="http://www.w3.org/2000/svg" xmlns:xlink="http://www.w3.org/1999/xlink" x="0px" y="0px"
	 width="60px" height="60px" viewBox="0 0 60 60" enable-background="new 0 0 60 60" xml:space="preserve">
<polygon fill="#FFFFFF" points="45.719,8.152 24.079,8.152 13.861,19.894 13.861,51.819 45.719,51.819 "/>
<polygon fill="#B4B4B4" points="24.079,8.152 13.861,19.894 24.079,19.894 "/>
<polygon fill="#343434" points="45.719,14.023 45.719,51.819 19.826,51.819 19.826,54.25 48.253,54.25 48.253,14.023 "/>
<g>
	<path fill="#343434" d="M27.048,20.234c0,0.13-0.033,0.245-0.099,0.346c-0.066,0.101-0.161,0.179-0.285,0.234
		s-0.27,0.084-0.437,0.084c-0.14,0-0.256-0.01-0.351-0.029s-0.193-0.054-0.295-0.103v-0.504c0.107,0.056,0.22,0.099,0.336,0.13
		c0.117,0.031,0.224,0.047,0.321,0.047c0.084,0,0.146-0.015,0.185-0.044s0.059-0.066,0.059-0.112c0-0.029-0.008-0.054-0.023-0.075
		s-0.041-0.043-0.076-0.065c-0.035-0.021-0.128-0.066-0.278-0.135c-0.137-0.062-0.239-0.122-0.307-0.18
		c-0.068-0.059-0.119-0.125-0.152-0.201c-0.033-0.075-0.049-0.164-0.049-0.268c0-0.192,0.069-0.343,0.21-0.45
		c0.141-0.108,0.333-0.162,0.578-0.162c0.217,0,0.438,0.05,0.663,0.15l-0.173,0.437c-0.196-0.09-0.365-0.135-0.507-0.135
		c-0.074,0-0.127,0.013-0.161,0.039c-0.033,0.025-0.05,0.058-0.05,0.096c0,0.041,0.021,0.078,0.063,0.11
		c0.043,0.032,0.158,0.092,0.346,0.178c0.181,0.081,0.306,0.168,0.376,0.261S27.048,20.093,27.048,20.234z"/>
	<path fill="#343434" d="M28.295,20.87H27.73v-1.631h-0.511v-0.462h1.586v0.462h-0.51V20.87z"/>
	<path fill="#343434" d="M30.387,20.87l-0.103-0.393h-0.68l-0.106,0.393h-0.621l0.683-2.102h0.755l0.691,2.102H30.387z
		 M30.167,20.014l-0.091-0.344c-0.021-0.076-0.046-0.175-0.076-0.296s-0.05-0.208-0.06-0.261c-0.009,0.049-0.025,0.129-0.051,0.24
		c-0.025,0.112-0.081,0.332-0.168,0.66H30.167z"/>
	<path fill="#343434" d="M33.225,20.87h-0.741l-0.765-1.475h-0.013c0.018,0.231,0.027,0.409,0.027,0.531v0.943h-0.501v-2.093h0.738
		l0.762,1.454h0.009c-0.014-0.211-0.021-0.38-0.021-0.508v-0.946h0.504V20.87z"/>
	<path fill="#343434" d="M35.454,19.779c0,0.349-0.097,0.618-0.289,0.808c-0.192,0.188-0.462,0.283-0.811,0.283h-0.677v-2.093h0.724
		c0.336,0,0.596,0.086,0.778,0.258C35.363,19.206,35.454,19.455,35.454,19.779z M34.867,19.799c0-0.191-0.038-0.334-0.114-0.427
		c-0.076-0.092-0.191-0.139-0.346-0.139h-0.164v1.173h0.126c0.172,0,0.297-0.05,0.378-0.149
		C34.827,20.157,34.867,20.004,34.867,19.799z"/>
	<path fill="#343434" d="M37.072,20.87h-1.242v-2.093h1.242v0.453h-0.677v0.33h0.627v0.453h-0.627v0.396h0.677V20.87z"/>
	<path fill="#343434" d="M39.431,20.87H38.69l-0.765-1.475h-0.013c0.018,0.231,0.027,0.409,0.027,0.531v0.943h-0.501v-2.093h0.738
		l0.762,1.454h0.009c-0.014-0.211-0.021-0.38-0.021-0.508v-0.946h0.504V20.87z"/>
	<path fill="#343434" d="M41.125,20.87h-1.242v-2.093h1.242v0.453h-0.677v0.33h0.627v0.453h-0.627v0.396h0.677V20.87z"/>
	<g>
		<path fill="#343434" d="M20.053,23.186h0.729c0.284,0,0.496,0.042,0.634,0.127c0.138,0.084,0.207,0.216,0.207,0.395
			c0,0.117-0.03,0.218-0.091,0.301c-0.06,0.083-0.139,0.136-0.237,0.16v0.014c0.13,0.035,0.224,0.092,0.282,0.172
			c0.058,0.08,0.087,0.185,0.087,0.312c0,0.189-0.071,0.34-0.214,0.448c-0.143,0.109-0.337,0.164-0.583,0.164h-0.814V23.186z
			 M20.618,23.989h0.17c0.081,0,0.144-0.018,0.188-0.051c0.044-0.033,0.066-0.083,0.066-0.148c0-0.117-0.089-0.177-0.267-0.177
			h-0.158V23.989z M20.618,24.402v0.439h0.198c0.177,0,0.266-0.074,0.266-0.224c0-0.069-0.024-0.123-0.071-0.16
			s-0.116-0.056-0.205-0.056H20.618z"/>
		<path fill="#343434" d="M23.987,24.23c0,0.352-0.087,0.619-0.259,0.803c-0.173,0.184-0.426,0.275-0.759,0.275
			c-0.329,0-0.58-0.093-0.756-0.276c-0.175-0.185-0.263-0.453-0.263-0.805c0-0.349,0.088-0.614,0.262-0.798s0.428-0.276,0.76-0.276
			c0.333,0,0.585,0.092,0.757,0.273C23.901,23.608,23.987,23.876,23.987,24.23z M22.546,24.23c0,0.404,0.141,0.606,0.423,0.606
			c0.143,0,0.249-0.049,0.318-0.147c0.069-0.098,0.104-0.251,0.104-0.459c0-0.209-0.035-0.363-0.105-0.463
			c-0.069-0.101-0.175-0.15-0.313-0.15C22.688,23.616,22.546,23.821,22.546,24.23z"/>
		<path fill="#343434" d="M25.287,25.278h-0.565v-1.63h-0.511v-0.463h1.586v0.463h-0.51V25.278z"/>
		<path fill="#343434" d="M27.465,24.643c0,0.13-0.033,0.245-0.099,0.346c-0.066,0.102-0.161,0.18-0.285,0.235
			s-0.27,0.084-0.437,0.084c-0.14,0-0.256-0.01-0.351-0.029c-0.095-0.021-0.193-0.054-0.295-0.103v-0.504
			c0.107,0.055,0.22,0.099,0.336,0.129c0.117,0.031,0.224,0.047,0.321,0.047c0.084,0,0.146-0.015,0.185-0.044
			c0.039-0.028,0.059-0.066,0.059-0.112c0-0.028-0.008-0.054-0.023-0.075s-0.041-0.043-0.076-0.064
			c-0.035-0.022-0.128-0.067-0.278-0.135c-0.137-0.062-0.239-0.122-0.307-0.181c-0.068-0.058-0.119-0.125-0.152-0.2
			s-0.049-0.165-0.049-0.268c0-0.193,0.069-0.344,0.21-0.451s0.333-0.162,0.578-0.162c0.217,0,0.438,0.051,0.663,0.15l-0.173,0.437
			c-0.196-0.089-0.365-0.134-0.507-0.134c-0.074,0-0.127,0.013-0.161,0.038c-0.033,0.026-0.05,0.058-0.05,0.096
			c0,0.041,0.021,0.078,0.063,0.11c0.043,0.033,0.158,0.092,0.346,0.178c0.181,0.081,0.306,0.168,0.376,0.262
			C27.43,24.385,27.465,24.502,27.465,24.643z"/>
		<path fill="#343434" d="M28.72,23.619c-0.135,0-0.239,0.056-0.315,0.166c-0.075,0.11-0.112,0.262-0.112,0.456
			c0,0.402,0.152,0.604,0.459,0.604c0.093,0,0.183-0.013,0.27-0.038c0.087-0.026,0.174-0.058,0.262-0.094v0.479
			c-0.175,0.077-0.372,0.116-0.593,0.116c-0.315,0-0.558-0.092-0.727-0.275c-0.168-0.184-0.253-0.448-0.253-0.794
			c0-0.217,0.041-0.407,0.123-0.571c0.081-0.164,0.199-0.291,0.352-0.379c0.153-0.088,0.334-0.133,0.541-0.133
			c0.226,0,0.442,0.05,0.648,0.147L29.2,23.748c-0.077-0.036-0.154-0.066-0.231-0.092C28.892,23.632,28.809,23.619,28.72,23.619z"/>
		<path fill="#343434" d="M31.484,25.278h-0.568v-0.853h-0.656v0.853h-0.568v-2.093h0.568v0.776h0.656v-0.776h0.568V25.278z"/>
		<path fill="#343434" d="M33.22,25.278l-0.103-0.392h-0.68l-0.106,0.392H31.71l0.683-2.102h0.755l0.691,2.102H33.22z M33,24.423
			l-0.091-0.344c-0.021-0.076-0.046-0.175-0.076-0.297c-0.03-0.121-0.05-0.208-0.06-0.26c-0.009,0.049-0.025,0.129-0.051,0.24
			s-0.081,0.332-0.168,0.66H33z"/>
		<path fill="#343434" d="M34.622,25.278h-0.557v-2.093h1.236v0.454h-0.68v0.399h0.627v0.454h-0.627V25.278z"/>
		<path fill="#343434" d="M36.569,25.278h-0.565v-1.63h-0.511v-0.463h1.586v0.463h-0.51V25.278z"/>
		<path fill="#343434" d="M38.62,25.278h-1.242v-2.093h1.242v0.454h-0.677v0.329h0.627v0.454h-0.627v0.395h0.677V25.278z"/>
		<path fill="#343434" d="M40.98,25.278h-0.741l-0.765-1.475h-0.013c0.018,0.232,0.027,0.409,0.027,0.531v0.943h-0.501v-2.093h0.738
			l0.762,1.454h0.009c-0.014-0.21-0.021-0.38-0.021-0.508v-0.946h0.504V25.278z"/>
	</g>
	<g>
		<path fill="#343434" d="M21.84,29.81h-0.638l-0.414-0.801l-0.167,0.101v0.7h-0.568v-2.093h0.568v0.909
			c0.028-0.057,0.086-0.146,0.173-0.269l0.439-0.641h0.618l-0.66,0.938L21.84,29.81z"/>
		<path fill="#343434" d="M24.025,28.76c0,0.353-0.087,0.62-0.259,0.804c-0.173,0.183-0.426,0.274-0.759,0.274
			c-0.329,0-0.58-0.092-0.756-0.276c-0.175-0.184-0.263-0.452-0.263-0.805c0-0.348,0.088-0.614,0.262-0.798s0.428-0.275,0.76-0.275
			c0.333,0,0.585,0.091,0.757,0.273S24.025,28.407,24.025,28.76z M22.417,27.303c0-0.071,0.021-0.127,0.065-0.167
			c0.044-0.039,0.104-0.06,0.178-0.06c0.075,0,0.135,0.021,0.18,0.062c0.044,0.04,0.066,0.096,0.066,0.165
			c0,0.067-0.022,0.122-0.066,0.162c-0.045,0.041-0.104,0.062-0.18,0.062c-0.074,0-0.134-0.02-0.178-0.059
			S22.417,27.373,22.417,27.303z M22.584,28.76c0,0.405,0.141,0.607,0.423,0.607c0.143,0,0.249-0.05,0.318-0.147
			c0.069-0.099,0.104-0.252,0.104-0.46c0-0.209-0.035-0.363-0.105-0.463c-0.069-0.1-0.175-0.149-0.313-0.149
			C22.726,28.148,22.584,28.352,22.584,28.76z M23.103,27.303c0-0.071,0.021-0.127,0.065-0.167c0.044-0.039,0.104-0.06,0.181-0.06
			s0.137,0.021,0.181,0.062c0.045,0.042,0.067,0.097,0.067,0.165c0,0.067-0.022,0.122-0.067,0.162
			c-0.044,0.041-0.104,0.062-0.181,0.062c-0.077,0-0.138-0.021-0.181-0.06C23.124,27.427,23.103,27.372,23.103,27.303z"/>
		<path fill="#343434" d="M26.396,29.81h-0.741l-0.765-1.475h-0.013c0.018,0.231,0.027,0.409,0.027,0.531v0.943h-0.501v-2.093h0.738
			l0.762,1.454h0.009c-0.014-0.211-0.021-0.38-0.021-0.508v-0.946h0.504V29.81z"/>
		<path fill="#343434" d="M28.84,29.81h-0.741l-0.765-1.475h-0.013c0.018,0.231,0.027,0.409,0.027,0.531v0.943h-0.501v-2.093h0.738
			l0.762,1.454h0.009c-0.014-0.211-0.021-0.38-0.021-0.508v-0.946h0.504V29.81z"/>
		<path fill="#343434" d="M30.535,29.81h-1.242v-2.093h1.242v0.453h-0.677v0.33h0.627v0.453h-0.627v0.396h0.677V29.81z"/>
		<path fill="#343434" d="M32.895,29.81h-0.741l-0.765-1.475h-0.013c0.018,0.231,0.027,0.409,0.027,0.531v0.943h-0.501v-2.093h0.738
			l0.762,1.454h0.009c-0.014-0.211-0.021-0.38-0.021-0.508v-0.946h0.504V29.81z"/>
		<path fill="#343434" d="M36.368,29.81H35.7l-0.201-0.912c-0.009-0.038-0.024-0.114-0.045-0.228s-0.035-0.209-0.045-0.285
			c-0.008,0.062-0.02,0.14-0.037,0.231s-0.034,0.177-0.051,0.254s-0.086,0.391-0.208,0.939h-0.669l-0.519-2.093h0.546l0.228,1.049
			c0.052,0.232,0.087,0.417,0.105,0.554c0.013-0.097,0.035-0.229,0.067-0.396c0.031-0.167,0.062-0.305,0.089-0.415l0.185-0.791
			h0.524l0.179,0.791c0.03,0.127,0.062,0.273,0.093,0.439c0.032,0.166,0.053,0.29,0.063,0.372c0.013-0.105,0.046-0.289,0.102-0.551
			l0.231-1.052h0.546L36.368,29.81z"/>
		<path fill="#343434" d="M38.397,29.81h-1.242v-2.093h1.242v0.453H37.72v0.33h0.627v0.453H37.72v0.396h0.677V29.81z"/>
		<path fill="#343434" d="M38.764,29.81v-2.093h0.565v1.636h0.806v0.457H38.764z"/>
	</g>
	<g>
		<path fill="#343434" d="M20.976,34.34H20.41v-1.63H19.9v-0.463h1.586v0.463h-0.51V34.34z"/>
		<path fill="#343434" d="M23.028,34.34h-1.242v-2.093h1.242v0.454h-0.677v0.329h0.627v0.454h-0.627v0.395h0.677V34.34z"/>
		<path fill="#343434" d="M25.386,34.34h-0.741l-0.765-1.475h-0.013c0.018,0.232,0.027,0.409,0.027,0.531v0.943h-0.501v-2.093h0.738
			l0.762,1.454h0.009c-0.014-0.21-0.021-0.38-0.021-0.508v-0.946h0.504V34.34z"/>
		<path fill="#343434" d="M27.776,32.247h0.633l-0.686,2.093h-0.666l-0.683-2.093h0.636l0.285,1.061
			c0.059,0.236,0.091,0.4,0.097,0.493c0.007-0.067,0.021-0.15,0.04-0.251c0.021-0.101,0.038-0.179,0.053-0.236L27.776,32.247z"/>
		<path fill="#343434" d="M29.877,34.34h-1.242v-2.093h1.242v0.454H29.2v0.329h0.627v0.454H29.2v0.395h0.677V34.34z"/>
		<path fill="#343434" d="M30.809,33.578v0.762h-0.565v-2.093h0.686c0.568,0,0.853,0.206,0.853,0.618
			c0,0.243-0.118,0.431-0.354,0.563l0.609,0.911h-0.641l-0.444-0.762H30.809z M30.809,33.153h0.105c0.197,0,0.297-0.087,0.297-0.262
			c0-0.145-0.098-0.217-0.291-0.217h-0.111V33.153z"/>
		<path fill="#343434" d="M33.511,34.34l-0.103-0.392h-0.68l-0.106,0.392h-0.621l0.683-2.102h0.755l0.691,2.102H33.511z
			 M32.505,31.834c0-0.072,0.021-0.128,0.065-0.167c0.044-0.04,0.104-0.06,0.178-0.06c0.075,0,0.136,0.021,0.18,0.061
			c0.045,0.041,0.066,0.096,0.066,0.166c0,0.067-0.021,0.121-0.066,0.162c-0.044,0.04-0.104,0.061-0.18,0.061
			c-0.074,0-0.134-0.02-0.178-0.059C32.527,31.959,32.505,31.904,32.505,31.834z M33.291,33.484L33.2,33.141
			c-0.021-0.076-0.046-0.175-0.076-0.297c-0.03-0.121-0.05-0.208-0.06-0.26c-0.009,0.049-0.025,0.129-0.051,0.24
			s-0.081,0.332-0.168,0.66H33.291z M33.191,31.834c0-0.072,0.022-0.128,0.066-0.167c0.043-0.04,0.104-0.06,0.18-0.06
			s0.137,0.021,0.182,0.062c0.044,0.041,0.066,0.096,0.066,0.165c0,0.067-0.022,0.121-0.066,0.162
			c-0.045,0.04-0.105,0.061-0.182,0.061c-0.077,0-0.138-0.02-0.181-0.06C33.212,31.958,33.191,31.903,33.191,31.834z"/>
		<path fill="#343434" d="M36.349,34.34h-0.741l-0.765-1.475H34.83c0.018,0.232,0.027,0.409,0.027,0.531v0.943h-0.501v-2.093h0.738
			l0.762,1.454h0.009c-0.014-0.21-0.021-0.38-0.021-0.508v-0.946h0.504V34.34z"/>
		<path fill="#343434" d="M38.577,33.249c0,0.35-0.097,0.619-0.289,0.808c-0.192,0.189-0.462,0.283-0.811,0.283h-0.677v-2.093h0.724
			c0.336,0,0.596,0.086,0.778,0.258S38.577,32.925,38.577,33.249z M37.99,33.27c0-0.192-0.038-0.334-0.114-0.427
			s-0.191-0.139-0.346-0.139h-0.164v1.172h0.126c0.172,0,0.297-0.05,0.378-0.149C37.95,33.627,37.99,33.475,37.99,33.27z"/>
		<path fill="#343434" d="M40.195,34.34h-1.242v-2.093h1.242v0.454h-0.677v0.329h0.627v0.454h-0.627v0.395h0.677V34.34z"/>
	</g>
	<g>
		<path fill="#343434" d="M20.618,38.232v0.762h-0.565V36.9h0.686c0.568,0,0.853,0.206,0.853,0.618c0,0.242-0.118,0.43-0.354,0.562
			l0.609,0.912h-0.641l-0.444-0.762H20.618z M20.618,37.807h0.105c0.197,0,0.297-0.088,0.297-0.263c0-0.144-0.098-0.216-0.291-0.216
			h-0.111V37.807z"/>
		<path fill="#343434" d="M24.03,38.993h-0.741l-0.765-1.475h-0.013c0.018,0.231,0.027,0.409,0.027,0.531v0.943h-0.501V36.9h0.738
			l0.762,1.454h0.009c-0.014-0.211-0.021-0.38-0.021-0.508V36.9h0.504V38.993z"/>
		<path fill="#343434" d="M25.122,38.4v-0.396h2.715V38.4H25.122z"/>
		<path fill="#343434" d="M28.937,36.9h0.729c0.284,0,0.496,0.042,0.634,0.126c0.138,0.085,0.207,0.217,0.207,0.395
			c0,0.117-0.03,0.218-0.091,0.301c-0.06,0.083-0.139,0.137-0.237,0.16v0.015c0.13,0.034,0.224,0.092,0.282,0.172
			c0.058,0.08,0.087,0.184,0.087,0.312c0,0.19-0.071,0.34-0.214,0.449s-0.337,0.164-0.583,0.164h-0.814V36.9z M29.502,37.703h0.17
			c0.081,0,0.144-0.017,0.188-0.05c0.044-0.033,0.066-0.083,0.066-0.149c0-0.117-0.089-0.176-0.267-0.176h-0.158V37.703z
			 M29.502,38.117v0.439H29.7c0.177,0,0.266-0.075,0.266-0.224c0-0.069-0.024-0.123-0.071-0.16s-0.116-0.056-0.205-0.056H29.502z"/>
		<path fill="#343434" d="M30.809,38.755c0-0.087,0.026-0.155,0.078-0.203s0.128-0.071,0.227-0.071c0.095,0,0.167,0.023,0.218,0.071
			s0.076,0.116,0.076,0.203c0,0.086-0.026,0.153-0.078,0.201c-0.052,0.049-0.124,0.072-0.216,0.072
			c-0.094,0-0.169-0.023-0.223-0.071C30.836,38.909,30.809,38.842,30.809,38.755z"/>
		<path fill="#343434" d="M32.683,38.993h-0.565v-1.631h-0.511V36.9h1.586v0.462h-0.51V38.993z"/>
		<path fill="#343434" d="M33.388,38.755c0-0.087,0.026-0.155,0.078-0.203s0.128-0.071,0.227-0.071c0.095,0,0.167,0.023,0.218,0.071
			s0.076,0.116,0.076,0.203c0,0.086-0.026,0.153-0.078,0.201c-0.052,0.049-0.124,0.072-0.216,0.072
			c-0.094,0-0.169-0.023-0.223-0.071C33.415,38.909,33.388,38.842,33.388,38.755z"/>
	</g>
	<path fill="#343434" d="M20.926,19.894c-0.013,0.052-0.025,0.107-0.042,0.186c-0.02,0.1-0.033,0.184-0.04,0.25
		c-0.005-0.084-0.035-0.235-0.084-0.436h-0.569l0.318,0.976h0.666l0.32-0.976H20.926z"/>
	<polygon fill="#343434" points="22.653,20.014 23.28,20.014 23.28,19.894 22.087,19.894 22.087,20.87 23.329,20.87 23.329,20.409 
		22.653,20.409 	"/>
	<path fill="#343434" d="M24.88,19.958c0.236-0.133,0.354-0.32,0.354-0.562c0-0.412-0.284-0.618-0.853-0.618h-0.303v1.116h-0.383
		v0.976h0.565v-0.762h0.143l0.444,0.762h0.641L24.88,19.958z M24.367,19.684h-0.105v-0.479h0.111c0.193,0,0.291,0.072,0.291,0.216
		C24.664,19.596,24.565,19.684,24.367,19.684z"/>
</g>
</svg>
