<?xml version="1.0" encoding="utf-8"?>
<!-- Generator: Adobe Illustrator 17.0.0, SVG Export Plug-In . SVG Version: 6.00 Build 0)  -->
<!DOCTYPE svg PUBLIC "-//W3C//DTD SVG 1.1//EN" "http://www.w3.org/Graphics/SVG/1.1/DTD/svg11.dtd">
<svg version="1.1" id="Calque_1" xmlns="http://www.w3.org/2000/svg" xmlns:xlink="http://www.w3.org/1999/xlink" x="0px" y="0px"
	 width="60px" height="60px" viewBox="0 0 60 60" enable-background="new 0 0 60 60" xml:space="preserve">
<path fill="#FFFFFF" d="M50.165,46.831c-2.625,0-2.185-1.237-2.185-1.237s0,0,0-3.844c0-2.813,0-25.919,0-25.919H15.451H7.98v9.384
	c0,6.721,0,14.925,0,16.535c0,3.844,1.176,4.311,1.176,4.311s1.165,0.77,4.697,0.77H50.165z"/>
<path fill="#B4B4B4" d="M52.04,26.831h-4.06V41.75v3.844v0.393c0.103,0.362,0.547,0.844,2.185,0.844c0.031,0,0.06,0,0.091,0
	c1.189,0,1.465-0.291,1.465-0.291s0.328-0.573,0.318-2.042C52.031,43.03,52.04,26.831,52.04,26.831z"/>
<g>
	<path fill="#343434" d="M13.515,19.535c0.388-0.064,0.896-0.12,1.544-0.12c0.795,0,1.378,0.185,1.747,0.518
		c0.343,0.296,0.546,0.749,0.546,1.304c0,0.564-0.166,1.008-0.48,1.332c-0.426,0.453-1.119,0.684-1.905,0.684
		c-0.24,0-0.462-0.009-0.647-0.056v2.497h-0.804V19.535z M14.319,22.539c0.176,0.047,0.398,0.064,0.666,0.064
		c0.971,0,1.562-0.471,1.562-1.331c0-0.823-0.582-1.221-1.47-1.221c-0.352,0-0.62,0.027-0.759,0.064V22.539z"/>
	<path fill="#343434" d="M18.436,19.543c0.406-0.083,0.989-0.129,1.544-0.129c0.859,0,1.415,0.157,1.803,0.508
		c0.314,0.278,0.49,0.703,0.49,1.184c0,0.823-0.518,1.369-1.174,1.591v0.028c0.48,0.166,0.768,0.609,0.915,1.257
		c0.203,0.869,0.352,1.471,0.48,1.711h-0.832c-0.102-0.176-0.24-0.712-0.416-1.488c-0.185-0.86-0.518-1.184-1.248-1.212h-0.759v2.7
		h-0.804V19.543z M19.239,22.382h0.823c0.86,0,1.405-0.472,1.405-1.184c0-0.805-0.582-1.155-1.433-1.165
		c-0.389,0-0.666,0.037-0.796,0.074V22.382z"/>
	<path fill="#343434" d="M26.639,22.771h-2.423v2.247h2.7v0.675h-3.504V19.46h3.365v0.675h-2.562v1.97h2.423V22.771z"/>
	<path fill="#343434" d="M27.852,24.712c0.36,0.223,0.888,0.407,1.442,0.407c0.823,0,1.304-0.435,1.304-1.063
		c0-0.583-0.333-0.915-1.174-1.239c-1.018-0.36-1.646-0.888-1.646-1.766c0-0.972,0.805-1.692,2.016-1.692
		c0.639,0,1.101,0.147,1.378,0.305l-0.222,0.657c-0.203-0.111-0.619-0.296-1.184-0.296c-0.851,0-1.175,0.508-1.175,0.934
		c0,0.583,0.38,0.869,1.239,1.202c1.055,0.407,1.591,0.915,1.591,1.831c0,0.962-0.712,1.794-2.183,1.794
		c-0.601,0-1.257-0.176-1.59-0.397L27.852,24.712z"/>
	<path fill="#343434" d="M32.412,24.712c0.36,0.223,0.888,0.407,1.442,0.407c0.823,0,1.304-0.435,1.304-1.063
		c0-0.583-0.333-0.915-1.174-1.239c-1.018-0.36-1.646-0.888-1.646-1.766c0-0.972,0.805-1.692,2.016-1.692
		c0.639,0,1.101,0.147,1.378,0.305l-0.222,0.657c-0.203-0.111-0.619-0.296-1.184-0.296c-0.851,0-1.175,0.508-1.175,0.934
		c0,0.583,0.38,0.869,1.239,1.202c1.055,0.407,1.591,0.915,1.591,1.831c0,0.962-0.712,1.794-2.183,1.794
		c-0.601,0-1.257-0.176-1.59-0.397L32.412,24.712z"/>
	<path fill="#343434" d="M40.311,22.771h-2.423v2.247h2.7v0.675h-3.504V19.46h3.365v0.675h-2.562v1.97h2.423V22.771z"/>
</g>
<path fill="#B4B4B4" d="M28.415,46.831c-2.625,0-2.435-1.237-2.435-1.237s0,0,0-3.844c0-2.813,0-11.919,0-11.919h-15
	c0,0,0,9.106,0,11.919c0,3.844,1.051,4.311,1.051,4.311s1.04,0.77,4.572,0.77H28.415z"/>
<path fill="#343434" d="M29.197,30.107h0.109v0.752h0.36v0.091h-0.469V30.107z"/>
<path fill="#343434" d="M30.314,30.642c0,0.224-0.155,0.322-0.302,0.322c-0.164,0-0.29-0.12-0.29-0.312
	c0-0.203,0.133-0.322,0.3-0.322C30.197,30.331,30.314,30.457,30.314,30.642z M29.834,30.648c0,0.133,0.076,0.233,0.184,0.233
	c0.105,0,0.184-0.099,0.184-0.235c0-0.103-0.052-0.233-0.181-0.233C29.89,30.413,29.834,30.533,29.834,30.648z"/>
<path fill="#343434" d="M30.452,30.533c0-0.071-0.001-0.133-0.005-0.189h0.096l0.004,0.119h0.005
	c0.028-0.081,0.094-0.133,0.168-0.133c0.012,0,0.021,0.001,0.031,0.004v0.104c-0.011-0.002-0.022-0.004-0.038-0.004
	c-0.077,0-0.133,0.059-0.148,0.141c-0.002,0.015-0.005,0.032-0.005,0.051v0.323h-0.109V30.533z"/>
<path fill="#343434" d="M30.91,30.667c0.002,0.149,0.098,0.21,0.208,0.21c0.079,0,0.126-0.014,0.168-0.031l0.019,0.079
	c-0.039,0.018-0.105,0.038-0.201,0.038c-0.187,0-0.298-0.123-0.298-0.305c0-0.183,0.107-0.327,0.284-0.327
	c0.198,0,0.25,0.174,0.25,0.285c0,0.022-0.002,0.04-0.004,0.051H30.91z M31.233,30.588c0.001-0.07-0.029-0.179-0.153-0.179
	c-0.111,0-0.16,0.103-0.169,0.179H31.233z"/>
<path fill="#343434" d="M31.475,30.508c0-0.062-0.001-0.114-0.005-0.164h0.096l0.005,0.098h0.004c0.034-0.058,0.09-0.111,0.19-0.111
	c0.083,0,0.145,0.05,0.171,0.121h0.003c0.019-0.034,0.042-0.06,0.067-0.079c0.036-0.027,0.076-0.042,0.134-0.042
	c0.08,0,0.199,0.052,0.199,0.263v0.357h-0.108v-0.343c0-0.116-0.043-0.187-0.131-0.187c-0.063,0-0.112,0.046-0.13,0.1
	c-0.005,0.015-0.009,0.035-0.009,0.055v0.374h-0.108v-0.363c0-0.096-0.042-0.167-0.126-0.167c-0.069,0-0.119,0.055-0.136,0.11
	c-0.006,0.016-0.009,0.035-0.009,0.054v0.365h-0.108V30.508z"/>
<path fill="#343434" d="M33.13,30.174c0.001,0.037-0.026,0.067-0.07,0.067c-0.039,0-0.066-0.03-0.066-0.067
	c0-0.039,0.029-0.069,0.069-0.069C33.104,30.105,33.13,30.135,33.13,30.174z M33.008,30.95v-0.606h0.11v0.606H33.008z"/>
<path fill="#343434" d="M33.3,30.542c0-0.078-0.002-0.14-0.005-0.198h0.099l0.005,0.104h0.002c0.045-0.074,0.116-0.118,0.215-0.118
	c0.146,0,0.256,0.124,0.256,0.308c0,0.218-0.133,0.325-0.275,0.325c-0.08,0-0.15-0.035-0.187-0.095h-0.002v0.329H33.3V30.542z
	 M33.409,30.703c0,0.016,0.002,0.031,0.005,0.045c0.02,0.076,0.086,0.129,0.165,0.129c0.116,0,0.184-0.095,0.184-0.234
	c0-0.121-0.064-0.225-0.18-0.225c-0.075,0-0.145,0.054-0.166,0.136c-0.004,0.014-0.008,0.03-0.008,0.045V30.703z"/>
<path fill="#343434" d="M33.996,30.837c0.032,0.021,0.09,0.044,0.145,0.044c0.08,0,0.118-0.04,0.118-0.09
	c0-0.052-0.031-0.081-0.113-0.111c-0.109-0.039-0.16-0.099-0.16-0.171c0-0.098,0.079-0.178,0.209-0.178
	c0.062,0,0.115,0.018,0.149,0.038l-0.027,0.08c-0.024-0.015-0.068-0.035-0.124-0.035c-0.065,0-0.101,0.038-0.101,0.083
	c0,0.05,0.036,0.073,0.115,0.103c0.105,0.04,0.159,0.093,0.159,0.183c0,0.106-0.083,0.181-0.227,0.181
	c-0.066,0-0.128-0.016-0.17-0.041L33.996,30.837z"/>
<path fill="#343434" d="M35.013,30.785c0,0.063,0.001,0.118,0.005,0.165H34.92l-0.006-0.099h-0.002
	c-0.029,0.049-0.093,0.113-0.2,0.113c-0.095,0-0.209-0.052-0.209-0.265v-0.354h0.11v0.335c0,0.115,0.035,0.193,0.135,0.193
	c0.074,0,0.125-0.051,0.145-0.1c0.006-0.016,0.01-0.036,0.01-0.056v-0.372h0.11V30.785z"/>
<path fill="#343434" d="M35.195,30.508c0-0.062-0.001-0.114-0.005-0.164h0.096l0.005,0.098h0.004c0.034-0.058,0.09-0.111,0.19-0.111
	c0.083,0,0.145,0.05,0.171,0.121h0.002c0.019-0.034,0.043-0.06,0.068-0.079c0.036-0.027,0.076-0.042,0.134-0.042
	c0.08,0,0.199,0.052,0.199,0.263v0.357h-0.107v-0.343c0-0.116-0.042-0.187-0.131-0.187c-0.063,0-0.111,0.046-0.13,0.1
	c-0.005,0.015-0.009,0.035-0.009,0.055v0.374h-0.108v-0.363c0-0.096-0.042-0.167-0.126-0.167c-0.069,0-0.119,0.055-0.136,0.11
	c-0.006,0.016-0.009,0.035-0.009,0.054v0.365h-0.108V30.508z"/>
<path fill="#343434" d="M37.25,30.062v0.732c0,0.054,0.001,0.115,0.005,0.156h-0.099l-0.005-0.105h-0.003
	c-0.034,0.068-0.108,0.119-0.206,0.119c-0.146,0-0.259-0.124-0.259-0.308c-0.001-0.201,0.124-0.325,0.271-0.325
	c0.093,0,0.155,0.044,0.183,0.093h0.002v-0.362H37.25z M37.14,30.591c0-0.014-0.001-0.032-0.005-0.046
	c-0.016-0.07-0.076-0.127-0.159-0.127c-0.114,0-0.181,0.1-0.181,0.234c0,0.123,0.06,0.224,0.179,0.224
	c0.074,0,0.141-0.049,0.161-0.132c0.004-0.015,0.005-0.03,0.005-0.047V30.591z"/>
<path fill="#343434" d="M37.981,30.642c0,0.224-0.155,0.322-0.302,0.322c-0.164,0-0.29-0.12-0.29-0.312
	c0-0.203,0.133-0.322,0.3-0.322C37.863,30.331,37.981,30.457,37.981,30.642z M37.5,30.648c0,0.133,0.076,0.233,0.184,0.233
	c0.105,0,0.184-0.099,0.184-0.235c0-0.103-0.051-0.233-0.182-0.233C37.556,30.413,37.5,30.533,37.5,30.648z"/>
<path fill="#343434" d="M38.119,30.062h0.11v0.888h-0.11V30.062z"/>
<path fill="#343434" d="M38.962,30.642c0,0.224-0.155,0.322-0.302,0.322c-0.164,0-0.29-0.12-0.29-0.312
	c0-0.203,0.133-0.322,0.3-0.322C38.844,30.331,38.962,30.457,38.962,30.642z M38.481,30.648c0,0.133,0.076,0.233,0.184,0.233
	c0.105,0,0.184-0.099,0.184-0.235c0-0.103-0.052-0.233-0.181-0.233C38.537,30.413,38.481,30.533,38.481,30.648z"/>
<path fill="#343434" d="M39.1,30.533c0-0.071-0.001-0.133-0.005-0.189h0.096l0.004,0.119H39.2c0.028-0.081,0.094-0.133,0.168-0.133
	c0.012,0,0.021,0.001,0.031,0.004v0.104c-0.011-0.002-0.022-0.004-0.038-0.004c-0.077,0-0.133,0.059-0.148,0.141
	c-0.002,0.015-0.005,0.032-0.005,0.051v0.323H39.1V30.533z"/>
<path fill="#343434" d="M39.984,30.837c0.032,0.021,0.09,0.044,0.145,0.044c0.08,0,0.118-0.04,0.118-0.09
	c0-0.052-0.031-0.081-0.113-0.111c-0.109-0.039-0.16-0.099-0.16-0.171c0-0.098,0.079-0.178,0.209-0.178
	c0.061,0,0.115,0.018,0.149,0.038l-0.027,0.08c-0.024-0.015-0.068-0.035-0.124-0.035c-0.065,0-0.101,0.038-0.101,0.083
	c0,0.05,0.036,0.073,0.115,0.103c0.105,0.04,0.159,0.093,0.159,0.183c0,0.106-0.083,0.181-0.226,0.181
	c-0.066,0-0.128-0.016-0.17-0.041L39.984,30.837z"/>
<path fill="#343434" d="M40.616,30.174c0.001,0.037-0.026,0.067-0.07,0.067c-0.039,0-0.066-0.03-0.066-0.067
	c0-0.039,0.029-0.069,0.069-0.069C40.59,30.105,40.616,30.135,40.616,30.174z M40.494,30.95v-0.606h0.11v0.606H40.494z"/>
<path fill="#343434" d="M40.919,30.17v0.174h0.158v0.084h-0.158v0.327c0,0.075,0.021,0.117,0.083,0.117
	c0.029,0,0.05-0.004,0.064-0.008l0.005,0.083c-0.021,0.009-0.055,0.015-0.097,0.015c-0.051,0-0.093-0.016-0.119-0.046
	c-0.031-0.033-0.042-0.086-0.042-0.158v-0.33h-0.094v-0.084h0.094v-0.145L40.919,30.17z"/>
<path fill="#343434" d="M42.026,30.95l-0.009-0.076h-0.004c-0.034,0.048-0.099,0.09-0.185,0.09c-0.123,0-0.185-0.086-0.185-0.174
	c0-0.146,0.13-0.227,0.364-0.225v-0.012c0-0.05-0.014-0.14-0.138-0.14c-0.056,0-0.115,0.018-0.158,0.045l-0.025-0.073
	c0.05-0.032,0.123-0.054,0.199-0.054c0.185,0,0.23,0.126,0.23,0.248v0.226c0,0.053,0.002,0.104,0.01,0.145H42.026z M42.009,30.641
	c-0.12-0.002-0.257,0.019-0.257,0.136c0,0.071,0.048,0.105,0.104,0.105c0.079,0,0.129-0.05,0.146-0.101
	c0.004-0.011,0.006-0.024,0.006-0.035V30.641z"/>
<path fill="#343434" d="M42.293,30.508c0-0.062-0.001-0.114-0.005-0.164h0.096l0.005,0.098h0.004c0.034-0.058,0.09-0.111,0.19-0.111
	c0.083,0,0.145,0.05,0.171,0.121h0.003c0.019-0.034,0.042-0.06,0.067-0.079c0.036-0.027,0.076-0.042,0.134-0.042
	c0.08,0,0.199,0.052,0.199,0.263v0.357H43.05v-0.343c0-0.116-0.043-0.187-0.131-0.187c-0.063,0-0.112,0.046-0.13,0.1
	c-0.005,0.015-0.009,0.035-0.009,0.055v0.374h-0.108v-0.363c0-0.096-0.042-0.167-0.126-0.167c-0.069,0-0.119,0.055-0.136,0.11
	c-0.006,0.016-0.009,0.035-0.009,0.054v0.365h-0.108V30.508z"/>
<path fill="#343434" d="M43.397,30.667c0.003,0.149,0.098,0.21,0.208,0.21c0.079,0,0.126-0.014,0.168-0.031l0.019,0.079
	c-0.039,0.018-0.105,0.038-0.202,0.038c-0.186,0-0.298-0.123-0.298-0.305c0-0.183,0.108-0.327,0.284-0.327
	c0.198,0,0.25,0.174,0.25,0.285c0,0.022-0.002,0.04-0.004,0.051H43.397z M43.72,30.588c0.001-0.07-0.029-0.179-0.153-0.179
	c-0.111,0-0.16,0.103-0.169,0.179H43.72z"/>
<path fill="#343434" d="M44.094,30.17v0.174h0.158v0.084h-0.158v0.327c0,0.075,0.021,0.117,0.083,0.117
	c0.029,0,0.05-0.004,0.064-0.008l0.005,0.083c-0.021,0.009-0.055,0.015-0.097,0.015c-0.051,0-0.093-0.016-0.119-0.046
	c-0.031-0.033-0.042-0.086-0.042-0.158v-0.33h-0.094v-0.084h0.094v-0.145L44.094,30.17z"/>
<path fill="#343434" d="M44.3,31.104c0.028-0.074,0.061-0.208,0.075-0.299l0.123-0.012c-0.029,0.106-0.084,0.245-0.119,0.304
	L44.3,31.104z"/>
<path fill="#343434" d="M29.194,32.008c0-0.062-0.001-0.114-0.005-0.164h0.096l0.005,0.098h0.004c0.034-0.058,0.09-0.111,0.19-0.111
	c0.083,0,0.145,0.05,0.171,0.121h0.003c0.019-0.034,0.042-0.06,0.067-0.079c0.036-0.027,0.076-0.042,0.134-0.042
	c0.08,0,0.199,0.052,0.199,0.263v0.357h-0.108v-0.343c0-0.116-0.043-0.187-0.131-0.187c-0.063,0-0.112,0.046-0.13,0.1
	c-0.005,0.015-0.009,0.035-0.009,0.055v0.374h-0.108v-0.363c0-0.096-0.042-0.167-0.126-0.167c-0.069,0-0.119,0.055-0.136,0.11
	c-0.006,0.016-0.009,0.035-0.009,0.054v0.365h-0.108V32.008z"/>
<path fill="#343434" d="M30.297,32.167c0.003,0.149,0.098,0.21,0.208,0.21c0.079,0,0.126-0.014,0.168-0.031l0.019,0.079
	c-0.039,0.018-0.105,0.038-0.202,0.038c-0.186,0-0.298-0.123-0.298-0.305s0.108-0.327,0.284-0.327c0.198,0,0.25,0.174,0.25,0.285
	c0,0.022-0.002,0.04-0.004,0.051H30.297z M30.62,32.088c0.001-0.07-0.029-0.179-0.153-0.179c-0.111,0-0.16,0.103-0.169,0.179H30.62z
	"/>
<path fill="#343434" d="M30.862,31.562h0.11v0.888h-0.11V31.562z"/>
<path fill="#343434" d="M31.612,31.562h0.11v0.888h-0.11V31.562z"/>
<path fill="#343434" d="M32.03,31.674c0.001,0.037-0.026,0.067-0.07,0.067c-0.039,0-0.066-0.03-0.066-0.067
	c0-0.039,0.029-0.069,0.069-0.069C32.004,31.605,32.03,31.636,32.03,31.674z M31.907,32.45v-0.606h0.11v0.606H31.907z"/>
<path fill="#343434" d="M32.195,32.45c0.002-0.041,0.005-0.103,0.005-0.156v-0.732h0.109v0.38h0.002
	c0.039-0.067,0.109-0.111,0.207-0.111c0.15,0,0.257,0.125,0.255,0.309c0,0.217-0.136,0.324-0.271,0.324
	c-0.087,0-0.158-0.034-0.203-0.114h-0.004l-0.005,0.1H32.195z M32.309,32.207c0,0.014,0.002,0.028,0.005,0.04
	c0.021,0.076,0.085,0.129,0.165,0.129c0.115,0,0.184-0.094,0.184-0.233c0-0.121-0.062-0.225-0.18-0.225
	c-0.075,0-0.145,0.051-0.167,0.135c-0.003,0.013-0.006,0.028-0.006,0.045V32.207z"/>
<path fill="#343434" d="M32.972,32.167c0.003,0.149,0.098,0.21,0.208,0.21c0.079,0,0.126-0.014,0.168-0.031l0.019,0.079
	c-0.039,0.018-0.105,0.038-0.202,0.038c-0.186,0-0.298-0.123-0.298-0.305s0.108-0.327,0.284-0.327c0.198,0,0.25,0.174,0.25,0.285
	c0,0.022-0.002,0.04-0.004,0.051H32.972z M33.295,32.088c0.001-0.07-0.029-0.179-0.153-0.179c-0.111,0-0.16,0.103-0.169,0.179
	H33.295z"/>
<path fill="#343434" d="M33.537,32.033c0-0.071-0.001-0.133-0.005-0.189h0.096l0.004,0.119h0.005
	c0.028-0.081,0.094-0.133,0.168-0.133c0.012,0,0.021,0.001,0.031,0.004v0.104c-0.011-0.002-0.022-0.004-0.038-0.004
	c-0.078,0-0.133,0.059-0.147,0.141c-0.003,0.015-0.005,0.032-0.005,0.051v0.323h-0.109V32.033z"/>
<path fill="#343434" d="M34.524,31.674c0.001,0.037-0.026,0.067-0.07,0.067c-0.039,0-0.066-0.03-0.066-0.067
	c0-0.039,0.029-0.069,0.069-0.069C34.498,31.605,34.524,31.636,34.524,31.674z M34.401,32.45v-0.606h0.11v0.606H34.401z"/>
<path fill="#343434" d="M34.694,32.033c0-0.071-0.001-0.133-0.005-0.189h0.096l0.004,0.119h0.005
	c0.028-0.081,0.094-0.133,0.168-0.133c0.012,0,0.021,0.001,0.031,0.004v0.104c-0.011-0.002-0.022-0.004-0.038-0.004
	c-0.077,0-0.133,0.059-0.148,0.141c-0.002,0.015-0.005,0.032-0.005,0.051v0.323h-0.109V32.033z"/>
<path fill="#343434" d="M35.23,31.674c0.001,0.037-0.026,0.067-0.07,0.067c-0.039,0-0.066-0.03-0.066-0.067
	c0-0.039,0.029-0.069,0.069-0.069C35.204,31.605,35.23,31.636,35.23,31.674z M35.107,32.45v-0.606h0.11v0.606H35.107z"/>
<path fill="#343434" d="M35.907,32.285c0,0.063,0.001,0.118,0.005,0.165h-0.098l-0.006-0.099h-0.002
	c-0.029,0.049-0.093,0.113-0.2,0.113c-0.095,0-0.209-0.052-0.209-0.265v-0.354h0.11v0.335c0,0.115,0.035,0.193,0.135,0.193
	c0.074,0,0.125-0.051,0.145-0.1c0.006-0.016,0.01-0.036,0.01-0.056v-0.372h0.11V32.285z"/>
<path fill="#343434" d="M36.088,32.033c0-0.071-0.001-0.133-0.005-0.189h0.096l0.004,0.119h0.005
	c0.028-0.081,0.094-0.133,0.168-0.133c0.012,0,0.021,0.001,0.031,0.004v0.104c-0.011-0.002-0.022-0.004-0.038-0.004
	c-0.078,0-0.133,0.059-0.147,0.141c-0.003,0.015-0.005,0.032-0.005,0.051v0.323h-0.109V32.033z"/>
<path fill="#343434" d="M36.546,32.167c0.003,0.149,0.098,0.21,0.208,0.21c0.079,0,0.126-0.014,0.168-0.031l0.019,0.079
	c-0.039,0.018-0.105,0.038-0.202,0.038c-0.186,0-0.298-0.123-0.298-0.305s0.108-0.327,0.284-0.327c0.198,0,0.25,0.174,0.25,0.285
	c0,0.022-0.002,0.04-0.004,0.051H36.546z M36.869,32.088c0.001-0.07-0.029-0.179-0.153-0.179c-0.111,0-0.16,0.103-0.169,0.179
	H36.869z"/>
<path fill="#343434" d="M38.089,31.562v0.732c0,0.054,0.001,0.115,0.005,0.156h-0.099l-0.005-0.105h-0.002
	c-0.034,0.068-0.107,0.119-0.206,0.119c-0.146,0-0.259-0.124-0.259-0.308c-0.001-0.201,0.124-0.325,0.271-0.325
	c0.093,0,0.155,0.044,0.183,0.093h0.002v-0.362H38.089z M37.979,32.091c0-0.014-0.001-0.032-0.005-0.046
	c-0.016-0.07-0.076-0.127-0.159-0.127c-0.114,0-0.181,0.1-0.181,0.234c0,0.123,0.06,0.224,0.179,0.224
	c0.074,0,0.141-0.049,0.161-0.132c0.004-0.015,0.005-0.03,0.005-0.047V32.091z"/>
<path fill="#343434" d="M38.394,31.674c0.001,0.037-0.026,0.067-0.07,0.067c-0.039,0-0.066-0.03-0.066-0.067
	c0-0.039,0.029-0.069,0.069-0.069C38.368,31.605,38.394,31.636,38.394,31.674z M38.271,32.45v-0.606h0.11v0.606H38.271z"/>
<path fill="#343434" d="M39.085,31.844c-0.002,0.044-0.005,0.093-0.005,0.167v0.352c0,0.139-0.028,0.224-0.086,0.277
	c-0.059,0.055-0.144,0.073-0.22,0.073c-0.073,0-0.153-0.018-0.201-0.05l0.028-0.084c0.04,0.025,0.103,0.047,0.178,0.047
	c0.113,0,0.195-0.059,0.195-0.211v-0.067H38.97c-0.034,0.056-0.099,0.101-0.193,0.101c-0.15,0-0.258-0.128-0.258-0.295
	c0-0.205,0.134-0.322,0.273-0.322c0.105,0,0.163,0.055,0.189,0.105h0.002l0.005-0.092H39.085z M38.972,32.083
	c0-0.019-0.001-0.035-0.006-0.05c-0.02-0.064-0.074-0.116-0.154-0.116c-0.105,0-0.18,0.089-0.18,0.229
	c0,0.119,0.06,0.218,0.179,0.218c0.068,0,0.129-0.042,0.153-0.113c0.006-0.019,0.009-0.04,0.009-0.059V32.083z"/>
<path fill="#343434" d="M39.255,32.008c0-0.062-0.001-0.114-0.005-0.164h0.097l0.006,0.1h0.002c0.03-0.057,0.1-0.114,0.2-0.114
	c0.084,0,0.214,0.05,0.214,0.258v0.362h-0.11v-0.349c0-0.098-0.036-0.179-0.14-0.179c-0.073,0-0.129,0.051-0.148,0.113
	c-0.005,0.014-0.008,0.032-0.008,0.051v0.364h-0.11V32.008z"/>
<path fill="#343434" d="M40.071,31.674c0.001,0.037-0.026,0.067-0.07,0.067c-0.039,0-0.066-0.03-0.066-0.067
	c0-0.039,0.029-0.069,0.069-0.069C40.045,31.605,40.071,31.636,40.071,31.674z M39.949,32.45v-0.606h0.11v0.606H39.949z"/>
<path fill="#343434" d="M40.226,32.337c0.032,0.021,0.09,0.044,0.145,0.044c0.08,0,0.118-0.04,0.118-0.09
	c0-0.052-0.031-0.081-0.113-0.111c-0.109-0.039-0.16-0.099-0.16-0.171c0-0.098,0.079-0.178,0.209-0.178
	c0.062,0,0.115,0.018,0.149,0.038l-0.027,0.08c-0.024-0.015-0.068-0.035-0.124-0.035c-0.065,0-0.101,0.038-0.101,0.083
	c0,0.05,0.036,0.073,0.115,0.103c0.105,0.04,0.159,0.093,0.159,0.183c0,0.106-0.083,0.181-0.227,0.181
	c-0.066,0-0.128-0.016-0.17-0.041L40.226,32.337z"/>
<path fill="#343434" d="M40.722,32.337c0.032,0.021,0.09,0.044,0.145,0.044c0.08,0,0.118-0.04,0.118-0.09
	c0-0.052-0.031-0.081-0.113-0.111c-0.109-0.039-0.16-0.099-0.16-0.171c0-0.098,0.079-0.178,0.209-0.178
	c0.062,0,0.115,0.018,0.149,0.038l-0.027,0.08c-0.024-0.015-0.068-0.035-0.124-0.035c-0.065,0-0.101,0.038-0.101,0.083
	c0,0.05,0.036,0.073,0.115,0.103c0.105,0.04,0.159,0.093,0.159,0.183c0,0.106-0.083,0.181-0.227,0.181
	c-0.066,0-0.128-0.016-0.17-0.041L40.722,32.337z"/>
<path fill="#343434" d="M41.354,31.674c0.001,0.037-0.026,0.067-0.07,0.067c-0.039,0-0.066-0.03-0.066-0.067
	c0-0.039,0.029-0.069,0.069-0.069C41.328,31.605,41.354,31.636,41.354,31.674z M41.232,32.45v-0.606h0.11v0.606H41.232z"/>
<path fill="#343434" d="M41.524,32.008c0-0.062-0.001-0.114-0.005-0.164h0.096l0.005,0.098h0.004c0.034-0.058,0.09-0.111,0.19-0.111
	c0.083,0,0.145,0.05,0.171,0.121h0.002c0.019-0.034,0.043-0.06,0.068-0.079c0.036-0.027,0.076-0.042,0.134-0.042
	c0.08,0,0.199,0.052,0.199,0.263v0.357h-0.107v-0.343c0-0.116-0.042-0.187-0.131-0.187c-0.063,0-0.111,0.046-0.13,0.1
	c-0.005,0.015-0.009,0.035-0.009,0.055v0.374h-0.108v-0.363c0-0.096-0.042-0.167-0.126-0.167c-0.069,0-0.119,0.055-0.136,0.11
	c-0.006,0.016-0.009,0.035-0.009,0.054v0.365h-0.108V32.008z"/>
<path fill="#343434" d="M43.022,32.008c0-0.062-0.001-0.114-0.005-0.164h0.097l0.006,0.1h0.002c0.03-0.057,0.1-0.114,0.2-0.114
	c0.084,0,0.214,0.05,0.214,0.258v0.362h-0.11v-0.349c0-0.098-0.036-0.179-0.14-0.179c-0.073,0-0.129,0.051-0.148,0.113
	c-0.005,0.014-0.008,0.032-0.008,0.051v0.364h-0.11V32.008z"/>
<path fill="#343434" d="M44.264,32.142c0,0.224-0.155,0.322-0.302,0.322c-0.164,0-0.29-0.12-0.29-0.312
	c0-0.203,0.133-0.322,0.3-0.322C44.146,31.831,44.264,31.957,44.264,32.142z M43.783,32.148c0,0.133,0.076,0.233,0.184,0.233
	c0.105,0,0.184-0.099,0.184-0.235c0-0.103-0.051-0.233-0.182-0.233C43.84,31.913,43.783,32.033,43.783,32.148z"/>
<path fill="#343434" d="M44.346,32.385c0-0.046,0.031-0.079,0.075-0.079c0.044,0,0.074,0.032,0.074,0.079
	c0,0.045-0.029,0.079-0.075,0.079C44.376,32.464,44.346,32.43,44.346,32.385z"/>
<path fill="#343434" d="M29.634,33.555h-0.328v0.304h0.365v0.091h-0.474v-0.843h0.455v0.091h-0.347v0.266h0.328V33.555z"/>
<path fill="#343434" d="M29.86,33.344l0.086,0.13c0.022,0.034,0.041,0.065,0.061,0.099h0.004c0.02-0.036,0.04-0.067,0.06-0.1
	l0.085-0.129h0.119l-0.207,0.293l0.213,0.313h-0.125l-0.089-0.136c-0.024-0.035-0.044-0.069-0.065-0.105H30
	c-0.02,0.036-0.041,0.069-0.064,0.105l-0.088,0.136h-0.121l0.215-0.309l-0.205-0.297H29.86z"/>
<path fill="#343434" d="M31.069,33.344l0.119,0.34c0.02,0.055,0.036,0.105,0.049,0.155h0.004c0.014-0.05,0.031-0.1,0.052-0.155
	l0.117-0.34h0.115l-0.238,0.606h-0.105l-0.23-0.606H31.069z"/>
<path fill="#343434" d="M31.75,33.174c0.001,0.037-0.026,0.067-0.07,0.067c-0.039,0-0.066-0.03-0.066-0.067
	c0-0.039,0.029-0.069,0.069-0.069C31.724,33.106,31.75,33.136,31.75,33.174z M31.627,33.95v-0.606h0.11v0.606H31.627z"/>
<path fill="#343434" d="M31.962,33.344l0.119,0.34c0.02,0.055,0.036,0.105,0.049,0.155h0.004c0.014-0.05,0.031-0.1,0.051-0.155
	l0.117-0.34h0.115L32.18,33.95h-0.105l-0.23-0.606H31.962z"/>
<path fill="#343434" d="M32.57,33.667c0.002,0.149,0.098,0.21,0.208,0.21c0.079,0,0.126-0.014,0.168-0.031l0.019,0.079
	c-0.039,0.018-0.105,0.038-0.201,0.038c-0.187,0-0.298-0.123-0.298-0.305s0.107-0.327,0.284-0.327c0.198,0,0.25,0.174,0.25,0.285
	c0,0.022-0.002,0.04-0.004,0.051H32.57z M32.893,33.588c0.001-0.07-0.029-0.179-0.153-0.179c-0.111,0-0.16,0.103-0.169,0.179H32.893
	z"/>
<path fill="#343434" d="M33.135,33.508c0-0.062-0.001-0.114-0.005-0.164h0.097l0.006,0.1h0.002c0.03-0.057,0.1-0.114,0.2-0.114
	c0.084,0,0.214,0.05,0.214,0.258v0.362h-0.11v-0.349c0-0.098-0.036-0.179-0.14-0.179c-0.073,0-0.129,0.051-0.148,0.113
	c-0.005,0.014-0.008,0.032-0.008,0.051v0.364h-0.11V33.508z"/>
<path fill="#343434" d="M34.352,33.062v0.732c0,0.054,0.001,0.115,0.005,0.156h-0.099l-0.005-0.105h-0.003
	c-0.034,0.068-0.108,0.119-0.206,0.119c-0.146,0-0.259-0.124-0.259-0.308c-0.001-0.201,0.124-0.325,0.271-0.325
	c0.093,0,0.155,0.044,0.183,0.093h0.002v-0.362H34.352z M34.242,33.591c0-0.014-0.001-0.032-0.005-0.046
	c-0.016-0.07-0.076-0.127-0.159-0.127c-0.114,0-0.181,0.1-0.181,0.234c0,0.123,0.06,0.224,0.179,0.224
	c0.074,0,0.141-0.049,0.161-0.132c0.004-0.015,0.005-0.03,0.005-0.047V33.591z"/>
<path fill="#343434" d="M35.082,33.642c0,0.224-0.155,0.322-0.302,0.322c-0.164,0-0.29-0.12-0.29-0.312
	c0-0.203,0.133-0.322,0.3-0.322C34.964,33.331,35.082,33.457,35.082,33.642z M34.602,33.648c0,0.133,0.076,0.233,0.184,0.233
	c0.105,0,0.184-0.099,0.184-0.235c0-0.103-0.051-0.233-0.182-0.233C34.658,33.413,34.602,33.533,34.602,33.648z"/>
<path fill="#343434" d="M35.87,33.95v-0.522h-0.085v-0.084h0.085v-0.029c0-0.085,0.019-0.163,0.07-0.212
	c0.041-0.04,0.096-0.056,0.148-0.056c0.039,0,0.073,0.009,0.094,0.018l-0.015,0.085c-0.016-0.008-0.039-0.014-0.07-0.014
	c-0.094,0-0.118,0.083-0.118,0.175v0.032h0.146v0.084h-0.146v0.522H35.87z"/>
<path fill="#343434" d="M36.559,33.95l-0.009-0.076h-0.004c-0.034,0.048-0.099,0.09-0.185,0.09c-0.123,0-0.185-0.086-0.185-0.174
	c0-0.146,0.13-0.227,0.364-0.225v-0.012c0-0.05-0.014-0.14-0.138-0.14c-0.056,0-0.115,0.018-0.158,0.045l-0.025-0.073
	c0.05-0.032,0.123-0.054,0.199-0.054c0.185,0,0.23,0.126,0.23,0.248v0.226c0,0.053,0.002,0.104,0.01,0.145H36.559z M36.543,33.641
	c-0.12-0.002-0.257,0.019-0.257,0.136c0,0.071,0.048,0.105,0.104,0.105c0.079,0,0.129-0.05,0.146-0.101
	c0.004-0.011,0.006-0.024,0.006-0.035V33.641z"/>
<path fill="#343434" d="M36.811,33.837c0.032,0.021,0.09,0.044,0.145,0.044c0.08,0,0.118-0.04,0.118-0.09
	c0-0.052-0.031-0.081-0.113-0.111c-0.109-0.039-0.16-0.099-0.16-0.171c0-0.098,0.079-0.178,0.209-0.178
	c0.062,0,0.115,0.018,0.149,0.038l-0.027,0.08c-0.024-0.015-0.068-0.035-0.124-0.035c-0.065,0-0.101,0.038-0.101,0.083
	c0,0.05,0.036,0.073,0.115,0.103c0.105,0.04,0.159,0.093,0.159,0.183c0,0.106-0.083,0.181-0.227,0.181
	c-0.066,0-0.128-0.016-0.17-0.041L36.811,33.837z"/>
<path fill="#343434" d="M37.454,33.17v0.174h0.158v0.084h-0.158v0.327c0,0.075,0.021,0.117,0.083,0.117
	c0.029,0,0.05-0.004,0.064-0.008l0.005,0.083c-0.021,0.009-0.055,0.015-0.098,0.015c-0.051,0-0.093-0.016-0.119-0.046
	c-0.031-0.033-0.042-0.086-0.042-0.158v-0.33h-0.094v-0.084h0.094v-0.145L37.454,33.17z"/>
<path fill="#343434" d="M37.858,33.174c0.001,0.037-0.026,0.067-0.07,0.067c-0.039,0-0.066-0.03-0.066-0.067
	c0-0.039,0.029-0.069,0.069-0.069C37.831,33.106,37.858,33.136,37.858,33.174z M37.735,33.95v-0.606h0.11v0.606H37.735z"/>
<path fill="#343434" d="M38.55,33.062v0.732c0,0.054,0.001,0.115,0.005,0.156h-0.099l-0.005-0.105h-0.002
	c-0.034,0.068-0.107,0.119-0.206,0.119c-0.146,0-0.259-0.124-0.259-0.308c-0.001-0.201,0.124-0.325,0.271-0.325
	c0.093,0,0.155,0.044,0.183,0.093h0.002v-0.362H38.55z M38.44,33.591c0-0.014-0.001-0.032-0.005-0.046
	c-0.016-0.07-0.076-0.127-0.159-0.127c-0.114,0-0.181,0.1-0.181,0.234c0,0.123,0.06,0.224,0.179,0.224
	c0.074,0,0.141-0.049,0.161-0.132c0.004-0.015,0.005-0.03,0.005-0.047V33.591z"/>
<path fill="#343434" d="M38.855,33.174c0.001,0.037-0.026,0.067-0.07,0.067c-0.039,0-0.066-0.03-0.066-0.067
	c0-0.039,0.029-0.069,0.069-0.069C38.829,33.106,38.855,33.136,38.855,33.174z M38.733,33.95v-0.606h0.11v0.606H38.733z"/>
<path fill="#343434" d="M39.148,33.174c0.001,0.037-0.026,0.067-0.07,0.067c-0.039,0-0.066-0.03-0.066-0.067
	c0-0.039,0.029-0.069,0.069-0.069C39.121,33.106,39.148,33.136,39.148,33.174z M39.025,33.95v-0.606h0.11v0.606H39.025z"/>
<path fill="#343434" d="M39.956,33.508c0-0.062-0.001-0.114-0.005-0.164h0.096l0.005,0.098h0.004c0.034-0.058,0.09-0.111,0.19-0.111
	c0.083,0,0.145,0.05,0.171,0.121h0.002c0.019-0.034,0.043-0.06,0.068-0.079c0.036-0.027,0.076-0.042,0.134-0.042
	c0.08,0,0.199,0.052,0.199,0.263v0.357h-0.107v-0.343c0-0.116-0.042-0.187-0.131-0.187c-0.063,0-0.111,0.046-0.13,0.1
	c-0.005,0.015-0.009,0.035-0.009,0.055v0.374h-0.108v-0.363c0-0.096-0.042-0.167-0.126-0.167c-0.069,0-0.119,0.055-0.136,0.11
	c-0.006,0.016-0.009,0.035-0.009,0.054v0.365h-0.108V33.508z"/>
<path fill="#343434" d="M41.06,33.667c0.002,0.149,0.098,0.21,0.208,0.21c0.079,0,0.126-0.014,0.168-0.031l0.019,0.079
	c-0.039,0.018-0.105,0.038-0.201,0.038c-0.187,0-0.298-0.123-0.298-0.305s0.107-0.327,0.284-0.327c0.198,0,0.25,0.174,0.25,0.285
	c0,0.022-0.002,0.04-0.004,0.051H41.06z M41.383,33.588c0.001-0.07-0.029-0.179-0.153-0.179c-0.111,0-0.16,0.103-0.169,0.179H41.383
	z"/>
<path fill="#343434" d="M41.625,33.062h0.11v0.888h-0.11V33.062z"/>
<path fill="#343434" d="M41.836,34.104c0.028-0.074,0.061-0.208,0.075-0.299l0.123-0.012c-0.029,0.106-0.084,0.245-0.119,0.304
	L41.836,34.104z"/>
<path fill="#343434" d="M42.79,33.837c0.032,0.021,0.09,0.044,0.145,0.044c0.08,0,0.118-0.04,0.118-0.09
	c0-0.052-0.031-0.081-0.113-0.111c-0.109-0.039-0.16-0.099-0.16-0.171c0-0.098,0.079-0.178,0.209-0.178
	c0.061,0,0.115,0.018,0.149,0.038l-0.027,0.08c-0.024-0.015-0.068-0.035-0.124-0.035c-0.065,0-0.101,0.038-0.101,0.083
	c0,0.05,0.036,0.073,0.115,0.103c0.105,0.04,0.159,0.093,0.159,0.183c0,0.106-0.083,0.181-0.226,0.181
	c-0.066,0-0.128-0.016-0.17-0.041L42.79,33.837z"/>
<path fill="#343434" d="M43.361,33.667c0.003,0.149,0.098,0.21,0.208,0.21c0.079,0,0.126-0.014,0.168-0.031l0.019,0.079
	c-0.039,0.018-0.105,0.038-0.202,0.038c-0.186,0-0.298-0.123-0.298-0.305s0.108-0.327,0.284-0.327c0.198,0,0.25,0.174,0.25,0.285
	c0,0.022-0.002,0.04-0.004,0.051H43.361z M43.684,33.588c0.001-0.07-0.029-0.179-0.153-0.179c-0.111,0-0.16,0.103-0.169,0.179
	H43.684z"/>
<path fill="#343434" d="M44.449,33.062v0.732c0,0.054,0.001,0.115,0.005,0.156h-0.099l-0.005-0.105h-0.002
	c-0.034,0.068-0.107,0.119-0.206,0.119c-0.146,0-0.259-0.124-0.259-0.308c-0.001-0.201,0.124-0.325,0.271-0.325
	c0.093,0,0.155,0.044,0.183,0.093h0.002v-0.362H44.449z M44.339,33.591c0-0.014-0.001-0.032-0.005-0.046
	c-0.016-0.07-0.076-0.127-0.159-0.127c-0.114,0-0.181,0.1-0.181,0.234c0,0.123,0.06,0.224,0.179,0.224
	c0.074,0,0.141-0.049,0.161-0.132c0.004-0.015,0.005-0.03,0.005-0.047V33.591z"/>
<path fill="#343434" d="M29.194,35.008c0-0.063-0.001-0.114-0.005-0.164h0.096l0.005,0.098h0.004c0.034-0.058,0.09-0.111,0.19-0.111
	c0.083,0,0.145,0.05,0.171,0.121h0.003c0.019-0.034,0.042-0.06,0.067-0.079c0.036-0.027,0.076-0.042,0.134-0.042
	c0.08,0,0.199,0.052,0.199,0.263v0.357h-0.108v-0.343c0-0.116-0.043-0.187-0.131-0.187c-0.063,0-0.112,0.046-0.13,0.1
	c-0.005,0.015-0.009,0.035-0.009,0.055v0.374h-0.108v-0.363c0-0.096-0.042-0.167-0.126-0.167c-0.069,0-0.119,0.055-0.136,0.11
	c-0.006,0.016-0.009,0.035-0.009,0.054v0.365h-0.108V35.008z"/>
<path fill="#343434" d="M30.572,35.45l-0.009-0.076h-0.004c-0.034,0.048-0.099,0.09-0.185,0.09c-0.123,0-0.185-0.086-0.185-0.174
	c0-0.146,0.13-0.227,0.364-0.225v-0.012c0-0.05-0.014-0.14-0.138-0.14c-0.056,0-0.115,0.018-0.158,0.045l-0.025-0.073
	c0.05-0.032,0.123-0.054,0.199-0.054c0.185,0,0.23,0.126,0.23,0.248v0.226c0,0.053,0.002,0.104,0.01,0.145H30.572z M30.555,35.141
	c-0.12-0.002-0.257,0.019-0.257,0.136c0,0.071,0.048,0.105,0.104,0.105c0.079,0,0.129-0.05,0.146-0.101
	c0.004-0.011,0.006-0.024,0.006-0.035V35.141z"/>
<path fill="#343434" d="M30.839,34.562h0.11v0.888h-0.11V34.562z"/>
<path fill="#343434" d="M31.256,34.674c0.001,0.037-0.026,0.067-0.07,0.067c-0.039,0-0.066-0.03-0.066-0.067
	c0-0.039,0.029-0.069,0.069-0.069C31.23,34.606,31.256,34.636,31.256,34.674z M31.134,35.45v-0.606h0.11v0.606H31.134z"/>
<path fill="#343434" d="M31.411,35.337c0.032,0.021,0.09,0.044,0.145,0.044c0.08,0,0.118-0.04,0.118-0.09
	c0-0.052-0.031-0.081-0.113-0.111c-0.109-0.039-0.16-0.099-0.16-0.171c0-0.098,0.079-0.178,0.209-0.178
	c0.061,0,0.115,0.018,0.149,0.038l-0.027,0.08c-0.024-0.015-0.068-0.035-0.124-0.035c-0.065,0-0.101,0.038-0.101,0.083
	c0,0.05,0.036,0.073,0.115,0.103c0.105,0.04,0.159,0.093,0.159,0.183c0,0.106-0.083,0.181-0.226,0.181
	c-0.066,0-0.128-0.016-0.17-0.041L31.411,35.337z"/>
<path fill="#343434" d="M32.251,35.45v-0.522h-0.085v-0.084h0.085v-0.029c0-0.085,0.019-0.163,0.07-0.212
	c0.041-0.04,0.096-0.056,0.148-0.056c0.039,0,0.073,0.009,0.094,0.018l-0.015,0.085c-0.016-0.008-0.039-0.014-0.07-0.014
	c-0.094,0-0.118,0.083-0.118,0.175v0.032h0.146v0.084H32.36v0.522H32.251z"/>
<path fill="#343434" d="M32.94,35.45l-0.009-0.076h-0.004c-0.034,0.048-0.099,0.09-0.185,0.09c-0.123,0-0.185-0.086-0.185-0.174
	c0-0.146,0.13-0.227,0.364-0.225v-0.012c0-0.05-0.014-0.14-0.138-0.14c-0.056,0-0.115,0.018-0.158,0.045l-0.025-0.073
	c0.05-0.032,0.123-0.054,0.199-0.054c0.185,0,0.23,0.126,0.23,0.248v0.226c0,0.053,0.002,0.104,0.01,0.145H32.94z M32.924,35.141
	c-0.12-0.002-0.257,0.019-0.257,0.136c0,0.071,0.048,0.105,0.104,0.105c0.079,0,0.129-0.05,0.146-0.101
	c0.004-0.011,0.006-0.024,0.006-0.035V35.141z"/>
<path fill="#343434" d="M33.639,35.428c-0.029,0.015-0.093,0.035-0.174,0.035c-0.183,0-0.302-0.124-0.302-0.309
	c0-0.186,0.128-0.322,0.325-0.322c0.065,0,0.123,0.016,0.153,0.031l-0.025,0.085c-0.026-0.015-0.068-0.029-0.128-0.029
	c-0.139,0-0.214,0.103-0.214,0.229c0,0.14,0.09,0.227,0.21,0.227c0.063,0,0.104-0.016,0.135-0.03L33.639,35.428z"/>
<path fill="#343434" d="M33.821,35.167c0.002,0.149,0.098,0.21,0.208,0.21c0.079,0,0.126-0.014,0.168-0.031l0.019,0.079
	c-0.039,0.018-0.105,0.038-0.201,0.038c-0.187,0-0.298-0.123-0.298-0.305s0.107-0.327,0.284-0.327c0.198,0,0.25,0.174,0.25,0.285
	c0,0.022-0.002,0.04-0.004,0.051H33.821z M34.144,35.088c0.001-0.07-0.029-0.179-0.153-0.179c-0.111,0-0.16,0.103-0.169,0.179
	H34.144z"/>
<path fill="#343434" d="M34.386,35.033c0-0.071-0.001-0.133-0.005-0.189h0.096l0.004,0.119h0.005
	c0.028-0.081,0.094-0.133,0.168-0.133c0.012,0,0.021,0.001,0.031,0.004v0.104c-0.011-0.002-0.022-0.004-0.038-0.004
	c-0.077,0-0.133,0.059-0.148,0.141c-0.002,0.015-0.005,0.032-0.005,0.051v0.323h-0.109V35.033z"/>
<path fill="#343434" d="M35.114,35.008c0-0.063-0.001-0.114-0.005-0.164h0.097l0.006,0.1h0.002c0.03-0.057,0.1-0.114,0.2-0.114
	c0.084,0,0.214,0.05,0.214,0.258v0.362h-0.11v-0.349c0-0.098-0.036-0.179-0.14-0.179c-0.073,0-0.129,0.051-0.148,0.113
	c-0.005,0.014-0.008,0.032-0.008,0.051v0.364h-0.11V35.008z"/>
<path fill="#343434" d="M35.869,35.167c0.003,0.149,0.098,0.21,0.208,0.21c0.079,0,0.126-0.014,0.168-0.031l0.019,0.079
	c-0.039,0.018-0.105,0.038-0.202,0.038c-0.186,0-0.298-0.123-0.298-0.305s0.108-0.327,0.284-0.327c0.198,0,0.25,0.174,0.25,0.285
	c0,0.022-0.002,0.04-0.004,0.051H35.869z M36.192,35.088c0.001-0.07-0.029-0.179-0.153-0.179c-0.111,0-0.16,0.103-0.169,0.179
	H36.192z"/>
<path fill="#343434" d="M36.434,35.008c0-0.063-0.001-0.114-0.005-0.164h0.096l0.005,0.098h0.004c0.034-0.058,0.09-0.111,0.19-0.111
	c0.083,0,0.145,0.05,0.171,0.121h0.002c0.019-0.034,0.043-0.06,0.068-0.079c0.036-0.027,0.076-0.042,0.134-0.042
	c0.08,0,0.199,0.052,0.199,0.263v0.357h-0.107v-0.343c0-0.116-0.042-0.187-0.131-0.187c-0.063,0-0.111,0.046-0.13,0.1
	c-0.005,0.015-0.009,0.035-0.009,0.055v0.374h-0.108v-0.363c0-0.096-0.042-0.167-0.126-0.167c-0.069,0-0.119,0.055-0.136,0.11
	c-0.006,0.016-0.009,0.035-0.009,0.054v0.365h-0.108V35.008z"/>
<path fill="#343434" d="M38.024,35.142c0,0.224-0.155,0.322-0.302,0.322c-0.164,0-0.29-0.12-0.29-0.312
	c0-0.203,0.133-0.322,0.3-0.322C37.907,34.831,38.024,34.957,38.024,35.142z M37.544,35.149c0,0.133,0.076,0.233,0.184,0.233
	c0.105,0,0.184-0.099,0.184-0.235c0-0.103-0.052-0.233-0.181-0.233C37.6,34.913,37.544,35.033,37.544,35.149z"/>
<path fill="#343434" d="M38.162,35.033c0-0.071-0.001-0.133-0.005-0.189h0.096l0.004,0.119h0.005
	c0.028-0.081,0.094-0.133,0.168-0.133c0.012,0,0.021,0.001,0.031,0.004v0.104c-0.011-0.002-0.022-0.004-0.038-0.004
	c-0.077,0-0.133,0.059-0.148,0.141c-0.002,0.015-0.005,0.032-0.005,0.051v0.323h-0.109V35.033z"/>
<path fill="#343434" d="M38.62,35.167c0.002,0.149,0.098,0.21,0.208,0.21c0.079,0,0.126-0.014,0.168-0.031l0.019,0.079
	c-0.039,0.018-0.105,0.038-0.201,0.038c-0.187,0-0.298-0.123-0.298-0.305s0.107-0.327,0.284-0.327c0.198,0,0.25,0.174,0.25,0.285
	c0,0.022-0.002,0.04-0.004,0.051H38.62z M38.943,35.088c0.001-0.07-0.029-0.179-0.153-0.179c-0.111,0-0.16,0.103-0.169,0.179H38.943
	z"/>
<path fill="#343434" d="M40.01,35.285c0,0.063,0.001,0.118,0.005,0.165h-0.097l-0.006-0.099h-0.002
	c-0.029,0.049-0.093,0.113-0.2,0.113c-0.095,0-0.209-0.052-0.209-0.265v-0.354h0.11v0.335c0,0.115,0.035,0.193,0.135,0.193
	c0.074,0,0.125-0.051,0.145-0.1c0.006-0.016,0.01-0.036,0.01-0.056v-0.372h0.11V35.285z"/>
<path fill="#343434" d="M40.325,34.67v0.174h0.158v0.084h-0.158v0.327c0,0.075,0.021,0.117,0.083,0.117
	c0.029,0,0.05-0.004,0.064-0.008l0.005,0.083c-0.021,0.009-0.055,0.015-0.098,0.015c-0.051,0-0.093-0.016-0.119-0.046
	c-0.031-0.033-0.042-0.086-0.042-0.158v-0.33h-0.094v-0.084h0.094v-0.145L40.325,34.67z"/>
<path fill="#343434" d="M40.576,35.385c0-0.046,0.031-0.079,0.075-0.079s0.074,0.032,0.074,0.079c0,0.045-0.029,0.079-0.075,0.079
	C40.606,35.464,40.576,35.43,40.576,35.385z"/>
<path fill="#343434" d="M41.894,35.08c-0.006-0.118-0.014-0.259-0.013-0.364h-0.004c-0.029,0.099-0.064,0.204-0.106,0.32
	l-0.149,0.409H41.54l-0.136-0.402c-0.04-0.119-0.074-0.228-0.097-0.328h-0.003c-0.002,0.105-0.009,0.246-0.016,0.373l-0.022,0.362
	h-0.104l0.059-0.843h0.139l0.144,0.408c0.035,0.104,0.064,0.196,0.085,0.284h0.004c0.021-0.085,0.051-0.178,0.089-0.284l0.15-0.408
	h0.139l0.052,0.843h-0.106L41.894,35.08z"/>
<path fill="#343434" d="M42.254,35.167c0.003,0.149,0.098,0.21,0.208,0.21c0.079,0,0.126-0.014,0.168-0.031l0.019,0.079
	c-0.039,0.018-0.105,0.038-0.202,0.038c-0.186,0-0.298-0.123-0.298-0.305s0.108-0.327,0.284-0.327c0.198,0,0.25,0.174,0.25,0.285
	c0,0.022-0.002,0.04-0.004,0.051H42.254z M42.577,35.088c0.001-0.07-0.029-0.179-0.153-0.179c-0.111,0-0.16,0.103-0.169,0.179
	H42.577z"/>
<path fill="#343434" d="M42.941,34.674c0.001,0.037-0.026,0.067-0.07,0.067c-0.039,0-0.066-0.03-0.066-0.067
	c0-0.039,0.029-0.069,0.069-0.069C42.915,34.606,42.941,34.636,42.941,34.674z M42.819,35.45v-0.606h0.11v0.606H42.819z"/>
<path fill="#343434" d="M43.491,35.167c0.003,0.149,0.098,0.21,0.208,0.21c0.079,0,0.126-0.014,0.168-0.031l0.019,0.079
	c-0.039,0.018-0.105,0.038-0.202,0.038c-0.186,0-0.298-0.123-0.298-0.305s0.108-0.327,0.284-0.327c0.198,0,0.25,0.174,0.25,0.285
	c0,0.022-0.002,0.04-0.004,0.051H43.491z M43.814,35.088c0.001-0.07-0.029-0.179-0.153-0.179c-0.111,0-0.16,0.103-0.169,0.179
	H43.814z"/>
<path fill="#343434" d="M44.103,34.844l0.086,0.13c0.022,0.034,0.041,0.065,0.061,0.099h0.004c0.02-0.036,0.04-0.067,0.06-0.1
	l0.085-0.129h0.119l-0.207,0.293l0.213,0.313H44.4l-0.089-0.136c-0.024-0.035-0.044-0.069-0.065-0.105h-0.003
	c-0.02,0.036-0.041,0.069-0.064,0.105l-0.088,0.136h-0.121l0.215-0.309l-0.205-0.297H44.103z"/>
<path fill="#343434" d="M29.255,36.667c0.003,0.149,0.098,0.21,0.208,0.21c0.079,0,0.126-0.014,0.168-0.031l0.019,0.079
	c-0.039,0.018-0.105,0.038-0.202,0.038c-0.186,0-0.298-0.123-0.298-0.305c0-0.183,0.108-0.327,0.284-0.327
	c0.198,0,0.25,0.174,0.25,0.285c0,0.022-0.002,0.04-0.004,0.051H29.255z M29.578,36.588c0.001-0.07-0.029-0.179-0.153-0.179
	c-0.111,0-0.16,0.103-0.169,0.179H29.578z"/>
<path fill="#343434" d="M29.82,36.508c0-0.062-0.001-0.114-0.005-0.164h0.097l0.006,0.1h0.002c0.03-0.057,0.1-0.114,0.2-0.114
	c0.084,0,0.214,0.05,0.214,0.258v0.362h-0.11v-0.349c0-0.098-0.036-0.179-0.14-0.179c-0.073,0-0.129,0.051-0.148,0.113
	c-0.005,0.014-0.008,0.032-0.008,0.051v0.364h-0.11V36.508z"/>
<path fill="#343434" d="M30.636,36.174c0.001,0.037-0.026,0.067-0.07,0.067c-0.039,0-0.066-0.03-0.066-0.067
	c0-0.039,0.029-0.069,0.069-0.069C30.61,36.106,30.636,36.136,30.636,36.174z M30.514,36.95v-0.606h0.11v0.606H30.514z"/>
<path fill="#343434" d="M30.806,36.508c0-0.062-0.001-0.114-0.005-0.164h0.096l0.005,0.098h0.004c0.034-0.058,0.09-0.111,0.19-0.111
	c0.083,0,0.145,0.05,0.171,0.121h0.002c0.019-0.034,0.043-0.06,0.068-0.079c0.036-0.027,0.076-0.042,0.134-0.042
	c0.08,0,0.199,0.052,0.199,0.263v0.357h-0.107v-0.343c0-0.116-0.042-0.187-0.131-0.187c-0.063,0-0.111,0.046-0.13,0.1
	c-0.005,0.015-0.009,0.035-0.009,0.055v0.374h-0.108v-0.363c0-0.096-0.042-0.167-0.126-0.167c-0.069,0-0.119,0.055-0.136,0.11
	c-0.006,0.016-0.009,0.035-0.009,0.054v0.365h-0.108V36.508z"/>
<path fill="#343434" d="M32.694,36.508c0-0.062-0.001-0.114-0.005-0.164h0.097l0.006,0.1h0.002c0.03-0.057,0.1-0.114,0.2-0.114
	c0.084,0,0.214,0.05,0.214,0.258v0.362H33.1v-0.349c0-0.098-0.036-0.179-0.14-0.179c-0.073,0-0.129,0.051-0.148,0.113
	c-0.005,0.014-0.008,0.032-0.008,0.051v0.364h-0.11V36.508z"/>
<path fill="#343434" d="M33.936,36.642c0,0.224-0.155,0.322-0.302,0.322c-0.164,0-0.29-0.12-0.29-0.312
	c0-0.203,0.133-0.322,0.3-0.322C33.819,36.331,33.936,36.457,33.936,36.642z M33.456,36.649c0,0.133,0.076,0.233,0.184,0.233
	c0.105,0,0.184-0.099,0.184-0.235c0-0.103-0.052-0.233-0.181-0.233C33.512,36.413,33.456,36.533,33.456,36.649z"/>
<path fill="#343434" d="M34.06,36.838c0.032,0.021,0.09,0.044,0.145,0.044c0.08,0,0.118-0.04,0.118-0.09
	c0-0.052-0.031-0.081-0.113-0.111c-0.109-0.039-0.16-0.099-0.16-0.171c0-0.098,0.079-0.178,0.209-0.178
	c0.061,0,0.115,0.018,0.149,0.038l-0.027,0.08c-0.024-0.015-0.068-0.035-0.124-0.035c-0.065,0-0.101,0.038-0.101,0.083
	c0,0.05,0.036,0.073,0.115,0.103c0.105,0.04,0.159,0.093,0.159,0.183c0,0.106-0.083,0.181-0.226,0.181
	c-0.066,0-0.128-0.016-0.17-0.041L34.06,36.838z"/>
<path fill="#343434" d="M34.702,36.171v0.174h0.158v0.084h-0.158v0.327c0,0.075,0.021,0.117,0.083,0.117
	c0.029,0,0.05-0.004,0.064-0.008l0.005,0.083c-0.021,0.009-0.055,0.015-0.097,0.015c-0.051,0-0.093-0.016-0.119-0.046
	c-0.031-0.033-0.042-0.086-0.042-0.158v-0.33h-0.094v-0.084h0.094v-0.145L34.702,36.171z"/>
<path fill="#343434" d="M34.983,36.533c0-0.071-0.001-0.133-0.005-0.189h0.096l0.004,0.119h0.005
	c0.028-0.081,0.094-0.133,0.168-0.133c0.012,0,0.021,0.001,0.031,0.004v0.104c-0.011-0.002-0.022-0.004-0.038-0.004
	c-0.077,0-0.133,0.059-0.148,0.141c-0.002,0.015-0.005,0.032-0.005,0.051v0.323h-0.109V36.533z"/>
<path fill="#343434" d="M35.928,36.642c0,0.224-0.155,0.322-0.302,0.322c-0.164,0-0.29-0.12-0.29-0.312
	c0-0.203,0.133-0.322,0.3-0.322C35.81,36.331,35.928,36.457,35.928,36.642z M35.447,36.649c0,0.133,0.076,0.233,0.184,0.233
	c0.105,0,0.184-0.099,0.184-0.235c0-0.103-0.052-0.233-0.181-0.233C35.503,36.413,35.447,36.533,35.447,36.649z"/>
<path fill="#343434" d="M35.964,37.104c0.028-0.074,0.061-0.208,0.075-0.299l0.123-0.012c-0.029,0.106-0.084,0.245-0.119,0.304
	L35.964,37.104z"/>
<path fill="#343434" d="M37.183,36.344l0.119,0.34c0.02,0.055,0.036,0.105,0.049,0.155h0.004c0.014-0.05,0.031-0.1,0.051-0.155
	l0.117-0.34h0.115L37.4,36.95h-0.105l-0.23-0.606H37.183z"/>
<path fill="#343434" d="M37.864,36.174c0.001,0.037-0.026,0.067-0.07,0.067c-0.039,0-0.066-0.03-0.066-0.067
	c0-0.039,0.029-0.069,0.069-0.069C37.838,36.106,37.864,36.136,37.864,36.174z M37.742,36.95v-0.606h0.11v0.606H37.742z"/>
<path fill="#343434" d="M38.019,36.838c0.032,0.021,0.09,0.044,0.145,0.044c0.08,0,0.118-0.04,0.118-0.09
	c0-0.052-0.031-0.081-0.113-0.111c-0.109-0.039-0.16-0.099-0.16-0.171c0-0.098,0.079-0.178,0.209-0.178
	c0.061,0,0.115,0.018,0.149,0.038l-0.027,0.08c-0.024-0.015-0.068-0.035-0.124-0.035c-0.065,0-0.101,0.038-0.101,0.083
	c0,0.05,0.036,0.073,0.115,0.103c0.105,0.04,0.159,0.093,0.159,0.183c0,0.106-0.083,0.181-0.226,0.181
	c-0.066,0-0.128-0.016-0.17-0.041L38.019,36.838z"/>
<path fill="#343434" d="M39.436,36.667c0.003,0.149,0.098,0.21,0.208,0.21c0.079,0,0.126-0.014,0.168-0.031l0.019,0.079
	c-0.039,0.018-0.105,0.038-0.202,0.038c-0.186,0-0.298-0.123-0.298-0.305c0-0.183,0.108-0.327,0.284-0.327
	c0.198,0,0.25,0.174,0.25,0.285c0,0.022-0.002,0.04-0.004,0.051H39.436z M39.759,36.588c0.001-0.07-0.029-0.179-0.153-0.179
	c-0.111,0-0.16,0.103-0.169,0.179H39.759z"/>
<path fill="#343434" d="M40.337,36.95l-0.009-0.076h-0.004c-0.034,0.048-0.099,0.09-0.185,0.09c-0.123,0-0.185-0.086-0.185-0.174
	c0-0.146,0.13-0.227,0.364-0.225v-0.012c0-0.05-0.014-0.14-0.138-0.14c-0.056,0-0.115,0.018-0.158,0.045l-0.025-0.073
	c0.05-0.032,0.123-0.054,0.199-0.054c0.185,0,0.23,0.126,0.23,0.248v0.226c0,0.053,0.002,0.104,0.01,0.145H40.337z M40.32,36.641
	c-0.12-0.002-0.257,0.019-0.257,0.136c0,0.071,0.048,0.105,0.104,0.105c0.079,0,0.129-0.05,0.146-0.101
	c0.004-0.011,0.006-0.024,0.006-0.035V36.641z"/>
<path fill="#343434" d="M41.434,36.838c0.032,0.021,0.09,0.044,0.145,0.044c0.08,0,0.118-0.04,0.118-0.09
	c0-0.052-0.031-0.081-0.113-0.111c-0.109-0.039-0.16-0.099-0.16-0.171c0-0.098,0.079-0.178,0.209-0.178
	c0.062,0,0.115,0.018,0.149,0.038l-0.027,0.08c-0.024-0.015-0.068-0.035-0.124-0.035c-0.065,0-0.101,0.038-0.101,0.083
	c0,0.05,0.036,0.073,0.115,0.103c0.105,0.04,0.159,0.093,0.159,0.183c0,0.106-0.083,0.181-0.227,0.181
	c-0.066,0-0.128-0.016-0.17-0.041L41.434,36.838z"/>
<path fill="#343434" d="M42.492,36.642c0,0.224-0.155,0.322-0.302,0.322c-0.164,0-0.29-0.12-0.29-0.312
	c0-0.203,0.133-0.322,0.3-0.322C42.375,36.331,42.492,36.457,42.492,36.642z M42.012,36.649c0,0.133,0.076,0.233,0.184,0.233
	c0.105,0,0.184-0.099,0.184-0.235c0-0.103-0.051-0.233-0.182-0.233C42.068,36.413,42.012,36.533,42.012,36.649z"/>
<path fill="#343434" d="M42.631,36.062h0.11v0.888h-0.11V36.062z"/>
<path fill="#343434" d="M43.432,36.785c0,0.063,0.001,0.118,0.005,0.165H43.34l-0.006-0.099h-0.002
	c-0.029,0.049-0.093,0.113-0.2,0.113c-0.095,0-0.209-0.052-0.209-0.265v-0.354h0.11v0.335c0,0.115,0.035,0.193,0.135,0.193
	c0.074,0,0.125-0.051,0.145-0.1c0.006-0.016,0.01-0.036,0.01-0.056v-0.372h0.11V36.785z"/>
<path fill="#343434" d="M43.747,36.171v0.174h0.158v0.084h-0.158v0.327c0,0.075,0.021,0.117,0.083,0.117
	c0.029,0,0.05-0.004,0.064-0.008l0.005,0.083c-0.021,0.009-0.055,0.015-0.098,0.015c-0.051,0-0.093-0.016-0.119-0.046
	c-0.031-0.033-0.042-0.086-0.042-0.158v-0.33h-0.094v-0.084h0.094v-0.145L43.747,36.171z"/>
<path fill="#343434" d="M44.363,36.95l-0.009-0.076h-0.004c-0.034,0.048-0.099,0.09-0.185,0.09c-0.123,0-0.185-0.086-0.185-0.174
	c0-0.146,0.13-0.227,0.364-0.225v-0.012c0-0.05-0.014-0.14-0.138-0.14c-0.056,0-0.115,0.018-0.158,0.045l-0.025-0.073
	c0.05-0.032,0.123-0.054,0.199-0.054c0.185,0,0.23,0.126,0.23,0.248v0.226c0,0.053,0.002,0.104,0.01,0.145H44.363z M44.347,36.641
	c-0.12-0.002-0.257,0.019-0.257,0.136c0,0.071,0.048,0.105,0.104,0.105c0.079,0,0.129-0.05,0.146-0.101
	c0.004-0.011,0.006-0.024,0.006-0.035V36.641z"/>
<path fill="#343434" d="M29.179,38.338c0.032,0.021,0.09,0.044,0.145,0.044c0.08,0,0.118-0.04,0.118-0.09
	c0-0.052-0.031-0.081-0.113-0.111c-0.109-0.039-0.16-0.099-0.16-0.171c0-0.098,0.079-0.178,0.209-0.178
	c0.061,0,0.115,0.018,0.149,0.038l-0.027,0.08c-0.024-0.015-0.068-0.035-0.124-0.035c-0.065,0-0.101,0.038-0.101,0.083
	c0,0.05,0.036,0.073,0.115,0.103c0.105,0.04,0.159,0.093,0.159,0.183c0,0.106-0.083,0.181-0.226,0.181
	c-0.066,0-0.128-0.016-0.17-0.041L29.179,38.338z"/>
<path fill="#343434" d="M30.024,38.45l-0.009-0.076h-0.004c-0.034,0.048-0.099,0.09-0.185,0.09c-0.123,0-0.185-0.086-0.185-0.174
	c0-0.146,0.13-0.227,0.364-0.225v-0.012c0-0.05-0.014-0.14-0.138-0.14c-0.056,0-0.115,0.018-0.158,0.045l-0.025-0.073
	c0.05-0.032,0.123-0.054,0.199-0.054c0.185,0,0.23,0.126,0.23,0.248v0.226c0,0.053,0.002,0.104,0.01,0.145H30.024z M30.008,38.141
	c-0.12-0.002-0.257,0.019-0.257,0.136c0,0.071,0.048,0.105,0.104,0.105c0.079,0,0.129-0.05,0.146-0.101
	c0.004-0.011,0.006-0.024,0.006-0.035V38.141z"/>
<path fill="#343434" d="M30.291,37.562h0.11v0.888h-0.11V37.562z"/>
<path fill="#343434" d="M31.093,38.285c0,0.063,0.001,0.118,0.005,0.165H31l-0.006-0.099h-0.002c-0.029,0.049-0.093,0.113-0.2,0.113
	c-0.095,0-0.209-0.052-0.209-0.265v-0.354h0.11v0.335c0,0.115,0.035,0.193,0.135,0.193c0.074,0,0.125-0.051,0.145-0.1
	c0.006-0.016,0.01-0.036,0.01-0.056v-0.372h0.11V38.285z"/>
<path fill="#343434" d="M31.407,37.671v0.174h0.158v0.084h-0.158v0.327c0,0.075,0.021,0.117,0.083,0.117
	c0.029,0,0.05-0.004,0.064-0.008l0.005,0.083c-0.021,0.009-0.055,0.015-0.097,0.015c-0.051,0-0.093-0.016-0.119-0.046
	c-0.031-0.033-0.042-0.086-0.042-0.158v-0.33h-0.094v-0.084H31.3v-0.145L31.407,37.671z"/>
<path fill="#343434" d="M32.024,38.45l-0.009-0.076h-0.004c-0.034,0.048-0.099,0.09-0.185,0.09c-0.123,0-0.185-0.086-0.185-0.174
	c0-0.146,0.13-0.227,0.364-0.225v-0.012c0-0.05-0.014-0.14-0.138-0.14c-0.056,0-0.115,0.018-0.158,0.045l-0.025-0.073
	c0.05-0.032,0.123-0.054,0.199-0.054c0.185,0,0.23,0.126,0.23,0.248v0.226c0,0.053,0.002,0.104,0.01,0.145H32.024z M32.008,38.141
	c-0.12-0.002-0.257,0.019-0.257,0.136c0,0.071,0.048,0.105,0.104,0.105c0.079,0,0.129-0.05,0.146-0.101
	c0.004-0.011,0.006-0.024,0.006-0.035V38.141z"/>
<path fill="#343434" d="M32.419,37.671v0.174h0.158v0.084h-0.158v0.327c0,0.075,0.021,0.117,0.083,0.117
	c0.029,0,0.05-0.004,0.064-0.008l0.005,0.083c-0.021,0.009-0.055,0.015-0.098,0.015c-0.051,0-0.093-0.016-0.119-0.046
	c-0.031-0.033-0.042-0.086-0.042-0.158v-0.33h-0.094v-0.084h0.094v-0.145L32.419,37.671z"/>
<path fill="#343434" d="M33.207,38.285c0,0.063,0.001,0.118,0.005,0.165h-0.097l-0.006-0.099h-0.002
	c-0.029,0.049-0.093,0.113-0.2,0.113c-0.095,0-0.209-0.052-0.209-0.265v-0.354h0.11v0.335c0,0.115,0.035,0.193,0.135,0.193
	c0.074,0,0.125-0.051,0.145-0.1c0.006-0.016,0.01-0.036,0.01-0.056v-0.372h0.11V38.285z"/>
<path fill="#343434" d="M33.374,38.338c0.032,0.021,0.09,0.044,0.145,0.044c0.08,0,0.118-0.04,0.118-0.09
	c0-0.052-0.031-0.081-0.113-0.111c-0.109-0.039-0.16-0.099-0.16-0.171c0-0.098,0.079-0.178,0.209-0.178
	c0.061,0,0.115,0.018,0.149,0.038l-0.027,0.08c-0.024-0.015-0.068-0.035-0.124-0.035c-0.065,0-0.101,0.038-0.101,0.083
	c0,0.05,0.036,0.073,0.115,0.103c0.105,0.04,0.159,0.093,0.159,0.183c0,0.106-0.083,0.181-0.226,0.181
	c-0.066,0-0.128-0.016-0.17-0.041L33.374,38.338z"/>
<path fill="#343434" d="M33.844,38.385c0-0.046,0.031-0.079,0.075-0.079s0.074,0.032,0.074,0.079c0,0.045-0.029,0.079-0.075,0.079
	C33.874,38.464,33.844,38.43,33.844,38.385z"/>
<path fill="#343434" d="M34.58,38.318c0.049,0.03,0.12,0.055,0.195,0.055c0.111,0,0.176-0.059,0.176-0.144
	c0-0.079-0.045-0.124-0.159-0.168c-0.137-0.049-0.223-0.12-0.223-0.239c0-0.131,0.109-0.229,0.273-0.229
	c0.086,0,0.149,0.02,0.187,0.042l-0.03,0.089c-0.028-0.015-0.084-0.04-0.16-0.04c-0.115,0-0.159,0.069-0.159,0.126
	c0,0.079,0.051,0.118,0.168,0.163c0.143,0.055,0.215,0.124,0.215,0.248c0,0.13-0.096,0.243-0.295,0.243
	c-0.081,0-0.17-0.024-0.215-0.054L34.58,38.318z"/>
<path fill="#343434" d="M35.276,38.167c0.002,0.149,0.098,0.21,0.208,0.21c0.079,0,0.126-0.014,0.168-0.031l0.019,0.079
	c-0.039,0.018-0.105,0.038-0.201,0.038c-0.187,0-0.298-0.123-0.298-0.305c0-0.183,0.107-0.327,0.284-0.327
	c0.198,0,0.25,0.174,0.25,0.285c0,0.022-0.002,0.04-0.004,0.051H35.276z M35.599,38.089c0.001-0.07-0.029-0.179-0.153-0.179
	c-0.111,0-0.16,0.103-0.169,0.179H35.599z"/>
<path fill="#343434" d="M36.364,37.562v0.732c0,0.054,0.001,0.115,0.005,0.156H36.27l-0.005-0.105h-0.003
	c-0.034,0.068-0.108,0.119-0.206,0.119c-0.146,0-0.259-0.124-0.259-0.308c-0.001-0.201,0.124-0.325,0.271-0.325
	c0.093,0,0.155,0.044,0.183,0.093h0.002v-0.362H36.364z M36.254,38.091c0-0.014-0.001-0.032-0.005-0.046
	c-0.016-0.07-0.076-0.127-0.159-0.127c-0.114,0-0.181,0.1-0.181,0.234c0,0.123,0.06,0.224,0.179,0.224
	c0.074,0,0.141-0.049,0.161-0.132c0.004-0.015,0.005-0.03,0.005-0.047V38.091z"/>
<path fill="#343434" d="M37.069,38.167c0.003,0.149,0.098,0.21,0.208,0.21c0.079,0,0.126-0.014,0.168-0.031l0.019,0.079
	c-0.039,0.018-0.105,0.038-0.202,0.038c-0.186,0-0.298-0.123-0.298-0.305c0-0.183,0.108-0.327,0.284-0.327
	c0.198,0,0.25,0.174,0.25,0.285c0,0.022-0.002,0.04-0.004,0.051H37.069z M37.392,38.089c0.001-0.07-0.029-0.179-0.153-0.179
	c-0.111,0-0.16,0.103-0.169,0.179H37.392z"/>
<path fill="#343434" d="M38.141,38.285c0,0.063,0.001,0.118,0.005,0.165h-0.097l-0.006-0.099H38.04
	c-0.029,0.049-0.093,0.113-0.2,0.113c-0.095,0-0.209-0.052-0.209-0.265v-0.354h0.11v0.335c0,0.115,0.035,0.193,0.135,0.193
	c0.074,0,0.125-0.051,0.145-0.1c0.006-0.016,0.01-0.036,0.01-0.056v-0.372h0.11V38.285z"/>
<path fill="#343434" d="M38.785,38.008c0-0.062-0.001-0.114-0.005-0.164h0.097l0.006,0.1h0.002c0.03-0.057,0.1-0.114,0.2-0.114
	c0.084,0,0.214,0.05,0.214,0.258v0.362h-0.11v-0.349c0-0.098-0.036-0.179-0.14-0.179c-0.073,0-0.129,0.051-0.148,0.113
	c-0.005,0.014-0.008,0.032-0.008,0.051v0.364h-0.11V38.008z"/>
<path fill="#343434" d="M39.602,37.674c0.001,0.037-0.026,0.067-0.07,0.067c-0.039,0-0.066-0.03-0.066-0.067
	c0-0.039,0.029-0.069,0.069-0.069C39.576,37.606,39.602,37.636,39.602,37.674z M39.479,38.45v-0.606h0.11v0.606H39.479z"/>
<path fill="#343434" d="M39.757,38.338c0.032,0.021,0.09,0.044,0.145,0.044c0.08,0,0.118-0.04,0.118-0.09
	c0-0.052-0.031-0.081-0.113-0.111c-0.109-0.039-0.16-0.099-0.16-0.171c0-0.098,0.079-0.178,0.209-0.178
	c0.062,0,0.115,0.018,0.149,0.038l-0.027,0.08c-0.024-0.015-0.068-0.035-0.124-0.035c-0.065,0-0.101,0.038-0.101,0.083
	c0,0.05,0.036,0.073,0.115,0.103c0.105,0.04,0.159,0.093,0.159,0.183c0,0.106-0.083,0.181-0.227,0.181
	c-0.066,0-0.128-0.016-0.17-0.041L39.757,38.338z"/>
<path fill="#343434" d="M40.267,37.562h0.11v0.888h-0.11V37.562z"/>
<path fill="#343434" d="M41.024,37.562h0.11v0.888h-0.11V37.562z"/>
<path fill="#343434" d="M41.825,38.285c0,0.063,0.001,0.118,0.005,0.165h-0.097l-0.006-0.099h-0.002
	c-0.029,0.049-0.093,0.113-0.2,0.113c-0.095,0-0.209-0.052-0.209-0.265v-0.354h0.11v0.335c0,0.115,0.035,0.193,0.135,0.193
	c0.074,0,0.125-0.051,0.145-0.1c0.006-0.016,0.01-0.036,0.01-0.056v-0.372h0.11V38.285z"/>
<path fill="#343434" d="M42.439,38.428c-0.029,0.015-0.093,0.035-0.174,0.035c-0.183,0-0.302-0.124-0.302-0.309
	c0-0.186,0.128-0.322,0.325-0.322c0.065,0,0.123,0.016,0.153,0.031l-0.025,0.085c-0.026-0.015-0.068-0.029-0.128-0.029
	c-0.139,0-0.214,0.103-0.214,0.229c0,0.14,0.09,0.227,0.21,0.227c0.062,0,0.104-0.016,0.135-0.03L42.439,38.428z"/>
<path fill="#343434" d="M42.69,37.674c0.001,0.037-0.026,0.067-0.07,0.067c-0.039,0-0.066-0.03-0.066-0.067
	c0-0.039,0.029-0.069,0.069-0.069C42.664,37.606,42.69,37.636,42.69,37.674z M42.567,38.45v-0.606h0.11v0.606H42.567z"/>
<path fill="#343434" d="M42.86,37.562h0.11v0.888h-0.11V37.562z"/>
<path fill="#343434" d="M43.277,37.674c0.001,0.037-0.026,0.067-0.07,0.067c-0.039,0-0.066-0.03-0.066-0.067
	c0-0.039,0.029-0.069,0.069-0.069C43.251,37.606,43.277,37.636,43.277,37.674z M43.155,38.45v-0.606h0.11v0.606H43.155z"/>
<path fill="#343434" d="M43.954,38.285c0,0.063,0.001,0.118,0.005,0.165h-0.098l-0.006-0.099h-0.002
	c-0.029,0.049-0.093,0.113-0.2,0.113c-0.095,0-0.209-0.052-0.209-0.265v-0.354h0.11v0.335c0,0.115,0.035,0.193,0.135,0.193
	c0.074,0,0.125-0.051,0.145-0.1c0.006-0.016,0.01-0.036,0.01-0.056v-0.372h0.11V38.285z"/>
<path fill="#343434" d="M44.121,38.338c0.032,0.021,0.09,0.044,0.145,0.044c0.08,0,0.118-0.04,0.118-0.09
	c0-0.052-0.031-0.081-0.113-0.111c-0.109-0.039-0.16-0.099-0.16-0.171c0-0.098,0.079-0.178,0.209-0.178
	c0.062,0,0.115,0.018,0.149,0.038l-0.027,0.08c-0.024-0.015-0.068-0.035-0.124-0.035c-0.065,0-0.101,0.038-0.101,0.083
	c0,0.05,0.036,0.073,0.115,0.103c0.105,0.04,0.159,0.093,0.159,0.183c0,0.106-0.083,0.181-0.227,0.181
	c-0.066,0-0.128-0.016-0.17-0.041L44.121,38.338z"/>
<path fill="#343434" d="M29.316,39.174c0.001,0.037-0.026,0.067-0.07,0.067c-0.039,0-0.066-0.03-0.066-0.067
	c0-0.039,0.029-0.069,0.069-0.069C29.29,39.106,29.316,39.136,29.316,39.174z M29.194,39.95v-0.606h0.11v0.606H29.194z"/>
<path fill="#343434" d="M29.486,39.508c0-0.062-0.001-0.114-0.005-0.164h0.097l0.006,0.1h0.002c0.03-0.057,0.1-0.114,0.2-0.114
	c0.084,0,0.214,0.05,0.214,0.258v0.362h-0.11v-0.349c0-0.098-0.036-0.179-0.14-0.179c-0.073,0-0.129,0.051-0.148,0.113
	c-0.005,0.014-0.008,0.032-0.008,0.051v0.364h-0.11V39.508z"/>
<path fill="#343434" d="M30.165,39.838c0.032,0.021,0.09,0.044,0.145,0.044c0.08,0,0.118-0.04,0.118-0.09
	c0-0.052-0.031-0.081-0.113-0.111c-0.109-0.039-0.16-0.099-0.16-0.171c0-0.098,0.079-0.178,0.209-0.178
	c0.061,0,0.115,0.018,0.149,0.038l-0.027,0.08c-0.024-0.015-0.068-0.035-0.124-0.035c-0.065,0-0.101,0.038-0.101,0.083
	c0,0.05,0.036,0.073,0.115,0.103c0.105,0.04,0.159,0.093,0.159,0.183c0,0.106-0.083,0.181-0.226,0.181
	c-0.066,0-0.128-0.016-0.17-0.041L30.165,39.838z"/>
<path fill="#343434" d="M31.223,39.642c0,0.224-0.155,0.322-0.302,0.322c-0.164,0-0.29-0.12-0.29-0.312
	c0-0.203,0.133-0.322,0.3-0.322C31.105,39.331,31.223,39.457,31.223,39.642z M30.743,39.649c0,0.133,0.076,0.233,0.184,0.233
	c0.105,0,0.184-0.099,0.184-0.235c0-0.103-0.051-0.233-0.182-0.233C30.799,39.413,30.743,39.533,30.743,39.649z"/>
<path fill="#343434" d="M31.361,39.062h0.11v0.888h-0.11V39.062z"/>
<path fill="#343434" d="M31.718,39.667c0.002,0.149,0.098,0.21,0.208,0.21c0.079,0,0.126-0.014,0.168-0.031l0.019,0.079
	c-0.039,0.018-0.105,0.038-0.201,0.038c-0.187,0-0.298-0.123-0.298-0.305s0.107-0.327,0.284-0.327c0.198,0,0.25,0.174,0.25,0.285
	c0,0.022-0.002,0.04-0.004,0.051H31.718z M32.04,39.589c0.001-0.07-0.029-0.179-0.153-0.179c-0.111,0-0.16,0.103-0.169,0.179H32.04z
	"/>
<path fill="#343434" d="M32.282,39.508c0-0.062-0.001-0.114-0.005-0.164h0.097l0.006,0.1h0.002c0.03-0.057,0.1-0.114,0.2-0.114
	c0.084,0,0.214,0.05,0.214,0.258v0.362h-0.11v-0.349c0-0.098-0.036-0.179-0.14-0.179c-0.073,0-0.129,0.051-0.148,0.113
	c-0.005,0.014-0.008,0.032-0.008,0.051v0.364h-0.11V39.508z"/>
<path fill="#343434" d="M32.961,39.838c0.032,0.021,0.09,0.044,0.145,0.044c0.08,0,0.118-0.04,0.118-0.09
	c0-0.052-0.031-0.081-0.113-0.111c-0.109-0.039-0.16-0.099-0.16-0.171c0-0.098,0.079-0.178,0.209-0.178
	c0.061,0,0.115,0.018,0.149,0.038l-0.027,0.08c-0.024-0.015-0.068-0.035-0.124-0.035c-0.065,0-0.101,0.038-0.101,0.083
	c0,0.05,0.036,0.073,0.115,0.103c0.105,0.04,0.159,0.093,0.159,0.183c0,0.106-0.083,0.181-0.226,0.181
	c-0.066,0-0.128-0.016-0.17-0.041L32.961,39.838z"/>
<path fill="#343434" d="M33.387,40.104c0.028-0.074,0.061-0.208,0.075-0.299l0.123-0.012c-0.029,0.106-0.084,0.245-0.119,0.304
	L33.387,40.104z"/>
<path fill="#343434" d="M34.602,39.174c0.001,0.037-0.026,0.067-0.07,0.067c-0.039,0-0.066-0.03-0.066-0.067
	c0-0.039,0.029-0.069,0.069-0.069C34.576,39.106,34.602,39.136,34.602,39.174z M34.479,39.95v-0.606h0.11v0.606H34.479z"/>
<path fill="#343434" d="M34.772,39.542c0-0.078-0.002-0.14-0.005-0.198h0.099l0.005,0.104h0.002
	c0.045-0.074,0.116-0.118,0.215-0.118c0.146,0,0.256,0.124,0.256,0.308c0,0.218-0.133,0.325-0.275,0.325
	c-0.08,0-0.15-0.035-0.187-0.095h-0.002v0.329h-0.109V39.542z M34.881,39.704c0,0.016,0.002,0.031,0.005,0.045
	c0.02,0.076,0.086,0.129,0.165,0.129c0.116,0,0.184-0.095,0.184-0.234c0-0.121-0.064-0.225-0.18-0.225
	c-0.075,0-0.145,0.054-0.166,0.136c-0.004,0.014-0.008,0.03-0.008,0.045V39.704z"/>
<path fill="#343434" d="M35.468,39.838c0.032,0.021,0.09,0.044,0.145,0.044c0.08,0,0.118-0.04,0.118-0.09
	c0-0.052-0.031-0.081-0.113-0.111c-0.109-0.039-0.16-0.099-0.16-0.171c0-0.098,0.079-0.178,0.209-0.178
	c0.062,0,0.115,0.018,0.149,0.038l-0.027,0.08c-0.024-0.015-0.068-0.035-0.124-0.035c-0.065,0-0.101,0.038-0.101,0.083
	c0,0.05,0.036,0.073,0.115,0.103c0.105,0.04,0.159,0.093,0.159,0.183c0,0.106-0.083,0.181-0.227,0.181
	c-0.066,0-0.128-0.016-0.17-0.041L35.468,39.838z"/>
<path fill="#343434" d="M36.485,39.785c0,0.063,0.001,0.118,0.005,0.165h-0.097l-0.006-0.099h-0.002
	c-0.029,0.049-0.093,0.113-0.2,0.113c-0.095,0-0.209-0.052-0.209-0.265v-0.354h0.11v0.335c0,0.115,0.035,0.193,0.135,0.193
	c0.074,0,0.125-0.051,0.145-0.1c0.006-0.016,0.01-0.036,0.01-0.056v-0.372h0.11V39.785z"/>
<path fill="#343434" d="M36.667,39.508c0-0.062-0.001-0.114-0.005-0.164h0.096l0.005,0.098h0.004c0.034-0.058,0.09-0.111,0.19-0.111
	c0.083,0,0.145,0.05,0.171,0.121h0.003c0.019-0.034,0.042-0.06,0.067-0.079c0.036-0.027,0.076-0.042,0.134-0.042
	c0.08,0,0.199,0.052,0.199,0.263v0.357h-0.108v-0.343c0-0.116-0.043-0.187-0.131-0.187c-0.063,0-0.112,0.046-0.13,0.1
	c-0.005,0.015-0.009,0.035-0.009,0.055v0.374h-0.108v-0.363c0-0.096-0.042-0.167-0.126-0.167c-0.069,0-0.119,0.055-0.136,0.11
	c-0.006,0.016-0.009,0.035-0.009,0.054v0.365h-0.108V39.508z"/>
<path fill="#343434" d="M38.995,39.062v0.732c0,0.054,0.001,0.115,0.005,0.156h-0.099l-0.005-0.105h-0.003
	c-0.034,0.068-0.108,0.119-0.206,0.119c-0.146,0-0.259-0.124-0.259-0.308c-0.001-0.201,0.124-0.325,0.271-0.325
	c0.093,0,0.155,0.044,0.183,0.093h0.002v-0.362H38.995z M38.885,39.591c0-0.014-0.001-0.032-0.005-0.046
	c-0.016-0.07-0.076-0.127-0.159-0.127c-0.114,0-0.181,0.1-0.181,0.234c0,0.123,0.06,0.224,0.179,0.224
	c0.074,0,0.141-0.049,0.161-0.132c0.004-0.015,0.005-0.03,0.005-0.047V39.591z"/>
<path fill="#343434" d="M39.684,39.785c0,0.063,0.001,0.118,0.005,0.165h-0.098l-0.006-0.099h-0.002
	c-0.029,0.049-0.093,0.113-0.2,0.113c-0.095,0-0.209-0.052-0.209-0.265v-0.354h0.11v0.335c0,0.115,0.035,0.193,0.135,0.193
	c0.074,0,0.125-0.051,0.145-0.1c0.006-0.016,0.01-0.036,0.01-0.056v-0.372h0.11V39.785z"/>
<path fill="#343434" d="M40.414,39.642c0,0.224-0.155,0.322-0.302,0.322c-0.164,0-0.29-0.12-0.29-0.312
	c0-0.203,0.133-0.322,0.3-0.322C40.296,39.331,40.414,39.457,40.414,39.642z M39.933,39.649c0,0.133,0.076,0.233,0.184,0.233
	c0.105,0,0.184-0.099,0.184-0.235c0-0.103-0.052-0.233-0.181-0.233C39.99,39.413,39.933,39.533,39.933,39.649z"/>
<path fill="#343434" d="M41.315,39.508c0-0.062-0.001-0.114-0.005-0.164h0.097l0.006,0.1h0.002c0.03-0.057,0.1-0.114,0.2-0.114
	c0.084,0,0.214,0.05,0.214,0.258v0.362h-0.11v-0.349c0-0.098-0.036-0.179-0.14-0.179c-0.073,0-0.129,0.051-0.148,0.113
	c-0.005,0.014-0.008,0.032-0.008,0.051v0.364h-0.11V39.508z"/>
<path fill="#343434" d="M42.557,39.642c0,0.224-0.155,0.322-0.302,0.322c-0.164,0-0.29-0.12-0.29-0.312
	c0-0.203,0.133-0.322,0.3-0.322C42.439,39.331,42.557,39.457,42.557,39.642z M42.076,39.649c0,0.133,0.076,0.233,0.184,0.233
	c0.105,0,0.184-0.099,0.184-0.235c0-0.103-0.051-0.233-0.182-0.233C42.133,39.413,42.076,39.533,42.076,39.649z"/>
<path fill="#343434" d="M42.68,39.838c0.032,0.021,0.09,0.044,0.145,0.044c0.08,0,0.118-0.04,0.118-0.09
	c0-0.052-0.031-0.081-0.113-0.111c-0.109-0.039-0.16-0.099-0.16-0.171c0-0.098,0.079-0.178,0.209-0.178
	c0.062,0,0.115,0.018,0.149,0.038L43,39.448c-0.024-0.015-0.068-0.035-0.124-0.035c-0.065,0-0.101,0.038-0.101,0.083
	c0,0.05,0.036,0.073,0.115,0.103c0.105,0.04,0.159,0.093,0.159,0.183c0,0.106-0.083,0.181-0.227,0.181
	c-0.066,0-0.128-0.016-0.17-0.041L42.68,39.838z"/>
<path fill="#343434" d="M43.323,39.171v0.174h0.158v0.084h-0.158v0.327c0,0.075,0.021,0.117,0.083,0.117
	c0.029,0,0.05-0.004,0.064-0.008l0.005,0.083c-0.021,0.009-0.055,0.015-0.097,0.015c-0.051,0-0.093-0.016-0.119-0.046
	c-0.031-0.033-0.042-0.086-0.042-0.158v-0.33h-0.094v-0.084h0.094v-0.145L43.323,39.171z"/>
<path fill="#343434" d="M43.658,39.667c0.002,0.149,0.098,0.21,0.208,0.21c0.079,0,0.126-0.014,0.168-0.031l0.019,0.079
	c-0.039,0.018-0.105,0.038-0.201,0.038c-0.187,0-0.298-0.123-0.298-0.305s0.107-0.327,0.284-0.327c0.198,0,0.25,0.174,0.25,0.285
	c0,0.022-0.002,0.04-0.004,0.051H43.658z M43.98,39.589c0.001-0.07-0.029-0.179-0.153-0.179c-0.111,0-0.16,0.103-0.169,0.179H43.98z
	"/>
<path fill="#343434" d="M44.223,39.533c0-0.071-0.001-0.133-0.005-0.189h0.096l0.004,0.119h0.005
	c0.028-0.081,0.094-0.133,0.168-0.133c0.012,0,0.021,0.001,0.031,0.004v0.104c-0.011-0.002-0.022-0.004-0.038-0.004
	c-0.077,0-0.133,0.059-0.148,0.141c-0.002,0.015-0.005,0.032-0.005,0.051v0.323h-0.109V39.533z"/>
<path fill="#343434" d="M29.255,41.167c0.003,0.149,0.098,0.21,0.208,0.21c0.079,0,0.126-0.014,0.168-0.031l0.019,0.079
	c-0.039,0.018-0.105,0.038-0.202,0.038c-0.186,0-0.298-0.123-0.298-0.305s0.108-0.327,0.284-0.327c0.198,0,0.25,0.174,0.25,0.285
	c0,0.022-0.002,0.04-0.004,0.051H29.255z M29.578,41.089c0.001-0.07-0.029-0.179-0.153-0.179c-0.111,0-0.16,0.103-0.169,0.179
	H29.578z"/>
<path fill="#343434" d="M30.327,41.285c0,0.063,0.001,0.118,0.005,0.165h-0.097l-0.006-0.099h-0.002
	c-0.029,0.049-0.093,0.113-0.2,0.113c-0.095,0-0.209-0.052-0.209-0.265v-0.354h0.11v0.335c0,0.115,0.035,0.193,0.135,0.193
	c0.074,0,0.125-0.051,0.145-0.1c0.006-0.016,0.01-0.036,0.01-0.056v-0.372h0.11V41.285z"/>
<path fill="#343434" d="M30.631,40.674c0.001,0.037-0.026,0.067-0.07,0.067c-0.039,0-0.066-0.03-0.066-0.067
	c0-0.039,0.029-0.069,0.069-0.069C30.605,40.606,30.631,40.636,30.631,40.674z M30.509,41.45v-0.606h0.11v0.606H30.509z"/>
<path fill="#343434" d="M30.786,41.338c0.032,0.021,0.09,0.044,0.145,0.044c0.08,0,0.118-0.04,0.118-0.09
	c0-0.052-0.031-0.081-0.113-0.111c-0.109-0.039-0.16-0.099-0.16-0.171c0-0.098,0.079-0.178,0.209-0.178
	c0.061,0,0.115,0.018,0.149,0.038l-0.027,0.08c-0.024-0.015-0.068-0.035-0.124-0.035c-0.065,0-0.101,0.038-0.101,0.083
	c0,0.05,0.036,0.073,0.115,0.103c0.105,0.04,0.159,0.093,0.159,0.183c0,0.106-0.083,0.181-0.226,0.181
	c-0.066,0-0.128-0.016-0.17-0.041L30.786,41.338z"/>
<path fill="#343434" d="M31.296,41.008c0-0.062-0.001-0.114-0.005-0.164h0.096l0.005,0.098h0.004c0.034-0.058,0.09-0.111,0.19-0.111
	c0.083,0,0.145,0.05,0.171,0.121h0.003c0.019-0.034,0.042-0.06,0.067-0.079c0.036-0.027,0.076-0.042,0.134-0.042
	c0.08,0,0.199,0.052,0.199,0.263v0.357h-0.108v-0.343c0-0.116-0.043-0.187-0.131-0.187c-0.063,0-0.112,0.046-0.13,0.1
	c-0.005,0.015-0.009,0.035-0.009,0.055v0.374h-0.108v-0.363c0-0.096-0.042-0.167-0.126-0.167c-0.069,0-0.119,0.055-0.136,0.11
	c-0.006,0.016-0.009,0.035-0.009,0.054v0.365h-0.108V41.008z"/>
<path fill="#343434" d="M32.887,41.142c0,0.224-0.155,0.322-0.302,0.322c-0.164,0-0.29-0.12-0.29-0.312
	c0-0.203,0.133-0.322,0.3-0.322C32.769,40.831,32.887,40.957,32.887,41.142z M32.406,41.149c0,0.133,0.076,0.233,0.184,0.233
	c0.105,0,0.184-0.099,0.184-0.235c0-0.103-0.051-0.233-0.182-0.233C32.463,40.913,32.406,41.033,32.406,41.149z"/>
<path fill="#343434" d="M33.548,40.562v0.732c0,0.054,0.001,0.115,0.005,0.156h-0.099l-0.005-0.105h-0.002
	c-0.034,0.068-0.107,0.119-0.206,0.119c-0.146,0-0.259-0.124-0.259-0.308c-0.001-0.201,0.124-0.325,0.271-0.325
	c0.093,0,0.155,0.044,0.183,0.093h0.002v-0.362H33.548z M33.438,41.091c0-0.014-0.001-0.032-0.005-0.046
	c-0.016-0.07-0.076-0.127-0.159-0.127c-0.114,0-0.181,0.1-0.181,0.234c0,0.123,0.06,0.224,0.179,0.224
	c0.074,0,0.141-0.049,0.161-0.132c0.004-0.015,0.005-0.03,0.005-0.047V41.091z"/>
<path fill="#343434" d="M35.428,41.008c0-0.062-0.001-0.114-0.005-0.164h0.096l0.005,0.098h0.004c0.034-0.058,0.09-0.111,0.19-0.111
	c0.083,0,0.145,0.05,0.171,0.121h0.002c0.019-0.034,0.043-0.06,0.068-0.079c0.036-0.027,0.076-0.042,0.134-0.042
	c0.08,0,0.199,0.052,0.199,0.263v0.357h-0.107v-0.343c0-0.116-0.042-0.187-0.131-0.187c-0.063,0-0.111,0.046-0.13,0.1
	c-0.005,0.015-0.009,0.035-0.009,0.055v0.374h-0.108v-0.363c0-0.096-0.042-0.167-0.126-0.167c-0.069,0-0.119,0.055-0.136,0.11
	c-0.006,0.016-0.009,0.035-0.009,0.054v0.365h-0.108V41.008z"/>
<path fill="#343434" d="M37.019,41.142c0,0.224-0.155,0.322-0.302,0.322c-0.164,0-0.29-0.12-0.29-0.312
	c0-0.203,0.133-0.322,0.3-0.322C36.901,40.831,37.019,40.957,37.019,41.142z M36.538,41.149c0,0.133,0.076,0.233,0.184,0.233
	c0.105,0,0.184-0.099,0.184-0.235c0-0.103-0.052-0.233-0.181-0.233C36.595,40.913,36.538,41.033,36.538,41.149z"/>
<path fill="#343434" d="M37.68,40.562v0.732c0,0.054,0.001,0.115,0.005,0.156h-0.099l-0.005-0.105h-0.003
	c-0.034,0.068-0.108,0.119-0.206,0.119c-0.146,0-0.259-0.124-0.259-0.308c-0.001-0.201,0.124-0.325,0.271-0.325
	c0.093,0,0.155,0.044,0.183,0.093h0.002v-0.362H37.68z M37.57,41.091c0-0.014-0.001-0.032-0.005-0.046
	c-0.016-0.07-0.076-0.127-0.159-0.127c-0.114,0-0.181,0.1-0.181,0.234c0,0.123,0.06,0.224,0.179,0.224
	c0.074,0,0.141-0.049,0.161-0.132c0.004-0.015,0.005-0.03,0.005-0.047V41.091z"/>
<path fill="#343434" d="M37.923,41.167c0.003,0.149,0.098,0.21,0.208,0.21c0.079,0,0.126-0.014,0.168-0.031l0.019,0.079
	c-0.039,0.018-0.105,0.038-0.202,0.038c-0.186,0-0.298-0.123-0.298-0.305s0.108-0.327,0.284-0.327c0.198,0,0.25,0.174,0.25,0.285
	c0,0.022-0.002,0.04-0.004,0.051H37.923z M38.246,41.089c0.001-0.07-0.029-0.179-0.153-0.179c-0.111,0-0.16,0.103-0.169,0.179
	H38.246z"/>
<path fill="#343434" d="M38.488,41.033c0-0.071-0.001-0.133-0.005-0.189h0.096l0.004,0.119h0.005
	c0.028-0.081,0.094-0.133,0.168-0.133c0.012,0,0.021,0.001,0.031,0.004v0.104c-0.011-0.002-0.022-0.004-0.038-0.004
	c-0.078,0-0.133,0.059-0.147,0.141c-0.003,0.015-0.005,0.032-0.005,0.051v0.323h-0.109V41.033z"/>
<path fill="#343434" d="M39.226,41.45l-0.009-0.076h-0.004c-0.034,0.048-0.099,0.09-0.185,0.09c-0.123,0-0.185-0.086-0.185-0.174
	c0-0.146,0.13-0.227,0.364-0.225v-0.012c0-0.05-0.014-0.14-0.138-0.14c-0.056,0-0.115,0.018-0.158,0.045l-0.025-0.073
	c0.05-0.032,0.123-0.054,0.199-0.054c0.185,0,0.23,0.126,0.23,0.248v0.226c0,0.053,0.002,0.104,0.01,0.145H39.226z M39.21,41.141
	c-0.12-0.002-0.257,0.019-0.257,0.136c0,0.071,0.048,0.105,0.104,0.105c0.079,0,0.129-0.05,0.146-0.101
	c0.004-0.011,0.006-0.024,0.006-0.035V41.141z"/>
<path fill="#343434" d="M39.621,40.671v0.174h0.158v0.084h-0.158v0.327c0,0.075,0.021,0.117,0.083,0.117
	c0.029,0,0.05-0.004,0.064-0.008l0.005,0.083c-0.021,0.009-0.055,0.015-0.097,0.015c-0.051,0-0.093-0.016-0.119-0.046
	c-0.031-0.033-0.042-0.086-0.042-0.158v-0.33H39.42v-0.084h0.094v-0.145L39.621,40.671z"/>
<path fill="#343434" d="M40.025,40.674c0.001,0.037-0.026,0.067-0.07,0.067c-0.039,0-0.066-0.03-0.066-0.067
	c0-0.039,0.029-0.069,0.069-0.069C39.999,40.606,40.025,40.636,40.025,40.674z M39.902,41.45v-0.606h0.11v0.606H39.902z"/>
<path fill="#343434" d="M40.702,41.285c0,0.063,0.001,0.118,0.005,0.165h-0.098l-0.006-0.099H40.6
	c-0.029,0.049-0.093,0.113-0.2,0.113c-0.095,0-0.209-0.052-0.209-0.265v-0.354h0.11v0.335c0,0.115,0.035,0.193,0.135,0.193
	c0.074,0,0.125-0.051,0.145-0.1c0.006-0.016,0.01-0.036,0.01-0.056v-0.372h0.11V41.285z"/>
<path fill="#343434" d="M40.869,41.338c0.032,0.021,0.09,0.044,0.145,0.044c0.08,0,0.118-0.04,0.118-0.09
	c0-0.052-0.031-0.081-0.113-0.111c-0.109-0.039-0.16-0.099-0.16-0.171c0-0.098,0.079-0.178,0.209-0.178
	c0.062,0,0.115,0.018,0.149,0.038l-0.027,0.08c-0.024-0.015-0.068-0.035-0.124-0.035c-0.065,0-0.101,0.038-0.101,0.083
	c0,0.05,0.036,0.073,0.115,0.103c0.105,0.04,0.159,0.093,0.159,0.183c0,0.106-0.083,0.181-0.227,0.181
	c-0.066,0-0.128-0.016-0.17-0.041L40.869,41.338z"/>
<path fill="#343434" d="M43.412,41.45l-0.009-0.076h-0.004c-0.034,0.048-0.099,0.09-0.185,0.09c-0.123,0-0.185-0.086-0.185-0.174
	c0-0.146,0.13-0.227,0.364-0.225v-0.012c0-0.05-0.014-0.14-0.138-0.14c-0.056,0-0.115,0.018-0.158,0.045l-0.025-0.073
	c0.05-0.032,0.123-0.054,0.199-0.054c0.185,0,0.23,0.126,0.23,0.248v0.226c0,0.053,0.002,0.104,0.01,0.145H43.412z M43.396,41.141
	c-0.12-0.002-0.257,0.019-0.257,0.136c0,0.071,0.048,0.105,0.104,0.105c0.079,0,0.129-0.05,0.146-0.101
	c0.004-0.011,0.006-0.024,0.006-0.035V41.141z"/>
<path fill="#343434" d="M44.202,40.562v0.732c0,0.054,0.001,0.115,0.005,0.156h-0.099l-0.005-0.105h-0.003
	c-0.034,0.068-0.108,0.119-0.206,0.119c-0.146,0-0.259-0.124-0.259-0.308c-0.001-0.201,0.124-0.325,0.271-0.325
	c0.093,0,0.155,0.044,0.183,0.093h0.002v-0.362H44.202z M44.092,41.091c0-0.014-0.001-0.032-0.005-0.046
	c-0.016-0.07-0.076-0.127-0.159-0.127c-0.114,0-0.181,0.1-0.181,0.234c0,0.123,0.06,0.224,0.179,0.224
	c0.074,0,0.141-0.049,0.161-0.132c0.004-0.015,0.005-0.03,0.005-0.047V41.091z"/>
<path fill="#343434" d="M44.346,41.385c0-0.046,0.031-0.079,0.075-0.079c0.044,0,0.074,0.032,0.074,0.079
	c0,0.045-0.029,0.079-0.075,0.079C44.375,41.464,44.346,41.43,44.346,41.385z"/>
<path fill="#343434" d="M29.182,42.818c0.049,0.03,0.12,0.055,0.195,0.055c0.111,0,0.176-0.059,0.176-0.144
	c0-0.079-0.045-0.124-0.159-0.168c-0.137-0.049-0.223-0.12-0.223-0.239c0-0.131,0.109-0.229,0.273-0.229
	c0.086,0,0.149,0.02,0.187,0.042l-0.03,0.089c-0.028-0.015-0.084-0.04-0.16-0.04c-0.115,0-0.159,0.069-0.159,0.126
	c0,0.079,0.051,0.118,0.168,0.163c0.143,0.055,0.215,0.124,0.215,0.248c0,0.13-0.096,0.243-0.295,0.243
	c-0.081,0-0.17-0.024-0.215-0.054L29.182,42.818z"/>
<path fill="#343434" d="M30.319,42.642c0,0.224-0.155,0.322-0.302,0.322c-0.164,0-0.29-0.12-0.29-0.312
	c0-0.203,0.133-0.322,0.3-0.322C30.202,42.331,30.319,42.457,30.319,42.642z M29.839,42.649c0,0.133,0.076,0.233,0.184,0.233
	c0.105,0,0.184-0.099,0.184-0.235c0-0.103-0.051-0.233-0.182-0.233C29.895,42.413,29.839,42.533,29.839,42.649z"/>
<path fill="#343434" d="M30.411,42.062h0.11v0.888h-0.11V42.062z"/>
<path fill="#343434" d="M30.721,42.667c0.003,0.149,0.098,0.21,0.208,0.21c0.079,0,0.126-0.014,0.168-0.031l0.019,0.079
	c-0.039,0.018-0.105,0.038-0.202,0.038c-0.186,0-0.298-0.123-0.298-0.305s0.108-0.327,0.284-0.327c0.198,0,0.25,0.174,0.25,0.285
	c0,0.022-0.002,0.04-0.004,0.051H30.721z M31.044,42.589c0.001-0.07-0.029-0.179-0.153-0.179c-0.111,0-0.16,0.103-0.169,0.179
	H31.044z"/>
<path fill="#343434" d="M31.575,42.95l-0.009-0.076h-0.004c-0.034,0.048-0.099,0.09-0.185,0.09c-0.123,0-0.185-0.086-0.185-0.174
	c0-0.146,0.13-0.227,0.364-0.225v-0.012c0-0.05-0.014-0.14-0.138-0.14c-0.056,0-0.115,0.018-0.158,0.045l-0.025-0.073
	c0.05-0.032,0.123-0.054,0.199-0.054c0.185,0,0.23,0.126,0.23,0.248v0.226c0,0.053,0.002,0.104,0.01,0.145H31.575z M31.559,42.641
	c-0.12-0.002-0.257,0.019-0.257,0.136c0,0.071,0.048,0.105,0.104,0.105c0.079,0,0.129-0.05,0.146-0.101
	c0.004-0.011,0.006-0.024,0.006-0.035V42.641z"/>
<path fill="#343434" d="M31.924,42.171v0.174h0.158v0.084h-0.158v0.327c0,0.075,0.021,0.117,0.083,0.117
	c0.029,0,0.05-0.004,0.064-0.008l0.005,0.083c-0.021,0.009-0.055,0.015-0.097,0.015c-0.051,0-0.093-0.016-0.119-0.046
	c-0.031-0.033-0.042-0.086-0.042-0.158v-0.33h-0.094v-0.084h0.094v-0.145L31.924,42.171z"/>
<path fill="#343434" d="M32.483,42.175c0.001,0.037-0.026,0.067-0.07,0.067c-0.039,0-0.066-0.03-0.066-0.067
	c0-0.039,0.029-0.069,0.069-0.069C32.457,42.106,32.483,42.136,32.483,42.175z M32.36,42.95v-0.606h0.11v0.606H32.36z"/>
<path fill="#343434" d="M32.606,42.508c0-0.063-0.001-0.114-0.005-0.164h0.097l0.006,0.1h0.002c0.03-0.057,0.1-0.114,0.2-0.114
	c0.084,0,0.214,0.05,0.214,0.258v0.362h-0.11v-0.349c0-0.098-0.036-0.179-0.14-0.179c-0.073,0-0.129,0.051-0.148,0.113
	c-0.005,0.014-0.008,0.032-0.008,0.051v0.364h-0.11V42.508z"/>
<path fill="#343434" d="M33.382,42.171v0.174h0.158v0.084h-0.158v0.327c0,0.075,0.021,0.117,0.083,0.117
	c0.029,0,0.05-0.004,0.064-0.008l0.005,0.083c-0.021,0.009-0.055,0.015-0.097,0.015c-0.051,0-0.093-0.016-0.119-0.046
	c-0.031-0.033-0.042-0.086-0.042-0.158v-0.33H33.18v-0.084h0.094v-0.145L33.382,42.171z"/>
<path fill="#343434" d="M33.67,42.667c0.003,0.149,0.098,0.21,0.208,0.21c0.079,0,0.126-0.014,0.168-0.031l0.019,0.079
	c-0.039,0.018-0.105,0.038-0.202,0.038c-0.186,0-0.298-0.123-0.298-0.305s0.108-0.327,0.284-0.327c0.198,0,0.25,0.174,0.25,0.285
	c0,0.022-0.002,0.04-0.004,0.051H33.67z M33.993,42.589c0.001-0.07-0.029-0.179-0.153-0.179c-0.111,0-0.16,0.103-0.169,0.179H33.993
	z"/>
<path fill="#343434" d="M34.189,42.062h0.11v0.888h-0.11V42.062z"/>
<path fill="#343434" d="M34.438,42.062h0.11v0.888h-0.11V42.062z"/>
<path fill="#343434" d="M34.748,42.667c0.002,0.149,0.098,0.21,0.208,0.21c0.079,0,0.126-0.014,0.168-0.031l0.019,0.079
	c-0.039,0.018-0.105,0.038-0.201,0.038c-0.187,0-0.298-0.123-0.298-0.305s0.107-0.327,0.284-0.327c0.198,0,0.25,0.174,0.25,0.285
	c0,0.022-0.002,0.04-0.004,0.051H34.748z M35.071,42.589c0.001-0.07-0.029-0.179-0.153-0.179c-0.111,0-0.16,0.103-0.169,0.179
	H35.071z"/>
<path fill="#343434" d="M35.788,42.344c-0.002,0.044-0.005,0.093-0.005,0.167v0.352c0,0.139-0.028,0.224-0.086,0.277
	c-0.059,0.055-0.144,0.073-0.22,0.073c-0.073,0-0.153-0.018-0.201-0.05l0.028-0.084c0.04,0.025,0.103,0.047,0.177,0.047
	c0.113,0,0.195-0.059,0.195-0.211v-0.067h-0.002c-0.034,0.056-0.099,0.101-0.193,0.101c-0.15,0-0.258-0.128-0.258-0.295
	c0-0.205,0.134-0.322,0.273-0.322c0.105,0,0.163,0.055,0.189,0.105h0.002l0.005-0.092H35.788z M35.674,42.583
	c0-0.019-0.001-0.035-0.006-0.05c-0.02-0.064-0.074-0.116-0.154-0.116c-0.105,0-0.18,0.089-0.18,0.229
	c0,0.119,0.06,0.218,0.179,0.218c0.067,0,0.129-0.042,0.153-0.113c0.006-0.019,0.009-0.04,0.009-0.059V42.583z"/>
<path fill="#343434" d="M36.254,42.95l-0.009-0.076h-0.004c-0.034,0.048-0.099,0.09-0.185,0.09c-0.123,0-0.185-0.086-0.185-0.174
	c0-0.146,0.13-0.227,0.364-0.225v-0.012c0-0.05-0.014-0.14-0.138-0.14c-0.056,0-0.115,0.018-0.158,0.045l-0.025-0.073
	c0.05-0.032,0.123-0.054,0.199-0.054c0.185,0,0.23,0.126,0.23,0.248v0.226c0,0.053,0.002,0.104,0.01,0.145H36.254z M36.238,42.641
	c-0.12-0.002-0.257,0.019-0.257,0.136c0,0.071,0.048,0.105,0.104,0.105c0.079,0,0.129-0.05,0.146-0.101
	c0.004-0.011,0.006-0.024,0.006-0.035V42.641z"/>
<path fill="#343434" d="M36.475,42.508c0-0.063-0.001-0.114-0.005-0.164h0.096l0.005,0.098h0.004c0.034-0.058,0.09-0.111,0.19-0.111
	c0.083,0,0.145,0.05,0.171,0.121h0.002c0.019-0.034,0.043-0.06,0.068-0.079c0.036-0.027,0.076-0.042,0.134-0.042
	c0.08,0,0.199,0.052,0.199,0.263v0.357h-0.107v-0.343c0-0.116-0.042-0.187-0.131-0.187c-0.063,0-0.111,0.046-0.13,0.1
	c-0.005,0.015-0.009,0.035-0.009,0.055v0.374h-0.108v-0.363c0-0.096-0.042-0.167-0.126-0.167c-0.069,0-0.119,0.055-0.136,0.11
	c-0.006,0.016-0.009,0.035-0.009,0.054v0.365h-0.108V42.508z"/>
<path fill="#343434" d="M37.806,42.171v0.174h0.158v0.084h-0.158v0.327c0,0.075,0.021,0.117,0.083,0.117
	c0.029,0,0.05-0.004,0.064-0.008l0.005,0.083c-0.021,0.009-0.055,0.015-0.098,0.015c-0.051,0-0.093-0.016-0.119-0.046
	c-0.031-0.033-0.042-0.086-0.042-0.158v-0.33h-0.094v-0.084h0.094v-0.145L37.806,42.171z"/>
<path fill="#343434" d="M38.094,42.667c0.003,0.149,0.098,0.21,0.208,0.21c0.079,0,0.126-0.014,0.168-0.031l0.019,0.079
	c-0.039,0.018-0.105,0.038-0.202,0.038c-0.186,0-0.298-0.123-0.298-0.305s0.108-0.327,0.284-0.327c0.198,0,0.25,0.174,0.25,0.285
	c0,0.022-0.002,0.04-0.004,0.051H38.094z M38.417,42.589c0.001-0.07-0.029-0.179-0.153-0.179c-0.111,0-0.16,0.103-0.169,0.179
	H38.417z"/>
<path fill="#343434" d="M38.613,42.508c0-0.063-0.001-0.114-0.005-0.164h0.096l0.005,0.098h0.004c0.034-0.058,0.09-0.111,0.19-0.111
	c0.083,0,0.145,0.05,0.171,0.121h0.003c0.019-0.034,0.042-0.06,0.067-0.079c0.036-0.027,0.076-0.042,0.134-0.042
	c0.08,0,0.199,0.052,0.199,0.263v0.357H39.37v-0.343c0-0.116-0.043-0.187-0.131-0.187c-0.063,0-0.112,0.046-0.13,0.1
	c-0.005,0.015-0.009,0.035-0.009,0.055v0.374h-0.108v-0.363c0-0.096-0.042-0.167-0.126-0.167c-0.069,0-0.119,0.055-0.136,0.11
	c-0.006,0.016-0.009,0.035-0.009,0.054v0.365h-0.108V42.508z"/>
<path fill="#343434" d="M39.609,42.542c0-0.078-0.002-0.14-0.005-0.198h0.099l0.005,0.104h0.002
	c0.045-0.074,0.116-0.118,0.215-0.118c0.146,0,0.256,0.124,0.256,0.308c0,0.218-0.133,0.325-0.275,0.325
	c-0.08,0-0.15-0.035-0.187-0.095h-0.002v0.329h-0.109V42.542z M39.718,42.704c0,0.016,0.002,0.031,0.005,0.045
	c0.02,0.076,0.086,0.129,0.165,0.129c0.116,0,0.184-0.095,0.184-0.234c0-0.121-0.064-0.225-0.18-0.225
	c-0.075,0-0.145,0.054-0.166,0.136c-0.004,0.014-0.008,0.03-0.008,0.045V42.704z"/>
<path fill="#343434" d="M40.822,42.642c0,0.224-0.155,0.322-0.302,0.322c-0.164,0-0.29-0.12-0.29-0.312
	c0-0.203,0.133-0.322,0.3-0.322C40.705,42.331,40.822,42.457,40.822,42.642z M40.342,42.649c0,0.133,0.076,0.233,0.184,0.233
	c0.105,0,0.184-0.099,0.184-0.235c0-0.103-0.051-0.233-0.182-0.233C40.398,42.413,40.342,42.533,40.342,42.649z"/>
<path fill="#343434" d="M40.914,42.533c0-0.071-0.001-0.133-0.005-0.189h0.096l0.004,0.119h0.005
	c0.028-0.081,0.094-0.133,0.168-0.133c0.012,0,0.021,0.001,0.031,0.004v0.104c-0.011-0.002-0.022-0.004-0.038-0.004
	c-0.078,0-0.133,0.059-0.147,0.141c-0.003,0.015-0.005,0.032-0.005,0.051v0.323h-0.109V42.533z"/>
<path fill="#343434" d="M41.404,42.175c0.001,0.037-0.026,0.067-0.07,0.067c-0.039,0-0.066-0.03-0.066-0.067
	c0-0.039,0.029-0.069,0.069-0.069C41.378,42.106,41.404,42.136,41.404,42.175z M41.282,42.95v-0.606h0.11v0.606H41.282z"/>
<path fill="#343434" d="M41.523,42.95c0.002-0.041,0.005-0.103,0.005-0.156v-0.732h0.109v0.38h0.002
	c0.039-0.067,0.109-0.111,0.207-0.111c0.15,0,0.256,0.125,0.255,0.309c0,0.217-0.136,0.324-0.271,0.324
	c-0.088,0-0.157-0.034-0.203-0.114h-0.004l-0.005,0.1H41.523z M41.637,42.707c0,0.014,0.002,0.028,0.005,0.04
	c0.021,0.076,0.085,0.129,0.165,0.129c0.115,0,0.184-0.094,0.184-0.233c0-0.121-0.062-0.225-0.18-0.225
	c-0.075,0-0.145,0.051-0.167,0.135c-0.003,0.013-0.006,0.028-0.006,0.045V42.707z"/>
<path fill="#343434" d="M42.7,42.785c0,0.063,0.001,0.118,0.005,0.165h-0.097l-0.006-0.099h-0.002
	c-0.029,0.049-0.093,0.113-0.2,0.113c-0.095,0-0.209-0.052-0.209-0.265v-0.354h0.11v0.335c0,0.115,0.035,0.193,0.135,0.193
	c0.074,0,0.125-0.051,0.145-0.1c0.006-0.016,0.01-0.036,0.01-0.056v-0.372h0.11V42.785z"/>
<path fill="#343434" d="M42.821,42.838c0.032,0.021,0.09,0.044,0.145,0.044c0.08,0,0.118-0.04,0.118-0.09
	c0-0.052-0.031-0.081-0.113-0.111c-0.109-0.039-0.16-0.099-0.16-0.171c0-0.098,0.079-0.178,0.209-0.178
	c0.062,0,0.115,0.018,0.149,0.038l-0.027,0.08c-0.024-0.015-0.068-0.035-0.124-0.035c-0.065,0-0.101,0.038-0.101,0.083
	c0,0.05,0.036,0.073,0.115,0.103c0.105,0.04,0.159,0.093,0.159,0.183c0,0.106-0.083,0.181-0.227,0.181
	c-0.066,0-0.128-0.016-0.17-0.041L42.821,42.838z"/>
<path fill="#343434" d="M44.036,42.785c0,0.063,0.001,0.118,0.005,0.165h-0.098l-0.006-0.099h-0.002
	c-0.029,0.049-0.093,0.113-0.2,0.113c-0.095,0-0.209-0.052-0.209-0.265v-0.354h0.11v0.335c0,0.115,0.035,0.193,0.135,0.193
	c0.074,0,0.125-0.051,0.145-0.1c0.006-0.016,0.01-0.036,0.01-0.056v-0.372h0.11V42.785z"/>
<path fill="#343434" d="M44.35,42.171v0.174h0.158v0.084H44.35v0.327c0,0.075,0.021,0.117,0.083,0.117
	c0.029,0,0.05-0.004,0.064-0.008l0.005,0.083c-0.021,0.009-0.055,0.015-0.097,0.015c-0.051,0-0.093-0.016-0.119-0.046
	c-0.031-0.033-0.042-0.086-0.042-0.158v-0.33h-0.094v-0.084h0.094v-0.145L44.35,42.171z"/>
<path fill="#343434" d="M29.717,43.562v0.732c0,0.054,0.001,0.115,0.005,0.156h-0.099l-0.005-0.105h-0.003
	c-0.034,0.068-0.108,0.119-0.206,0.119c-0.146,0-0.259-0.124-0.259-0.308c-0.001-0.201,0.124-0.325,0.271-0.325
	c0.093,0,0.155,0.044,0.183,0.093h0.002v-0.362H29.717z M29.606,44.091c0-0.014-0.001-0.032-0.005-0.046
	c-0.016-0.07-0.076-0.127-0.159-0.127c-0.114,0-0.181,0.1-0.181,0.234c0,0.123,0.06,0.224,0.179,0.224
	c0.074,0,0.141-0.049,0.161-0.132c0.004-0.015,0.005-0.03,0.005-0.047V44.091z"/>
<path fill="#343434" d="M30.406,44.285c0,0.063,0.001,0.118,0.005,0.165h-0.098l-0.006-0.099h-0.002
	c-0.029,0.049-0.093,0.113-0.2,0.113c-0.095,0-0.209-0.052-0.209-0.265v-0.354h0.11v0.335c0,0.115,0.035,0.193,0.135,0.193
	c0.074,0,0.125-0.051,0.145-0.1c0.006-0.016,0.01-0.036,0.01-0.056v-0.372h0.11V44.285z"/>
<path fill="#343434" d="M31.135,44.142c0,0.224-0.155,0.322-0.302,0.322c-0.164,0-0.29-0.12-0.29-0.312
	c0-0.203,0.133-0.322,0.3-0.322C31.018,43.831,31.135,43.957,31.135,44.142z M30.655,44.149c0,0.133,0.076,0.233,0.184,0.233
	c0.105,0,0.184-0.099,0.184-0.235c0-0.103-0.052-0.233-0.181-0.233C30.711,43.913,30.655,44.033,30.655,44.149z"/>
<path fill="#343434" d="M31.172,44.604c0.028-0.074,0.061-0.208,0.075-0.299l0.123-0.012c-0.029,0.106-0.084,0.245-0.119,0.304
	L31.172,44.604z"/>
<path fill="#343434" d="M32.364,43.844l0.119,0.34c0.02,0.055,0.036,0.105,0.049,0.155h0.004c0.014-0.05,0.031-0.1,0.051-0.155
	l0.117-0.34h0.115l-0.238,0.606h-0.105l-0.23-0.606H32.364z"/>
<path fill="#343434" d="M33.046,43.675c0.001,0.037-0.026,0.067-0.07,0.067c-0.039,0-0.066-0.03-0.066-0.067
	c0-0.039,0.029-0.069,0.069-0.069C33.02,43.606,33.046,43.636,33.046,43.675z M32.923,44.45v-0.606h0.11v0.606H32.923z"/>
<path fill="#343434" d="M33.201,44.338c0.032,0.021,0.09,0.044,0.145,0.044c0.08,0,0.118-0.04,0.118-0.09
	c0-0.052-0.031-0.081-0.113-0.111c-0.109-0.039-0.16-0.099-0.16-0.171c0-0.098,0.079-0.178,0.209-0.178
	c0.061,0,0.115,0.018,0.149,0.038l-0.027,0.08c-0.024-0.015-0.068-0.035-0.124-0.035c-0.065,0-0.101,0.038-0.101,0.083
	c0,0.05,0.036,0.073,0.115,0.103c0.105,0.04,0.159,0.093,0.159,0.183c0,0.106-0.083,0.181-0.226,0.181
	c-0.066,0-0.128-0.016-0.17-0.041L33.201,44.338z"/>
<path fill="#343434" d="M34.866,44.45l-0.009-0.076h-0.004c-0.034,0.048-0.099,0.09-0.185,0.09c-0.123,0-0.185-0.086-0.185-0.174
	c0-0.146,0.13-0.227,0.364-0.225v-0.012c0-0.05-0.014-0.14-0.138-0.14c-0.056,0-0.115,0.018-0.158,0.045l-0.025-0.073
	c0.05-0.032,0.123-0.054,0.199-0.054c0.185,0,0.23,0.126,0.23,0.248v0.226c0,0.053,0.002,0.104,0.01,0.145H34.866z M34.849,44.141
	c-0.12-0.002-0.257,0.019-0.257,0.136c0,0.071,0.048,0.105,0.104,0.105c0.079,0,0.129-0.05,0.146-0.101
	c0.004-0.011,0.006-0.024,0.006-0.035V44.141z"/>
<path fill="#343434" d="M35.133,44.009c0-0.062-0.001-0.114-0.005-0.164h0.097l0.006,0.1h0.002c0.03-0.057,0.1-0.114,0.2-0.114
	c0.084,0,0.214,0.05,0.214,0.258v0.362h-0.11v-0.349c0-0.098-0.036-0.179-0.14-0.179c-0.073,0-0.129,0.051-0.148,0.113
	c-0.005,0.014-0.008,0.032-0.008,0.051v0.364h-0.11V44.009z"/>
<path fill="#343434" d="M37.194,44.142c0,0.224-0.155,0.322-0.302,0.322c-0.164,0-0.29-0.12-0.29-0.312
	c0-0.203,0.133-0.322,0.3-0.322C37.077,43.831,37.194,43.957,37.194,44.142z M36.714,44.149c0,0.133,0.076,0.233,0.184,0.233
	c0.105,0,0.184-0.099,0.184-0.235c0-0.103-0.052-0.233-0.181-0.233C36.77,43.913,36.714,44.033,36.714,44.149z"/>
<path fill="#343434" d="M37.332,44.009c0-0.062-0.001-0.114-0.005-0.164h0.096l0.005,0.098h0.004c0.034-0.058,0.09-0.111,0.19-0.111
	c0.083,0,0.145,0.05,0.171,0.121h0.003c0.019-0.034,0.042-0.06,0.067-0.079c0.036-0.027,0.076-0.042,0.134-0.042
	c0.08,0,0.199,0.052,0.199,0.263v0.357h-0.108v-0.343c0-0.116-0.043-0.187-0.131-0.187c-0.063,0-0.112,0.046-0.13,0.1
	c-0.005,0.015-0.009,0.035-0.009,0.055v0.374h-0.108v-0.363c0-0.096-0.042-0.167-0.126-0.167c-0.069,0-0.119,0.055-0.136,0.11
	c-0.006,0.016-0.009,0.035-0.009,0.054v0.365h-0.108V44.009z"/>
<path fill="#343434" d="M38.375,44.009c0-0.062-0.001-0.114-0.005-0.164h0.097l0.006,0.1h0.002c0.03-0.057,0.1-0.114,0.2-0.114
	c0.084,0,0.214,0.05,0.214,0.258v0.362h-0.11v-0.349c0-0.098-0.036-0.179-0.14-0.179c-0.073,0-0.129,0.051-0.148,0.113
	c-0.005,0.014-0.008,0.032-0.008,0.051v0.364h-0.11V44.009z"/>
<path fill="#343434" d="M39.191,43.675c0.001,0.037-0.026,0.067-0.07,0.067c-0.039,0-0.066-0.03-0.066-0.067
	c0-0.039,0.029-0.069,0.069-0.069C39.165,43.606,39.191,43.636,39.191,43.675z M39.069,44.45v-0.606h0.11v0.606H39.069z"/>
<path fill="#343434" d="M39.346,44.338c0.032,0.021,0.09,0.044,0.145,0.044c0.08,0,0.118-0.04,0.118-0.09
	c0-0.052-0.031-0.081-0.113-0.111c-0.109-0.039-0.16-0.099-0.16-0.171c0-0.098,0.079-0.178,0.209-0.178
	c0.061,0,0.115,0.018,0.149,0.038l-0.027,0.08c-0.024-0.015-0.068-0.035-0.124-0.035c-0.065,0-0.101,0.038-0.101,0.083
	c0,0.05,0.036,0.073,0.115,0.103c0.105,0.04,0.159,0.093,0.159,0.183c0,0.106-0.083,0.181-0.226,0.181
	c-0.066,0-0.128-0.016-0.17-0.041L39.346,44.338z"/>
<path fill="#343434" d="M40.661,44.338c0.032,0.021,0.09,0.044,0.145,0.044c0.08,0,0.118-0.04,0.118-0.09
	c0-0.052-0.031-0.081-0.113-0.111c-0.109-0.039-0.16-0.099-0.16-0.171c0-0.098,0.079-0.178,0.209-0.178
	c0.062,0,0.115,0.018,0.149,0.038l-0.027,0.08c-0.024-0.015-0.068-0.035-0.124-0.035c-0.065,0-0.101,0.038-0.101,0.083
	c0,0.05,0.036,0.073,0.115,0.103c0.105,0.04,0.159,0.093,0.159,0.183c0,0.106-0.083,0.181-0.227,0.181
	c-0.066,0-0.128-0.016-0.17-0.041L40.661,44.338z"/>
<path fill="#343434" d="M41.677,44.285c0,0.063,0.001,0.118,0.005,0.165h-0.098l-0.006-0.099h-0.002
	c-0.029,0.049-0.093,0.113-0.2,0.113c-0.095,0-0.209-0.052-0.209-0.265v-0.354h0.11v0.335c0,0.115,0.035,0.193,0.135,0.193
	c0.074,0,0.125-0.051,0.145-0.1c0.006-0.016,0.01-0.036,0.01-0.056v-0.372h0.11V44.285z"/>
<path fill="#343434" d="M41.859,44.009c0-0.062-0.001-0.114-0.005-0.164h0.096l0.005,0.098h0.004c0.034-0.058,0.09-0.111,0.19-0.111
	c0.083,0,0.145,0.05,0.171,0.121h0.002c0.019-0.034,0.043-0.06,0.068-0.079c0.036-0.027,0.076-0.042,0.134-0.042
	c0.08,0,0.199,0.052,0.199,0.263v0.357h-0.107v-0.343c0-0.116-0.042-0.187-0.131-0.187c-0.063,0-0.111,0.046-0.13,0.1
	c-0.005,0.015-0.009,0.035-0.009,0.055v0.374h-0.108v-0.363c0-0.096-0.042-0.167-0.126-0.167c-0.069,0-0.119,0.055-0.136,0.11
	c-0.006,0.016-0.009,0.035-0.009,0.054v0.365h-0.108V44.009z"/>
<path fill="#343434" d="M42.902,44.009c0-0.062-0.001-0.114-0.005-0.164h0.096l0.005,0.098h0.004c0.034-0.058,0.09-0.111,0.19-0.111
	c0.083,0,0.145,0.05,0.171,0.121h0.002c0.019-0.034,0.043-0.06,0.068-0.079c0.036-0.027,0.076-0.042,0.134-0.042
	c0.08,0,0.199,0.052,0.199,0.263v0.357h-0.107v-0.343c0-0.116-0.042-0.187-0.131-0.187c-0.063,0-0.111,0.046-0.13,0.1
	c-0.005,0.015-0.009,0.035-0.009,0.055v0.374h-0.108v-0.363c0-0.096-0.042-0.167-0.126-0.167c-0.069,0-0.119,0.055-0.136,0.11
	c-0.006,0.016-0.009,0.035-0.009,0.054v0.365h-0.108V44.009z"/>
<path fill="#343434" d="M44.492,44.142c0,0.224-0.155,0.322-0.302,0.322c-0.164,0-0.29-0.12-0.29-0.312
	c0-0.203,0.133-0.322,0.3-0.322C44.374,43.831,44.492,43.957,44.492,44.142z M44.012,44.149c0,0.133,0.076,0.233,0.184,0.233
	c0.105,0,0.184-0.099,0.184-0.235c0-0.103-0.052-0.233-0.181-0.233C44.068,43.913,44.012,44.033,44.012,44.149z"/>
<path fill="#343434" d="M29.715,45.344c-0.002,0.044-0.005,0.093-0.005,0.167v0.352c0,0.139-0.028,0.224-0.086,0.277
	c-0.059,0.055-0.144,0.073-0.22,0.073c-0.073,0-0.153-0.018-0.201-0.05l0.028-0.084c0.04,0.025,0.103,0.047,0.177,0.047
	c0.113,0,0.195-0.059,0.195-0.211v-0.067H29.6c-0.034,0.056-0.099,0.101-0.193,0.101c-0.15,0-0.258-0.128-0.258-0.295
	c0-0.205,0.134-0.322,0.273-0.322c0.105,0,0.163,0.055,0.189,0.105h0.002l0.005-0.092H29.715z M29.602,45.583
	c0-0.019-0.001-0.035-0.006-0.05c-0.02-0.064-0.074-0.116-0.154-0.116c-0.105,0-0.18,0.089-0.18,0.229
	c0,0.119,0.06,0.218,0.179,0.218c0.067,0,0.129-0.042,0.153-0.113c0.006-0.019,0.009-0.04,0.009-0.059V45.583z"/>
<path fill="#343434" d="M29.885,45.533c0-0.071-0.001-0.133-0.005-0.189h0.096l0.004,0.119h0.005
	c0.028-0.081,0.094-0.133,0.168-0.133c0.012,0,0.021,0.001,0.031,0.004v0.104c-0.011-0.002-0.022-0.004-0.038-0.004
	c-0.078,0-0.133,0.059-0.147,0.141c-0.003,0.015-0.005,0.032-0.005,0.051v0.323h-0.109V45.533z"/>
<path fill="#343434" d="M30.623,45.95l-0.009-0.076H30.61c-0.034,0.048-0.099,0.09-0.185,0.09c-0.123,0-0.185-0.086-0.185-0.174
	c0-0.146,0.13-0.227,0.364-0.225v-0.012c0-0.05-0.014-0.14-0.138-0.14c-0.056,0-0.115,0.018-0.158,0.045l-0.025-0.073
	c0.05-0.032,0.123-0.054,0.199-0.054c0.185,0,0.23,0.126,0.23,0.248v0.226c0,0.053,0.002,0.104,0.01,0.145H30.623z M30.606,45.641
	c-0.12-0.002-0.257,0.019-0.257,0.136c0,0.071,0.048,0.105,0.104,0.105c0.079,0,0.129-0.05,0.146-0.101
	c0.004-0.011,0.006-0.024,0.006-0.035V45.641z"/>
<path fill="#343434" d="M30.951,45.667c0.003,0.149,0.098,0.21,0.208,0.21c0.079,0,0.126-0.014,0.168-0.031l0.019,0.079
	c-0.039,0.018-0.105,0.038-0.202,0.038c-0.186,0-0.298-0.123-0.298-0.305c0-0.183,0.108-0.327,0.284-0.327
	c0.198,0,0.25,0.174,0.25,0.285c0,0.022-0.002,0.04-0.004,0.051H30.951z M31.274,45.589c0.001-0.07-0.029-0.179-0.153-0.179
	c-0.111,0-0.16,0.103-0.169,0.179H31.274z"/>
<path fill="#343434" d="M31.948,45.928c-0.029,0.015-0.093,0.035-0.174,0.035c-0.183,0-0.302-0.124-0.302-0.309
	c0-0.186,0.127-0.322,0.325-0.322c0.065,0,0.123,0.016,0.153,0.031l-0.025,0.085c-0.026-0.015-0.068-0.029-0.128-0.029
	c-0.139,0-0.214,0.103-0.214,0.229c0,0.14,0.09,0.227,0.21,0.227c0.062,0,0.104-0.016,0.135-0.03L31.948,45.928z"/>
<path fill="#343434" d="M32.617,45.642c0,0.224-0.155,0.322-0.302,0.322c-0.164,0-0.29-0.12-0.29-0.312
	c0-0.203,0.133-0.322,0.3-0.322C32.499,45.331,32.617,45.457,32.617,45.642z M32.136,45.649c0,0.133,0.076,0.233,0.184,0.233
	c0.105,0,0.184-0.099,0.184-0.235c0-0.103-0.051-0.233-0.182-0.233C32.193,45.413,32.136,45.533,32.136,45.649z"/>
<path fill="#343434" d="M32.654,46.104c0.028-0.074,0.061-0.208,0.075-0.299l0.123-0.012c-0.029,0.106-0.084,0.245-0.119,0.304
	L32.654,46.104z"/>
<path fill="#343434" d="M33.845,45.509c0-0.062-0.001-0.114-0.005-0.164h0.096l0.005,0.098h0.004c0.034-0.058,0.09-0.111,0.19-0.111
	c0.083,0,0.145,0.05,0.171,0.121h0.003c0.019-0.034,0.042-0.06,0.067-0.079c0.036-0.027,0.076-0.042,0.134-0.042
	c0.08,0,0.199,0.052,0.199,0.263v0.357h-0.108v-0.343c0-0.116-0.043-0.187-0.131-0.187c-0.063,0-0.112,0.046-0.13,0.1
	c-0.005,0.015-0.009,0.035-0.009,0.055v0.374h-0.108v-0.363c0-0.096-0.042-0.167-0.126-0.167c-0.069,0-0.119,0.055-0.136,0.11
	c-0.006,0.016-0.009,0.035-0.009,0.054v0.365h-0.108V45.509z"/>
<path fill="#343434" d="M34.949,45.667c0.003,0.149,0.098,0.21,0.208,0.21c0.079,0,0.126-0.014,0.168-0.031l0.019,0.079
	c-0.039,0.018-0.105,0.038-0.202,0.038c-0.186,0-0.298-0.123-0.298-0.305c0-0.183,0.108-0.327,0.284-0.327
	c0.198,0,0.25,0.174,0.25,0.285c0,0.022-0.002,0.04-0.004,0.051H34.949z M35.272,45.589c0.001-0.07-0.029-0.179-0.153-0.179
	c-0.111,0-0.16,0.103-0.169,0.179H35.272z"/>
<path fill="#343434" d="M35.514,45.062h0.11v0.888h-0.11V45.062z"/>
<path fill="#343434" d="M37.193,45.062v0.732c0,0.054,0.001,0.115,0.005,0.156h-0.099l-0.005-0.105h-0.003
	c-0.034,0.068-0.108,0.119-0.206,0.119c-0.146,0-0.259-0.124-0.259-0.308c-0.001-0.201,0.124-0.325,0.271-0.325
	c0.093,0,0.155,0.044,0.183,0.093h0.002v-0.362H37.193z M37.083,45.591c0-0.014-0.001-0.032-0.005-0.046
	c-0.016-0.07-0.076-0.127-0.159-0.127c-0.114,0-0.181,0.1-0.181,0.234c0,0.123,0.06,0.224,0.179,0.224
	c0.074,0,0.141-0.049,0.161-0.132c0.004-0.015,0.005-0.03,0.005-0.047V45.591z"/>
<path fill="#343434" d="M37.498,45.175c0.001,0.037-0.026,0.067-0.07,0.067c-0.039,0-0.066-0.03-0.066-0.067
	c0-0.039,0.029-0.069,0.069-0.069C37.472,45.106,37.498,45.136,37.498,45.175z M37.375,45.95v-0.606h0.11v0.606H37.375z"/>
<path fill="#343434" d="M38.003,45.95l-0.009-0.076h-0.004c-0.034,0.048-0.099,0.09-0.185,0.09c-0.123,0-0.185-0.086-0.185-0.174
	c0-0.146,0.13-0.227,0.364-0.225v-0.012c0-0.05-0.014-0.14-0.138-0.14c-0.056,0-0.115,0.018-0.158,0.045l-0.025-0.073
	c0.05-0.032,0.123-0.054,0.199-0.054c0.185,0,0.23,0.126,0.23,0.248v0.226c0,0.053,0.002,0.104,0.01,0.145H38.003z M37.987,45.641
	c-0.12-0.002-0.257,0.019-0.257,0.136c0,0.071,0.048,0.105,0.104,0.105c0.079,0,0.129-0.05,0.146-0.101
	c0.004-0.011,0.006-0.024,0.006-0.035V45.641z"/>
<path fill="#343434" d="M38.27,45.509c0-0.062-0.001-0.114-0.005-0.164h0.096l0.005,0.098h0.004c0.034-0.058,0.09-0.111,0.19-0.111
	c0.083,0,0.145,0.05,0.171,0.121h0.003c0.019-0.034,0.042-0.06,0.067-0.079c0.036-0.027,0.076-0.042,0.134-0.042
	c0.08,0,0.199,0.052,0.199,0.263v0.357h-0.108v-0.343c0-0.116-0.043-0.187-0.131-0.187c-0.063,0-0.112,0.046-0.13,0.1
	c-0.005,0.015-0.009,0.035-0.009,0.055v0.374H38.65v-0.363c0-0.096-0.042-0.167-0.126-0.167c-0.069,0-0.119,0.055-0.136,0.11
	c-0.006,0.016-0.009,0.035-0.009,0.054v0.365H38.27V45.509z"/>
<path fill="#343434" d="M40.159,45.838c0.032,0.021,0.09,0.044,0.145,0.044c0.08,0,0.118-0.04,0.118-0.09
	c0-0.052-0.031-0.081-0.113-0.111c-0.109-0.039-0.16-0.099-0.16-0.171c0-0.098,0.079-0.178,0.209-0.178
	c0.061,0,0.115,0.018,0.149,0.038l-0.027,0.08c-0.024-0.015-0.068-0.035-0.124-0.035c-0.065,0-0.101,0.038-0.101,0.083
	c0,0.05,0.036,0.073,0.115,0.103c0.105,0.04,0.159,0.093,0.159,0.183c0,0.106-0.083,0.181-0.226,0.181
	c-0.066,0-0.128-0.016-0.17-0.041L40.159,45.838z"/>
<path fill="#343434" d="M41.101,45.928c-0.029,0.015-0.093,0.035-0.174,0.035c-0.183,0-0.302-0.124-0.302-0.309
	c0-0.186,0.128-0.322,0.325-0.322c0.065,0,0.123,0.016,0.153,0.031l-0.025,0.085c-0.026-0.015-0.068-0.029-0.128-0.029
	c-0.139,0-0.214,0.103-0.214,0.229c0,0.14,0.09,0.227,0.21,0.227c0.062,0,0.104-0.016,0.135-0.03L41.101,45.928z"/>
<path fill="#343434" d="M41.565,45.95l-0.009-0.076h-0.004c-0.034,0.048-0.099,0.09-0.185,0.09c-0.123,0-0.185-0.086-0.185-0.174
	c0-0.146,0.13-0.227,0.364-0.225v-0.012c0-0.05-0.014-0.14-0.138-0.14c-0.056,0-0.115,0.018-0.158,0.045l-0.025-0.073
	c0.05-0.032,0.123-0.054,0.199-0.054c0.185,0,0.23,0.126,0.23,0.248v0.226c0,0.053,0.002,0.104,0.01,0.145H41.565z M41.549,45.641
	c-0.12-0.002-0.257,0.019-0.257,0.136c0,0.071,0.048,0.105,0.104,0.105c0.079,0,0.129-0.05,0.146-0.101
	c0.004-0.011,0.006-0.024,0.006-0.035V45.641z"/>
<path fill="#343434" d="M41.893,45.667c0.003,0.149,0.098,0.21,0.208,0.21c0.079,0,0.126-0.014,0.168-0.031l0.019,0.079
	c-0.039,0.018-0.105,0.038-0.202,0.038c-0.186,0-0.298-0.123-0.298-0.305c0-0.183,0.108-0.327,0.284-0.327
	c0.198,0,0.25,0.174,0.25,0.285c0,0.022-0.002,0.04-0.004,0.051H41.893z M42.216,45.589c0.001-0.07-0.029-0.179-0.153-0.179
	c-0.111,0-0.16,0.103-0.169,0.179H42.216z"/>
<path fill="#343434" d="M42.501,45.344l0.119,0.34c0.02,0.055,0.036,0.105,0.049,0.155h0.004c0.014-0.05,0.031-0.1,0.051-0.155
	l0.117-0.34h0.115l-0.238,0.606h-0.105l-0.23-0.606H42.501z"/>
<path fill="#343434" d="M43.595,45.642c0,0.224-0.155,0.322-0.302,0.322c-0.164,0-0.29-0.12-0.29-0.312
	c0-0.203,0.133-0.322,0.3-0.322C43.477,45.331,43.595,45.457,43.595,45.642z M43.115,45.649c0,0.133,0.076,0.233,0.184,0.233
	c0.105,0,0.184-0.099,0.184-0.235c0-0.103-0.052-0.233-0.181-0.233C43.171,45.413,43.115,45.533,43.115,45.649z"/>
<path fill="#343434" d="M43.733,45.062h0.11v0.888h-0.11V45.062z"/>
<path fill="#343434" d="M44.364,45.95l-0.009-0.076h-0.004c-0.034,0.048-0.099,0.09-0.185,0.09c-0.123,0-0.185-0.086-0.185-0.174
	c0-0.146,0.13-0.227,0.364-0.225v-0.012c0-0.05-0.014-0.14-0.138-0.14c-0.056,0-0.115,0.018-0.158,0.045l-0.025-0.073
	c0.05-0.032,0.123-0.054,0.199-0.054c0.185,0,0.23,0.126,0.23,0.248v0.226c0,0.053,0.002,0.104,0.01,0.145H44.364z M44.347,45.641
	c-0.12-0.002-0.257,0.019-0.257,0.136c0,0.071,0.048,0.105,0.104,0.105c0.079,0,0.129-0.05,0.146-0.101
	c0.004-0.011,0.006-0.024,0.006-0.035V45.641z"/>
</svg>
