<?xml version="1.0" encoding="utf-8"?>
<!-- Generator: Adobe Illustrator 17.0.0, SVG Export Plug-In . SVG Version: 6.00 Build 0)  -->
<!DOCTYPE svg PUBLIC "-//W3C//DTD SVG 1.1//EN" "http://www.w3.org/Graphics/SVG/1.1/DTD/svg11.dtd">
<svg version="1.1" id="Calque_1" xmlns="http://www.w3.org/2000/svg" xmlns:xlink="http://www.w3.org/1999/xlink" x="0px" y="0px"
	 width="60px" height="60px" viewBox="0 0 60 60" enable-background="new 0 0 60 60" xml:space="preserve">
<g>
	<rect x="37.156" y="24.536" fill="#343434" width="2.007" height="2.006"/>
	<rect x="13.934" y="40.02" fill="#343434" width="5.876" height="5.876"/>
	<rect x="13.934" y="12.924" fill="#343434" width="5.876" height="5.877"/>
	<path fill="#343434" d="M23.682,9.054H10.063v13.619h13.619V9.054z M21.676,11.058v9.607h-9.608v-9.607H21.676z"/>
	<path fill="#343434" d="M46.835,26.471h-1.866v-1.935h-2.004v1.935h-1.936v1.936h-1.936v2.003H41.1v-1.933h1.866v5.736H41.1v-1.936
		h-3.944v2.006h3.873v1.862h-1.936v3.944H41.1v-1.936h1.866v3.869h3.87v1.865h-3.87v1.937H41.1v-1.937h-1.937v-1.933h-2.007v2.004
		h1.937v1.866h-3.799V40.09h1.933v-2.006h-3.869v-1.866h1.936v-5.877h-1.936v-1.863h1.936v-9.748h-1.936v-1.934h-1.937V14.93h3.873
		V9.054h-2.006v3.87h-1.866v-1.933h-1.933V9.054h-3.943v3.94h2.007v-1.935h1.865v1.935h1.933v1.865h-5.806v2.004h3.873v1.866h-1.936
		v1.936h-1.936v3.87h-5.806v1.935h-1.866v-1.935h-3.94v1.935h-1.866v-1.935h-2.004v2.006h1.936v5.735h-1.936v2.006h2.004v-1.936
		h1.866v1.936h5.876v-1.936h1.866v1.936h3.869v5.806h1.936v1.865h-1.936v3.94h1.936v1.866h-1.936v2.003h3.943v-1.936h1.863v1.936
		h7.812v-1.936h1.866v1.936h5.877v-2.003h-3.873v-1.866h3.873v-1.936h1.933v-7.813h-5.806v-1.862h1.937v-5.806h1.866v1.933h1.936
		v1.867h-1.936v2.006h2.003v-1.936h1.936v-3.94h-1.936v-1.865h1.936v-2.006h-3.939V26.471z M25.615,24.606h1.937v-3.87h1.865v1.936
		h1.933v1.864h-1.933v1.935h-3.802V24.606z M33.358,47.762v-1.866h1.866v1.866H33.358z M27.552,34.213v-3.803h1.865v3.803H27.552z
		 M31.351,34.284v3.8h-3.799v-1.866h1.936v-1.933H31.351z M27.481,28.478v1.863h-1.866v-1.863H27.481z M33.287,28.408h-1.936v1.933
		h-1.863v-3.798h3.799V28.408z M33.287,20.736v1.865h-1.866v-1.865H33.287z M27.552,42.023h5.735v1.865h-5.735V42.023z
		 M15.94,28.408v-1.865h1.866v1.865H15.94z M23.611,30.411v1.867h-1.865v-1.867H23.611z M21.676,28.478v1.863H19.81v-1.863H21.676z
		 M23.611,26.543v1.865h-1.865v-1.865H23.611z M19.739,32.278h-5.736v-1.867h5.736V32.278z"/>
	<rect x="41.029" y="12.924" fill="#343434" width="5.877" height="5.877"/>
	<path fill="#343434" d="M10.063,49.765h13.619V36.146H10.063V49.765z M12.067,47.762v-9.607h9.608v9.607H12.067z"/>
	<rect x="48.771" y="45.826" fill="#343434" width="2.003" height="2.003"/>
	<path fill="#343434" d="M37.156,9.054v13.619h13.619V9.054H37.156z M48.771,11.058v9.607h-9.608v-9.607H48.771z"/>
</g>
</svg>
