<?xml version="1.0" encoding="utf-8"?>
<!-- Generator: Adobe Illustrator 17.0.0, SVG Export Plug-In . SVG Version: 6.00 Build 0)  -->
<!DOCTYPE svg PUBLIC "-//W3C//DTD SVG 1.1//EN" "http://www.w3.org/Graphics/SVG/1.1/DTD/svg11.dtd">
<svg version="1.1" id="Calque_1" xmlns="http://www.w3.org/2000/svg" xmlns:xlink="http://www.w3.org/1999/xlink" x="0px" y="0px"
	 width="60px" height="60px" viewBox="0 0 60 60" enable-background="new 0 0 60 60" xml:space="preserve">
<polygon fill="#25A7E0" points="47.164,48.831 12.521,48.831 10.235,27.831 48.765,27.831 "/>
<polygon fill="#67C6E2" points="48.633,28 42.593,11 16.415,11 10.375,28 16.211,28 15.676,24.103 16.189,24.103 15.725,20.18 
	16.471,20.18 16.188,16.436 16.933,16.436 16.6,13.064 42.063,13.064 41.731,16.436 42.477,16.436 42.143,20.18 42.94,20.18 
	42.498,24.103 42.988,24.103 42.454,28 "/>
<g>
	<polygon fill="#FFFFFF" points="23.362,41.78 26.221,44.527 34.505,36.214 31.646,33.467 	"/>
	<polygon fill="#FFFFFF" points="22.37,45.583 26.219,44.526 23.362,41.781 	"/>
	<polygon fill="#FFFFFF" points="34.092,31.002 32.196,32.905 35.055,35.652 36.951,33.749 	"/>
</g>
<polygon fill="#FFFFFF" points="16.211,28 42.454,28 42.988,24.103 42.498,24.103 42.94,20.18 42.143,20.18 42.477,16.436 
	41.731,16.436 42.063,13.064 16.6,13.064 16.933,16.436 16.188,16.436 16.471,20.18 15.725,20.18 16.189,24.103 15.676,24.103 "/>
</svg>
