<?xml version="1.0" encoding="utf-8"?>
<!-- Generator: Adobe Illustrator 17.0.0, SVG Export Plug-In . SVG Version: 6.00 Build 0)  -->
<!DOCTYPE svg PUBLIC "-//W3C//DTD SVG 1.1//EN" "http://www.w3.org/Graphics/SVG/1.1/DTD/svg11.dtd">
<svg version="1.1" id="Calque_1" xmlns="http://www.w3.org/2000/svg" xmlns:xlink="http://www.w3.org/1999/xlink" x="0px" y="0px"
	 width="60px" height="60px" viewBox="0 0 60 60" enable-background="new 0 0 60 60" xml:space="preserve">
<path fill="#E9463A" d="M45.117,29.943c0-0.681-0.048-1.35-0.132-2.009c1.478-0.767,2.938-1.709,4.258-2.808
	c-0.215-0.96-0.573-1.878-0.921-2.796c-1.688,0.034-3.332,0.214-4.905,0.52c-0.636-1.244-1.431-2.387-2.362-3.401
	c0.721-1.455,1.262-2.959,1.709-4.602c-0.774-0.6-1.546-1.21-2.401-1.696c-1.26,0.934-2.421,1.978-3.483,3.101
	c-1.283-0.663-2.67-1.141-4.131-1.403c-0.282-1.5-0.712-3.048-1.297-4.499c-0.433-0.036-0.866-0.047-1.298-0.045h-0.001
	c-0.433-0.002-0.866,0.009-1.299,0.045c-0.585,1.451-1.014,2.999-1.296,4.498c-1.461,0.263-2.849,0.741-4.131,1.403
	c-1.062-1.122-2.223-2.166-3.483-3.1c-0.856,0.485-1.628,1.096-2.402,1.696c0.448,1.642,0.988,3.146,1.71,4.601
	c-0.931,1.014-1.727,2.158-2.362,3.402c-1.574-0.306-3.217-0.486-4.904-0.52c-0.348,0.918-0.706,1.836-0.921,2.796
	c1.32,1.099,2.78,2.041,4.258,2.807c-0.085,0.659-0.132,1.328-0.132,2.009c0,0.682,0.047,1.351,0.132,2.009
	c-1.478,0.767-2.938,1.71-4.258,2.808c0.216,0.96,0.573,1.877,0.921,2.795c1.687-0.034,3.331-0.213,4.905-0.519
	c0.635,1.243,1.432,2.387,2.362,3.4c-0.72,1.455-1.262,2.959-1.71,4.602c0.774,0.6,1.546,1.21,2.402,1.695
	c1.259-0.932,2.421-1.976,3.483-3.099c1.282,0.662,2.671,1.14,4.131,1.402c0.283,1.5,0.712,3.047,1.297,4.497
	c0.433,0.036,0.866,0.047,1.299,0.046h0.001c0.432,0.001,0.865-0.01,1.298-0.046c0.585-1.451,1.015-2.997,1.297-4.497
	c1.461-0.262,2.848-0.741,4.131-1.402c1.062,1.122,2.223,2.167,3.483,3.099c0.856-0.485,1.628-1.096,2.401-1.695
	c-0.447-1.643-0.988-3.146-1.709-4.602c0.93-1.013,1.726-2.157,2.362-3.4c1.573,0.306,3.217,0.485,4.905,0.519
	c0.348-0.918,0.705-1.836,0.921-2.795c-1.32-1.098-2.78-2.041-4.258-2.809C45.069,31.295,45.117,30.626,45.117,29.943z
	 M30.154,38.978c-4.87,0-8.819-4.046-8.819-9.035c0-4.99,3.949-9.035,8.819-9.035c4.871,0,8.82,4.046,8.82,9.035
	C38.974,34.932,35.025,38.978,30.154,38.978z"/>
</svg>
