<?xml version="1.0" encoding="utf-8"?>
<!-- Generator: Adobe Illustrator 17.0.0, SVG Export Plug-In . SVG Version: 6.00 Build 0)  -->
<!DOCTYPE svg PUBLIC "-//W3C//DTD SVG 1.1//EN" "http://www.w3.org/Graphics/SVG/1.1/DTD/svg11.dtd">
<svg version="1.1" id="Calque_1" xmlns="http://www.w3.org/2000/svg" xmlns:xlink="http://www.w3.org/1999/xlink" x="0px" y="0px"
	 width="60px" height="60px" viewBox="0 0 60 60" enable-background="new 0 0 60 60" xml:space="preserve">
<path fill="#343434" d="M47.019,12.631c0,0-10.869,10.107-33.78,10.107v12.426c1.737,0,3.393,0.058,4.987,0.155L21.193,50.9
	l9.538,0.085l-1.877-9.96h0.011l-0.846-4.444c13.077,2.664,18.999,8.157,18.999,8.157V12.631z"/>
<g>
	<path fill="#E9463A" d="M50.519,44.182c0,0.975-0.788,1.773-1.75,1.773c-0.963,0-1.75-0.798-1.75-1.773V13.167
		c0-0.975,0.788-1.773,1.75-1.773c0.963,0,1.75,0.798,1.75,1.773V44.182z"/>
</g>
<g>
	<path fill="#E9463A" d="M14.114,35.171c-0.481-0.004-0.875-1.603-0.875-3.554v-5.335c0-1.95,0.356-3.549,0.792-3.553
		c0.436-0.004,1.034-0.031,0.386-0.031s-1.923,0-2.834,0c-0.911,0-1.656,1.596-1.656,3.546v5.417c0,1.95,0.745,3.546,1.656,3.546
		c0.911,0,2.24,0,2.954,0C15.25,35.207,14.595,35.176,14.114,35.171z"/>
</g>
</svg>
