<?xml version="1.0" encoding="utf-8"?>
<!-- Generator: Adobe Illustrator 17.0.0, SVG Export Plug-In . SVG Version: 6.00 Build 0)  -->
<!DOCTYPE svg PUBLIC "-//W3C//DTD SVG 1.1//EN" "http://www.w3.org/Graphics/SVG/1.1/DTD/svg11.dtd">
<svg version="1.1" id="Calque_1" xmlns="http://www.w3.org/2000/svg" xmlns:xlink="http://www.w3.org/1999/xlink" x="0px" y="0px"
	 width="60px" height="60px" viewBox="0 0 60 60" enable-background="new 0 0 60 60" xml:space="preserve">
<g>
	<polygon fill="#E9463A" points="15.516,33.44 15.516,13.963 8.097,13.963 8.097,35.277 12.568,31.97 	"/>
	<polygon fill="#E9463A" points="19.495,35.422 22.309,31.947 22.309,13.963 15.788,13.963 15.788,33.574 	"/>
	<polygon fill="#E9463A" points="24.24,29.564 29.106,32.305 29.106,13.963 22.581,13.963 22.581,31.61 	"/>
	<polygon fill="#E9463A" points="39.761,24.918 42.695,26.907 42.695,13.963 36.172,13.963 36.172,31.076 	"/>
	<polygon fill="#E9463A" points="33.887,34.999 35.901,31.543 35.901,13.963 29.377,13.963 29.377,32.458 	"/>
	<polygon fill="#E9463A" points="34.744,37.688 29.377,34.667 29.377,46.037 35.901,46.037 35.901,35.748 	"/>
	<polygon fill="#E9463A" points="40.467,28.096 36.172,35.292 36.172,46.037 42.695,46.037 42.695,29.886 	"/>
	<polygon fill="#E9463A" points="42.968,13.963 42.968,26.813 49.223,18.466 50.213,18.779 42.968,29.794 42.968,46.037 
		51.903,46.037 51.903,13.963 	"/>
	<polygon fill="#E9463A" points="20.142,37.877 15.788,35.707 15.788,46.037 22.309,46.037 22.309,35.199 	"/>
	<polygon fill="#E9463A" points="24.82,32.099 22.581,34.863 22.581,46.037 29.106,46.037 29.106,34.514 	"/>
	<polygon fill="#E9463A" points="12.936,34.286 8.097,37.913 8.097,46.037 15.516,46.037 15.516,35.572 	"/>
</g>
</svg>
