<?xml version="1.0" encoding="utf-8"?>
<!-- Generator: Adobe Illustrator 17.0.0, SVG Export Plug-In . SVG Version: 6.00 Build 0)  -->
<!DOCTYPE svg PUBLIC "-//W3C//DTD SVG 1.1//EN" "http://www.w3.org/Graphics/SVG/1.1/DTD/svg11.dtd">
<svg version="1.1" id="Calque_1" xmlns="http://www.w3.org/2000/svg" xmlns:xlink="http://www.w3.org/1999/xlink" x="0px" y="0px"
	 width="60px" height="60px" viewBox="0 0 60 60" enable-background="new 0 0 60 60" xml:space="preserve">
<path fill="#8DC04E" d="M39.911,17.727c-0.501-5.409-5.048-9.644-10.587-9.644c-5.874,0-10.635,4.761-10.635,10.636
	c0,0.946,0.135,1.858,0.367,2.73c-2.821,1.263-4.789,4.09-4.789,7.381c0,4.468,3.622,8.089,8.089,8.089
	c2.254,0,4.291-0.923,5.757-2.41c1.871,1.813,4.417,2.934,7.228,2.934c5.74,0,10.393-4.654,10.393-10.394
	C45.734,22.952,43.356,19.419,39.911,17.727z"/>
<path fill="#343434" d="M31.89,36.842c-1.404-0.497-2.673-1.279-3.728-2.289c0.126,6.573-1.369,16.343-1.369,16.343
	s1.579,1.021,3.232,1.021c1.654,0,3.182-1.021,3.182-1.021s-0.926-6.001-1.158-8.971C31.929,40.391,31.895,38.406,31.89,36.842z"/>
</svg>
