<?xml version="1.0" encoding="utf-8"?>
<!-- Generator: Adobe Illustrator 17.0.0, SVG Export Plug-In . SVG Version: 6.00 Build 0)  -->
<!DOCTYPE svg PUBLIC "-//W3C//DTD SVG 1.1//EN" "http://www.w3.org/Graphics/SVG/1.1/DTD/svg11.dtd">
<svg version="1.1" id="Calque_1" xmlns="http://www.w3.org/2000/svg" xmlns:xlink="http://www.w3.org/1999/xlink" x="0px" y="0px"
	 width="60px" height="60px" viewBox="0 0 60 60" enable-background="new 0 0 60 60" xml:space="preserve">
<g opacity="0.7">
	<path fill="#343434" d="M31.035,25.583c-0.05-4.587-3.981-8.291-8.828-8.291c-4.836,0-8.76,3.688-8.827,8.261l-0.006-0.01
		c0,0.031,0.002,0.058,0.002,0.088c0,0.013-0.002,0.026-0.002,0.04c0,0.036,0.005,0.07,0.006,0.105
		c0.06,6.109,2.401,7.848,3.299,7.848c0.421,0,0.643-0.239,0.769-0.494c-0.512-0.672-0.937-1.44-1.221-2.297
		c-0.075,0.021-0.248,0.007-0.645-0.107c-0.953-0.274-2.077-5.179-0.408-5.643c0.309-0.083,0.56-0.022,0.768,0.126
		c-0.003,0.011-0.008,0.02-0.012,0.031l0.398,0.449c0,0,7.731-2.343,7.731-3.734c-0.005,1.59,3.031,3.973,3.965,3.917
		c0.768-0.047,0.684-0.473,0.63-0.624c0.127-0.019,0.265-0.016,0.42,0.03c1.682,0.511,0.685,5.386-0.261,5.633
		s-0.653-0.038-0.653-0.038l-0.008-0.059c-0.278,0.844-0.692,1.602-1.191,2.269c0.12,0.273,0.348,0.542,0.797,0.542
		c0.91,0,3.304-1.776,3.304-8.082L31.035,25.583z"/>
	<path fill="#E9463A" d="M29.073,25.278c-0.08-0.024-0.154-0.034-0.227-0.039c-0.067-0.004-0.132,0-0.193,0.009h0
		c0.054,0.152,0.138,0.578-0.63,0.624c-0.934,0.057-3.97-2.326-3.965-3.917c0,1.391-7.731,3.734-7.731,3.734l-0.398-0.449
		c0.003-0.011,0.008-0.02,0.012-0.031c0,0,0,0,0,0c-0.093-0.066-0.198-0.108-0.31-0.134c-0.023-0.005-0.045-0.011-0.068-0.014
		c-0.119-0.017-0.247-0.016-0.39,0.022c-1.669,0.464-0.546,5.368,0.408,5.643c0.396,0.114,0.57,0.128,0.645,0.107
		c0.139,0.418,0.313,0.814,0.513,1.189c0.016,0.03,0.034,0.058,0.05,0.088c0.197,0.36,0.416,0.703,0.658,1.02
		c1.171,1.536,2.851,2.516,4.738,2.516c1.906,0,3.602-1,4.774-2.564c0.237-0.317,0.451-0.657,0.645-1.014
		c0.014-0.026,0.03-0.05,0.044-0.077c0.196-0.372,0.366-0.764,0.503-1.177l0.008,0.059c0,0-0.293,0.286,0.653,0.038
		S30.755,25.788,29.073,25.278z M22.144,33.625c-1.757-0.039-3.446-1.376-3.002-2.005c0.35-0.496,1.014,0.769,3.002,0.769
		c2.085,0,2.653-1.265,3.002-0.769C25.591,32.249,23.998,33.586,22.144,33.625z"/>
	<path fill="#DD3B36" d="M26.088,35.14c-1.183,1.108-2.485,1.773-4.13,1.773c-1.638,0-3.039-0.66-4.22-1.761
		c-3.414,0.678-5.712,2.128-5.712,3.808c0,0.291-0.389,4.218-0.389,4.218c0.947,1.922,18.842,2.092,19.842,0.229
		c0,0,0-4.114,0-4.446C31.48,37.27,29.528,35.812,26.088,35.14z"/>
</g>
<path fill="#343434" d="M28.123,30.83c0.015,0.021,0.028,0.043,0.043,0.063c-0.008-0.022-0.017-0.043-0.025-0.065
	C28.137,30.829,28.128,30.829,28.123,30.83z"/>
<g>
	<path fill="#DD3B36" d="M42.421,36.409c-1.658,1.553-3.734,2.485-6.039,2.485c-2.296,0-4.384-0.926-6.04-2.468
		c-4.785,0.951-8.068,2.983-8.068,5.337c0,0.408-0.075,5.912-0.075,5.912c1.327,2.694,26.281,2.933,28.281,0.32c0,0,0-5.766,0-6.232
		C50.48,39.394,47.243,37.352,42.421,36.409z"/>
	<path fill="#343434" d="M46.637,21.276c0.411-0.149,1.055-5.906,0.874-5.64c-0.18,0.266-1.364,0.287-1.364,0.287
		c0.711-0.304,0.587-3.33,0.169-2.656c-0.45,0.724-1.833,0.855-1.833,0.855s0.286-0.026,0.545-0.683
		c0.289-0.732,0.015-1.962,0.015-1.962c-1.621,0.904-2.742,1.323-5.403,1.469c-1.025-0.363-2.117-0.565-3.254-0.565
		c-5.752,0-10.418,5.023-10.5,11.252c0.188-0.312,0.437-0.545,0.78-0.638c0.432-0.114,0.784-0.03,1.075,0.17
		c-0.005,0.014-0.011,0.028-0.015,0.042c0,0,0.777,1.016,0.815,1.133s1.11,0.504,1.332,0.233s0.022-2.557,1.423-3.727
		c1.534-1.281,8.751-1.475,11.162,0.183c1.643,1.13,1.086,3.418,1.385,3.816c0.295,0.392,0.929-1.184,1.076-1.33
		c0.001,0.002,0.001,0.004,0.002,0.006c0.061-0.056,0.128-0.1,0.197-0.142c0.028-0.017,0.057-0.034,0.086-0.051
		c0.261-0.135,0.572-0.174,0.945-0.067c0.313,0.092,0.555,0.294,0.745,0.567c0-0.01,0.001-0.02,0.001-0.031
		c0-0.876-0.099-1.724-0.271-2.543L46.637,21.276z"/>
	<path fill="#E9463A" d="M46.582,23.491c-0.006-0.005-0.011-0.012-0.017-0.017c-0.123-0.095-0.261-0.169-0.416-0.215
		c-0.171-0.049-0.324-0.06-0.47-0.052c-0.031,0.001-0.062,0.005-0.092,0.009c-0.137,0.018-0.267,0.051-0.383,0.11
		c-0.029,0.017-0.058,0.034-0.086,0.051c-0.068,0.043-0.136,0.087-0.197,0.142c-0.001-0.002-0.001-0.004-0.002-0.006
		c-0.147,0.146-0.781,1.722-1.076,1.33c-0.299-0.398,0.258-2.686-1.385-3.816c-2.411-1.658-9.628-1.465-11.162-0.183
		c-1.401,1.17-1.201,3.456-1.423,3.727s-1.294-0.116-1.332-0.233s-0.815-1.133-0.815-1.133c0.005-0.014,0.011-0.028,0.015-0.042
		c-0.001-0.001-0.003-0.001-0.004-0.002c-0.112-0.077-0.237-0.13-0.368-0.167c-0.063-0.017-0.128-0.032-0.196-0.038
		c-0.043-0.005-0.086-0.008-0.13-0.008c-0.12,0.001-0.243,0.01-0.377,0.045c-0.168,0.045-0.312,0.126-0.439,0.232
		c-0.011,0.009-0.019,0.021-0.03,0.03c-0.118,0.105-0.223,0.229-0.311,0.376v0c-1.096,1.824,0.21,6.731,1.351,7.05
		c0.556,0.155,0.799,0.174,0.903,0.146c1.31,3.837,4.552,6.557,8.352,6.557c3.809,0,7.056-2.733,8.361-6.584l0.011,0.081
		c0,0-0.411,0.39,0.916,0.052c1.151-0.293,2.351-5.323,1.111-7.108C46.803,23.696,46.699,23.585,46.582,23.491z M36.437,34.631
		c-2.463-0.053-4.83-1.874-4.208-2.732c0.49-0.675,1.421,1.048,4.208,1.048c2.923,0,3.718-1.724,4.208-1.048
		C41.268,32.757,39.035,34.578,36.437,34.631z"/>
</g>
</svg>
